<svg xmlns="http://www.w3.org/2000/svg" xmlns:xlink="http://www.w3.org/1999/xlink" viewBox="0 0 411.39 291.51"><defs><style>.cls-1,.cls-6{fill:#c1f4dc;}.cls-1,.cls-27{opacity:0.5;}.cls-2{fill:#f9e721;}.cls-16,.cls-3{opacity:0.2;}.cls-4{fill:#010144;}.cls-5{fill:#c4a0cc;}.cls-7{opacity:0.59;}.cls-18,.cls-8{fill:#0f2571;}.cls-9{fill:#529e76;}.cls-10{fill:#457762;}.cls-11{fill:#fff;opacity:0.3;}.cls-12{fill:#c4b665;}.cls-13{fill:#e2d78a;}.cls-14{fill:#47b281;}.cls-15{fill:#7ec49e;}.cls-17{fill:#a47fad;}.cls-18{opacity:0.22;}.cls-19{fill:#dce6f4;}.cls-20{fill:#cddcf4;}.cls-21{fill:#142d51;}.cls-22{fill:#1d2033;}.cls-23{fill:#23406d;}.cls-24{fill:#f2c2bb;}.cls-25{fill:#eaaca7;}.cls-26{fill:#16202e;}.cls-27{fill:url(#linear-gradient);}.cls-28{fill:url(#linear-gradient-2);}.cls-29{fill:url(#linear-gradient-3);}</style><linearGradient id="linear-gradient" x1="207.58" y1="98.81" x2="218.03" y2="93.22" gradientUnits="userSpaceOnUse"><stop offset="0.07" stop-color="#a3d9c6"/><stop offset="1" stop-color="#cb9ecf"/></linearGradient><linearGradient id="linear-gradient-2" x1="172.12" y1="97.87" x2="211.91" y2="97.87" xlink:href="#linear-gradient"/><linearGradient id="linear-gradient-3" x1="182.69" y1="105.75" x2="251.09" y2="105.75" xlink:href="#linear-gradient"/></defs><g id="Layer_2" data-name="Layer 2"><g id="OBJECTS"><ellipse class="cls-1" cx="202.74" cy="273.42" rx="188.42" ry="18.09"/><path class="cls-2" d="M177.64,133.62l-8.47,2,6.08-12.16c-6-21.52-18.14-44.19-41.34-63.55l-5.46,6L126.5,54.16c-14.2-10.39-32-19.61-54.14-26.89,0,0-6.83,50,7,96.74l9.44,5.19-6.38,4.13c13,35.71,39.5,67.26,92.4,69.76C174.83,203.09,185,171.35,177.64,133.62Z"/><g class="cls-3"><path class="cls-4" d="M76.66,34.42l1.79,2.95,4.94,8.2q3.8,6.32,7.58,12.62,4.82,8.06,9.61,16.11,5.52,9.3,11,18.61,6,10.16,12,20.36,6.17,10.55,12.26,21.14,6,10.43,11.94,20.91,5.63,10,11.15,20,4.92,8.94,9.69,18,1.07,2,2.11,4c.38.73,1.48.08,1.1-.65-3-5.84-6.15-11.65-9.3-17.43q-5.34-9.79-10.81-19.5-5.87-10.46-11.84-20.84-6.09-10.62-12.25-21.19-6-10.29-12-20.55-5.65-9.6-11.34-19.18-5-8.42-10-16.81-4-6.75-8.09-13.49c-1.88-3.14-3.76-6.26-5.65-9.39-.87-1.44-1.71-2.89-2.61-4.31l-.11-.18c-.42-.7-1.53-.06-1.1.64Z"/><path class="cls-4" d="M76,69.77l.79.33,2.15.9,3.18,1.34L85.94,74l4.23,1.77,4.29,1.8,4,1.68,3.38,1.42,2.42,1,1.14.48,0,0A.6.6,0,0,0,106,82a.66.66,0,0,0,.25-.5c0-.28,0-.55,0-.82l.1-2.22.16-3.28.19-4,.21-4.4c.07-1.47.13-2.95.2-4.43s.13-2.76.2-4.14c.05-1.16.11-2.32.16-3.48l.12-2.51c0-.4.05-.79.06-1.19v0a.64.64,0,1,0-1.27,0c0,.27,0,.54,0,.82,0,.74-.07,1.48-.11,2.22l-.15,3.28c-.07,1.33-.13,2.67-.19,4l-.21,4.39-.21,4.44c-.06,1.38-.13,2.75-.19,4.13-.06,1.16-.11,2.32-.17,3.48L105,80.29c0,.39,0,.79,0,1.19v0l.8-.62-.79-.33-2.15-.9-3.18-1.33L95.8,76.72,91.57,75l-4.28-1.8-4-1.68-3.37-1.41L77.5,69c-.38-.16-.76-.33-1.15-.48l0,0a.63.63,0,0,0-.78.45.65.65,0,0,0,.44.78Z"/><path class="cls-4" d="M83.87,110.86l1.21.3,3.28.83,4.86,1.22,5.91,1.49,6.5,1.64,6.53,1.65,6.12,1.54,5.15,1.3,3.72.93c.58.15,1.16.31,1.75.45l.08,0a.64.64,0,0,0,.78-.45c.09-.38.18-.76.26-1.15.24-1,.48-2.08.71-3.12l1.05-4.61q.63-2.82,1.28-5.63.69-3.09,1.4-6.17l1.41-6.23L137.19,89l1.11-4.89.81-3.55c.13-.55.26-1.11.38-1.67,0,0,0,0,0-.07a.64.64,0,0,0-.44-.78.65.65,0,0,0-.79.44c-.08.39-.17.77-.26,1.15-.23,1-.47,2.08-.7,3.12l-1.05,4.62c-.43,1.87-.85,3.75-1.28,5.63-.47,2-.93,4.11-1.4,6.17l-1.41,6.23q-.67,2.91-1.33,5.83l-1.11,4.89c-.27,1.18-.53,2.36-.8,3.54-.13.55-.28,1.11-.38,1.67,0,0,0,0,0,.07l.79-.44-1.21-.31-3.28-.82L120,118.64l-5.91-1.49-6.5-1.64L101,113.87l-6.12-1.54L89.76,111,86,110.09l-1.75-.44-.08,0a.64.64,0,0,0-.34,1.23Z"/><path class="cls-4" d="M109.4,155.43l1.16.23,3.17.62,4.67.92,5.69,1.11,6.24,1.22,6.32,1.24,5.87,1.15,5,1,3.57.69,1.69.34h.07a.65.65,0,0,0,.79-.44l.26-1c.23-.91.46-1.82.7-2.73l1-4c.42-1.65.85-3.3,1.27-4.95l1.38-5.4q.7-2.73,1.4-5.45l1.31-5.09c.36-1.43.73-2.86,1.1-4.29.26-1,.53-2.06.79-3.09.13-.5.26-1,.38-1.48,0,0,0,0,0-.06a.64.64,0,0,0-1.23-.34c-.08.34-.17.67-.25,1l-.7,2.73c-.35,1.35-.69,2.7-1,4q-.63,2.47-1.27,5l-1.38,5.4-1.4,5.45c-.43,1.7-.87,3.39-1.3,5.08l-1.11,4.3c-.26,1-.52,2.06-.79,3.09-.12.49-.28,1-.38,1.47,0,0,0,0,0,.07l.78-.45-1.16-.23-3.16-.62-4.67-.91-5.7-1.12-6.23-1.22-6.32-1.24L120,156.22l-5-1-3.57-.7c-.57-.11-1.13-.23-1.7-.33l-.07,0a.65.65,0,0,0-.78.45.63.63,0,0,0,.44.78Z"/></g><path class="cls-5" d="M112.83,175.11l-3.6,4.65-1.94-9a84.35,84.35,0,0,0-48.62-16l-.35,5.47-6-5.39c-11.87.53-25.12,3.18-39.88,8.71,0,0,17.53,29.24,44.55,48l7.17-1.25-1.62,4.87c21.92,13.33,49.22,18.76,78.15-2.27A104,104,0,0,0,112.83,175.11Z"/><g class="cls-3"><path class="cls-4" d="M17.73,165.5l2.18.8L26,168.53q4.66,1.71,9.32,3.45l11.87,4.42,13.67,5.15q7.45,2.82,14.9,5.68,7.7,3,15.38,6t15.13,6q7.17,2.87,14.31,5.81c4.24,1.76,8.48,3.54,12.69,5.38l2.82,1.23c.5.23.81-.58.31-.8q-6.1-2.7-12.27-5.26-6.94-2.91-13.93-5.71-7.5-3-15-6-7.69-3-15.4-6-7.5-2.9-15-5.75l-14.07-5.31-12.38-4.63-10-3.69-6.95-2.56c-1.06-.39-2.12-.8-3.19-1.17l-.14-.05a.43.43,0,0,0-.3.81Z"/><path class="cls-4" d="M32.29,184.42l.56-.16,1.51-.44,2.24-.63,2.72-.78,3-.85,3-.87,2.82-.8,2.37-.68,1.7-.49c.27-.07.54-.14.81-.23h0a.4.4,0,0,0,.24-.29.44.44,0,0,0-.08-.37l-.32-.45L52,176.15l-1.3-1.79-1.59-2.19-1.75-2.4-1.76-2.43L44,165.08l-1.38-1.9-1-1.38c-.16-.21-.31-.43-.47-.65l0,0a.43.43,0,0,0-.68.54l.33.45.88,1.22c.44.59.87,1.19,1.31,1.79l1.59,2.19,1.75,2.4L48,172.14l1.64,2.26c.47.63.93,1.27,1.39,1.9l1,1.38c.16.21.31.44.47.65l0,0,.17-.67-.56.16-1.51.43-2.24.64-2.72.78-3,.85-3,.86-2.81.81-2.38.68-1.7.48-.81.24h0a.43.43,0,0,0-.23.56.46.46,0,0,0,.57.23Z"/><path class="cls-4" d="M53.81,202.72l.77-.35,2.07-1,3.08-1.4,3.74-1.72,4.12-1.88,4.14-1.89,3.87-1.77,3.26-1.49,2.36-1.08c.37-.17.74-.33,1.11-.51l0,0a.43.43,0,0,0,.22-.57c-.11-.23-.23-.47-.34-.71-.32-.65-.63-1.3-1-1.94l-1.4-2.88c-.57-1.17-1.13-2.34-1.7-3.5l-1.87-3.85-1.89-3.88-1.76-3.63c-.5-1-1-2-1.48-3l-1.08-2.21-.5-1,0,0a.45.45,0,0,0-.57-.23.43.43,0,0,0-.22.57l.34.71,1,2,1.4,2.87c.56,1.17,1.13,2.34,1.7,3.51l1.87,3.84c.63,1.29,1.26,2.58,1.88,3.88l1.77,3.63,1.48,3c.36.74.72,1.47,1.07,2.21.17.35.32.7.51,1,0,0,0,0,0,0,.08-.18.15-.37.23-.56l-.77.35-2.07.95-3.08,1.41-3.75,1.71-4.11,1.88-4.14,1.89-3.87,1.77L57,200.32l-2.36,1.08c-.37.17-.74.33-1.11.51l-.05,0c-.5.23-.16,1,.34.79Z"/><path class="cls-4" d="M86.09,215.43l.71-.37,1.93-1,2.84-1.49L95,210.74l3.81-2,3.85-2,3.58-1.87,3-1.59,2.18-1.14c.34-.18.69-.35,1-.54l0,0a.44.44,0,0,0,.23-.57l-.29-.63-.78-1.74c-.39-.85-.78-1.71-1.16-2.56-.48-1-1-2.1-1.42-3.15l-1.56-3.42L106,186c-.49-1.07-1-2.15-1.46-3.22l-1.23-2.73c-.3-.66-.6-1.31-.89-2-.14-.31-.28-.62-.43-.93v0a.43.43,0,0,0-.8.34l.29.64c.26.57.53,1.15.79,1.73.38.85.77,1.71,1.16,2.56.47,1.05.94,2.1,1.42,3.15s1,2.28,1.55,3.43l1.57,3.46c.48,1.08,1,2.15,1.46,3.23l1.23,2.73c.3.65.59,1.31.89,2,.14.31.26.63.42.94l0,0c.07-.18.15-.37.22-.56l-.7.37-1.93,1-2.85,1.49-3.47,1.82c-1.27.66-2.54,1.32-3.8,2l-3.86,2L92,211.35l-3,1.58-2.17,1.14-1,.54,0,0a.43.43,0,1,0,.34.8Z"/></g><path class="cls-6" d="M237,268.74l2.92-4.13,2,7.64a72.46,72.46,0,0,0,42.33,11.92l.09-4.71,5.35,4.4c10.17-.89,21.44-3.66,33.9-9,0,0-16.14-24.44-40-39.53l-6.11,1.35,1.21-4.24c-19.31-10.62-42.94-14.25-67,4.88A89.36,89.36,0,0,0,237,268.74Z"/><g class="cls-7"><path class="cls-8" d="M319,273.42l-1.91-.6-5.29-1.69-8.13-2.61-10.35-3.35-11.92-3.91c-4.33-1.43-8.67-2.86-13-4.31q-6.72-2.25-13.43-4.54t-13.2-4.56q-6.27-2.19-12.5-4.45c-3.71-1.35-7.41-2.72-11.1-4.14l-2.46-.95c-.44-.17-.68.53-.23.7,3.55,1.39,7.13,2.73,10.72,4.05,4,1.49,8.1,2.94,12.17,4.38q6.56,2.31,13.13,4.57t13.44,4.56q6.54,2.21,13.1,4.37l12.28,4,10.79,3.51,8.69,2.79,6.05,1.93c.93.3,1.85.61,2.79.89l.12,0a.37.37,0,0,0,.23-.7Z"/><path class="cls-8" d="M305.75,257.73l-.47.16-1.28.43-1.9.63-2.3.77-2.53.84-2.55.86-2.39.79-2,.68-1.44.48c-.23.07-.46.14-.69.23h0a.34.34,0,0,0-.2.26.35.35,0,0,0,.09.31c.09.13.19.25.29.37l.81,1,1.18,1.49,1.45,1.83,1.59,2c.54.67,1.07,1.34,1.6,2l1.5,1.87,1.26,1.59.91,1.14.43.54,0,0a.38.38,0,0,0,.52,0,.39.39,0,0,0,0-.53l-.29-.37-.81-1-1.18-1.49c-.49-.6-1-1.21-1.45-1.82l-1.59-2-1.61-2L291.22,267,290,265.4l-.91-1.14c-.14-.18-.28-.37-.43-.54l0,0-.11.57.47-.16,1.28-.42,1.9-.64,2.3-.77,2.52-.84,2.56-.85,2.38-.8,2-.67,1.44-.48.69-.23h0a.37.37,0,0,0,.17-.49.39.39,0,0,0-.5-.18Z"/><path class="cls-8" d="M286.6,242.83l-.65.33-1.74.89-2.59,1.33L278.47,247,275,248.76l-3.48,1.78-3.26,1.66c-.91.47-1.82.94-2.74,1.4l-2,1-.93.47,0,0a.38.38,0,0,0-.18.5l.33.6.88,1.63,1.31,2.41,1.59,2.95,1.75,3.23,1.76,3.25,1.66,3.05,1.38,2.56,1,1.85.48.88,0,0a.37.37,0,1,0,.66-.32c-.1-.2-.21-.4-.32-.6-.3-.54-.59-1.09-.88-1.63l-1.31-2.41-1.6-2.95-1.74-3.23-1.77-3.25L266,260.61l-1.38-2.56c-.34-.62-.67-1.24-1-1.85-.15-.29-.3-.6-.47-.88l0,0-.17.49.64-.33,1.75-.89,2.59-1.32,3.14-1.61,3.46-1.77,3.48-1.78,3.26-1.67L284,245l2-1,.94-.48,0,0c.42-.22.1-.88-.32-.67Z"/><path class="cls-8" d="M258.42,233.14l-.59.35-1.62.94-2.38,1.38-2.91,1.69-3.19,1.85-3.23,1.88-3,1.74L239,244.44l-1.82,1.06-.87.5,0,0a.37.37,0,0,0-.17.49l.27.54.74,1.45,1.09,2.16,1.34,2.65L241,256.2l1.47,2.91,1.38,2.72,1.16,2.29.83,1.66c.14.26.26.52.4.78l0,0a.37.37,0,0,0,.66-.33l-.27-.53-.73-1.46-1.1-2.16-1.33-2.64L242,256.59l-1.48-2.91L239.14,251l-1.16-2.3-.84-1.65c-.13-.26-.25-.54-.4-.79,0,0,0,0,0,0l-.18.49.6-.34,1.62-.94,2.38-1.39,2.91-1.69c1.07-.61,2.13-1.23,3.19-1.85l3.23-1.87,3-1.74,2.54-1.48,1.82-1.06.87-.5,0,0a.37.37,0,0,0-.33-.67Z"/></g><path class="cls-9" d="M266.85,237.75l-.37-6.18,7.75,5.77a88.56,88.56,0,0,0,49.52-21l-3.51-4.56,8.47.11c9-8.64,17.67-19.91,25.5-34.5,0,0-34.11-11-68.46-7.1l-4.8,6-2.09-5c-26.56,4.64-51.89,19.26-60.2,55.91A109.36,109.36,0,0,0,266.85,237.75Z"/><g class="cls-3"><path class="cls-4" d="M348.68,179.49l-2.28.88-6.34,2.44-9.76,3.73-12.45,4.72q-7.17,2.72-14.36,5.39-7.85,2.94-15.71,5.83-8.13,3-16.29,6t-16.09,5.75q-7.67,2.69-15.34,5.31-6.87,2.32-13.76,4.54l-3.08,1c-.55.17-.24,1,.32.85,4.46-1.4,8.9-2.86,13.33-4.34q7.5-2.52,15-5.14,8-2.81,16-5.69,8.16-2.92,16.32-5.93,7.94-2.91,15.85-5.85,7.4-2.76,14.8-5.55l13-4.91,10.43-4,7.26-2.79c1.11-.43,2.23-.83,3.33-1.29l.15,0a.45.45,0,0,0-.32-.85Z"/><path class="cls-4" d="M324.07,174.62l-.33.51-.9,1.39-1.32,2.06c-.54.83-1.08,1.66-1.61,2.49l-1.77,2.74-1.78,2.77c-.56.86-1.12,1.72-1.67,2.58l-1.41,2.19-1,1.56-.48.74,0,0a.46.46,0,0,0,0,.41.45.45,0,0,0,.32.23l.57.13,1.54.35,2.27.52,2.78.63,3,.69,3.08.69,2.86.65,2.41.55,1.75.39.82.19h0a.46.46,0,0,0,.53-.37.48.48,0,0,0-.37-.53l-.56-.12-1.54-.35-2.27-.52-2.78-.63-3.05-.69-3.07-.69-2.87-.65-2.41-.55-1.74-.39-.82-.19h0l.33.64.33-.51.9-1.39,1.32-2,1.61-2.5,1.77-2.74,1.79-2.77,1.66-2.58,1.41-2.18,1-1.57.48-.74,0,0a.46.46,0,0,0-.22-.61.48.48,0,0,0-.6.22Z"/><path class="cls-4" d="M294.38,175.05l-.36.81c-.33.73-.66,1.46-1,2.19-.49,1.08-1,2.16-1.46,3.24-.59,1.32-1.19,2.63-1.78,4l-1.95,4.33c-.65,1.46-1.3,2.91-2,4.37L284.06,198c-.52,1.14-1,2.29-1.55,3.44l-1.11,2.48c-.18.39-.36.78-.53,1.17l0,0a.45.45,0,0,0,.21.6l.77.33,2.09.88,3.1,1.3,3.78,1.59,4.13,1.75,4.18,1.76L303,215l3.28,1.38,2.38,1,1.11.47,0,0a.48.48,0,0,0,.61-.21.47.47,0,0,0-.22-.61l-.77-.32-2.09-.88-3.09-1.31L300.5,213l-4.14-1.74-4.17-1.76-3.92-1.65L285,206.44l-2.38-1c-.37-.16-.74-.34-1.12-.47l-.05,0,.22.6.36-.81c.33-.73.65-1.46,1-2.18.49-1.09,1-2.17,1.46-3.25l1.77-3.94,1.95-4.34,2-4.36c.62-1.36,1.23-2.72,1.84-4.09l1.54-3.43c.38-.83.75-1.66,1.12-2.48.17-.39.36-.78.53-1.18l0-.05a.45.45,0,0,0-.82-.39Z"/><path class="cls-4" d="M260.07,187.37l-.3.78-.83,2.13-1.21,3.15-1.49,3.84c-.54,1.4-1.08,2.81-1.63,4.21L253,205.74l-1.53,4-1.29,3.35-.93,2.4c-.15.38-.3.76-.44,1.15l0,0a.47.47,0,0,0,.21.61l.67.3,1.82.83,2.69,1.22,3.3,1.5,3.61,1.64,3.63,1.65,3.39,1.54,2.87,1.31,2.06.93c.32.15.65.31,1,.45l0,0a.45.45,0,0,0,.39-.82l-.67-.3-1.82-.83-2.69-1.22-3.3-1.51-3.6-1.63-3.64-1.65-3.39-1.54-2.86-1.31-2.07-.93c-.32-.15-.64-.32-1-.45l0,0,.21.6.31-.78.82-2.13c.41-1.05.82-2.1,1.22-3.15l1.49-3.84,1.62-4.21,1.65-4.26,1.53-4c.43-1.12.87-2.23,1.3-3.35l.93-2.4c.15-.38.3-.76.44-1.15l0-.05a.45.45,0,1,0-.82-.38Z"/></g><path class="cls-10" d="M117.45,182.83v1.69a6.34,6.34,0,0,0,6.34,6.34H234.11a6.34,6.34,0,0,0,6.34-6.34v-7.59a6.34,6.34,0,0,0-1.42-4C228.39,176.61,187.28,188.57,117.45,182.83Z"/><path class="cls-9" d="M239,172.94a6.31,6.31,0,0,0-4.92-2.34H123.79a6.33,6.33,0,0,0-6.34,6.33v5.9C187.28,188.57,228.39,176.61,239,172.94Z"/><rect class="cls-11" x="130.95" y="170.6" width="3.37" height="20.26"/><rect class="cls-11" x="139.92" y="170.6" width="3.37" height="20.26"/><rect class="cls-11" x="214.79" y="170.6" width="3.37" height="20.26"/><rect class="cls-11" x="223.75" y="170.6" width="3.37" height="20.26"/><path class="cls-12" d="M106.45,243.6v1.69a6.34,6.34,0,0,0,6.34,6.34H223.11a6.34,6.34,0,0,0,6.34-6.34v-7.58a6.34,6.34,0,0,0-1.42-4C217.39,237.39,176.28,249.34,106.45,243.6Z"/><path class="cls-13" d="M228,233.72a6.32,6.32,0,0,0-4.92-2.35H112.79a6.34,6.34,0,0,0-6.34,6.34v5.89C176.28,249.34,217.39,237.39,228,233.72Z"/><rect class="cls-11" x="119.95" y="231.37" width="3.37" height="20.26"/><rect class="cls-11" x="128.92" y="231.37" width="3.37" height="20.26"/><rect class="cls-11" x="203.79" y="231.37" width="3.37" height="20.26"/><rect class="cls-11" x="212.75" y="231.37" width="3.37" height="20.26"/><path class="cls-14" d="M96.06,203.09v1.69c0,3.5,3.33,6.33,7.43,6.33H233c4.11,0,7.44-2.83,7.44-6.33v-7.59a5.77,5.77,0,0,0-1.67-4C226.29,196.87,178,208.83,96.06,203.09Z"/><path class="cls-15" d="M238.78,193.2a8,8,0,0,0-5.77-2.34H103.49c-4.1,0-7.43,2.83-7.43,6.33v5.9C178,208.83,226.29,196.87,238.78,193.2Z"/><g class="cls-3"><rect x="107.22" y="190.86" width="3.37" height="20.26"/><rect x="116.19" y="190.86" width="3.37" height="20.26"/><rect x="226.3" y="190.86" width="3.37" height="20.26"/><rect x="217.58" y="190.86" width="3.37" height="20.26"/><rect x="125.49" y="195.11" width="85.75" height="12"/></g><path class="cls-10" d="M96.06,263.86v1.69c0,3.5,3.33,6.34,7.43,6.34H233c4.11,0,7.44-2.84,7.44-6.34V258a5.75,5.75,0,0,0-1.67-4C226.29,257.64,178,269.6,96.06,263.86Z"/><path class="cls-9" d="M238.78,254a8,8,0,0,0-5.77-2.35H103.49c-4.1,0-7.43,2.84-7.43,6.34v5.89C178,269.6,226.29,257.64,238.78,254Z"/><rect class="cls-16" x="107.22" y="251.63" width="3.37" height="20.26"/><rect class="cls-16" x="116.19" y="251.63" width="3.37" height="20.26"/><rect class="cls-16" x="226.3" y="251.63" width="3.37" height="20.26"/><rect class="cls-16" x="217.58" y="251.63" width="3.37" height="20.26"/><rect class="cls-16" x="125.49" y="255.88" width="85.75" height="12"/><path class="cls-5" d="M117.45,223.34V225a6.33,6.33,0,0,0,6.34,6.33H234.11a6.33,6.33,0,0,0,6.34-6.33v-7.59a6.34,6.34,0,0,0-1.42-4C228.39,217.13,187.28,229.08,117.45,223.34Z"/><path class="cls-17" d="M239,213.46a6.32,6.32,0,0,0-4.92-2.35H123.79a6.34,6.34,0,0,0-6.34,6.34v5.89C187.28,229.08,228.39,217.13,239,213.46Z"/><rect class="cls-11" x="130.95" y="211.11" width="3.37" height="20.26"/><rect class="cls-11" x="139.92" y="211.11" width="3.37" height="20.26"/><rect class="cls-11" x="214.79" y="211.11" width="3.37" height="20.26"/><rect class="cls-11" x="223.75" y="211.11" width="3.37" height="20.26"/><rect class="cls-18" x="148.55" y="216.28" width="61.48" height="9.98"/><path class="cls-8" d="M295.42,64l-11.5-13.36a.46.46,0,0,0-.81.23l-6.78,59.47,12.52,5.08Z"/><polygon class="cls-19" points="292.02 63.85 295.23 64.27 283.15 51.19 281.44 51.19 292.02 63.85"/><polygon class="cls-20" points="281.44 51.19 278.12 79.5 290.52 93.61 294.02 65.75 281.44 51.19"/><polygon class="cls-20" points="258.52 125.81 252.99 123.32 258.52 74.78 264.94 75.86 258.52 125.81"/><polygon class="cls-19" points="258.52 74.78 292.42 63.45 295.23 64.27 263.06 75.84 258.52 74.78"/><path class="cls-8" d="M257.52,125l5.55-49.17a1.1,1.1,0,0,1,.74-.92l31.42-10.65-6.38,51.14-30.33,10.4A.76.76,0,0,1,257.52,125Z"/><path class="cls-21" d="M195.09,129.77s-4.21,11,5.58,12.89,63.5-5.8,73.29,2.42-20.64,82.6-20.64,82.6l-10.42-2s4.56-46.11,15.74-62c0,0-69.69,14-80.21,5.44s-12.38-28.72,1.66-44.31"/><path class="cls-22" d="M244.25,202.69s-1,4.48-2.77,6.41-4,3.7-2.22,6.13,6.23,3.2,11.86,8.63,10.05,5.52,10.18,4.19-6.79-6.44-8-10.52c-1.68-5.8-4.09-9.18-.38-14.57"/><path class="cls-22" d="M244,225.51s-1,4.48-2.76,6.41-4,3.7-2.23,6.13,6.24,3.2,11.87,8.63,10,5.52,10.18,4.19-6.8-6.44-8-10.52c-1.69-5.8-4.09-9.18-.38-14.57"/><path class="cls-23" d="M204.15,124s-4,11.47-.09,11.91,61.06-14.7,74.24-5.4c12.95,9.14-15.26,55.32-24.07,75.19a1.18,1.18,0,0,1-1.49.63l-8.28-3.15a1.24,1.24,0,0,1-.76-1.48c1-3.56,4.15-15.3,6.74-25.52,3.09-12.23,14.22-27.42,15.14-30.93,0,0-42.46,28.23-72.79,26.07s-23.07-30.47-16.47-42.25"/><path class="cls-24" d="M203.8,50.14c-3.63,5.7-4.48,17.07-2.91,23.64-3.31-1.84-8.72-7.12-12.27-8.42,4.69-8.08,4.82-17.92,4.82-27.27"/><path class="cls-25" d="M201.79,54.65a26.87,26.87,0,0,0-1.1,4.77s-7.68-4-8-13.12"/><path class="cls-24" d="M197.26,26.66a15.42,15.42,0,0,1,12.87-1.5c3.26,1.09,6.71,3.64,7.68,6.94a10.24,10.24,0,0,1,0,5.3c-.34,1.54-1.32,3.23-1.17,4.81A8.73,8.73,0,0,0,219.16,47c.35.4.75.87.64,1.39s-1.34,1.07-2,1.15a18.55,18.55,0,0,0-2.32,3.71l-2.11,4.5c-.26.57-.61,1.2-1.23,1.32a2,2,0,0,1-.9-.11,52.29,52.29,0,0,1-11.56-5,11.76,11.76,0,0,1-3-2.26c-2.26-2.56-2.19-6.36-2-9.77"/><path class="cls-26" d="M201.63,25.16A22.09,22.09,0,0,0,197,12.37a16.56,16.56,0,0,0-11.88-6.24,13.3,13.3,0,0,0-11.77,6c-3.17,5.15-1.76,12.35,2.51,16.65s10.79,5.85,16.78,5"/><path d="M206.12,30.16a17.75,17.75,0,0,0-3.73-10.3,13.35,13.35,0,0,0-9.56-5,10.71,10.71,0,0,0-9.47,4.8c-2.56,4.15-1.42,10,2,13.41s8.69,4.71,13.51,4"/><path class="cls-26" d="M216.72,30.46s-6.51,10-16.82,11.79l-6,7.06a1.3,1.3,0,0,1-1.93.08c-2.76-2.79-9.87-11.25-6-21.25,4.72-12.27,18.74-10.92,22.16-9.8C213.23,20,220.6,25.88,216.72,30.46Z"/><path class="cls-24" d="M201.17,45.66c1.13-3.56-.09-5.58-.74-6.3a2.62,2.62,0,0,0-1.77-.94,2.1,2.1,0,0,0-1.79,1.42,4,4,0,0,0,.53,3.88,5.63,5.63,0,0,0,3.77,1.94"/><path class="cls-25" d="M200.68,44.24a3.24,3.24,0,0,0-.39-3.28,1.34,1.34,0,0,0-.92-.49,1.1,1.1,0,0,0-.93.74,2.1,2.1,0,0,0,.27,2,2.94,2.94,0,0,0,2,1"/><path class="cls-27" d="M185.54,70.59s2.06-14,25.37,16c25.47,32.74,44.7,13.76,44.7,13.76l-.29,7.18s-13.85,32.7-48.48,9.86"/><path class="cls-28" d="M190.12,62.38c1.9,4.13,8.85,5.31,10.08,6.4,1.64,1.44,2.32,4.68,3.14,6.7,2.91,7.18,9,13.55,8.55,21.28-.23,3.83-2.1,7.38-2.53,11.19-.6,5.26,1.57,10.4,2.18,15.65a5.79,5.79,0,0,1-.22,2.9,5.55,5.55,0,0,1-1.87,2.13,25.25,25.25,0,0,1-13.77,4.66A69.58,69.58,0,0,1,181,132.21c-1.92-.29-3.93-.62-5.45-1.82-2.12-1.66-2.78-4.55-3.09-7.22-1.07-9.41.57-18.89,2.2-28.22,1.11-6.33,2.25-12.76,5.2-18.46,2-3.8,7-11.4,10.26-14.11"/><g class="cls-3"><path d="M199.82,68.57a7.72,7.72,0,0,1-1.57,3.21,5.34,5.34,0,0,1-3.28,2,5.23,5.23,0,0,1-4.19-1.42,8.07,8.07,0,0,1-2.21-3.94c-.5-2-.42-4.41,1.55-6,3,2.44,6,4.84,9.7,6.19"/></g><path class="cls-16" d="M183.27,85.15a43.81,43.81,0,0,0,1.32,34.59c8.68,18.65,21.31,10.42,21.31,10.42L193.13,97.33"/><path class="cls-24" d="M247.34,115.72a5,5,0,0,0,3.24-2.91c.65-1.36,1-2.85,1.53-4.25,1.46-3.6,3.47-3.45,7.49-8.74.33-.43,1,0,1,.52a9.38,9.38,0,0,1-1.45,4.41c-1,1.72-2.05,2.55-2.42,4.49-.13.7.72.8,1.35.46.47-.24.93-.42,1.15-.51,4.73-2.14,8.2-2,12.76-4.47.2-.11.49-.2.61,0a.42.42,0,0,1,0,.35c-1,5.12-5.24,9-9.84,11.45s-9.71,3.81-14.33,6.23"/><path class="cls-29" d="M184.55,80.7c1.41-4,3.17-6.62,5.74-7.12a8.32,8.32,0,0,1,7.13,2.53,24.84,24.84,0,0,1,4.34,6.51Q203,85,204.23,87.36a98.22,98.22,0,0,0,8.63,14.49,33.1,33.1,0,0,0,12.85,10.67c6.9,3,14.69,2.69,22.22,2a1.73,1.73,0,0,1,1.88,1.39l1.09,5.61a5.31,5.31,0,0,1,.08,2.44A4.93,4.93,0,0,1,249.4,126c-6.05,5.59-13.46,9.87-21.55,11.41s-16.86.14-23.6-4.59c-5-3.54-8.71-8.7-12.63-13.34a24.27,24.27,0,0,1-3-4.42c-5.53-10.54-7.85-24.93-4.06-34.4"/><path class="cls-4" d="M10.5,286.93A10.5,10.5,0,1,1,21,276.43,10.52,10.52,0,0,1,10.5,286.93Zm0-18a7.5,7.5,0,1,0,7.5,7.5A7.5,7.5,0,0,0,10.5,268.93Z"/><path class="cls-4" d="M51.62,37.67a20.3,20.3,0,0,1-4.78-4.33l2.34-1.88a17.31,17.31,0,0,0,4.08,3.7Z"/><path class="cls-4" d="M42.41,22.44c-.06-.64-.09-1.29-.09-1.92a20.59,20.59,0,0,1,2.38-9.61l2.65,1.4a17.63,17.63,0,0,0-2,8.21c0,.54,0,1.09.08,1.64Zm12-17.28L53,2.53A20.64,20.64,0,0,1,64.45.06l-.24,3A17.61,17.61,0,0,0,54.4,5.16Z"/><path class="cls-4" d="M77.33,10.72a17.54,17.54,0,0,0-3.75-4l1.84-2.37A20.79,20.79,0,0,1,79.82,9Z"/><rect class="cls-4" x="310.75" y="13.62" width="3" height="15.35" transform="translate(209.55 316.94) rotate(-74.75)"/><rect class="cls-4" x="340.41" y="236.92" width="3" height="43.13" transform="translate(-20.55 487.26) rotate(-69.35)"/><circle class="cls-4" cx="155.9" cy="43.15" r="7.07"/><circle class="cls-4" cx="67.11" cy="242.6" r="4"/><circle class="cls-4" cx="356.67" cy="224.17" r="4"/><circle class="cls-4" cx="324.93" cy="147.41" r="4"/><circle class="cls-4" cx="44.83" cy="125.72" r="4"/><rect class="cls-4" x="325.22" y="70.02" width="5.5" height="19" transform="translate(-4.3 138.54) rotate(-23.7)"/><path class="cls-4" d="M380.41,76.35l-1.8-2.4a20.32,20.32,0,0,1,5.72-3l.95,2.84A17.86,17.86,0,0,0,380.41,76.35Z"/><path class="cls-4" d="M409.52,98.93l-2.73-1.26a17.28,17.28,0,0,0,1.6-7.28,18.18,18.18,0,0,0-.2-2.65l3-.46a20.39,20.39,0,0,1-1.63,11.65ZM403.9,78.66a17.55,17.55,0,0,0-8.58-5.22l.77-2.9a20.53,20.53,0,0,1,10,6.12Z"/><path class="cls-4" d="M395.8,110.28l-.72-2.92a17.25,17.25,0,0,0,5.08-2.14l1.58,2.55A20.79,20.79,0,0,1,395.8,110.28Z"/><path class="cls-4" d="M267.82,16.49a8.22,8.22,0,0,1-5.82-14h0a8.22,8.22,0,1,1,5.82,14ZM263.17,3.63a6.58,6.58,0,1,0,9.29,0,6.58,6.58,0,0,0-9.29,0Z"/><rect class="cls-4" x="361.74" y="154.24" width="33.28" height="3" transform="translate(45.78 394.08) rotate(-58)"/></g></g></svg>