<svg width="123" height="124" viewBox="0 0 123 124" fill="none" xmlns="http://www.w3.org/2000/svg">
<path opacity="0.5" d="M116.606 121.67C116.606 120.598 110.961 118.663 79.3973 118.092C47.8334 117.521 2.2998 118.532 2.2998 119.604C2.2998 120.676 9.9288 123.312 41.4955 123.897C73.0622 124.482 116.606 122.753 116.606 121.67Z" fill="#BFF2DA"/>
<path d="M24.3848 61.904C24.3848 61.904 25.5501 63.3629 31.371 61.5504L30.3818 59.0251C30.3818 59.0251 26.3633 59.6544 24.3848 61.904Z" fill="url(#paint0_linear)"/>
<path d="M32.3911 102.645L39.2628 108.038L35.8451 101.476L34.2075 100.574L32.3911 102.645Z" fill="#44484B"/>
<path d="M42.197 94.532L34.2075 100.574L35.8451 101.476L43.4992 96.1552L42.197 94.532Z" fill="#44484B"/>
<path d="M32.3912 102.645L39.2629 108.038L38.8185 108.687L31.9133 103.274L32.3912 102.645Z" fill="#44484B"/>
<path d="M55.2642 84.5479L34.2076 100.574L35.8452 101.476C35.8452 101.476 62.1414 88.1117 63.3962 84.7707C64.6509 81.4296 44.0135 56.0321 44.0135 56.0321L31.5165 51.5356C31.5165 51.5356 28.7024 59.4456 28.6186 61.233C28.5348 63.0205 56.8207 82.4542 56.8207 82.4542C56.4768 82.5275 56.1408 82.6338 55.8175 82.7716C55.4514 82.9693 55.2642 84.5479 55.2642 84.5479Z" fill="#32507C"/>
<path d="M11.7285 116.366L18.7846 118.267L14.3805 113.991L12.5082 114.052L11.7285 116.366Z" fill="#44484B"/>
<path d="M16.9569 104.789L12.5081 114.052L14.3804 113.991L18.9103 105.519L16.9569 104.789Z" fill="#44484B"/>
<path d="M11.7285 116.366L18.7846 118.267L18.4967 118.988L11.4294 117.151L11.7285 116.366Z" fill="#44484B"/>
<path d="M44.0134 56.0321L28.1211 53.9412C28.1211 53.9412 25.0276 59.1588 26.1985 63.1791C26.6987 64.897 24.7621 86.9952 24.7621 86.9952C24.7621 86.9952 23.907 87.7608 23.8036 88.1256C23.7002 88.4903 23.689 90.2722 23.689 90.2722L12.511 114.052L14.3833 113.991C14.3833 113.991 31.2202 89.888 32.2989 86.4913C33.2406 83.5289 33.9225 75.0092 36.6192 66.6232C39.3582 63.2943 41.8314 59.7568 44.0162 56.0432" fill="#23406D"/>
<path opacity="0.2" d="M36.2502 67.7702C36.5684 68.0203 36.9377 68.1978 37.3322 68.2902C37.7267 68.3826 38.1367 68.3875 38.5334 68.3048C39.8719 68.0264 40.4504 64.1842 40.1374 62.1545C40.016 61.1884 39.8112 60.2345 39.5254 59.3035C39.5254 59.3035 38.905 61.361 38.2343 63.1123C37.5637 64.8635 36.4962 66.8848 36.2502 67.7702Z" fill="#212426"/>
<path d="M19.0165 32.5308C19.0165 32.5308 8.24366 36.4064 7.26559 37.5033C6.28751 38.6003 16.0599 54.487 16.0599 54.487L17.5661 53.3928L12.3963 40.0481C12.3963 40.0481 19.2344 37.1275 21.5567 36.3952L19.0165 32.5308Z" fill="#FFC5A7"/>
<path d="M12.6787 40.1732C12.6011 39.7316 12.4388 39.3091 12.2008 38.9286C12.1869 38.9038 12.165 38.8843 12.1387 38.8732C12.1124 38.8621 12.0831 38.86 12.0555 38.8674H12.0331C12.0085 38.8816 11.9892 38.9034 11.9782 38.9295C11.9671 38.9556 11.9648 38.9846 11.9717 39.0121C12.0499 39.4353 12.2176 39.8474 12.3014 40.265C12.3433 40.5295 12.7402 40.4265 12.6787 40.1732Z" fill="#EAA797"/>
<path d="M56.9603 9.27406C56.9603 9.27406 54.856 8.02395 55.3311 7.79565C55.8061 7.56734 57.0748 8.41931 57.0748 8.41931C57.0357 8.46943 56.5579 7.70377 56.5159 6.92976C56.488 6.31724 56.7171 4.7024 57.0748 4.7024C57.4325 4.7024 57.1531 6.51213 57.1531 6.51213C57.1531 6.51213 57.5583 4.46574 58.0557 4.7024C58.187 4.76644 57.8824 6.6764 57.8824 6.6764C57.8824 6.6764 58.419 4.7553 58.7208 4.91122C59.0226 5.06713 58.7208 6.77106 58.7208 6.77106C58.7208 6.77106 59.0478 5.44578 59.3607 5.44578C59.6737 5.44578 59.2965 6.95482 59.2965 6.95482C59.2965 6.95482 59.4222 7.84576 59.5759 8.51119C59.6933 9.04019 58.6118 10.1817 58.6118 10.1817L56.9603 9.27406Z" fill="#FFC5A7"/>
<path d="M58.598 10.1818C58.598 10.1818 54.9903 26.5362 52.5116 29.1868C50.8628 30.952 37.7007 34.4211 37.7007 34.4211C37.7007 34.4211 35.9094 31.7677 38.4301 28.2569C38.4301 28.2569 48.6552 25.4866 49.6612 25.0467C50.6672 24.6068 56.9688 9.27417 56.9688 9.27417L58.598 10.1818Z" fill="#FFC5A7"/>
<path d="M49.7618 24.9437C49.5582 25.1132 49.4031 25.3331 49.3118 25.5813C49.1849 25.8538 49.0721 26.1326 48.9737 26.4165C48.8843 26.6616 49.3007 26.7813 49.3677 26.5251C49.4435 26.254 49.5369 25.988 49.6472 25.7288C49.7666 25.5087 49.8496 25.2709 49.8931 25.0244C49.8972 25.0078 49.8959 24.9904 49.8895 24.9745C49.883 24.9587 49.8716 24.9453 49.857 24.9363C49.8424 24.9274 49.8253 24.9232 49.8082 24.9246C49.7911 24.9259 49.7748 24.9326 49.7618 24.9437Z" fill="#EAA797"/>
<path d="M25.2931 28.7217C25.2931 28.7217 25.9442 53.6849 25.3546 55.6422C25.3546 55.6422 23.3342 56.8255 23.7282 57.6078C24.1222 58.3902 25.6173 58.7716 25.6173 58.7716C25.6173 58.7716 24.0049 60.9266 24.3849 61.9039C24.3849 61.9039 33.998 56.8171 44.0135 56.032C44.0135 56.032 43.2282 52.3151 42.0573 52.3151C42.0573 52.3151 43.2366 49.968 42.4514 48.974C41.6661 47.9801 38.4273 29.3064 37.8376 28.1204C37.8376 28.1204 30.3344 28.5519 25.2931 28.7217Z" fill="url(#paint1_linear)"/>
<path d="M32.8689 18.1446C35.1659 18.3178 37.4747 18.2497 39.7574 17.9414C40.4405 17.883 41.1111 17.7235 41.747 17.4681C41.4027 17.1489 40.9793 16.9269 40.5203 16.8249C40.5901 16.9753 41.4257 15.6027 41.6381 15.0904C41.3659 15.012 41.0804 14.9911 40.7997 15.0291C41.0792 14.567 41.0093 13.9878 41.0792 13.4561L30.6054 14.2134C30.3743 14.2132 30.146 14.2646 29.9375 14.3637C29.5183 14.6059 29.4289 15.16 29.3786 15.6389C29.345 15.9897 28.5402 15.5442 28.4508 16.0788C28.2524 17.3706 30.7032 26.3803 32.1675 26.0072C33.4781 25.6676 33.207 20.695 32.8689 18.1446Z" fill="#35393A"/>
<path d="M35.0178 23.6658L34.0705 30.3868C31.8852 31.8764 30.3342 28.5604 30.3342 28.5604L31.6728 21.4885L35.0178 23.6658Z" fill="#FFC5A7"/>
<path d="M32.1116 23.7881C32.1116 23.7881 30.8121 28.769 34.2605 29.0224L34.7524 25.4029L32.1116 23.7881Z" fill="#EAA797"/>
<path d="M31.9719 22.2485C31.9879 22.384 31.9753 22.5214 31.9351 22.6519C31.8948 22.7823 31.8277 22.903 31.7381 23.0062C31.6484 23.1094 31.5382 23.1928 31.4144 23.2513C31.2906 23.3097 31.1559 23.3418 31.019 23.3455C30.7342 23.3576 30.4556 23.2609 30.24 23.0751C30.0244 22.8893 29.8882 22.6285 29.8593 22.3459C29.8434 22.2111 29.8557 22.0744 29.8954 21.9445C29.9352 21.8146 30.0015 21.6943 30.0903 21.5912C30.179 21.4882 30.2883 21.4045 30.4111 21.3456C30.5339 21.2867 30.6676 21.2538 30.8038 21.249C31.09 21.2346 31.3708 21.3304 31.5882 21.5164C31.8055 21.7024 31.9429 21.9645 31.9719 22.2485Z" fill="#FFC5A7"/>
<path d="M38.6983 16.6719C38.6983 16.6719 39.2321 26.695 37.8879 27.1934C36.3006 27.7836 33.6095 28.2235 32.9081 26.3581C31.6227 22.9614 30.8123 17.2009 30.8123 17.2009L38.6983 16.6719Z" fill="#FFC5A7"/>
<path d="M32.081 22.4937C32.489 22.4937 31.8547 18.6125 31.8854 17.8329C32.5645 18.2756 35.7753 18.2339 37.0273 17.8775C38.9443 17.3206 39.5004 16.4297 39.5842 15.8645C31.3153 15.1629 30.0829 16.5633 30.178 17.2761C30.2646 17.9192 31.5361 22.7777 32.081 22.4937Z" fill="#35393A"/>
<path d="M31.8853 17.8329C31.8853 17.8329 35.0682 19.8152 38.5557 18.2756C38.5557 18.2756 37.3569 18.1336 35.9261 17.0505L31.8853 17.8329Z" fill="#35393A"/>
<path d="M31.5163 22.5521C31.4211 22.3655 31.2627 22.2186 31.0691 22.1373C30.9071 22.0705 30.6556 22.0064 30.5466 22.1874C30.5357 22.2055 30.53 22.2262 30.53 22.2472C30.53 22.2683 30.5357 22.289 30.5466 22.3071C30.636 22.424 30.7701 22.4018 30.8987 22.4491C30.9771 22.4823 31.0476 22.5316 31.1055 22.5939C31.0277 22.6404 30.9546 22.6945 30.8875 22.7554C30.745 22.889 30.9434 23.0895 31.0971 23.0032C31.2508 22.9168 31.3346 22.8584 31.4576 22.7943C31.4972 22.7696 31.5255 22.7304 31.5365 22.6852C31.5475 22.6399 31.5402 22.5921 31.5163 22.5521Z" fill="#EAA797"/>
<path d="M37.8376 28.1203C38.0573 27.9455 38.3023 27.8047 38.5642 27.7027C38.8185 27.6443 39.2153 27.9171 39.2153 27.9171C39.2153 27.9171 47.5653 25.6702 48.697 25.3027C48.697 25.3027 48.0571 30.963 47.596 32.0572L38.1673 35.6377C38.1673 35.6377 35.5098 31.3278 37.8376 28.1203Z" fill="url(#paint2_linear)"/>
<path d="M25.2931 28.7217C25.2931 28.7217 24.5805 28.3458 24.2731 28.5268C24.0438 28.6728 23.8244 28.8337 23.6164 29.0085L11.3569 33.9671C11.3569 33.9671 13.5562 38.1045 16.2445 39.3824L25.8325 36.2808C25.8325 36.2808 28.0541 33.207 25.2931 28.7217Z" fill="url(#paint3_linear)"/>
<path d="M17.5662 53.4038C17.5662 53.4038 19.4274 54.3031 19.9052 54.4702C20.3831 54.6372 20.4054 56.2075 20.425 56.4191C20.4446 56.6307 19.841 56.7616 19.841 56.7616C19.841 56.7616 19.9807 57.2794 19.841 57.4771C19.7012 57.6748 18.7036 57.6358 18.6254 57.814C18.5471 57.9922 17.9659 58.0924 17.7283 58.0924C17.4908 58.0924 16.672 56.4581 16.4904 55.9848C16.306 55.4982 16.1666 54.9959 16.074 54.4841L17.5662 53.4038Z" fill="#FFC5A7"/>
<path d="M80.5264 47.0531C80.5264 47.0531 83.8574 51.7111 91.5619 50.2076C91.5619 50.216 87.6384 45.0708 80.5264 47.0531Z" fill="url(#paint4_linear)"/>
<path d="M91.6597 23.7048C91.6597 23.7048 92.1543 24.2004 92.0313 24.4844C91.9649 24.649 91.8524 24.7911 91.7072 24.8937C91.7072 24.8937 92.6405 25.8515 92.621 26.2162C92.6014 26.5809 91.3774 28.3545 89.7929 28.076C88.2084 27.7976 87.4763 26.2329 87.4511 24.735C87.426 23.2371 89.8013 21.9564 91.6597 23.7048Z" fill="#35393A"/>
<path d="M85.7214 15.0012C84.5002 15.1599 83.5752 15.5915 83.469 15.8643C83.1281 16.7274 83.3908 17.5738 83.1644 17.7465C82.926 17.9004 82.6661 18.0186 82.3932 18.0973C81.8886 18.2864 81.4068 18.5311 80.9568 18.8267C80.6899 18.9793 80.4689 19.2005 80.3168 19.4671C80.0765 19.9655 80.3168 20.5585 80.5963 21.0262C80.8758 21.494 81.6387 22.5826 80.3895 23.5738C81.1943 24.0638 82.3792 23.4791 82.5105 22.5492C82.5972 21.9255 81.7141 20.7311 81.7001 20.6003C81.6191 19.8819 83.4718 19.1775 84.3605 18.8239C85.2491 18.4704 85.917 17.8328 86.8756 17.688C87.2791 17.6038 87.6945 17.5915 88.1023 17.6518C88.4556 17.7316 88.7765 17.9156 89.0233 18.1798C89.27 18.4441 89.4311 18.7762 89.4856 19.133C89.4269 19.1135 89.603 19.1163 89.6645 19.1163C89.9076 19.1163 90.1507 18.9771 90.3826 19.0495C90.4726 19.087 90.5512 19.1474 90.6105 19.2245C90.6699 19.3017 90.7079 19.393 90.7208 19.4894C90.7435 19.6844 90.7284 19.882 90.6761 20.0713C90.4321 21.2395 90.0707 22.3802 89.5974 23.4763C89.5806 23.5125 89.5555 23.5543 89.5191 23.5487C89.4828 23.5432 89.5024 23.4652 89.5191 23.493C89.7939 23.7744 90.1593 23.9503 90.5512 23.99C90.9431 24.0297 91.3366 23.9307 91.6625 23.7102C92.3109 23.2647 92.6602 22.4991 92.8837 21.7613C93.0376 21.2758 93.126 20.7721 93.1464 20.2634C93.1827 18.54 92.0733 16.9223 90.5839 16.037C89.1283 15.1511 87.4133 14.7858 85.7214 15.0012Z" fill="#35393A"/>
<path d="M86.5067 23.159L85.5398 29.145C87.0125 30.9882 89.2118 28.5631 89.2118 28.5631L89.9411 22.179L86.5067 23.159Z" fill="#FFC5A7"/>
<path d="M88.4543 24.5957C88.4543 24.5957 88.2587 27.8504 85.7744 27.6973L86.2718 24.7266L88.4543 24.5957Z" fill="#EAA797"/>
<path d="M89.4799 22.7553C89.4298 22.8665 89.4034 22.9869 89.4026 23.1089C89.4018 23.2308 89.4265 23.3515 89.4751 23.4634C89.5238 23.5753 89.5953 23.6758 89.6851 23.7586C89.775 23.8414 89.8811 23.9046 89.9969 23.9442C90.2379 24.0264 90.5013 24.0147 90.7341 23.9114C90.9668 23.8081 91.1517 23.6209 91.2516 23.3873C91.3008 23.2764 91.3264 23.1565 91.3268 23.0352C91.3271 22.914 91.3022 22.7939 91.2536 22.6827C91.205 22.5715 91.1338 22.4716 91.0445 22.3892C90.9552 22.3068 90.8497 22.2437 90.7346 22.204C90.4943 22.1215 90.2314 22.1324 89.9988 22.2346C89.7661 22.3368 89.5808 22.5228 89.4799 22.7553Z" fill="#FFC5A7"/>
<path d="M87.5322 17.1201C86.8775 16.8666 86.1499 16.8749 85.5011 17.1431C84.8523 17.4113 84.3325 17.9187 84.0503 18.5596C82.9521 21.0654 81.8147 24.8519 84.3297 25.818C88.8652 27.5637 91.8022 18.76 91.8022 18.76L87.5322 17.1201Z" fill="#FFC5A7"/>
<path d="M87.1466 16.3431C87.1135 16.6585 87.1014 16.9756 87.1102 17.2926C87.1072 17.4809 87.1327 17.6686 87.1857 17.8494C87.3589 18.3728 87.9039 18.6847 88.4181 18.8879C88.9323 19.0912 89.4912 19.3111 89.7986 19.7705C90.0127 20.1402 90.1018 20.5687 90.0529 20.9928C90.0304 21.2149 90.0304 21.4388 90.0529 21.661C90.0625 21.7751 90.0996 21.8852 90.1608 21.9821C90.2221 22.079 90.3058 22.1598 90.405 22.2178C91.1455 21.8057 91.6038 21.0345 91.8944 20.2382C92.1437 19.6791 92.2177 19.0581 92.1068 18.4564C91.9331 17.9308 91.5977 17.4729 91.1483 17.1478C90.8059 16.866 90.4199 16.6413 90.0053 16.4824C89.0664 16.1121 88.133 16.2541 87.1466 16.3431Z" fill="#35393A"/>
<path d="M89.7874 23.1368C89.9194 23.0026 90.0944 22.9189 90.282 22.9001C90.4357 22.9001 90.6677 22.9001 90.7124 23.0811C90.7158 23.0995 90.7142 23.1185 90.7078 23.1361C90.7014 23.1537 90.6905 23.1693 90.676 23.1813C90.5671 23.2565 90.4609 23.2036 90.3379 23.212C90.2622 23.2185 90.1888 23.2413 90.1227 23.2788C90.1774 23.3399 90.226 23.4061 90.268 23.4765C90.3547 23.6268 90.1311 23.7549 90.0221 23.6324C89.9132 23.5099 89.8601 23.4458 89.7679 23.354C89.7439 23.3216 89.7327 23.2817 89.7363 23.2417C89.7399 23.2017 89.7581 23.1644 89.7874 23.1368Z" fill="#EAA797"/>
<path d="M94.1468 21.9951C94.3536 22.8303 94.9628 23.5514 95.3401 23.0893C95.7174 22.6271 95.7844 21.9756 95.8096 21.3937C95.845 20.6255 95.8384 19.8559 95.79 19.0884C95.7793 18.529 95.6735 17.9754 95.477 17.4513C95.2698 16.9839 94.9402 16.5806 94.5228 16.2837C94.1054 15.9869 93.6155 15.8074 93.1045 15.764C92.8682 15.7722 92.6324 15.7373 92.4087 15.661C92.1674 15.5122 91.96 15.315 91.7995 15.0819C91.1008 14.2968 89.6449 14.1019 88.5858 14.1993C87.5267 14.2968 86.1071 13.7594 85.7214 15.004C88.597 15.3965 91.643 18.2281 92.0063 19.5506C92.3444 20.784 92.1069 22.7468 91.6709 23.7074C91.8156 23.7122 91.9591 23.6796 92.0874 23.6127C92.2157 23.5459 92.3245 23.4471 92.4031 23.3259C92.7836 23.2708 93.1436 23.1196 93.4488 22.8866C93.7541 22.6537 93.9944 22.3468 94.1468 21.9951Z" fill="#F8E522"/>
<path d="M90.4917 22.1817C90.3651 22.3545 90.1982 22.4941 90.0054 22.5882C89.9038 22.6356 89.8049 22.6886 89.7092 22.7469C89.528 22.8724 89.3934 23.0538 89.3262 23.2632C89.2591 23.4726 89.263 23.6982 89.3375 23.9051C89.218 23.8383 89.1144 23.7464 89.0338 23.6359C88.9532 23.5253 88.8976 23.3987 88.8708 23.2648C88.8682 23.1686 88.8883 23.0733 88.9295 22.9863C89.1193 22.6844 89.3865 22.4383 89.7036 22.2736C89.9998 22.0731 90.3016 21.8031 90.324 21.4383C90.324 21.3687 90.6034 21.6137 90.623 21.6945C90.6422 21.8676 90.5953 22.0415 90.4917 22.1817Z" fill="#35393A"/>
<path d="M90.5195 27.8754C90.5195 27.8754 92.5986 27.7418 93.9847 28.7608C95.1388 29.596 101.983 47.0613 103.67 51.9114L102.446 53.387C102.446 53.387 93.6913 34.2067 92.6322 34.009C91.5731 33.8113 91.0868 36.576 91.0868 36.576C91.0868 36.576 86.0455 35.8494 90.5195 27.8754Z" fill="#FFC5A7"/>
<path d="M78.6344 117.31C78.6884 116.523 78.7015 115.734 78.6735 114.946C78.6065 114.269 78.0615 110.806 78.0615 110.806L79.4588 110.611C79.4588 110.611 79.8221 113.445 79.8528 113.71C79.8835 113.974 80.2357 114.202 80.3921 114.737C80.3893 114.737 80.1183 118.075 78.6344 117.31Z" fill="#FFC5A7"/>
<path d="M78.6345 117.309C78.6345 117.309 79.403 117.27 79.6824 116.875C80.0122 116.41 80.3894 114.737 80.3894 114.737L81.2837 115.232L79.8501 119.874L76.8879 121.127L78.3047 119.289L78.6345 117.309Z" fill="#44484B"/>
<path d="M111.984 71.6068C111.326 72.0469 110.692 72.5209 110.084 73.0268C109.589 73.4917 107.178 76.0449 107.178 76.0449L106.169 75.0676C106.169 75.0676 108.192 73.0435 108.382 72.8569C108.572 72.6704 108.538 72.2555 108.868 71.8017C108.868 71.8017 111.682 69.9697 111.984 71.6068Z" fill="#FFC5A7"/>
<path d="M111.984 71.6069C111.984 71.6069 111.481 71.0278 110.995 71.0501C110.436 71.0723 108.868 71.8018 108.868 71.8018L108.714 70.7967L113.272 69.0789L116.083 70.6436H113.756L111.984 71.6069Z" fill="#44484B"/>
<path d="M63.7902 10.6161C63.7902 10.6161 65.6569 9.50247 65.2405 9.30201C64.8242 9.10154 63.6952 9.85885 63.6952 9.85885C63.7287 9.90339 64.1535 9.22126 64.1842 8.53635C64.2094 7.99343 64.0082 6.57071 63.6952 6.57071C63.3822 6.57071 63.6253 8.17441 63.6253 8.17441C63.6253 8.17441 63.2676 6.36189 62.8261 6.57071C62.7087 6.62639 62.9798 8.31918 62.9798 8.31918C62.9798 8.31918 62.5019 6.61525 62.2253 6.75446C61.9486 6.89367 62.2253 8.40549 62.2253 8.40549C62.2253 8.40549 61.9458 7.22778 61.6664 7.22778C61.3869 7.22778 61.725 8.56698 61.725 8.56698C61.725 8.56698 61.6133 9.35491 61.4819 9.94516C61.3785 10.4157 62.337 11.4236 62.337 11.4236L63.7902 10.6161Z" fill="#FFC5A7"/>
<path d="M79.4953 30.0694C77.0753 29.4318 69.8263 28.0675 68.348 27.0931C65.302 25.0773 62.3398 11.4152 62.3398 11.4152L63.7902 10.6106C63.7902 10.6106 69.3205 24.4063 70.184 24.8546C70.7429 25.1497 81.6024 27.5525 84.3214 27.6388C84.3214 27.6388 83.905 32.6503 82.0495 34.4684C82.0495 34.4768 80.4818 30.3227 79.4953 30.0694Z" fill="#FFC5A7"/>
<path d="M71.4917 25.5813C71.2123 25.4004 70.9328 25.2305 70.6534 25.0579C70.4234 24.8746 70.1594 24.7383 69.8765 24.657C69.8346 24.657 69.7871 24.6932 69.815 24.7377C69.9963 24.9493 70.2175 25.1234 70.4661 25.25C70.7595 25.4393 71.0474 25.6342 71.3436 25.8069C71.5057 25.8932 71.6314 25.6788 71.4917 25.5813Z" fill="#EAA797"/>
<path d="M82.5888 41.0112C82.5888 41.0112 81.4207 47.71 80.9568 49.6228C80.9568 49.6228 87.6496 52.1285 90.8242 51.8947C90.8242 51.8947 90.0333 45.2683 89.5666 41.5096L82.5888 41.0112Z" fill="#FFC5A7"/>
<path d="M84.3213 27.6472C84.3213 27.6472 88.6388 27.7892 90.5195 27.8755C90.5195 27.8755 87.7976 36.178 84.5253 35.3929C82.0494 34.8026 84.3213 27.6472 84.3213 27.6472Z" fill="#FFC5A7"/>
<path d="M91.5619 50.216C91.5619 50.216 88.8652 48.7236 86.3865 48.1668C83.5752 47.5292 80.5181 47.0531 80.5181 47.0531L82.1948 39.2184C82.1948 39.2184 79.3639 36.2811 80.4817 34.4769C82.0606 31.9488 83.7289 27.5637 83.7289 27.5637L84.9082 27.6194C84.9082 27.6194 83.483 33.2073 85.5286 33.3855C87.5742 33.5637 90.1535 27.7781 90.1535 27.7781L91.1092 27.8254C90.2234 32.9372 89.7315 35.4569 91.3272 36.3228C91.3272 36.3117 91.8023 43.971 91.5619 50.216Z" fill="url(#paint5_linear)"/>
<path d="M90.8214 51.8947C90.8214 51.8947 92.4785 54.0775 92.9061 56.4998C93.3336 58.922 89.7036 83.1474 89.7036 83.1474C90.1475 82.9625 90.6008 82.8008 91.0617 82.6629C91.7659 82.4708 93.4231 82.5154 93.4231 82.5154L106.971 73.8259L108.03 75.4602C108.03 75.4602 93.4203 88.2035 88.6137 89.9297C83.8072 91.6559 81.552 58.5239 80.9568 49.6228L90.8214 51.8947Z" fill="#32507C"/>
<path d="M80.9566 49.6228C80.9566 49.6228 71.8885 76.3317 71.2262 79.6282C70.5639 82.9247 77.8464 113.008 77.8464 113.008L79.9059 112.755L76.9186 83.2421C76.9186 83.2421 77.198 80.5637 76.0802 80.1794C76.0802 80.1794 84.2094 68.057 87.6579 61.9011C91.5618 54.8961 80.9566 49.6228 80.9566 49.6228Z" fill="#32507C"/>
<path opacity="0.1" d="M82.9575 59.8604C82.9575 59.8604 79.9479 65.9856 80.2161 68.0738C80.4844 70.1619 82.7452 69.9837 82.7452 69.9837L82.9575 59.8604Z" fill="#212426"/>
<path d="M106.104 53.0613C106.236 52.7395 106.395 52.4293 106.58 52.1341C106.653 52.0196 106.748 51.9204 106.859 51.8418C106.975 51.7817 107.101 51.7421 107.231 51.7249L108.608 51.4631C108.627 51.4811 108.642 51.5027 108.653 51.5266C108.663 51.5505 108.668 51.5763 108.668 51.6023C108.668 51.6284 108.663 51.6542 108.653 51.6781C108.642 51.702 108.627 51.7236 108.608 51.7416C108.402 51.9476 107.186 52.1508 106.932 52.2984C106.831 52.368 106.308 52.8775 106.104 53.0613Z" fill="#EAA797"/>
<path d="M105.981 53.3871C106.152 53.0842 106.348 52.7963 106.568 52.5268C106.655 52.4213 106.763 52.3342 106.884 52.2706C107.007 52.2253 107.136 52.2017 107.267 52.201L108.664 52.1091C108.681 52.1294 108.693 52.1528 108.7 52.178C108.708 52.2031 108.71 52.2294 108.707 52.2554C108.704 52.2814 108.695 52.3065 108.682 52.3292C108.669 52.3519 108.652 52.3717 108.631 52.3876C108.399 52.5657 107.169 52.6214 106.906 52.7467C106.786 52.7913 106.205 53.2312 105.981 53.3871Z" fill="#EAA797"/>
<path d="M102.446 53.3871C102.977 54.4117 104.598 53.866 105.126 53.8576C105.557 53.8576 105.965 53.6739 106.395 53.6572C106.737 53.6649 107.077 53.7202 107.404 53.8214C107.477 53.8469 107.556 53.8509 107.631 53.8332C107.706 53.8154 107.775 53.7766 107.829 53.7212C107.963 53.5542 106.898 52.9472 106.258 53.0085C106.591 52.3402 106.753 51.8029 107.502 51.6164C108.251 51.4298 108.524 51.2405 108.544 50.9899C108.293 50.7978 107.409 51.0484 106.909 51.3129C106.409 51.5774 106.512 51.5774 106.009 51.8363C105.506 52.0952 104.224 52.0563 103.67 51.9254C102.578 51.9115 101.949 52.4572 102.446 53.3871Z" fill="#FFC5A7"/>
<path d="M62.1302 1.21116C62.1079 0.835288 61.9821 -0.278392 61.3143 0.0640644C60.7358 0.342485 60.8783 1.16104 60.8867 1.70396C60.849 2.38859 61.0215 3.06841 61.3813 3.6529C61.4004 3.6834 61.427 3.70855 61.4585 3.72599C61.49 3.74343 61.5255 3.75258 61.5616 3.75258C61.5976 3.75258 61.6331 3.74343 61.6646 3.72599C61.6962 3.70855 61.7227 3.6834 61.7418 3.6529C62.1973 2.89003 62.1778 2.07147 62.1302 1.21116Z" fill="#529C76"/>
<path d="M67.5542 5.73834C67.8336 5.50168 68.672 4.74716 68.0069 4.40471C67.4312 4.10958 66.8583 4.69705 66.4252 5.0228C65.8481 5.39451 65.3972 5.93115 65.1313 6.56246C65.1173 6.59589 65.1122 6.63233 65.1164 6.6683C65.1206 6.70427 65.134 6.73856 65.1553 6.7679C65.1766 6.79723 65.2052 6.82063 65.2381 6.83584C65.2711 6.85106 65.3075 6.85759 65.3437 6.8548C66.2296 6.77685 66.8807 6.28126 67.5542 5.73834Z" fill="#529C76"/>
<path d="M53.9507 3.06254C53.6908 2.78412 52.8777 2.02682 52.6904 2.63656C52.5311 3.16555 53.1515 3.69455 53.5288 4.09826C53.9503 4.62432 54.4982 5.03606 55.1216 5.29547C55.15 5.30942 55.1819 5.31463 55.2133 5.31044C55.2447 5.30624 55.2741 5.29284 55.2977 5.27192C55.3214 5.25101 55.3383 5.22355 55.3463 5.19303C55.3542 5.16251 55.3529 5.13032 55.3424 5.10057C55.1049 4.29037 54.5516 3.6862 53.9507 3.06254Z" fill="#529C76"/>
<path d="M65.0394 3.02917C64.7249 3.23129 64.4511 3.48999 64.2317 3.79205C64.2085 3.83438 64.1981 3.88256 64.202 3.93067C64.2058 3.97878 64.2236 4.02473 64.2533 4.06287C64.283 4.10102 64.3232 4.1297 64.369 4.14539C64.4148 4.16108 64.4642 4.1631 64.5112 4.15121C64.8609 4.01825 65.1822 3.82084 65.4585 3.56931C65.4982 3.54346 65.5321 3.50969 65.5581 3.47015C65.5841 3.4306 65.6016 3.38613 65.6094 3.33953C65.6173 3.29292 65.6154 3.2452 65.6039 3.19936C65.5924 3.15352 65.5714 3.11056 65.5424 3.07317C65.5134 3.03578 65.4769 3.00478 65.4353 2.98212C65.3937 2.95946 65.3478 2.94563 65.3005 2.9415C65.2533 2.93736 65.2057 2.94302 65.1607 2.95811C65.1158 2.9732 65.0745 2.9974 65.0394 3.02917Z" fill="#529C76"/>
<path d="M58.1621 2.17454C58.234 2.53984 58.3743 2.88838 58.5757 3.20191C58.6065 3.23924 58.6476 3.26678 58.6939 3.28114C58.7402 3.2955 58.7897 3.29606 58.8364 3.28274C58.883 3.26943 58.9247 3.24282 58.9563 3.2062C58.988 3.16958 59.0082 3.12454 59.0144 3.07662C59.0188 2.70379 58.9524 2.33351 58.8188 1.98521C58.8104 1.93795 58.792 1.89299 58.765 1.85325C58.738 1.81351 58.7029 1.77987 58.6619 1.75452C58.621 1.72917 58.5752 1.71268 58.5275 1.7061C58.4798 1.69953 58.4312 1.70303 58.3849 1.71638C58.3386 1.72972 58.2957 1.75261 58.2588 1.78356C58.222 1.81451 58.1921 1.85283 58.1711 1.89603C58.1501 1.93923 58.1384 1.98635 58.1369 2.03433C58.1353 2.08231 58.1439 2.13008 58.1621 2.17454Z" fill="#529C76"/>
<path d="M12.5949 73.4779C11.968 73.4785 11.355 73.2938 10.8335 72.9472C10.312 72.6006 9.9054 72.1077 9.66512 71.5308C9.42484 70.9539 9.36169 70.319 9.48365 69.7064C9.60561 69.0937 9.9072 68.5309 10.3503 68.0891C10.7934 67.6472 11.358 67.3463 11.9728 67.2242C12.5876 67.1022 13.2249 67.1645 13.8041 67.4034C14.3833 67.6423 14.8784 68.047 15.2268 68.5662C15.5751 69.0855 15.761 69.696 15.761 70.3206C15.7596 71.1571 15.4256 71.9588 14.8322 72.5506C14.2388 73.1423 13.4344 73.4757 12.5949 73.4779ZM12.5949 68.0682C12.1469 68.0676 11.7089 68.1995 11.3362 68.4471C10.9636 68.6947 10.673 69.0469 10.5014 69.4591C10.3297 69.8713 10.2846 70.325 10.3719 70.7627C10.4591 71.2004 10.6748 71.6025 10.9915 71.9181C11.3082 72.2336 11.7118 72.4485 12.1512 72.5354C12.5905 72.6223 13.0459 72.5774 13.4596 72.4064C13.8733 72.2354 14.2268 71.9459 14.4753 71.5746C14.7238 71.2033 14.8562 70.7669 14.8556 70.3206C14.8549 69.7235 14.6164 69.151 14.1926 68.7287C13.7688 68.3065 13.1942 68.0689 12.5949 68.0682Z" fill="#010144"/>
<path d="M3.5882 39.4187C3.04143 39.063 2.55473 38.6232 2.14624 38.1157L2.85045 37.5588C3.19852 37.9936 3.61465 38.3697 4.08283 38.6725L3.5882 39.4187Z" fill="#010144"/>
<path d="M0.810427 34.8388C0.791427 34.6473 0.7821 34.4549 0.782482 34.2625C0.783189 33.2554 1.02966 32.2636 1.50067 31.3725L2.2999 31.7929C1.8947 32.5537 1.68086 33.4012 1.67672 34.2625C1.67672 34.424 1.67672 34.591 1.69908 34.7553L0.810427 34.8388ZM4.42651 29.6463L3.99057 28.8556C5.05035 28.2801 6.25543 28.0247 7.45855 28.1205L7.38589 29.0198C6.35933 28.9383 5.33112 29.1559 4.42651 29.6463Z" fill="#010144"/>
<path d="M11.3457 31.3167C11.0349 30.8552 10.6519 30.4463 10.2112 30.1056L10.7701 29.3928C11.284 29.7935 11.7311 30.2728 12.0947 30.8128L11.3457 31.3167Z" fill="#010144"/>
<path d="M4.70001 5.91379L4.4646 6.77979L8.90987 7.97927L9.14528 7.11328L4.70001 5.91379Z" fill="#010144"/>
<path d="M100.878 94.796L100.558 95.6401L112.736 100.213L113.056 99.3686L100.878 94.796Z" fill="#010144"/>
<path d="M50.7509 13.623C51.9284 13.623 52.8831 12.6719 52.8831 11.4986C52.8831 10.3254 51.9284 9.37427 50.7509 9.37427C49.5733 9.37427 48.6187 10.3254 48.6187 11.4986C48.6187 12.6719 49.5733 13.623 50.7509 13.623Z" fill="#010144"/>
<path d="M7.55366 96.4475C8.22039 96.4475 8.76089 95.909 8.76089 95.2448C8.76089 94.5805 8.22039 94.042 7.55366 94.042C6.88693 94.042 6.34644 94.5805 6.34644 95.2448C6.34644 95.909 6.88693 96.4475 7.55366 96.4475Z" fill="#010144"/>
<path d="M117.037 84.5088C117.703 84.5088 118.244 83.9703 118.244 83.306C118.244 82.6418 117.703 82.1033 117.037 82.1033C116.37 82.1033 115.829 82.6418 115.829 83.306C115.829 83.9703 116.37 84.5088 117.037 84.5088Z" fill="#010144"/>
<path d="M105.372 61.5086C106.039 61.5086 106.579 60.9701 106.579 60.3058C106.579 59.6415 106.039 59.103 105.372 59.103C104.706 59.103 104.165 59.6415 104.165 60.3058C104.165 60.9701 104.706 61.5086 105.372 61.5086Z" fill="#010144"/>
<path d="M1.20722 106.763C1.87396 106.763 2.41445 106.224 2.41445 105.56C2.41445 104.896 1.87396 104.357 1.20722 104.357C0.540493 104.357 0 104.896 0 105.56C0 106.224 0.540493 106.763 1.20722 106.763Z" fill="#010144"/>
<path d="M110.417 38.9488L108.897 39.6135L111.201 44.8423L112.72 44.1776L110.417 38.9488Z" fill="#010144"/>
<path d="M101.594 12.8073L101.052 12.0862C101.575 11.6964 102.157 11.3919 102.776 11.1841L103.056 12.0388C102.531 12.2164 102.037 12.4758 101.594 12.8073Z" fill="#010144"/>
<path d="M110.383 19.6063L109.545 19.2277C109.864 18.542 110.029 17.7951 110.028 17.0393C110.027 16.7718 110.007 16.5048 109.967 16.2402L110.861 16.1038C110.912 16.4131 110.939 16.7259 110.942 17.0393C110.946 17.9253 110.755 18.8014 110.383 19.6063ZM108.69 13.5145C107.999 12.7505 107.1 12.2046 106.102 11.9442L106.331 11.0728C107.499 11.377 108.552 12.0159 109.36 12.9103L108.69 13.5145Z" fill="#010144"/>
<path d="M106.236 23.017L106.021 22.14C106.562 22.0073 107.079 21.7902 107.552 21.4968L108.03 22.2736C107.475 22.6136 106.869 22.8645 106.236 23.017Z" fill="#010144"/>
<path d="M61.2946 53.3453C60.8043 53.3456 60.3249 53.201 59.917 52.9299C59.5092 52.6587 59.1912 52.2731 59.0034 51.8219C58.8155 51.3706 58.7662 50.874 58.8616 50.3949C58.9571 49.9157 59.193 49.4755 59.5396 49.13C60.0049 48.667 60.6356 48.407 61.2932 48.407C61.9508 48.407 62.5815 48.667 63.0467 49.13C63.3932 49.4754 63.6291 49.9153 63.7246 50.3942C63.8202 50.8731 63.7711 51.3695 63.5836 51.8206C63.396 52.2717 63.0785 52.6573 62.6711 52.9287C62.2637 53.2001 61.7847 53.345 61.2946 53.3453ZM59.8973 49.4808C59.6182 49.7566 59.4277 50.1088 59.3498 50.4927C59.2719 50.8766 59.3103 51.2749 59.46 51.637C59.6097 51.9992 59.864 52.3089 60.1906 52.5268C60.5172 52.7447 60.9015 52.861 61.2946 52.861C61.6877 52.861 62.0719 52.7447 62.3986 52.5268C62.7252 52.3089 62.9795 51.9992 63.1292 51.637C63.2789 51.2749 63.3172 50.8766 63.2394 50.4927C63.1615 50.1088 62.9709 49.7566 62.6918 49.4808C62.3199 49.1142 61.8178 48.9086 61.2946 48.9086C60.7714 48.9086 60.2693 49.1142 59.8973 49.4808Z" fill="#010144"/>
<path d="M122.23 58.8607L116.909 67.3442L117.677 67.8223L122.998 59.3387L122.23 58.8607Z" fill="#010144"/>
<defs>
<linearGradient id="paint0_linear" x1="27.3609" y1="59.0307" x2="28.8925" y2="67.0429" gradientUnits="userSpaceOnUse">
<stop offset="0.07" stop-color="#A1D7C3"/>
<stop offset="1" stop-color="#C99CCD"/>
</linearGradient>
<linearGradient id="paint1_linear" x1="2047.74" y1="3211.54" x2="3298.41" y2="7087.88" gradientUnits="userSpaceOnUse">
<stop offset="0.07" stop-color="#A1D7C3"/>
<stop offset="1" stop-color="#C99CCD"/>
</linearGradient>
<linearGradient id="paint2_linear" x1="1804.04" y1="898.71" x2="2020.14" y2="2171.36" gradientUnits="userSpaceOnUse">
<stop offset="0.07" stop-color="#A1D7C3"/>
<stop offset="1" stop-color="#C99CCD"/>
</linearGradient>
<linearGradient id="paint3_linear" x1="999.536" y1="1130.2" x2="1186.85" y2="2485.86" gradientUnits="userSpaceOnUse">
<stop offset="0.07" stop-color="#A1D7C3"/>
<stop offset="1" stop-color="#C99CCD"/>
</linearGradient>
<linearGradient id="paint4_linear" x1="3467.32" y1="677.325" x2="3469.7" y2="766.045" gradientUnits="userSpaceOnUse">
<stop offset="0.07" stop-color="#A1D7C3"/>
<stop offset="1" stop-color="#C99CCD"/>
</linearGradient>
<linearGradient id="paint5_linear" x1="3623.17" y1="2235.25" x2="3403.94" y2="4192.26" gradientUnits="userSpaceOnUse">
<stop offset="0.07" stop-color="#A1D7C3"/>
<stop offset="1" stop-color="#C99CCD"/>
</linearGradient>
</defs>
</svg>
