<svg width="123" height="96" viewBox="0 0 123 96" fill="none" xmlns="http://www.w3.org/2000/svg">
<g clip-path="url(#clip0)">
<path opacity="0.5" d="M123 91.5348C123 89.6785 116.926 86.3323 82.9581 85.3425C48.9904 84.3527 0 86.0892 0 87.9455C0 89.8018 8.20873 94.3667 42.1764 95.3424C76.144 96.3181 123 93.3946 123 91.5348Z" fill="#BFF2DA"/>
<path d="M60.9408 48.8687L60.3921 51.6866L68.2575 54.0571L63.7089 44.1946C62.277 45.3926 61.3003 47.0419 60.9408 48.8687Z" fill="url(#paint0_linear)"/>
<path d="M70.8274 40.9048C72.7283 41.803 75.1707 41.0281 76.4592 39.3726C77.7477 37.7171 77.9459 35.3818 77.2733 33.3846C77.0446 32.7187 76.7317 32.0843 76.3424 31.4967L75.1389 31.3206L68.8097 34.8781C68.4558 35.1705 68.1018 35.4699 67.7478 35.7728C67.8269 36.4031 67.9656 37.0246 68.162 37.629C68.6257 39.0098 69.5212 40.2884 70.8274 40.9048Z" fill="white"/>
<path d="M93.9456 40.8589C93.0125 38.6514 91.522 36.7212 89.6187 35.2555C87.7153 33.7898 85.4636 32.8384 83.082 32.4934L76.3565 31.5212C76.7458 32.1088 77.0586 32.7432 77.2874 33.4092C77.96 35.3923 77.7582 37.7276 76.4733 39.3972C75.1883 41.0668 72.7423 41.8276 70.8415 40.9294C69.5353 40.313 68.6397 39.0344 68.176 37.6677C67.9796 37.0633 67.841 36.4418 67.7619 35.8114C64.1074 38.9086 60.8468 42.4383 58.0523 46.3221L55.3125 50.1438L60.3956 51.6795L60.9443 48.8617C61.3015 47.0311 62.2785 45.3776 63.7124 44.177L68.261 54.0395L70.5371 59.7985L91.8323 44.5644L78.6892 72.5035L91.7509 73.451C92.6349 73.5149 93.4839 73.8209 94.204 74.3351L98.9367 77.7271V65.4659C98.9342 57.0149 97.2374 48.6493 93.9456 40.8589Z" fill="url(#paint1_linear)"/>
<path d="M70.5334 59.809L75.4608 72.271L78.6891 72.5035L91.8287 44.575L70.5334 59.809Z" fill="url(#paint2_linear)"/>
<path d="M37.9003 88.6218C37.8584 88.7734 37.8358 88.9296 37.833 89.0868V90.2667H57.0221L56.7495 88.6218H37.9003Z" fill="#010144"/>
<path d="M52.2825 82.6407C52.3425 82.8791 52.4782 83.092 52.6696 83.2475C52.8609 83.4029 53.0976 83.4928 53.3444 83.5037L55.9001 83.5917L57.0081 79.1043L50.7356 78.3047L50.6117 78.8084C50.2437 79.8755 49.7059 80.8768 49.0188 81.7742H51.1427C51.4033 81.7682 51.6583 81.8507 51.8655 82.0082C52.0727 82.1658 52.2198 82.3888 52.2825 82.6407Z" fill="#FFC5A7"/>
<path d="M55.9284 83.5919L53.3727 83.5039C53.1259 83.493 52.8892 83.4032 52.6979 83.2477C52.5066 83.0922 52.3708 82.8794 52.3108 82.6409C52.2491 82.3932 52.1057 82.1733 51.9036 82.0162C51.7014 81.8591 51.4522 81.774 51.1958 81.7744H49.0719C47.8987 83.3127 46.3243 84.5017 44.5198 85.2122L39.0119 87.3538C38.7401 87.4613 38.4977 87.6313 38.3046 87.8499C38.1114 88.0684 37.9729 88.3293 37.9004 88.6113H56.7497L55.9284 83.5919Z" fill="#010144"/>
<path d="M64.4947 49.6014L63.8788 48.9321C63.055 48.0395 61.9919 47.3997 60.8148 47.0883C59.6377 46.7768 58.3957 46.8066 57.2351 47.1742C56.0745 47.5418 55.0437 48.2318 54.264 49.1629C53.4844 50.0941 52.9885 51.2275 52.8347 52.4298L49.5498 78.1428L57.3125 79.1326L61.5178 54.5326C61.856 52.5765 62.9181 50.8173 64.4947 49.6014Z" fill="#23406D"/>
<path d="M76.9229 83.6834L69.9672 74.9797L67.3018 80.1928L68.8026 83.3277C69.3737 84.5169 70.1875 85.5747 71.1921 86.4336C72.1968 87.2926 73.3702 87.9339 74.6377 88.3166C75.9051 88.6994 77.2388 88.8152 78.5538 88.6566C79.8687 88.4981 81.136 88.0688 82.275 87.3959L82.7599 87.1106C80.4564 86.7227 78.3779 85.5023 76.9229 83.6834Z" fill="#23406D"/>
<path d="M65.723 50.9292L64.4947 49.6013C62.918 50.8172 61.856 52.5764 61.5177 54.5326L57.3125 79.1325L60.7425 66.5014L67.3017 80.1822L69.9672 74.9691L76.9228 83.6728C78.3778 85.4917 80.4564 86.7121 82.7599 87.1L85.2165 85.6488L65.723 50.9292Z" fill="#172D4C"/>
<path d="M94.2041 74.3211C93.484 73.8068 92.635 73.5008 91.751 73.437L81.6344 59.3477C80.1466 61.7779 78.3751 64.0243 76.3566 66.0401C75.6633 66.7864 74.8557 67.4188 73.9637 67.914C73.205 68.3177 72.3401 68.48 71.4858 68.3789L79.8716 83.8314C80.7173 85.3887 81.9705 86.6894 83.4984 87.596C85.0263 88.5025 86.7722 88.9811 88.5511 88.981C90.8162 88.9813 93.0123 88.2059 94.7707 86.7852C96.5292 85.3645 97.7427 83.385 98.2076 81.179L98.9368 77.7236L94.2041 74.3211Z" fill="#23406D"/>
<path d="M79.1812 55.9663L75.9954 51.5528C75.266 50.538 74.2622 49.75 73.1005 49.2805C71.9389 48.8111 70.6672 48.6793 69.4332 48.9007C68.1993 49.1221 67.0539 49.6874 66.1302 50.531C65.2064 51.3746 64.5423 52.4618 64.215 53.6662L56.8169 80.9325L64.6717 82.6373L70.3353 66.3078L73.7759 57.266L79.1812 55.9663Z" fill="#23406D"/>
<path d="M73.9813 67.9491C74.8733 67.454 75.6809 66.8215 76.3742 66.0752C78.3927 64.0594 80.1643 61.813 81.652 59.3828L79.1989 55.9731L73.8149 57.2764L70.3743 66.3182L71.5141 68.4316C72.3667 68.5251 73.2277 68.3568 73.9813 67.9491Z" fill="#172D4C"/>
<path d="M44.7605 91.2283C44.7195 91.3811 44.6981 91.5385 44.6968 91.6967V92.8732H63.8823L63.6098 91.2283H44.7605Z" fill="#010144"/>
<path d="M59.1426 85.2404C59.2029 85.479 59.3387 85.692 59.5299 85.848C59.7211 86.004 59.9576 86.0947 60.2045 86.1069L62.7602 86.1914L63.8682 82.4613L57.5815 81.0981L57.4718 81.4116C57.1037 82.4776 56.5659 83.4778 55.8789 84.3739H58.0028C58.2634 84.3679 58.5184 84.4505 58.7256 84.608C58.9328 84.7655 59.0799 84.9886 59.1426 85.2404Z" fill="#FFC5A7"/>
<path d="M62.7744 86.1984L60.2187 86.1138C59.9717 86.1017 59.7353 86.0109 59.5441 85.8549C59.3529 85.6989 59.2171 85.4859 59.1567 85.2474C59.095 84.9997 58.9516 84.7797 58.7495 84.6226C58.5474 84.4656 58.2982 84.3804 58.0417 84.3809H55.9179C54.734 85.9248 53.1455 87.1143 51.3268 87.8187L45.8578 89.9708C45.5865 90.0791 45.3445 90.2493 45.1515 90.4677C44.9584 90.6862 44.8196 90.9467 44.7463 91.2283H63.6098L62.7744 86.1984Z" fill="#010144"/>
<path d="M73.3831 35.5261C74.1527 34.5991 74.7932 33.5731 75.2875 32.4758L75.1388 29.4114L68.6362 34.3426L69.5106 37.0971C69.597 37.3463 69.7161 37.5832 69.8645 37.8016C71.2426 37.4168 72.4701 36.623 73.3831 35.5261Z" fill="#FFC5A7"/>
<path d="M73.383 35.5262C72.4659 36.6305 71.2304 37.4284 69.8433 37.8122C70.2011 38.3777 70.7372 38.8092 71.3678 39.0393C71.9983 39.2694 72.6877 39.285 73.3281 39.0837C73.9686 38.8825 74.5239 38.4756 74.9072 37.9269C75.2905 37.3781 75.4803 36.7184 75.4467 36.051L75.2768 32.4758C74.7859 33.5725 74.1489 34.5985 73.383 35.5262Z" fill="#FFC5A7"/>
<path d="M63.1849 31.2994C62.6049 31.2665 62.0381 31.1143 61.5202 30.8524C61.0024 30.5905 60.5447 30.2245 60.1761 29.7777C59.4363 28.869 59.1142 27.6995 58.8204 26.5689C58.1797 24.1032 57.5319 21.5425 58.1124 19.0734C58.5674 17.1318 59.7453 15.4342 61.4087 14.3229C63.072 13.2117 65.097 12.7694 67.0751 13.0854C68.7672 12.0287 71.0503 11.5426 72.9158 12.2224C73.849 12.5703 74.6924 13.1211 75.3844 13.8347C76.0764 14.5483 76.5996 15.4066 76.9157 16.3471C77.5635 18.3196 77.252 20.5246 78.0201 22.4513C78.544 23.7651 79.5528 24.9169 79.7157 26.3258C79.9174 28.087 78.6537 29.7636 77.0962 30.6125C75.5387 31.4614 73.6981 31.6692 71.9246 31.8524C69.114 32.1271 65.999 31.4403 63.1849 31.2994Z" fill="#171919"/>
<path d="M72.9795 24.6562C70.6178 24.8282 68.2445 24.5668 65.9778 23.8848C66.5472 24.6243 67.3191 25.1845 68.2008 25.498C66.382 25.5373 64.5845 25.1025 62.9867 24.237C63.2815 24.9 63.7763 25.4552 64.4026 25.8256C62.8951 25.5122 61.4648 24.9053 60.1938 24.0397C60.2238 24.3067 60.2711 24.5714 60.3354 24.8323L62.208 31.9826C62.5347 33.2297 63.268 34.3336 64.2929 35.1215C65.3178 35.9093 66.5765 36.3366 67.8716 36.3362C68.8923 36.3362 69.9023 36.1306 70.841 35.7318C71.7796 35.3329 72.6274 34.7491 73.3332 34.0155C74.039 33.2819 74.5883 32.4137 74.9479 31.4632C75.3075 30.5127 75.4699 29.4996 75.4255 28.4849L75.4042 28.0482C74.3451 27.1177 73.5154 25.957 72.9795 24.6562Z" fill="#FFC5A7"/>
<path d="M75.1387 29.0943L75.8679 25.1775H77.0997C77.2803 25.1768 77.4587 25.2179 77.6207 25.2974C77.7827 25.3769 77.924 25.4927 78.0335 25.6357C78.1429 25.7788 78.2175 25.9451 78.2514 26.1217C78.2853 26.2983 78.2776 26.4802 78.2289 26.6534L77.843 28.0165C77.7558 28.3243 77.5707 28.5957 77.3155 28.79C77.0602 28.9843 76.7485 29.0911 76.4271 29.0943H75.1387Z" fill="#FFC5A7"/>
<path d="M60.3176 62.8946L55.815 59.3723L50.2646 60.6615L53.6133 63.0391C53.944 62.8432 54.2485 62.6065 54.5195 62.3346L60.3176 62.8946Z" fill="#FFC5A7"/>
<path d="M70.3708 69.337L69.3407 67.4209C69.2454 67.2449 69.1105 67.0933 68.9466 66.9778C68.7826 66.8623 68.5941 66.7861 68.3956 66.7552L64.5019 66.1599L60.3249 62.8947L54.5126 62.3452C54.2417 62.6172 53.9372 62.8539 53.6064 63.0497L63.4435 70.038L66.1585 72.5459C66.5134 72.8742 66.9801 73.0566 67.4646 73.0566H67.9248C68.2443 73.0562 68.5586 72.9764 68.8393 72.8245C69.1199 72.6726 69.358 72.4533 69.5319 72.1866L70.3071 70.9996C70.4663 70.7535 70.5562 70.4694 70.5674 70.177C70.5787 69.8845 70.5107 69.5944 70.3708 69.337Z" fill="#FFC5A7"/>
<path d="M82.4236 39.281L76.052 49.7529L84.6006 54.2439L91.3721 45.3148C91.8007 44.7508 92.1132 44.1082 92.2918 43.4239C92.4704 42.7395 92.5116 42.0268 92.413 41.3266C92.3143 40.6264 92.0778 39.9525 91.717 39.3433C91.3561 38.7342 90.8781 38.202 90.3102 37.777C89.7066 37.3224 89.0137 36.999 88.2765 36.8278C87.5393 36.6566 86.7741 36.6414 86.0306 36.7831C85.2871 36.9249 84.5819 37.2206 83.9605 37.6509C83.3391 38.0812 82.8155 38.6365 82.4236 39.281Z" fill="url(#paint3_linear)"/>
<path d="M82.6679 53.2328L76.7812 50.1472L74.7317 53.0813L80.5582 56.6318L82.6679 53.2328Z" fill="#FFC5A7"/>
<path d="M74.7317 53.0815L71.5813 57.5901L54.7285 56.6602L52.9197 53.4091L52.1621 54.5292H50.817C50.5792 54.5301 50.3503 54.6195 50.1754 54.7799C50.0005 54.9402 49.8922 55.1599 49.8719 55.3957L49.5569 59.2174C49.5341 59.4992 49.5878 59.7818 49.7123 60.0359C49.8368 60.2899 50.0277 60.506 50.2648 60.6616C50.6479 60.9192 51.0788 61.098 51.5323 61.1875C51.9858 61.2771 52.4526 61.2755 52.9055 61.1829L54.5656 60.8307L71.1035 64.2579C72.3333 64.5118 73.6119 64.383 74.7657 63.8889C75.9195 63.3949 76.8926 62.5596 77.5529 61.4964L80.5723 56.625L74.7317 53.0815Z" fill="#FFC5A7"/>
<path d="M39.9074 36.3329C39.1133 36.3329 38.3371 36.0985 37.6769 35.6595C37.0167 35.2204 36.5022 34.5964 36.1985 33.8663C35.8948 33.1362 35.8155 32.3329 35.9707 31.558C36.1259 30.7831 36.5085 30.0714 37.0703 29.5129C37.632 28.9544 38.3476 28.5743 39.1265 28.4206C39.9054 28.2668 40.7126 28.3464 41.446 28.6493C42.1794 28.9522 42.8061 29.4647 43.2467 30.122C43.6874 30.7793 43.9222 31.5519 43.9215 32.3421C43.9206 33.4008 43.4973 34.4159 42.7446 35.1642C41.9919 35.9125 40.9714 36.3329 39.9074 36.3329ZM39.9074 29.489C39.3403 29.489 38.786 29.6563 38.3145 29.9698C37.843 30.2833 37.4755 30.7289 37.2585 31.2503C37.0414 31.7716 36.9847 32.3452 37.0953 32.8987C37.2059 33.4521 37.479 33.9605 37.88 34.3595C38.281 34.7585 38.7919 35.0303 39.348 35.1403C39.9042 35.2504 40.4807 35.1939 41.0047 34.978C41.5286 34.762 41.9764 34.3964 42.2914 33.9272C42.6065 33.458 42.7746 32.9064 42.7746 32.3421C42.7746 31.5854 42.4726 30.8597 41.9348 30.3246C41.3971 29.7896 40.6678 29.489 39.9074 29.489Z" fill="#010144"/>
<path d="M16.7928 71.9117C16.0551 72.2827 15.263 72.5347 14.4459 72.6585L14.2725 71.5313C14.9722 71.4254 15.6507 71.2103 16.2831 70.8938L16.7928 71.9117Z" fill="#010144"/>
<path d="M9.98928 72.0387C9.76614 71.9327 9.54874 71.8151 9.33796 71.6865C8.23114 71.0477 7.29696 70.1507 6.61588 69.0729L7.58931 68.4671C8.16936 69.3919 8.96616 70.1631 9.9114 70.7143C10.0919 70.8164 10.2654 70.9151 10.4707 71.0031L9.98928 72.0387ZM6.5734 64.8109L5.42651 64.7862C5.46174 63.2635 5.9441 61.7844 6.8141 60.5312L7.75568 61.1794C7.01565 62.25 6.60484 63.5118 6.5734 64.8109Z" fill="#010144"/>
<path d="M12.8034 58.312C12.0996 58.359 11.4077 58.5171 10.7539 58.7805L10.322 57.7238C11.0942 57.4126 11.9118 57.2271 12.7432 57.1743L12.8034 58.312Z" fill="#010144"/>
<path d="M42.6358 46.4257L42.3376 47.5212L47.9684 49.0387L48.2666 47.9431L42.6358 46.4257Z" fill="#010144"/>
<path d="M105.195 18.3007L90.1943 25.1902L90.676 26.2287L105.677 19.3392L105.195 18.3007Z" fill="#010144"/>
<path d="M27.7023 50.8729C28.5468 50.8729 29.2315 50.1916 29.2315 49.3512C29.2315 48.5109 28.5468 47.8296 27.7023 47.8296C26.8577 47.8296 26.1731 48.5109 26.1731 49.3512C26.1731 50.1916 26.8577 50.8729 27.7023 50.8729Z" fill="#010144"/>
<path d="M115.372 28.2843C116.216 28.2843 116.901 27.603 116.901 26.7626C116.901 25.9222 116.216 25.241 115.372 25.241C114.527 25.241 113.843 25.9222 113.843 26.7626C113.843 27.603 114.527 28.2843 115.372 28.2843Z" fill="#010144"/>
<path d="M84.3742 3.04329C85.2187 3.04329 85.9033 2.36203 85.9033 1.52165C85.9033 0.681264 85.2187 0 84.3742 0C83.5296 0 82.845 0.681264 82.845 1.52165C82.845 2.36203 83.5296 3.04329 84.3742 3.04329Z" fill="#010144"/>
<path d="M28.966 81.9083C29.8105 81.9083 30.4951 81.227 30.4951 80.3866C30.4951 79.5463 29.8105 78.865 28.966 78.865C28.1214 78.865 27.4368 79.5463 27.4368 80.3866C27.4368 81.227 28.1214 81.9083 28.966 81.9083Z" fill="#010144"/>
<path d="M110.94 49.1189L110.253 48.2067C110.916 47.7136 111.653 47.3283 112.437 47.0654L112.791 48.1468C112.127 48.3727 111.502 48.7007 110.94 49.1189Z" fill="#010144"/>
<path d="M122.066 57.7028L121.021 57.2273C121.569 56.0473 121.755 54.7325 121.556 53.4478L122.689 53.2752C122.749 53.6657 122.78 54.0601 122.781 54.4552C122.782 55.5766 122.538 56.6848 122.066 57.7028ZM119.917 50.0171C119.043 49.0505 117.903 48.3599 116.639 48.0305L116.933 46.928C118.412 47.313 119.745 48.1213 120.767 49.2527L119.917 50.0171Z" fill="#010144"/>
<path d="M116.812 62.0211L116.536 60.9116C117.222 60.7437 117.877 60.4691 118.476 60.0979L119.081 61.0665C118.38 61.501 117.614 61.8231 116.812 62.0211Z" fill="#010144"/>
<path d="M119.644 80.9537C119.024 80.9534 118.417 80.77 117.901 80.4267C117.385 80.0834 116.983 79.5955 116.745 79.0248C116.507 78.4541 116.445 77.8261 116.566 77.2203C116.687 76.6144 116.986 76.0578 117.425 75.6209C117.79 75.2574 118.24 74.9891 118.734 74.8398C119.228 74.6905 119.751 74.6648 120.258 74.765C120.765 74.8652 121.238 75.0882 121.638 75.4142C122.037 75.7402 122.349 76.1592 122.547 76.634C122.744 77.1088 122.821 77.6247 122.77 78.1361C122.72 78.6476 122.543 79.1386 122.256 79.5658C121.969 79.9931 121.581 80.3432 121.125 80.5853C120.669 80.8274 120.161 80.9539 119.644 80.9537ZM117.875 76.0823C117.522 76.431 117.282 76.876 117.184 77.3608C117.086 77.8456 117.135 78.3484 117.325 78.8055C117.514 79.2626 117.836 79.6534 118.249 79.9284C118.662 80.2034 119.147 80.3502 119.644 80.3502C120.141 80.3502 120.627 80.2034 121.04 79.9284C121.453 79.6534 121.775 79.2626 121.964 78.8055C122.154 78.3484 122.203 77.8456 122.105 77.3608C122.007 76.876 121.767 76.431 121.414 76.0823C120.944 75.6168 120.308 75.3556 119.644 75.3556C118.981 75.3556 118.345 75.6168 117.875 76.0823Z" fill="#010144"/>
</g>
<defs>
<linearGradient id="paint0_linear" x1="60.3921" y1="49.1153" x2="68.2575" y2="49.1153" gradientUnits="userSpaceOnUse">
<stop offset="0.07" stop-color="#A1D7C3"/>
<stop offset="1" stop-color="#C99CCD"/>
</linearGradient>
<linearGradient id="paint1_linear" x1="9205.92" y1="4000.15" x2="9923.3" y2="10115.2" gradientUnits="userSpaceOnUse">
<stop offset="0.07" stop-color="#A1D7C3"/>
<stop offset="1" stop-color="#C99CCD"/>
</linearGradient>
<linearGradient id="paint2_linear" x1="4313.83" y1="4686.3" x2="5594.96" y2="4686.3" gradientUnits="userSpaceOnUse">
<stop offset="0.07" stop-color="#A1D7C3"/>
<stop offset="1" stop-color="#C99CCD"/>
</linearGradient>
<linearGradient id="paint3_linear" x1="3601.62" y1="2302.93" x2="4362.7" y2="2302.93" gradientUnits="userSpaceOnUse">
<stop offset="0.07" stop-color="#A1D7C3"/>
<stop offset="1" stop-color="#C99CCD"/>
</linearGradient>
<clipPath id="clip0">
<rect width="123" height="95.5537" fill="white"/>
</clipPath>
</defs>
</svg>
