<svg xmlns="http://www.w3.org/2000/svg" xmlns:xlink="http://www.w3.org/1999/xlink" viewBox="0 0 689.79 576.67"><defs><style>.cls-1{fill:url(#linear-gradient);}.cls-2{fill:#50a07d;}.cls-3{fill:#428469;}.cls-4{fill:#ade0c9;}.cls-5{fill:#69b293;}.cls-6{fill:#804c1d;}.cls-7{fill:#5faf90;}.cls-8{fill:#592d41;}.cls-9{fill:#20315f;}.cls-10{fill:#1c3860;}.cls-11{fill:#23406d;}.cls-12{fill:#eea886;}.cls-13{fill:url(#linear-gradient-2);}.cls-14{fill:url(#linear-gradient-3);}.cls-15{fill:#3b3bad;}.cls-16{fill:url(#linear-gradient-4);}.cls-17{fill:#fff;}.cls-18{fill:url(#linear-gradient-5);}.cls-19{fill:url(#linear-gradient-6);}.cls-20{fill:#3d4965;}.cls-21{fill:#0f0d40;}.cls-22{fill:#f7bda6;}.cls-23{fill:url(#linear-gradient-7);}.cls-24{opacity:0.2;}.cls-25{fill:#242944;}.cls-26{fill:#323657;}.cls-27{fill:#241145;}.cls-28{fill:#565179;}.cls-29{fill:#492f44;}.cls-30{fill:#352032;}.cls-31{fill:#24242d;}.cls-32{fill:#1b2b80;}.cls-33{fill:#010144;}.cls-34{opacity:0.15;}</style><linearGradient id="linear-gradient" x1="543.44" y1="-5.28" x2="555.96" y2="480.83" gradientUnits="userSpaceOnUse"><stop offset="0" stop-color="#f9e721"/><stop offset="0.97" stop-color="#c4a0cc"/></linearGradient><linearGradient id="linear-gradient-2" x1="466.99" y1="194.12" x2="527.65" y2="194.12" gradientUnits="userSpaceOnUse"><stop offset="0.07" stop-color="#a3d9c6"/><stop offset="1" stop-color="#cb9ecf"/></linearGradient><linearGradient id="linear-gradient-3" x1="429.89" y1="166.86" x2="448.67" y2="352.9" xlink:href="#linear-gradient-2"/><linearGradient id="linear-gradient-4" x1="393.05" y1="163.91" x2="408.25" y2="278.09" xlink:href="#linear-gradient-2"/><linearGradient id="linear-gradient-5" x1="199.72" y1="249.75" x2="239.52" y2="403.36" xlink:href="#linear-gradient-2"/><linearGradient id="linear-gradient-6" x1="243.51" y1="238.4" x2="283.31" y2="392.02" xlink:href="#linear-gradient-2"/><linearGradient id="linear-gradient-7" x1="307.99" y1="221.7" x2="347.8" y2="375.31" xlink:href="#linear-gradient-2"/></defs><g id="Layer_2" data-name="Layer 2"><g id="_Layer_" data-name="&lt;Layer&gt;"><path class="cls-1" d="M671.82,167.59c-2-2.05-3.48-3.73-4.72-5.09-4.66,4.78-10.7,10.24-12,7.9-1.45-2.61,2.2-8.84,4.79-12.69a28.82,28.82,0,0,0-7.23.7c-.49.08-1,.16-1.44.22-4.33,6.81-12.91,19.54-16.1,18.58-3.43-1,2.7-14,5.43-19.37-3.67-1.08-6-2.63-7.25-2.63s-5.72,16.4-7.6,21.27c-3.87,1.46-12.3,5.36-4.63-14.77-2.61-2.77-8.26,1.15-12.16,2.68s-4.79,14.38-7.06,20.93c-2.62,1.45-5.68,2.41-8.54,4.48,0-6,6.7-25.8,6.7-25.8s-24,8-24,12.37,15.88,12,8.91,12-14.72-11.58-14.72-11.58-12.49,6.79-10.11,14.37-5.34,10.32-7.88,12.94h0c-5.89,2.16-13.37,6.49-16.58,9.8-5.42,5.59,9.93,38.46,5.93,42.59s-12.13-31.94-12.13-35.4c0-2-1.73-2.16-4-.57,6.5-37.08,16.58-69.13,32.28-85.38,6-6.49,13-10.21,19.48-14.2-1.16,1.93-2.17,5.36-2.17,11.53,0,14.57,36.38,19.38,31,13.82s-11.42-22.8-8.52-22.8,7.74,18.16,15.49,22,16.84-6.38,16.84-6.38-24.3-18.87-21.88-21.36,23.43,22.75,29.23,25.15,16.46-9.18,16.46-9.18-40.07-22.16-39-25.95,37.21,23.55,42.82,21.75S668,116.09,668,116.09s-40.65-14.17-39.1-17.56,34.07,15,38.72,14,2.32-14.77,2.32-17.17S644.82,89.45,642.4,87s24.59,4.59,26.52,4.59,4.07-2.39,2.13-7-3.68-19.77-3.68-19.77c-2.32,0-12.58-8.38-14.32-10.17s-8.32,14.17-10.84,14.17,7.36-14.37,7.36-17.77-6.2-6.38-11.23-6.38-12.78,34.65-15.1,34.65,8.13-35.45,6.58-37.05-6-4-15.29-2.59-4.07,41.91-7.36,45.3,0-42.91,0-44.11-11.62,2-15.68,6.19,2.9,43.31,0,46.31S586.26,56,586.26,51.82s-3.68-4.59-14.13,9a14.44,14.44,0,0,0-2.67,11.87c-16.46,7.49-13.18,34.66-6,42a15.52,15.52,0,0,0,11.42,4.67c-15.76,9.58-25.4,16.1-36.14,41.44,0-8.58-.92-27.17-5.42-31.8s5.42-2.13,5.42-6.92-.51-23.15-2.58-25.28-7.48,14.63-10.84,11.17,9.55-13.83,9.55-15.16-7.48-26.35-9.29-26.35S525,77.37,519.86,80s2.84-15.43,2.84-21-5.29-6.79-11.36-13-12.9-17.3-12.9-17.3S503.6,47.3,511.6,63.26c7.55,15.06,9.58,71,9.79,77.37-.44.5,0-5.35-1.51,86.9a10,10,0,0,0-.07,4.42c0,3.09.16-.77-1.66,13.7-1.75-5.4-2.9-9.4-2.9-9.4s-1,1.09-2.42,2.9c-.79-4.82-2.49-8.55-5.36-9.69,0,0-1.4,1.47-3.46,3.49-.45-15.45-2.06-72.25-7.45-86.58a18.67,18.67,0,0,0,7.64-2.19c10.89-5.26-2-43.27-3.71-35.88S488.62,127.93,487.31,125s10.06-14.28,9.39-23.37-12.41-14.49-12.41-14.49-3.08,31-6,29.52,6.38-31.57,5.54-38.23-14.32-13.1-14.32-13.1,1.61,48-1.74,48.21S468.47,68,464.59,63s-14.73-5.6-14.73-5.6,7.83,45.66,4.59,45.34-4.25-39.39-7.1-43.66-12.1,3-13.88,3.88,7,27.13,6.19,30.44S432,67.25,431.07,65.31s-3.63-3.19-6.19.4-13.1,10.8-13.1,10.8c1.06,2.32-.56,15.58-1.11,18s14.36,3.18,15.5,5.69S412.1,98,409.56,99.25s-2,8.48.32,13.5,31.69.23,32.74,2.55S412.44,120,412,122.11s-.27,7.43,5,16.19,33.17-11.07,37.19-9-32.07,15.49-33,15.93,6.75,10.86,11.73,13.4S464,140.08,467.5,141.9,442,160.58,438.85,162.09,437.08,167.42,452,173A9.65,9.65,0,0,0,462,171.33c12.52,13.16,30.33,1.67,33.78-7.92,1.73,14.6,2.87,35.06,3.62,58-3.19-5.63-9.72-12-12.86-8.73-4.26,4.39-8.72,23.35-13.56,18.36s12-18,10.07-25.55-8.48-14.12-10.94-11.58-1.84,28.35-4.93,25.16,4.59-28.9,2.32-31.25-13.81-13.47-18.07-9.07,5,28.07,2.58,25.54-8.52-29-11.87-32.46-8.66.88-11.87-2.43c0,0-.65,7.35-2.33,9.08s16.26,17.3,13.94,17.3-17-14.11-17-14.11,1.16,15,4.38,18.37,20.4,6.12,20.4,9-22.2-3.72-22.2-3.72,4.38,17.3,12.13,19.43,19.87.53,19.87,3.46-15.23,1.06-15.23,1.06,3.62,21.29,13.68,21.29,11.22-1.86,11.22,1.86-7.86-2.66-7.86,4,7.3,20,11.1,16.08a21.13,21.13,0,0,0,4.24-7.54,672.78,672.78,0,0,1,16.16,85.91H473.92c-34.77,11.92-33.34,35.94,3,47h69.64c36.31-11,37.76-35,3-47H526.44c.66-13.48,2-26.91,4.28-38.06a37.75,37.75,0,0,0,2.82,9.87c5.94,14.11,31.23,8,31.23,8-15.48,0-19.87-26.88-15.22-29s2.06,22.35,17.29,26.08S586.71,319,586.71,319c-11.87-2.4-33.16-22.49-29.16-26.62s23.74,24,31.74,24,16.78-21.83,16.78-21.83c-9.81,5.86-41.81-9.58-44.79-14.9s31.63,14.1,44.28,11.71,11.87-25.28,11.87-25.28c-4,4.12-38.72.26-42.33-3.46s34.33,1.86,41.56-1.87,4.9-22.78,4.9-22.78-26.33,5.75-33,3.89,27.62-5.32,30.72-13.31-4.56-26.5-4.56-26.5c-3.54,3.65-14.71.63-19.35.08,12.64-6.24,27.4-13.43,33.74-16.16,10.62-4.56,39.36-5.88,52.93-1.69,3,1.18,4.73,2.09,4.73,2.09A122.5,122.5,0,0,0,671.82,167.59ZM571.16,81.16a14,14,0,0,0,.2-2.57c3.59,8.08,10.25,14.75,9.29,15.75C579,96,570.19,86.75,571.16,81.16Zm-103.54,85.4a9.07,9.07,0,0,0-2,.73c4.41-6.5,6.37-15.54,7.55-14.94C475.18,153.38,472.23,165.51,467.62,166.56Zm54.59-24.77c3,3.33,1.11,20.32,5.65,25,2.63,2.71,5.55,3.26,7.7,1.89A268.7,268.7,0,0,0,522,219.37C522.36,180.58,522.51,148.82,522.21,141.79Zm-14.46,128.6c2.42,3.43,5.08,6.27,6.86,8.51q-.25,2.82-.49,5.64c-2.74-.36-6.25-5.07-9.24-9.17,0-1,0-2-.05-3A4.11,4.11,0,0,0,507.75,270.39Zm-8.07-40.57q.1,3.5.19,7c-5.3,4.79-11.74,9.79-13.69,7.77C483.32,241.69,495.27,235,499.68,229.82Zm-3.79,121.11a674.7,674.7,0,0,0-16.77-88.59c3.39,2.17,12.18,7.49,19.3,9.46a56.4,56.4,0,0,0,2.21,20.13c.12,21,.07,41.36,0,59Zm9.29,0c.05-15.08.06-32.16-.06-49.95a14.49,14.49,0,0,0,7.33,5.2c-1.07,15.4-1.88,30.58-2.48,44.75Zm8.95,0c.4-13.72,1-28.52,1.9-43.84a21.43,21.43,0,0,0,2.46.26c-.34,17.89-.64,32.15-.88,43.58Zm9.48,0h-3c.15-12.89.32-27.8.5-43.66a23.9,23.9,0,0,0,9.27-2.83C526.59,317.78,524.55,334.48,523.61,350.93ZM532.25,274c-2.71,1.2-7-8.28-10.55-18.05.13-13.39,0-10.82.57-15.09C527,254.46,536,272.4,532.25,274Zm30.46-32.47c-6.71,0-3.2-22.33-2.48-32.83,1.51.5,3.09,1,4.62,1.44C564.81,221.48,568.78,241.57,562.71,241.57ZM583.36,224c-4.1,1,1.09-11.64,3.87-17.88l5.37-2.67C589.92,208.13,587.92,222.89,583.36,224Z"/><path class="cls-2" d="M407.61,193.94H324.43c-12.89,0-47.37,90.7-68.19,149H407.61Z"/><rect class="cls-3" x="92.67" y="193.94" width="258.01" height="164.68" rx="22.27"/><rect class="cls-4" x="107.94" y="293.95" width="257.06" height="73.49"/><rect class="cls-3" x="107.94" y="309.76" width="257.06" height="66.09"/><path class="cls-5" d="M376.16,191.37h31.7A11.16,11.16,0,0,1,419,202.52V375.86a0,0,0,0,1,0,0H365a0,0,0,0,1,0,0V202.52A11.16,11.16,0,0,1,376.16,191.37Z"/><path class="cls-5" d="M63.83,193.08h45.54a12.73,12.73,0,0,1,12.73,12.73v170a0,0,0,0,1,0,0h-71a0,0,0,0,1,0,0v-170A12.73,12.73,0,0,1,63.83,193.08Z"/><rect class="cls-4" x="57.79" y="375.86" width="8.11" height="26.95"/><rect class="cls-4" x="117.85" y="375.86" width="9.35" height="29.89"/><rect class="cls-4" x="400.98" y="375.86" width="10.48" height="24.4"/><rect class="cls-4" x="365.01" y="375.86" width="11.35" height="24.4"/><path class="cls-6" d="M379.43,258.93c0,1.55,32-7.37,33.55-8.87S379.43,249.08,379.43,258.93Z"/><path class="cls-7" d="M623.64,404.48c0,8.73-132.83,15.81-296.68,15.81S30.28,413.21,30.28,404.48,163.1,388.67,327,388.67,623.64,395.75,623.64,404.48Z"/><path class="cls-8" d="M335.05,389.17c1.38-.46,13.37-3.09,13.37-3.09l-14-5.8Z"/><path class="cls-9" d="M474.72,303.33S516,402.57,514.15,412.45c-3.15,16.61-23.74,19.56-33,10.25s-33.67-82.13-33.67-82.13l-2-18.59Z"/><path class="cls-10" d="M441.26,388.09C439,385.81,399,363.35,399,363.35s-13.3-3.79-13.3,5.7-.07,31.64,7.15,31.64,10.32,2.55,8-2.77-8.35-12.15-1.89-12.15,34.41,32.52,49.39,47.5C449.79,434.68,441.26,388.09,441.26,388.09Z"/><path class="cls-11" d="M453.37,296.43s26.53,122.76,20.45,132.26-26.51,9.91-32.59-2.63-33-99.14-33-99.14l-.54-36.07Z"/><path class="cls-12" d="M517.8,183.36c1.14,0,24,1.44,30.08,7.55l-9.1,25.43-24.53-6.51Z"/><path class="cls-13" d="M467,171.56s52,6.31,60.66,12.77L521.09,216s-26-16.12-45.16.23C469,222.12,467,171.56,467,171.56Z"/><path class="cls-14" d="M440.05,171.9l-26.83,6c-5.84,12.74-3.14,18.24-6.11,59.91-1.28,18-16.29,76-12.52,89.13l102.19-9.15a192.78,192.78,0,0,1-17-50.55c-5.1-27.08-4.33-28.57-3.43-49.19.52-11.95,2.56-46.62-9.4-46.47Z"/><path class="cls-15" d="M511,200.93c-12.72,1.43-3.93,14.78-22.8,17.2-2.92.3-7.78.3-9.83-1.79,3.2,1.94,10.79.38,14.32-.91,6.64-2.36,5.83-4.83,9.45-10.18a10.07,10.07,0,0,1,3.82-3.59A8.93,8.93,0,0,1,511,200.93Z"/><path class="cls-12" d="M384.6,214.26c0,1.14,1.35,52.13,14.55,65.33s41-11.39,47.11-21.84S459,243.64,459,243.64l-4.87-18S422.77,262,412.33,255s1.1-54,1.1-54Z"/><path class="cls-16" d="M421.14,183.67c-1.89-3.72-4.53-5.51-7.92-5.79-5.38-.42-28.62,14.82-31.32,50.86-1.23,16.33-2.47,30.19-2.47,30.19A110.61,110.61,0,0,1,413,250.06c.74-2.94,6.9-35.95,9.21-44.8C422.48,204.13,424.48,190.26,421.14,183.67Z"/><path class="cls-17" d="M413,250.06c0-.2,3.27-20.55,3.07-19.26,3.09-18.3,5-23.84,5.64-28.58,1.25-9.84,1.3-22.95-8.47-24.34,10.77.11,11.76,16.36,10,27-.45,2.55,2-9.31-5.69,26.19C416.1,237.43,414.73,243.78,413,250.06Z"/><path class="cls-18" d="M232.27,262.31l-4.05-1.42S189,290.67,183.14,298.78l24.56,22,33-17.86Z"/><path class="cls-10" d="M234.39,360.51s-92.92-9.22-108.57-2.72a60.77,60.77,0,0,1-.41,8c-.91,9.15,12.38,23.57,14.39,24.71,3.21,1.82,152.52,26.17,152.52,26.17Z"/><path class="cls-19" d="M250.38,342c2.66,20.13-33.56,50.56-33.56,50.56l123.27-9.82,8.33,3.3s-29.53-83.69-37.13-105.34-24-42.13-24-42.13-57.54,15-62.1,24.84S248.06,324.44,250.38,342Z"/><path class="cls-20" d="M214.35,413.76s-2.12-2.17-5.64-5.59c-6.14,2.65-11.29,6.38-16.41,10.52,12,3.67,20.86,6,20.86,6s10.23,13.34,14.21,16.92,8.77,2.38,11.55.75,10.32.32,11.41-3.91S214.35,413.76,214.35,413.76Z"/><path class="cls-9" d="M165.81,372.42s-23.65-14.77-35.62-15.5-10.42,16.39,3.09,30.88c8.72,9.34,37.18,24.23,59,30.89,5.12-4.14,10.27-7.87,16.41-10.52C199.68,399.4,181.41,382.37,165.81,372.42Z"/><path class="cls-12" d="M238.6,311.06c-4.31-2.15-12.22,6.09-12.22,9.13s-2.22,4-6.18,5.61c-2.48,1-22.5,2.77-22.5-.65s5.6-8.3,5.6-8.3l-18-16.14s-19.89,14.78-18.62,31.5,49.55,11.24,58.67,7.69,11-3.69,13.06-3.69l-3.86-13.88C234.54,319.8,242.9,313.21,238.6,311.06Z"/><path class="cls-21" d="M255.71,353.33s2.22-8.4,13.38-10.56,13.55-2.19,13.55-2.19,13.07,5.68,17.76.29-3.28-40.15-9.63-40.12c-12.13,0-10,17.12-19.51,22s-16,2.88-18.23,1.08-11.27-14.82-20.9-8.59c-4.9,3.17,8.78,38.59,11.47,40.73S254.92,357.79,255.71,353.33Z"/><path class="cls-11" d="M291.35,300.84c-7.2-.37-9.58,6.67-11.94,12.29-3.19,7.82-5.26,8.36-5.88,9.19-4.4,3.37-13.9,6.16-20,2.85-3.2-1.63-11.17-15.73-21.44-9.94,7-5.35,14.52.83,20.6,7.17,3.78,4.46,14.93,2.1,19.71-1.47.87-1.13,1.77-.26,5.68-8.37,2.57-5.26,4.82-11.28,10.87-11.78l1.78-.07Z"/><path class="cls-12" d="M320.75,299.25s13.37,18.43,11.67,23.46-37.37-12.78-37.37-12.78l3.7,18.86s31.14,25.07,49,24.43S362.87,348.74,361,334c-1.68-13.45-15-43.55-15-43.55Z"/><path class="cls-22" d="M286.84,318.75s7.72-12.63,9.75-10.6,1.64,5.15,2.76,6.27,1,.63,2,4.33,1.78,6.24,1.78,8.26-6.07,10.64-9.75,9,1.59-8.23,1.59-8.23-3,5.07-5.38,4.06,1.26-7.6,1.26-7.6-4.68,3.67-5.32.76S286.84,318.75,286.84,318.75Z"/><path class="cls-22" d="M244.84,323.67s-13.4-11.51-15-8.47,0,6.45-.83,8.13-.93,1.09-.73,5.67.26,7.73,1,10,10.79,8.47,14.36,5.26-4.81-7.39-4.81-7.39,5.23,4.66,7.59,2.63-4.22-8.16-4.22-8.16,6.67,2.45,6.32-1.08S244.84,323.67,244.84,323.67Z"/><path class="cls-11" d="M340.09,382.78s-66.23-37.61-99.43-37.61l-12.44,34.16s49.63,35.11,64.1,37.36c9.4,1.46,23.93,1.18,36.27-1.59S340.09,382.78,340.09,382.78Z"/><path class="cls-20" d="M159,464.9c2.5,3.59,8.88-.88,12.06-.31s10.9-4,10.9-4c2.47-4.74,7.2-27.39,7.2-27.39s2.06-5.63,6.41-8.75c-5.08-3.56-9.93-2.77-16.21-4.73C166.48,443.11,157.93,463.4,159,464.9Z"/><path class="cls-11" d="M243.11,346.55c-20.24,3.05-50.67,41-68.36,73.17a111.29,111.29,0,0,1,23,11.26c15.94-11.43,52.19-42.38,58.17-56.75C263.54,355.94,255,344.77,243.11,346.55Z"/><path class="cls-23" d="M287.27,238.61A93.32,93.32,0,0,0,307,289.66c11.85,14.83,9.88,17.47,9.88,17.47l36-15.57s-19-25.06-25.82-33.78C313.69,240.88,292.08,236.21,287.27,238.61Z"/><path class="cls-12" d="M247.8,202.43s.81-6.73,4-7.43,6.47,8.13,3.34,10.78S247.81,207.33,247.8,202.43Z"/><path class="cls-12" d="M227,221.73s13.33,30,18.5,34.48,17.8,2,20.95-3.06l-10.34-26Z"/><path class="cls-24" d="M259.14,234.81l-3-7.64L227,221.73s2.68,6,6.11,13.1a42.48,42.48,0,0,0,12.53,5C251.75,241,256.61,238.86,259.14,234.81Z"/><path class="cls-12" d="M233.24,181.33s7.37-1.66,11.46,2.8,16.37,29.8,16.37,36.93-6.32,12-15.44,10.44-23.38-8.4-28.52-18.34S218.28,181.33,233.24,181.33Z"/><path class="cls-25" d="M222.52,180.28c-4,3.33-17.1,2.29-17.1,14.7s7.19,10.8,7.19,15.29,1.31,5.82,6.4,11.36,8.17,7.31,9.56,8.12a8.25,8.25,0,0,0,2.65,1.16L227.11,222s-5.29-2.47-5.29-5.24,5.05-1.53,5.75-3.53c1.12-3.2-10.13-15.37-.73-23.4,8.22-7,16.93-6.3,21.6,0C251,188,238.89,166.51,222.52,180.28Z"/><path class="cls-12" d="M227.57,215.46s-5-4.14-7.54-2,1.11,11,4.91,10.38S230.79,219,227.57,215.46Z"/><path class="cls-24" d="M226.22,215.59s-5.93-1.71-5.93,1.37,3.38,5.46,5.93,2.9S226.22,215.59,226.22,215.59Z"/><path class="cls-26" d="M223.16,196.34s.84-8.4-.48-11.86-5.56-4.55-7.33-2.78-.88,3.39-.88,3.39-1.95-3.28-.82-6.05,4.77-2.88,6.64-2.88a3.45,3.45,0,0,1,2.59.82s-.25-3.18-2.59-3.8a5,5,0,0,0-4.28,1.24,6.51,6.51,0,0,1,5.74-3.49c4.11,0,4.82,2.08,5.61,2.87s.63,3,.63,3,2.11-2.13,2.11-4.18-4.14-4.41-4.14-4.41,9.86-3.91,9.86,6.05a3.69,3.69,0,0,0,2.8-2.36c.69-2-1.06-4-1.06-4s20,12.75,10.88,21.86c-.35.36-2.41-5.59-11.87-3.69C227.62,187.91,223.16,196.34,223.16,196.34Z"/><path class="cls-27" d="M494.73,511.66c-.84-.07-21.51-2.14-96.32-26.83-40.9-13.49-82.48,14.37-124.58,14.89-6.56.07-14.19-.3-20.89-3.73-6.11-3.13-12.06-9.92-11.59-18,1-16.25,25.89-27.36,39.59-33.53,19.29-8.69,37.51-16.9,41.51-38.41,8.05-43.35-56-67.85-56.65-68.09l1.29-3.46c2.76,1,67.6,25.87,59,72.23-6.84,36.77-52,37.84-73.92,58.8-4.49,4.29-6.89,8.55-7.13,12.67-.37,6.45,4.55,11.94,9.59,14.52,16.75,8.57,51.73-1.29,68.58-5.91,25-6.84,50.76-13.91,76.36-5.46C473.73,505.8,494.86,508,495.07,508Z"/><path class="cls-27" d="M495.56,511.54l-1.33-3.44c27-10.52,59.25-47.46,53.06-62.57-8.67-21.16-76.19-21.56-82.88-59-3.89-21.73,5.42-44.81,24.3-60.36-11.88-4-17.34-12.58-15.57-25,1.38-9.63,7-17.36,9.21-26.28A242,242,0,0,0,488.6,234l3.68.25a246.18,246.18,0,0,1-6.34,41.48,74.83,74.83,0,0,1-4.4,11.87c-4.53,10.37-8.69,22.24-.06,30.31a24.91,24.91,0,0,0,10.77,5.52,69.92,69.92,0,0,1,40.24-13.19c9.41,0,10.74,13.68,1.5,15.64-6.92,1.46-25.85,4.81-40.87,1.49C475.05,341.09,464,363.51,468,385.88c7.36,41.17,99.78,34,81.51,73.65C532.28,497,497.05,511,495.56,511.54Zm1.73-187.06c13.56,2,29.76-.89,35.94-2.19,4.95-1.05,4.27-8.32-.76-8.34a69.36,69.36,0,0,0-8.56.61A67,67,0,0,0,497.29,324.48Z"/><rect class="cls-28" x="439.76" y="508.83" width="119.19" height="8.8"/><polygon class="cls-29" points="565.42 502.45 433.29 502.45 434.34 508.83 564.38 508.83 565.42 502.45"/><path class="cls-30" d="M564.48,508.21c-23.67-.33-96.44-1.67-120.8-5.76H433.29l1,6.38h130Z"/><polygon class="cls-29" points="561.05 522.6 560.35 515.89 438.37 515.89 437.67 522.6 561.05 522.6"/><rect class="cls-31" x="514.06" y="510.8" width="10.53" height="3.43" transform="translate(1038.64 1025.03) rotate(180)"/><rect class="cls-31" x="532.73" y="510.8" width="10.53" height="3.43" transform="translate(1075.99 1025.03) rotate(180)"/><rect class="cls-31" x="495.27" y="510.8" width="10.53" height="3.43" transform="translate(1001.07 1025.03) rotate(180)"/><rect class="cls-29" x="443.13" y="512.51" width="44.4" height="1.72" transform="translate(930.65 1026.75) rotate(180)"/><path class="cls-31" d="M638.07,576.67a100.48,100.48,0,0,1-14.72-1.08l.58-3.64c.28,0,27.85,4.35,39-5.18a12.66,12.66,0,0,0,4.54-10.22,9.48,9.48,0,0,0-3.11-7.32c-8.18-7.59-29.66-6-38.83-5.3L625,544c-4.26.32-8.62.72-13.05,1.13-35.31,3.28-75.34,7-94.25-31.79l3.32-1.61c17.79,36.48,54.8,33.05,90.59,29.73,4.45-.41,8.84-.82,13.12-1.14l.61,0c9.65-.73,32.25-2.42,41.61,6.27a13.13,13.13,0,0,1,4.29,10,16.38,16.38,0,0,1-5.84,13C658.63,575.31,647.28,576.66,638.07,576.67Z"/><path class="cls-32" d="M464.17,110.71a11.89,11.89,0,0,1,10.45-1.57l-.55,1.43A11.18,11.18,0,0,0,464.17,110.71Z"/><path class="cls-32" d="M475.8,118.12a10.32,10.32,0,0,0-4.16-5.59,8.76,8.76,0,0,0-5.18-1.27c-.61,0-1.21.15-1.81.22a12.83,12.83,0,0,1,3.64-.33c3.79.18,6.93,3.19,8.24,6.75Z"/><path class="cls-12" d="M434.66,150.37s-1.71,14.69-3.1,28.91c-.36,3.75,1.94,9.13,5.7,9.28a29.62,29.62,0,0,0,8.95-1.33c3.71-1,11-1.89,11-6.67,0-15.27-3.89-41.71-3.89-41.71Z"/><path class="cls-24" d="M454.86,150.81c-.83-6.93-1.57-12-1.57-12l-18.63,11.52s-.67,5.81-1.52,13.67A101.2,101.2,0,0,0,454.86,150.81Z"/><path class="cls-12" d="M432.56,101.42s-3.45-1.35-6.33,3.07-5.57,19.2-3.08,32.83,4.42,18.81,10.37,18.81,16.89-2.5,25-20.93S463.85,95.66,432.56,101.42Z"/><path class="cls-26" d="M431.6,112.63c-1.34,0-7.35.88-9.43-11.41s11.07-27.37,20.09-23.33-2.4,11-2.4,11,6.52-3.65,8.44.57-1,6.15,0,7.11,7.15-7.67,14.05-.77,2.27,11.13,4,15,9.65,9.37,1.73,22.27a22.06,22.06,0,0,1-13.63,9.75,38.18,38.18,0,0,0,1.34-10.13c0-5.76-4.61-1.15-4.61-1.15s2.11-.44,2.11-6.15c0-6.12,2.5-11.07,2.5-12.64s.58-5.59-6-2.91S431.6,112.63,431.6,112.63Z"/><path class="cls-12" d="M449.58,134.71s-.39-8.64,6.33-10.37,5.85,5.87,2.11,9.6S449.58,134.71,449.58,134.71Z"/><path class="cls-24" d="M455.91,126.91c-2.82-.77-4,3.16-4.14,3.55-.4,1.28-.21,2.46,2.16,2.91S458.73,127.67,455.91,126.91Z"/><path class="cls-33" d="M668,276.84a14.73,14.73,0,1,1,14.73-14.73A14.75,14.75,0,0,1,668,276.84Zm0-25.25a10.52,10.52,0,1,0,10.52,10.52A10.53,10.53,0,0,0,668,251.59Z"/><path class="cls-33" d="M540.13,35.94a28.42,28.42,0,0,1-1.06-9l4.2.17a24.48,24.48,0,0,0,.91,7.67Z"/><path class="cls-33" d="M544.43,11.34a27,27,0,0,1,1.68-2.12,29,29,0,0,1,11.37-8L559,5.18A24.79,24.79,0,0,0,549.28,12c-.5.57-1,1.18-1.43,1.8ZM573,4.11,573.92,0a28.82,28.82,0,0,1,14.44,8l-3,2.94A24.65,24.65,0,0,0,573,4.11Z"/><path class="cls-33" d="M592.16,31.13a24.36,24.36,0,0,0-.25-7.72L596,22.6a28.91,28.91,0,0,1,.3,9Z"/><rect class="cls-33" x="24.61" y="423.36" width="4.21" height="21.53" transform="translate(-399.14 345.67) rotate(-74.75)"/><rect class="cls-33" x="658.64" y="394.1" width="4.21" height="60.5" transform="translate(30.62 892.97) rotate(-69.35)"/><circle class="cls-33" cx="647.76" cy="365.65" r="13.47"/><circle class="cls-33" cx="75.83" cy="68.16" r="5.61"/><circle class="cls-33" cx="320.07" cy="156.16" r="5.61"/><circle class="cls-33" cx="202.68" cy="87.51" r="5.61"/><circle class="cls-33" cx="109.43" cy="510.99" r="5.61"/><rect class="cls-33" x="453.28" y="400.84" width="7.72" height="26.65" transform="translate(-127.93 218.7) rotate(-23.7)"/><path class="cls-33" d="M322.34,473.43l-2.52-3.37a28.53,28.53,0,0,1,8-4.2l1.35,4A24.31,24.31,0,0,0,322.34,473.43Z"/><path class="cls-33" d="M363.17,505.1l-3.82-1.76a24.26,24.26,0,0,0,2.24-10.22,26,26,0,0,0-.28-3.72l4.16-.63a28.86,28.86,0,0,1,.33,4.35A28.37,28.37,0,0,1,363.17,505.1Zm-7.88-28.42a24.56,24.56,0,0,0-12-7.33l1.07-4.07a28.77,28.77,0,0,1,14.08,8.58Z"/><path class="cls-33" d="M343.93,521l-1-4.09a24.33,24.33,0,0,0,7.12-3l2.23,3.57A28.84,28.84,0,0,1,343.93,521Z"/><path class="cls-33" d="M52,165.71A20.95,20.95,0,0,1,37.17,130h0A21,21,0,1,1,52,165.71ZM40.14,132.93a16.74,16.74,0,1,0,23.68,0,16.77,16.77,0,0,0-23.68,0Z"/><rect class="cls-33" x="-9.19" y="285.24" width="46.69" height="4.21" transform="matrix(0.53, -0.85, 0.85, 0.53, -237.02, 147.06)"/><path class="cls-24" d="M467,171.56s52,6.31,60.66,12.77L521.09,216s-26-16.12-45.16.23C469,222.12,467,171.56,467,171.56Z"/><path class="cls-21" d="M472.28,249.33s6.59-8.54,15.85-10.33,14.47.74,20.4,2.28,11.08,2,12.06-3.65-4.3-36.58-9.59-36.7c-8.64-.21-8.91,8.3-12.78,12.4s-16.85,5.84-19.85,3-14.29-8.2-20.44-3.84.66,29.81,3.65,35.05S472.28,249.33,472.28,249.33Z"/><path class="cls-22" d="M450.18,223.56c-.57.57-.88,6.21,0,9.75s.38,4.44,1.9,7.6,1.25,4.88,4,4.88,11.85-5.32,13.08-8-7.5.76-7.5.76,6.74-3.14,6.74-4.65-2.94-2.57-8.26.09c0,0,5.42-2.53,5.42-5.25s-7.79,0-7.79,0,7.21-2.82,6-5.2S450.18,223.56,450.18,223.56Z"/><path class="cls-12" d="M512.52,212.55a8.47,8.47,0,0,0,5.38-2.39c4.81-4.93,11.3-14.69,14.66-18,10.72-10.72,49.57,7.14-12.17,34.86-4.88,2.2-4.08,1.71-4.08,1.71Z"/><path class="cls-22" d="M508.51,215.3s4.54-8.73,6.74-7.88.5,3.69,2.18,5.79,2.59.86,2.59,5.7,2,5,2,9-8.31,7.41-10.67,6.65,2.64-4.46,2.64-4.46-4.48,2.23-5.52.92,4-5.29,4-5.29-4,3-5.3,1.42,3.38-6.62,3.38-6.62-4.89,4.53-4.89,2.35S508.51,215.3,508.51,215.3Z"/><path class="cls-34" d="M232.27,262.31l-4.05-1.42S189,290.67,183.14,298.78l24.56,22,33-17.86Z"/><path class="cls-34" d="M287.27,238.61A93.32,93.32,0,0,0,307,289.66c11.85,14.83,9.88,17.47,9.88,17.47l36-15.57s-19-25.06-25.82-33.78C313.69,240.88,292.08,236.21,287.27,238.61Z"/></g></g></svg>