<svg xmlns="http://www.w3.org/2000/svg" xmlns:xlink="http://www.w3.org/1999/xlink" viewBox="0 0 999.15 732.81"><defs><style>.cls-1{isolation:isolate;}.cls-2{fill:#31426b;}.cls-29,.cls-3{opacity:0.12;}.cls-3{mix-blend-mode:multiply;}.cls-4{fill:#fff;}.cls-5{fill:#3b455a;}.cls-6{fill:#b2d7c4;}.cls-7{fill:#7cac8f;}.cls-8{opacity:0.2;}.cls-9{fill:#efbfa5;}.cls-10{fill:url(#linear-gradient);}.cls-11{fill:url(#linear-gradient-2);}.cls-12{fill:url(#linear-gradient-3);}.cls-13{fill:#c1796b;}.cls-14{fill:#5b826a;}.cls-15{fill:url(#linear-gradient-4);}.cls-16{fill:#3e3d3b;}.cls-17{fill:url(#linear-gradient-5);}.cls-18{fill:url(#linear-gradient-6);}.cls-19{fill:#e1cfb5;}.cls-20{fill:#b89ec8;}.cls-21{fill:url(#linear-gradient-7);}.cls-22{fill:#ccd2d9;}.cls-23{opacity:0.13;}.cls-24{fill:#a0a2a5;}.cls-25{opacity:0.26;}.cls-26{fill:#040909;}.cls-27{fill:#f7f7f7;}.cls-28{opacity:0.05;}.cls-30{fill:#bec6cc;}.cls-31{opacity:0.47;}.cls-32{fill:#c0c4c9;}.cls-33{fill:#f3e540;}.cls-34{fill:#f9f9f9;}.cls-35{fill:url(#linear-gradient-8);}.cls-36{fill:#060644;}</style><linearGradient id="linear-gradient" x1="339.96" y1="283.78" x2="386.03" y2="494.41" gradientUnits="userSpaceOnUse"><stop offset="0.07" stop-color="#b2d7c4"/><stop offset="1" stop-color="#bd9ccb"/></linearGradient><linearGradient id="linear-gradient-2" x1="271.16" y1="298.83" x2="317.22" y2="509.46" xlink:href="#linear-gradient"/><linearGradient id="linear-gradient-3" x1="433.74" y1="263.27" x2="479.8" y2="473.91" xlink:href="#linear-gradient"/><linearGradient id="linear-gradient-4" x1="628.73" y1="282.68" x2="622.47" y2="491.08" xlink:href="#linear-gradient"/><linearGradient id="linear-gradient-5" x1="80.22" y1="324.47" x2="32.82" y2="400.72" xlink:href="#linear-gradient"/><linearGradient id="linear-gradient-6" x1="59.3" y1="302.36" x2="127.85" y2="542.31" xlink:href="#linear-gradient"/><linearGradient id="linear-gradient-7" x1="780.77" y1="296.02" x2="796.57" y2="528.57" xlink:href="#linear-gradient"/><linearGradient id="linear-gradient-8" x1="149.15" y1="353.63" x2="183.53" y2="473.97" xlink:href="#linear-gradient"/></defs><g class="cls-1"><g id="Layer_2" data-name="Layer 2"><g id="object"><path class="cls-2" d="M311.69,40.14c-18.5,2.12-39.48,16.37-41.87,33-8.54-14.46-38.36-18.5-56.28-13.41-47.26,13.41-52.92,70.2-25.43,102.2C202.91,179.14,222,193,242.22,204.8c16.91,9.9,59.38,29.59,59.48,29.48.13.07,31.9-34.31,43.77-49.91,14.18-18.62,26.58-38.69,33.71-60.25C392.42,84.06,360.5,34.55,311.69,40.14Z"/><g class="cls-3"><path d="M370.74,130.52a266.19,266.19,0,0,1-33,47.79c-12.32,14.15-27.43,27.35-45.55,34.35a67.31,67.31,0,0,1-26.32,4.62c17.67,8.79,36.71,17.59,36.78,17.51.13.07,31.9-34.31,43.77-49.91,14.18-18.62,26.58-38.69,33.7-60.25a60.66,60.66,0,0,0,3-21.45A193.31,193.31,0,0,1,370.74,130.52Z"/></g><path class="cls-4" d="M366.92,115.45l-37.54,8.43L305.92,77c-1.13-2.25-4.65-1.37-5,1l-12.15,92c-.24,1.78-.47,3.56-.71,5.33L257,122.52l-5-8.47c-1-1.7-4.17-1.83-4.81.35l-9,30.44L196,153.19a2.47,2.47,0,1,0,1,4.84l43.82-8.67a2.62,2.62,0,0,0,2-1.64q3.85-13,7.7-26.08l31.91,54.21,5,8.47a2.7,2.7,0,0,0,5-1l12.15-92c.2-1.46.39-2.93.58-4.4q10.26,20.47,20.51,41a2.62,2.62,0,0,0,2.83,1.28l39.51-8.86C371.16,119.55,370.22,114.71,366.92,115.45Z"/><path class="cls-5" d="M740.54,112.59h0a1.09,1.09,0,0,1-1.44.52l-42.21-19.7a1.08,1.08,0,0,1-.52-1.44h0a1.08,1.08,0,0,1,1.44-.53L740,111.15A1.08,1.08,0,0,1,740.54,112.59Z"/><path class="cls-6" d="M748,112.94l-2.35,5-22.53-10.51a2.79,2.79,0,0,1-1.35-3.71h0a2.79,2.79,0,0,1,3.7-1.34Z"/><path class="cls-7" d="M930.28,193.27l-3.2,6.12L900,185.15l-9.7,18.49,27.13,14.23-3.2,6.11a5.05,5.05,0,0,0,8.94,4.7L939.23,198a5.05,5.05,0,0,0-9-4.7Z"/><g class="cls-8"><polygon points="905.75 211.77 915.45 193.29 922.71 197.09 907.74 212.81 905.75 211.77"/></g><path class="cls-5" d="M876.45,191.64h55.22a0,0,0,0,1,0,0v12a2.77,2.77,0,0,1-2.77,2.77H879.22a2.77,2.77,0,0,1-2.77-2.77v-12A0,0,0,0,1,876.45,191.64Z" transform="translate(307.83 907.19) rotate(-62.32)"/><path class="cls-6" d="M920,158a4.77,4.77,0,0,0-6.07,2.24l-1.88,3.59a4.58,4.58,0,0,1-6.17,1.92L782.54,101a7.19,7.19,0,0,0-4.84-.66l-35.31,7.56a2.29,2.29,0,0,0-1.55,1.19l-3.66,7a2.31,2.31,0,0,0-.08,1.94L751,151.27a7.23,7.23,0,0,0,3.29,3.59l123.36,64.71a4.56,4.56,0,0,1,1.92,6.16l-1.88,3.6a4.75,4.75,0,0,0,1.61,6.26,4.64,4.64,0,0,0,6.54-1.81l36.4-69.39A4.65,4.65,0,0,0,920,158Z"/><g class="cls-8"><path d="M782.72,108.13a7.71,7.71,0,0,0-4.49-.87l-32,4a1.7,1.7,0,0,0-1.35.88L742,117.72a1.74,1.74,0,0,0,0,1.61l15,28.46a7.7,7.7,0,0,0,3.25,3.19L877.91,212.7Z"/></g><path class="cls-5" d="M805.76,173.79h17.71a.32.32,0,0,1,.32.32v2.76a.32.32,0,0,1-.32.32H805.76a0,0,0,0,1,0,0v-3.4A0,0,0,0,1,805.76,173.79Z" transform="translate(280.89 815.5) rotate(-62.32)"/><path class="cls-5" d="M763.76,151.76h17.71a.32.32,0,0,1,.32.32v2.76a.32.32,0,0,1-.32.32H763.76a0,0,0,0,1,0,0v-3.4a0,0,0,0,1,0,0Z" transform="translate(277.91 766.52) rotate(-62.32)"/><path class="cls-5" d="M847.76,195.82h17.71a.32.32,0,0,1,.32.32v2.76a.32.32,0,0,1-.32.32H847.76a0,0,0,0,1,0,0v-3.4a0,0,0,0,1,0,0Z" transform="translate(283.87 864.49) rotate(-62.32)"/><path class="cls-5" d="M829.11,189h9a.26.26,0,0,1,.26.26v2.27a.26.26,0,0,1-.26.26h-9a0,0,0,0,1,0,0V189A0,0,0,0,1,829.11,189Z" transform="translate(277.84 840.28) rotate(-62.32)"/><path class="cls-5" d="M787.12,167h9a.26.26,0,0,1,.26.26v2.27a.26.26,0,0,1-.26.26h-9a0,0,0,0,1,0,0V167A0,0,0,0,1,787.12,167Z" transform="translate(274.85 791.28) rotate(-62.32)"/><polygon class="cls-2" points="400.06 464.89 394.87 536.01 377.66 653.74 364.43 653.74 356.07 545.11 352.37 457.22 400.06 464.89"/><polygon class="cls-5" points="364.5 652.17 364.5 659.32 378.81 666.48 385.97 659.32 378.81 652.17 364.5 652.17"/><polygon class="cls-2" points="306.34 448.14 311.37 547.82 322.88 662.25 336.44 662.25 347.45 553.83 363.54 439.71 306.34 448.14"/><polygon class="cls-5" points="336.36 660.64 336.36 667.97 321.7 675.29 314.38 667.97 321.7 660.64 336.36 660.64"/><path class="cls-9" d="M352.53,288.31,338.66,287a69.5,69.5,0,0,1,.74-11.07c-3.86-1.35-8.31-3.38-9-7.41a11.79,11.79,0,0,1,.22-3.83l2.7-15.72a14.12,14.12,0,0,1,1.62-5.24c1.73-2.72,5.08-3.92,8.26-4.48,8.12-1.42,17,.33,23.26,5.64A12.53,12.53,0,0,1,370.4,250c1.14,3.18.3,6.69-.56,10q-1.17,4.53-2.36,9.06c-.91,3.47-2.22,7.41-5.56,8.72-1.77.69-3.87.49-5.48,1.52C353.61,281.08,354,285.29,352.53,288.31Z"/><path class="cls-5" d="M385,234.72c.41-4.28.63-7.81-.26-12-.52-2.45-3.66-10.19-2.7-12.37-1.79,3.79-6.61,4.83-10.77,5.25-15.61,1.56-33-2.3-47.37,5.71a18.52,18.52,0,0,0-6.34,6.26,27.91,27.91,0,0,0,0,29.51,38.83,38.83,0,0,0,4.35,5.47c3.27,3.54,7.19,7.92,11.7,9.23.1-4-3.59-16.72-.5-20,4.34-4.64,12.22-3.74,17.86-2.93a82.76,82.76,0,0,0,21.56.11,25.35,25.35,0,0,0,6.92-1.47c5.23-2.18,5-7,5.51-12C384.94,235.23,385,235,385,234.72Z"/><polygon class="cls-9" points="259.63 222.49 260.84 228.71 250.89 229.81 249.69 221.87 249.1 217.92 245.99 209.94 247.08 202.82 253.94 199.89 260.91 201.73 262.83 206.8 260.67 213.12 262.71 212.13 263.58 213.75 259.16 220.1 259.63 222.49"/><polygon class="cls-10" points="420.33 277.3 387.16 325.98 420.33 490.93 279.31 487.5 297.57 370.79 310.06 323.26 254.62 293.95 248.72 221.81 249.69 221.87 250.89 229.81 260.84 228.71 259.63 222.49 261.94 222.64 279.31 268.19 319.65 286.74 319.69 286.6 362.6 284.78 391.53 263.52 411.43 191.51 413.7 191.04 413.37 197.37 423.38 197.05 423.45 189.03 424.4 188.83 425.43 238.73 420.33 277.3"/><polygon class="cls-11" points="260.84 228.71 250.89 229.81 249.69 221.87 259.63 222.49 260.84 228.71"/><polygon class="cls-9" points="425.43 176.69 423.48 185.03 423.45 189.03 423.38 197.05 413.37 197.37 413.7 191.04 413.82 188.61 408.55 182.95 409.18 181.22 411.34 181.91 408.31 175.96 409.49 170.67 416.14 167.86 423.34 169.79 425.43 176.69"/><polygon class="cls-12" points="423.45 189.03 423.38 197.05 413.37 197.37 413.7 191.04 423.45 189.03"/><polygon class="cls-13" points="580.81 254.62 579.2 246.21 583.54 240.03 582.7 238.44 580.7 239.4 582.84 233.24 580.98 228.28 574.17 226.46 567.47 229.29 566.38 236.24 569.38 244.04 571.09 255.66 580.81 254.62"/><polygon class="cls-14" points="581.26 245.79 568.02 257.04 569.9 314.81 592.16 330.32 634.72 324.87 629.04 288.31 593.5 295.15 581.26 245.79"/><polygon class="cls-2" points="716.88 648.44 718.54 656.08 705.36 666.95 696.26 660.93 702.03 651.68 715.22 640.81 716.88 648.44"/><polygon class="cls-14" points="670.76 413.71 685.47 447.64 686.86 543.12 717.12 645.81 703.05 652.05 641.3 532.81 634.28 495.04 631.48 415.49 670.76 413.71"/><polygon class="cls-14" points="599.51 421.31 598.35 521.37 617.21 650.38 631.71 650.38 640.86 531.34 660.7 412.3 599.51 421.31"/><polygon class="cls-14" points="631.62 648.65 631.62 656.49 615.94 664.33 608.1 656.49 615.94 648.65 631.62 648.65"/><path class="cls-14" d="M628.06,285.82l38.51-1.42s23,20.21,34.95,72.74c12.12,53.49-2.24,130.49-2.24,130.49S596,473.86,579,471.74l25.85-105.61Z"/><path class="cls-13" d="M641.86,289.76l13.49-1.32a68.27,68.27,0,0,0-.71-10.78c3.75-1.31,8.08-3.28,8.74-7.2a11.19,11.19,0,0,0-.22-3.73q-1.3-7.65-2.62-15.29a13.52,13.52,0,0,0-1.58-5.09c-1.68-2.66-4.94-3.82-8-4.36-7.89-1.38-16.49.32-22.62,5.48a12.28,12.28,0,0,0-3.83,5c-1.11,3.09-.28,6.51.55,9.69.76,2.94,1.53,5.87,2.3,8.81.88,3.38,2.15,7.22,5.4,8.49,1.73.67,3.77.48,5.33,1.47C640.81,282.72,640.43,286.82,641.86,289.76Z"/><path class="cls-5" d="M597.92,238.8a44.23,44.23,0,0,1,1.1-10.22c1.2-5.48,7.67-7.94,13.26-8.33,12.08-.84,23.74-6.31,35.54-2.09,6.74,2.42,15.8,3,21.9,6.41a18,18,0,0,1,6.16,6.09,27.14,27.14,0,0,1,0,28.71,38.59,38.59,0,0,1-4.23,5.32c-3.19,3.45-7,7.71-11.38,9-.1-3.92,3.48-16.26.48-19.48-4.77-5.1-15.56-3.34-21.49-2.09-6.46,1.36-12.22,5.93-18.63,6.89-4.61.7-10.49-1.57-14.4-4C600.13,251.3,598.08,245.11,597.92,238.8Z"/><path class="cls-15" d="M638.68,290.59,598.2,452.53l-3.32,21.24,50.44,6.64s-2-77.55-1.33-87.89,8.15-32.71,9.29-56.8c.67-13.94,5.09-39,2-47.13Z"/><polygon class="cls-5" points="103.94 653.79 103.73 655.96 103.04 663.15 88.47 669.4 82.22 661.72 89.85 655 90.55 654.7 90.64 655.59 103.94 653.79"/><path class="cls-13" d="M104.68,653.69l-.74.1h-.78l-12.52,1.8L79,533.17l-1.42-5.74c10.9.16,23.86.33,36.91.43Z"/><path class="cls-13" d="M163,527.8l-2.68,31.8-26.91,82.48-13.15-1.75-.21,1.61h-.07l9.68-85-8.29-29C136.59,528,151.51,528,163,527.8Z"/><polygon class="cls-5" points="133.37 642.08 134.2 642.18 140.21 650.44 132.25 656.83 119.25 647.65 120.01 641.94 132.86 643.65 133.37 642.08"/><polygon class="cls-16" points="133.37 642.08 132.86 643.65 120.01 641.94 120.22 640.33 133.37 642.08"/><path class="cls-17" d="M71.79,342.84c-1.69,8-8,13.8-14.14,19.32a334.87,334.87,0,0,1,13.77-30.75A27.22,27.22,0,0,1,71.79,342.84Z"/><path class="cls-18" d="M181.6,527c-3.33.43-10,.69-18.64.84-11.45.21-26.38.21-41.63.12l-6.82,0c-13.06-.1-26-.27-36.92-.43C60.88,527.19,49,527,49,527s-10.16-74.62-1.14-129.77a21.46,21.46,0,0,0,5.38,4.06c5.05,2.7,10.9,3.55,16.61,3.54,4.58,0,9.22-.53,13.69.45s8.9,3.89,10,8.33c.63,2.45.42,5.52,2.54,6.9a6.57,6.57,0,0,0,3.43.74c3.62.1,7.74,0,10.17-2.68,3.76-4.16,1.56-12.49,6.65-14.86,1.49-.69,3.21-.58,4.83-.86,6.88-1.16,10.25-8.95,9.59-16.09a18.1,18.1,0,0,0-.93-4.3c-2.85-7.93-9.44-13.82-14.43-20.61-9.74-13.26-16.32-31-10.33-46.66a41.76,41.76,0,0,0,1.58-4.48,10.41,10.41,0,0,0,.38-2.55c.09-4.68-3.39-8.53-5.64-12.64-.21-.38-.41-.78-.6-1.21a21.89,21.89,0,0,1-1.14-3.43l1,.47a15.65,15.65,0,0,0,7.7,3.67l27,12.86,10.82,44.07L153.06,380l.52,2.09.11.45,5.19,26.86Z"/><path class="cls-13" d="M99.52,290.27c-2.53-11,.21-28.27,7.54-34.73,2.88-2.54,6.18-3,9.85-3,1.73,0,2.31.44,3.21.28,2.73,3.51,4.56,7.8,4.22,11.85-.28,3.41-2.25,6-2.4,9.68-.32,6.67-9.85,13.37-6.19,20a15.73,15.73,0,0,1-7.41.66l-7.7-3.67C100.26,291,99.88,290.63,99.52,290.27Z"/><path class="cls-19" d="M108.34,295a15.69,15.69,0,0,1-7.7-3.67Z"/><path class="cls-13" d="M121.94,274.32c.15-3.66,2.12-6.27,2.4-9.68.34-4.05-1.49-8.34-4.22-11.85a4.55,4.55,0,0,0,1.53-.68c1.31-.82,2.48-3,3.1-4.7,3.4,2.15,5.88,6,6.56,12,.74,6.44.73,13.23-1.47,19.67s-6.92,12.5-13,14.89c-.36.14-.71.27-1.06.38C112.09,287.69,121.62,281,121.94,274.32Z"/><path class="cls-5" d="M43.08,388.15a17.36,17.36,0,0,0,4.77,9c.2-1.18.4-2.35.61-3.51-.21,1.16-.41,2.33-.61,3.51a21.51,21.51,0,0,0,5.39,4.06c5,2.7,10.89,3.55,16.61,3.54,4.57,0,9.22-.53,13.69.45s8.9,3.89,10,8.33c.62,2.45.42,5.52,2.53,6.9a6.59,6.59,0,0,0,3.43.74c3.63.1,7.74,0,10.17-2.68,3.76-4.16,1.57-12.49,6.65-14.86,1.49-.69,3.21-.58,4.83-.86,6.89-1.16,10.25-8.95,9.59-16.09a17.63,17.63,0,0,0-.93-4.3c-2.84-7.93-9.43-13.82-14.42-20.61-9.74-13.25-16.33-31-10.34-46.66a44.12,44.12,0,0,0,1.59-4.48,11.47,11.47,0,0,0,.38-2.55c.08-4.68-3.4-8.53-5.65-12.64a12.36,12.36,0,0,1-.59-1.21,21.09,21.09,0,0,1-1.15-3.42c0-.19-.09-.38-.14-.57-6.91-6.89-9.68-19.69-5.13-29.26.26-.54.54-1.07.83-1.59-.29.52-.57,1.05-.83,1.59-4.55,9.57-1.78,22.37,5.13,29.26-2.53-11,.22-28.27,7.54-34.73,2.88-2.54,6.18-3,9.85-3,1.73,0,2.31.44,3.21.28a4.55,4.55,0,0,0,1.53-.68c1.31-.82,2.48-3,3.1-4.7,3.4,2.15,5.88,6,6.56,12,.75,6.44.73,13.23-1.47,19.67s-6.92,12.5-13,14.89c-.36.14-.71.27-1.06.38a8.52,8.52,0,0,0,1.19,1.65c3.34,3.68,8.71,4.53,13.64,5.17a3.61,3.61,0,0,0,1.79-.07,2.58,2.58,0,0,0,1.41-2.42,10.37,10.37,0,0,0-.62-2.9c-2.87-10,2.21-21.39,3.05-31.45s-1.22-21-9.28-27.76a21.71,21.71,0,0,0-4,1.53,6.12,6.12,0,0,0-.39-.5c-11.67-14-28.14-2-37,8.67-7.31,8.82-13.4,19-16.19,30.14-2.61,10.46-3.49,25.85-2.38,36.55.64,6.24,3.11,12.37,4.42,18.49a27.22,27.22,0,0,1,.37,11.43c-1.69,8-8,13.8-14.14,19.32-.56,1.44-1.12,2.89-1.67,4.37s-1.11,3-1.66,4.49c-.35,1-.69,2-1,3,.33-1,.67-2,1-3,.55-1.52,1.1-3,1.66-4.49s1.11-2.93,1.67-4.37l-2.53,2.28C48.27,370.67,41.53,379,43.08,388.15Zm61.36-138.68a27.89,27.89,0,0,1,2.78-1.62A27.89,27.89,0,0,0,104.44,249.47Z"/><polygon class="cls-9" points="789.2 469.98 846.08 449.06 834.35 548.69 841.14 634.65 841.75 640.12 841.75 640.12 841.75 640.12 830.57 640.41 830.57 640.41 830.57 640.41 804.52 559.95 791.26 478.37 791.26 478.37 789.2 469.98"/><polygon class="cls-2" points="830.57 640.41 842.21 640.12 845.18 649.93 844.88 650.02 844.96 650.03 825.72 661.43 816.58 662.45 815.41 651.99 817.88 650.18 830.57 640.41"/><polygon class="cls-9" points="750.46 471.69 767.93 646.28 779.18 647.93 790.1 550.68 809.7 458.94 750.46 471.69"/><polygon class="cls-2" points="767.56 646.24 752.65 654.69 754.05 661.73 780.69 657.71 779.12 647.57 767.56 646.24"/><path class="cls-20" d="M723.8,514.53c-3.6-2.5-3.68-6.85-3.67-11.21a108.63,108.63,0,0,1,3.36-24.5c3.57-14.91,7.62-32.88,9.4-52.21,4.6-50,20.38-83.48,20.38-83.48l5.09-13.58c1-1.76,2.06-3.51,3.15-5.23,6.36-10,17.4-26.93,29.21-29.7l.74-.17C803.88,291.72,819.78,293,831,299a39.18,39.18,0,0,1,5.9,4.19c5.49,4.42,10,6.82,12.33,13.56,2,5.86,2.53,12.24,3.66,18.31,2.3,12.33,3.67,24.8,5.51,37.2,3.44,23.25,6.37,46.58,10.05,69.79,1.9,11.95,3.81,23.92,4.7,36,.79,10.67,10.42,21.51,15.83,31.08,1.89,3.33-25.16,12-27.58,12.52-11.22,2.61-23.15,1.94-34.71,2q-38,.18-76-2.34c-8.4-.56-18.76-2.16-26.21-6.34C724.25,514.83,724,514.68,723.8,514.53Z"/><path class="cls-21" d="M805.38,293.08s14.28-3.85,16.25,28.36,5.26,113.72,9.86,136.07S843,523.69,843,523.69l-43.71,1.52-50-3.94s17.09-31.56,19.72-53.9-2-106.49,9.21-138S791.76,293.65,805.38,293.08Z"/><polygon class="cls-20" points="740.78 364.82 717.98 361.3 717.98 341.67 772.99 299.74 790.74 294.49 782.19 317.49 740.78 364.82"/><path class="cls-5" d="M785.47,267.56c-2.16,6.49,1,13.4,3.71,19.31,2.44,5.24,3.28,8.69-2.9,10.11-3.48.79-9.65,2.28-12.71-.38-2.31-2-1-8.26.12-10.74.86-1.89,3.13-2.85,3.94-4.76a6.72,6.72,0,0,0,.39-2.52,34.83,34.83,0,0,0-1.43-10.35,35.55,35.55,0,0,1-1.79-6.88c-.3-3.43,2.13-7.43,3.4-10.58,2.37-5.87,10.63-13.73,17.54-9.13a10.18,10.18,0,0,1,3.26,4.55,8.45,8.45,0,0,1,.9,3.24c.06,4.5-4,5.26-6.89,7.4A22.54,22.54,0,0,0,785.47,267.56Z"/><path class="cls-9" d="M798.62,292.87c-6-1.41-10.68-6.45-12.94-12.18s-2.37-12.09-1.74-18.22c2.07-20.39,27.44-19.08,36-3.45C827.45,272.64,816.05,297,798.62,292.87Z"/><path class="cls-9" d="M798.63,290.67l.3,7a1.4,1.4,0,0,0,.28,1,1.42,1.42,0,0,0,1.09.26l5.68-.19a6.18,6.18,0,0,0,2.74-.52c1.81-1,2.19-3.43,1.9-5.46s-1-4.09-.59-6.09c-3.91,1.92-7.62-2.43-11.53-.5Z"/><path class="cls-5" d="M806.81,227.12c6.66,2.26,10.93,9,17.43,11.69,3.72,1.54,8.14,1.74,11.18,4.39,6.81,5.94,1.33,18.4,6.93,25.5,1.17,1.48,2.74,2.59,3.91,4.07,2.52,3.17,2.85,7.51,3.07,11.55a13.31,13.31,0,0,1-.09,2.82c-.88,9.35-14.45,8.76-19.84,8.16-5.92-.66-3.95-3.95-3.95-3.95l.22-.26a11.35,11.35,0,0,0-4-10.26,13.87,13.87,0,0,1-3.19-2.8c-1.76-2.68-.08-6.22-.34-9.41-1-12.84-22.58-10.09-28.66-19.23C782,238.18,794.23,222.85,806.81,227.12Z"/><polygon class="cls-9" points="859.77 209.53 851.52 197.99 846.43 201.3 850.33 210.45 847.2 210.9 855.46 219.92 861.21 217.19 859.77 209.53"/><polygon class="cls-20" points="824.85 308 868 273.15 851.98 219.92 867.89 213.44 897.56 283.64 854.36 338.14 824.85 308"/><polygon class="cls-9" points="765.92 368.09 778.8 365.96 778.13 360.42 768.99 359.92 769.88 357.15 759.08 360.31 759 366.18 765.92 368.09"/><polygon class="cls-20" points="730.91 347.25 730.85 348.37 762.38 358.02 761.63 369.64 717.98 358.44 730.91 347.25"/><rect class="cls-6" x="516.17" y="547.55" width="160.85" height="120.57" rx="17.89"/><path class="cls-6" d="M631.82,541V517.88a4.19,4.19,0,0,0-4.34-3.87H564.84a4.18,4.18,0,0,0-4.33,3.87v23.06a6.56,6.56,0,0,0-6.32,6.61h21.25a6.57,6.57,0,0,0-6.26-6.61v-19.2h54v19.19h-.44a6.56,6.56,0,0,0-6.5,6.62h21.25A6.59,6.59,0,0,0,631.82,541Z"/><path class="cls-4" d="M633.88,595.72H605.3V566.64a2,2,0,0,0-2-2H587.1a2,2,0,0,0-2,2v29.08H556.57a2,2,0,0,0-2,2v16.53a1.84,1.84,0,0,0,.57,1.39,1.78,1.78,0,0,0,1.4.6h28.57v29.08a2,2,0,0,0,2,2h16.24a1.77,1.77,0,0,0,1.37-.58,1.82,1.82,0,0,0,.59-1.42V616.23h28.58a2,2,0,0,0,2-2V597.71A2,2,0,0,0,633.88,595.72Z"/><path class="cls-5" d="M307.52,345.55a37.56,37.56,0,1,0,28.72-44.8A37.63,37.63,0,0,0,307.52,345.55Z"/><path class="cls-22" d="M319,343.06a25.82,25.82,0,1,0,19.73-30.79A25.86,25.86,0,0,0,319,343.06Z"/><rect class="cls-22" x="355.26" y="351.58" width="10.06" height="120.16" transform="translate(799.71 737.52) rotate(167.75)"/><path class="cls-5" d="M336,340.33a8.84,8.84,0,1,0,6.76-10.55A8.86,8.86,0,0,0,336,340.33Z"/><g class="cls-23"><path d="M341,346.54l6.21,28.63a45,45,0,0,1-9-.38l1.26-29.16Z"/></g><path class="cls-5" d="M540.39,437.29c-2.19.39-4.06,2.27-6.48,2,.54,3.45-.69-4.57-.35-1.08.45,4.66.74,9.35.85,14,.06,2.66.07,5.33,0,8,0,.46-.1,2.95,0,1.07l-.09,2.1c-.07,1.36-.15,2.72-.25,4.07a140.73,140.73,0,0,1-2.41,17.69q-.92,4.48-2.19,8.93-.68,2.34-1.46,4.65c-.23.66-.47,1.32-.7,2,0,.13-.12.33-.18.48l-.14.38a86.16,86.16,0,0,1-8.73,16.58c-.45.65-.92,1.29-1.39,1.93.49-.67-.74,1-1,1.27-.9,1.11-1.84,2.21-2.83,3.28a73.91,73.91,0,0,1-6.71,6.37c.46-.4-1.44,1.11-1.79,1.37-.69.5-1.39,1-2.1,1.48q-1.94,1.3-4,2.5c-.92.53-1.86,1.05-2.81,1.55l-1,.5-.09,0-.1,0c-1.55.68-3.06,1.38-4.64,2q-3,1.17-6.08,2.11c-.86.27-1.74.52-2.61.76l-1.19.31-.07,0a121.56,121.56,0,0,1-12.73,2.12c-1.23.12-2.46.21-3.69.3h-.38l-.83,0,.49,0-.48,0c-1.85,0-3.69,0-5.54-.08s-3.93-.27-5.87-.51l-2.43-.35h-.06l-.12,0c-.34-.08-.7-.14-1-.21a68.65,68.65,0,0,1-10-2.87c-.49-.18-3.45-1.44-1.59-.6-.68-.31-1.38-.61-2.06-.93-1.44-.67-2.84-1.39-4.21-2.14a77,77,0,0,1-7.84-5l-.57-.43-1.15-.91c-.57-.46-1.13-.92-1.68-1.4q-1.77-1.5-3.43-3.08a93.31,93.31,0,0,1-6.66-7c-1.11-1.29-2.17-2.6-3.21-3.92-.29-.38-1.35-1.81-.75-1-.43-.58-.85-1.16-1.27-1.75a149.66,149.66,0,0,1-17.15-32.6q-1.51-3.9-2.85-7.83c-.24-.69-.47-1.39-.7-2.08a1.62,1.62,0,0,0-.06-.17c0-.08-.05-.18-.1-.32-.37-1.19-.74-2.39-1.1-3.59q-1.86-6.22-3.33-12.52c-.89-3.87-1.74-7.76-2.3-11.68-1.1-7.72-16.71-5.5-15.61,2.21,0,.27.09.54.12.81a140.06,140.06,0,0,0,3.84,17.5A206.1,206.1,0,0,0,375,496.07c10.44,22.9,26.93,47.11,56.28,57.73C462,564.91,502.46,555.11,524,533c20.3-20.88,25.26-48.16,26-72.65.37-11.8,1.6-12.3-.4-23.93C546.83,437.6,543.23,436.78,540.39,437.29ZM480,543.72Zm47-42.29Z"/><path class="cls-22" d="M543.14,199l33.72-5.65A4.57,4.57,0,0,1,582,197q6.45,38.52,12.91,77.05.9,5.43,1.82,10.87c1,5.73-7.91,7.22-8.88,1.48L575,209.36q-.54-3.2-1.07-6.41l-29.29,4.91C538.92,208.81,537.42,199.91,543.14,199Z"/><path class="cls-5" d="M532.58,214.16l10.24-1.71-3-17.82-10.24,1.72a7.61,7.61,0,0,0-6.25,8.76l.47,2.81A7.6,7.6,0,0,0,532.58,214.16Z"/><path class="cls-22" d="M541.67,214.06l8.68-1.45a8.8,8.8,0,0,0,7.22-10.13l-.54-3.23A8.79,8.79,0,0,0,546.9,192l-8.67,1.45Z"/><path class="cls-22" d="M455.1,213.09l-33.72,5.65a4.57,4.57,0,0,0-3.69,5.2L430.59,301q.92,5.43,1.82,10.87c1,5.73,9.84,4.25,8.88-1.49q-6.46-38.52-12.91-77.05c-.36-2.14-.71-4.28-1.07-6.41L456.59,222C462.3,221,460.82,212.13,455.1,213.09Z"/><path class="cls-5" d="M470,224l-10.24,1.72-3-17.81,10.23-1.72a7.62,7.62,0,0,1,8.77,6.25l.47,2.8A7.61,7.61,0,0,1,470,224Z"/><path class="cls-22" d="M461.41,226.9l-8.67,1.46a8.79,8.79,0,0,1-10.13-7.22l-.55-3.24a8.81,8.81,0,0,1,7.23-10.13l8.67-1.45Z"/><g class="cls-23"><path d="M533.94,446.29s.64,5.52,1.07,11.92l15-9.68-1-6.64Z"/></g><path class="cls-5" d="M600,285.11c3.66,16,5.3,32.69,5.86,49.07,1,29.06-1.68,61.36-18.9,85.83-18.22,25.89-54.71,36.91-83.74,23.24-27.71-13-44.54-42-55.72-69.38a314.73,314.73,0,0,1-12.75-38.56c-1.81-6.86-3.6-13.82-4.73-20.83l-.18-1c-1.54-9.17,12.66-11.57,14.2-2.38.78,4.66,1.83,9.29,2.93,13.89q1.77,7.5,3.92,14.92c.41,1.43.84,2.85,1.26,4.28.57,1.89-.33-1,.18.58l.78,2.47q1.51,4.69,3.17,9.34a216.76,216.76,0,0,0,18,39c.47.78.95,1.56,1.43,2.33-.9-1.45.3.47.61,1q1.57,2.38,3.22,4.7c2.08,2.91,4.28,5.73,6.61,8.43q1.64,1.89,3.36,3.71.81.85,1.65,1.68c.36.37.74.73,1.11,1.1s1.52,1.39.16.16a82.93,82.93,0,0,0,7.95,6.42q2,1.38,4,2.62l2,1.13c-1.77-1,1,.52,1.5.73a56.32,56.32,0,0,0,9.39,3.56c.32.1.66.17,1,.27,1.67.51-1.56-.29.16,0,.76.15,1.51.32,2.27.46q2.7.48,5.43.7c1.7.13,3.39.16,5.1.17.44,0,1.74-.08,0,0l1.1-.06c1.13-.09,2.25-.17,3.37-.29a85.74,85.74,0,0,0,11.56-2.33c.34-.09,1.36-.44-.21.07l1.34-.44c.79-.27,1.57-.56,2.35-.86,1.85-.71,3.67-1.52,5.44-2.41,1.41-.72,2.76-1.52,4.13-2.3,1.54-.88-1.27.91.17-.11.28-.2.57-.38.85-.57.84-.58,1.66-1.18,2.47-1.8q1.8-1.39,3.49-2.91c.62-.56,1.23-1.13,1.82-1.72.36-.35,2.54-2.71,1.17-1.17a70.7,70.7,0,0,0,6.11-7.89q1.26-1.89,2.38-3.85c.23-.41,1.5-2.8.59-1,.47-.9.93-1.81,1.37-2.73a106,106,0,0,0,6.88-19.55c.09-.34.17-.68.25-1-.41,1.68-.1.44,0,0,.16-.77.34-1.55.5-2.33.38-1.82.71-3.65,1-5.49.58-3.5,1-7,1.4-10.57a209.41,209.41,0,0,0,1-20.95c0-1.61,0-3.22-.05-4.83l-.06-2.5c0,2.24,0-.72-.06-1.27-.13-3.16-.32-6.33-.56-9.49q-.65-8.36-1.75-16.68c-.86-6.47-2.06-12.85-3.24-19.26-.06-.32-.14-.63-.21-.93-.87-3.81,2.23-7.7,5.91-8.32a7.34,7.34,0,0,1,8.29,5.94Z"/><path class="cls-24" d="M469.32,560.82v-.05l.67-.18h0v0s0,0,0,0h0C469.9,560.68,469.73,560.72,469.32,560.82Z"/><polygon class="cls-24" points="523.14 512.46 523.09 512.44 523.11 512.38 523.16 512.4 523.14 512.46"/><path class="cls-24" d="M529.4,420.32v-.06l.25,0v.06Z"/><path class="cls-24" d="M543.5,423.54l0-.05.48-.15h0v0s0,0,0,0h0A2.5,2.5,0,0,1,543.5,423.54Z"/><path class="cls-24" d="M579.21,379.66h-.05v0c0-.07.05-.18.08-.33l0-.05,0-.21h.05q0,.15-.06.27Z"/><path class="cls-24" d="M579.18,379.79h0a.18.18,0,0,1,0,0h.05A.18.18,0,0,0,579.18,379.79Z"/><path class="cls-24" d="M529.61,425.91v-.05h0l.35,0v.06h-.39Z"/><rect class="cls-5" x="140.84" y="322.84" width="157.76" height="209.28" transform="translate(71.82 -29.84) rotate(9.28)"/><g class="cls-25"><polygon class="cls-26" points="138.07 511.05 140.4 511.43 277.2 538.14 305.51 342.23 298.82 343.01 138.07 511.05"/></g><rect class="cls-27" x="148.98" y="329.52" width="141.85" height="193.62" transform="translate(71.64 -29.89) rotate(9.28)"/><g class="cls-28"><polygon points="164.87 318.49 265.57 334.95 150.94 402.73 164.87 318.49"/></g><g class="cls-29"><rect x="204.41" y="329.74" width="61.61" height="5.75" transform="translate(56.72 -33.58) rotate(9.28)"/></g><path class="cls-30" d="M256.42,315.55l-.94-.16.1-.63c1-5.95-3.82-11.7-10.7-12.82l-9.07-1.48c-6.88-1.13-13.25,2.79-14.22,8.75l-.1.63-1-.15c-6.88-1.13-13.25,2.79-14.22,8.74l-2,12.05,60.8,9.94,2-12.05C268.09,322.41,263.3,316.67,256.42,315.55Zm-10-1.38-16-2.61a3,3,0,1,1,1-5.92l16,2.62a3,3,0,1,1-1,5.91Z"/><g class="cls-31"><path class="cls-32" d="M195.91,379.15l-20.56-3.35a1.08,1.08,0,0,0-1.24.88q-1.67,10.21-3.34,20.44a1.09,1.09,0,0,0,.9,1.23l20.55,3.36a1,1,0,0,0,.77-.16l0,0h0a1,1,0,0,0,.41-.69q1.68-10.21,3.34-20.43A1.09,1.09,0,0,0,195.91,379.15Zm-4.41,20.26-18.41-3q1.49-9.15,3-18.3l18.42,3Q193,390.26,191.5,399.41Z"/><path class="cls-32" d="M189.73,416.93l-20.55-3.36a1.09,1.09,0,0,0-1.24.89q-1.68,10.21-3.34,20.43a1.1,1.1,0,0,0,.9,1.24l20.55,3.36a1,1,0,0,0,.77-.17l0,0,0,0a1,1,0,0,0,.4-.68q1.68-10.22,3.34-20.43A1.1,1.1,0,0,0,189.73,416.93Zm-4.4,20.26-18.42-3q1.5-9.15,3-18.3l18.42,3Q186.82,428,185.33,437.19Z"/><path class="cls-32" d="M183.56,454.71,163,451.35a1.08,1.08,0,0,0-1.24.89q-1.68,10.22-3.34,20.43a1.1,1.1,0,0,0,.9,1.24l20.55,3.36a1,1,0,0,0,.77-.17l0,0h0a1,1,0,0,0,.41-.68q1.68-10.22,3.34-20.43A1.1,1.1,0,0,0,183.56,454.71ZM179.16,475l-18.42-3q1.5-9.16,3-18.31l18.42,3Q180.65,465.81,179.16,475Z"/></g><polygon class="cls-33" points="181.01 384.66 185.99 383.86 187.85 388.99 213.06 376.5 215.6 377.45 185.86 394.56 181.01 384.66"/><polygon class="cls-33" points="172.97 423.11 177.95 422.32 179.81 427.44 205.02 414.96 207.56 415.91 177.82 433.01 172.97 423.11"/><polygon class="cls-33" points="166.7 458.8 171.68 458 173.54 463.13 198.75 450.64 201.29 451.59 171.55 468.7 166.7 458.8"/><rect class="cls-6" x="194.1" y="471.02" width="73.47" height="10.35" transform="matrix(0.99, 0.16, -0.16, 0.99, 79.82, -30.99)"/><rect class="cls-6" x="200.63" y="431.01" width="73.47" height="10.35" transform="translate(73.46 -32.57) rotate(9.28)"/><rect class="cls-6" x="207.17" y="391" width="73.47" height="10.35" transform="translate(67.09 -34.15) rotate(9.28)"/><path class="cls-2" d="M796.46,454.52l-70.59,17.13c-26.11,6.34-52.35-9.44-58.61-35.24h0c-6.26-25.8,9.83-51.85,35.93-58.18l70.42-17.09Z"/><path class="cls-33" d="M799,453.92l79.37-19.42a44.71,44.71,0,0,0,32.9-54l-1.6-6.56a44.69,44.69,0,0,0-54-32.89l-79.38,19.42Z"/><path class="cls-34" d="M757.32,406.48l-17.94,4.35-1.68.41q-1.56-6.45-3.13-12.91c-.52-2.16-1.05-4.32-1.57-6.48a1.4,1.4,0,0,0-1.67-1l-11.15,2.7a1.39,1.39,0,0,0-1,1.66q2.15,8.87,4.3,17.73c.13.55.27,1.1.4,1.66l-13.06,3.17-6.55,1.59a1.4,1.4,0,0,0-1,1.66l2.68,11a1.22,1.22,0,0,0,.61.84,1.28,1.28,0,0,0,1.06.17l17.93-4.36,1.68-.4q1.58,6.45,3.14,12.9.78,3.24,1.57,6.48a1.4,1.4,0,0,0,1.67,1L744.7,446a1.27,1.27,0,0,0,.85-.61,1.23,1.23,0,0,0,.18-1.05q-2.16-8.87-4.3-17.72c-.14-.56-.27-1.11-.41-1.66l13.07-3.17,6.55-1.59a1.39,1.39,0,0,0,1-1.66l-2.67-11A1.4,1.4,0,0,0,757.32,406.48Z"/><polygon class="cls-13" points="601.08 376.02 592.05 378.87 584.71 374.91 583.08 376.04 584.38 378.1 577.35 376.56 572.15 379.24 571.02 386.94 575 393.93 582.76 394.23 590.94 389.92 603.46 386.55 601.08 376.02"/><path class="cls-14" d="M593.4,376.65l42.05-9.86c3.77-.89,7.68-1.08,11.46-2,5.51-1.34,7-1.8,7.8-7.06,2.24-15.25-.61-31.07,1.69-46.09,5.54-.55,10.88-1.86,16.53-1.79,9.23.13,8.43,6.47,9,13.55.61,8.38,1,16.8,1,25.21.05,7,2.35,37.19-7.89,39.4-7.34,1.61-81.27,5.55-81.24,7.07C593.78,394.48,593.4,376.65,593.4,376.65Z"/><path class="cls-13" d="M190.4,403.06c1.76-.55,14.82,2.73,13.95,3.87a24,24,0,0,1-3.31,3.3c3.72,2.27,15.37,6.22,7.06,10.44-3.6,1.83-13.18-.75-16-3.18l-.19-.17L187.26,405A6.64,6.64,0,0,1,190.4,403.06Z"/><path class="cls-35" d="M193.08,420.53c-17.25-2.24-45.82-14.54-55.26-19.72l1.56-15.54.56-6,3.8-7,43.46,32.62.05.16,4.62,12.35Z"/><circle class="cls-36" cx="456.16" cy="116.13" r="8.23"/><path class="cls-36" d="M652.55,181.7a19.38,19.38,0,1,1,19.38-19.37A19.39,19.39,0,0,1,652.55,181.7Zm0-33.21a13.84,13.84,0,1,0,13.84,13.84A13.85,13.85,0,0,0,652.55,148.49Z"/><path class="cls-36" d="M728.62,93.62a37.69,37.69,0,0,1-8.82-8l4.32-3.47A31.88,31.88,0,0,0,731.64,89Z"/><path class="cls-36" d="M711.63,65.51a35.15,35.15,0,0,1-.17-3.55,38.14,38.14,0,0,1,4.39-17.73l4.9,2.59A32.45,32.45,0,0,0,717,62c0,1,0,2,.15,3Zm22.11-31.88-2.67-4.85a37.94,37.94,0,0,1,21.21-4.55l-.43,5.52A32.43,32.43,0,0,0,733.74,33.63Z"/><path class="cls-36" d="M776.06,43.89a32.28,32.28,0,0,0-6.93-7.44l3.4-4.36a37.61,37.61,0,0,1,8.12,8.71Z"/><rect class="cls-36" x="11.62" y="561.78" width="5.54" height="28.32" transform="translate(-545.05 438.29) rotate(-74.75)"/><rect class="cls-36" x="800.7" y="650.45" width="5.53" height="79.58" transform="translate(-125.8 1198.62) rotate(-69.35)"/><circle class="cls-36" cx="898.93" cy="529.08" r="13.05"/><circle class="cls-36" cx="434.15" cy="628.19" r="7.38"/><circle class="cls-36" cx="891.47" cy="654.04" r="7.38"/><circle class="cls-36" cx="362.2" cy="7.38" r="7.38"/><circle class="cls-36" cx="151.38" cy="712.09" r="7.38"/><rect class="cls-36" x="524.47" y="697.19" width="10.15" height="35.05" transform="translate(-242.63 273.15) rotate(-23.7)"/><path class="cls-36" d="M942,357.94l-3.31-4.43A37.44,37.44,0,0,1,949.22,348l1.76,5.25A32.21,32.21,0,0,0,942,357.94Z"/><path class="cls-36" d="M995.7,399.59l-5-2.31a31.93,31.93,0,0,0,3-13.44,33.44,33.44,0,0,0-.37-4.89l5.47-.84a38,38,0,0,1,.43,5.73A37.51,37.51,0,0,1,995.7,399.59Zm-10.37-37.38a32.26,32.26,0,0,0-15.82-9.64l1.41-5.35a37.8,37.8,0,0,1,18.52,11.28Z"/><path class="cls-36" d="M970.39,420.53l-1.33-5.37a32.85,32.85,0,0,0,9.37-4l2.93,4.69A37.69,37.69,0,0,1,970.39,420.53Z"/><path class="cls-36" d="M91,191.13a27.55,27.55,0,0,1-19.48-47h0a27.56,27.56,0,1,1,19.48,47ZM75.46,148a22,22,0,1,0,31.15,0,22.05,22.05,0,0,0-31.15,0Z"/><rect class="cls-36" x="-10.74" y="339.67" width="61.41" height="5.53" transform="translate(-281.01 177.89) rotate(-58)"/></g></g></g></svg>