<svg xmlns="http://www.w3.org/2000/svg" xmlns:xlink="http://www.w3.org/1999/xlink" viewBox="0 0 471.49 401.98"><defs><style>.cls-1{isolation:isolate;}.cls-2{fill:#428469;}.cls-3{fill:#c7eadb;}.cls-4{mix-blend-mode:screen;}.cls-5{fill:#e1ecff;}.cls-6{fill:#0c3d23;}.cls-7{fill:#e04f4f;}.cls-8{fill:#dd9385;}.cls-9{opacity:0.15;}.cls-10{fill:#1b3151;}.cls-11{fill:#feb19e;}.cls-12{fill:#23406d;}.cls-13{fill:#111f59;}.cls-14{fill:url(#linear-gradient);}.cls-15{fill:#d9d2fe;}.cls-16{fill:#18287d;}.cls-17{fill:#5faf90;}.cls-18{fill:#a3d9c6;}.cls-19{fill:#ffcece;}.cls-20{fill:#eef5f8;}.cls-21{mix-blend-mode:overlay;}.cls-22{fill:#fafcff;}.cls-23{fill:url(#linear-gradient-2);}.cls-24{fill:#f9e721;}.cls-25{fill:#24446b;}.cls-26{fill:#2d5287;}.cls-27{fill:url(#linear-gradient-3);}.cls-28{opacity:0.14;}.cls-29{fill:#010144;}.cls-30{fill:#124f35;}.cls-31{fill:#235e43;}.cls-32{fill:url(#linear-gradient-4);}.cls-33{fill:url(#linear-gradient-5);}.cls-34{fill:#409b73;}.cls-35{fill:#c4a0cc;}.cls-36{fill:#084c2b;}</style><linearGradient id="linear-gradient" x1="315.38" y1="111.54" x2="334.17" y2="187.56" gradientUnits="userSpaceOnUse"><stop offset="0.07" stop-color="#a3d9c6"/><stop offset="1" stop-color="#cb9ecf"/></linearGradient><linearGradient id="linear-gradient-2" x1="114.19" y1="170" x2="137.82" y2="170" gradientUnits="userSpaceOnUse"><stop offset="0.07" stop-color="#79b79f"/><stop offset="1" stop-color="#cb9ecf"/></linearGradient><linearGradient id="linear-gradient-3" x1="128.14" y1="141.67" x2="78.95" y2="229.33" xlink:href="#linear-gradient"/><linearGradient id="linear-gradient-4" x1="124.81" y1="132.74" x2="106.92" y2="160.46" xlink:href="#linear-gradient-2"/><linearGradient id="linear-gradient-5" x1="119.26" y1="129.15" x2="101.37" y2="156.88" xlink:href="#linear-gradient-2"/></defs><g class="cls-1"><g id="Layer_2" data-name="Layer 2"><g id="_Layer_" data-name="&lt;Layer&gt;"><rect class="cls-2" x="213.72" y="40.14" width="205.19" height="164.35"/><rect class="cls-3" x="240.23" y="25.78" width="152.17" height="193.07" transform="translate(438.64 -194) rotate(90)"/><g class="cls-4"><polygon class="cls-5" points="282 46.23 219.78 124.43 219.78 135.58 290.87 46.23 282 46.23"/><polygon class="cls-5" points="298.52 46.23 219.78 149.15 219.78 169.13 313.81 46.23 298.52 46.23"/><polygon class="cls-5" points="304.52 73.53 219.78 187.52 219.78 198.4 220.34 198.4 310.07 77.7 304.52 73.53"/><polygon class="cls-5" points="412.85 80.62 319.15 198.4 328.02 198.4 412.85 91.77 412.85 80.62"/><polygon class="cls-5" points="412.85 102.54 339.51 198.4 354.8 198.4 412.85 122.53 412.85 102.54"/><polygon class="cls-5" points="412.85 138.79 368.54 198.4 377.18 198.4 412.85 150.42 412.85 138.79"/></g><rect class="cls-2" x="304.02" y="40.25" width="7.43" height="161.06"/><polygon class="cls-2" points="418.92 40.14 418.92 204.49 234.59 204.49 416.18 202.58 418.92 40.14"/><path class="cls-6" d="M448.65,204.49H214v-3.18H445.47a3.18,3.18,0,0,1,3.18,3.18Z"/><path class="cls-7" d="M244.41,146.87s-4.72.89-5.17,1.68-.77,4.22-.29,4.08,1.57-2.92,1.57-2.92l6.7-.62C247.29,148.05,244.41,146.87,244.41,146.87Z"/><path class="cls-8" d="M308.34,120.86c-4.58,6.39-12.62,19.57-19.19,21.52-5.15-.15-29,6-33.89,7.25,0,0-8.63-3.48-9.53-4.34s-9.1,1.2-9.1,3.48c0,.57,8.54-2,8.68-1.6.36,1.1,1.89,1.15.15,2.81-2.5,2.39,5.44,2.77,8.86,3.47.12,0,31.28.14,40.68-1.68.19,0,16.59-9.74,18.25-12.83,2.16-4,7.17-24,7.17-24A15.41,15.41,0,0,0,308.34,120.86Z"/><path class="cls-9" d="M305.27,138.77c0,2.13.16,4.26.35,6.38,3.62-2.44,6.93-4.91,7.63-6.21,2.16-4,7.17-24,7.17-24C314,115.26,305.06,126.35,305.27,138.77Z"/><path class="cls-8" d="M328.51,338.93c-.9-8-15-72.4-15-72.4l-.83-49.19c7.25-1.07,11.43-3.07,18.75-3.69-7.35,24-6.29,47.77-3.4,53.38,4.88,9.45,2.24,65,2.24,65l2.77,1s2.41,15.56-.39,16l-3.81.56C331.71,346.21,328.73,340.88,328.51,338.93Z"/><path class="cls-10" d="M321.62,183.1s7.11,9.85,9.77,21.39-3.94,60.15-3.94,60.15,5.24,16.75,6.11,24.54L316.64,292l-6.06-39.51s2.06-47.11,4.84-59.35C317.48,184.05,316.16,178.88,321.62,183.1Z"/><path class="cls-10" d="M335.73,175.35,315,179.56s0,.16.05.47c.35,3.26,2.69,22.78,8.36,31.43.18.27.36.53.55.78,6.62,8.92,22-30.11,22-30.11Z"/><path class="cls-11" d="M335.5,341c0-8.26-7.87-72.16-7.87-72.16L326,217.17q11-.51,22-.33c-10,23.66-7.27,44.73-5,50.74,3.79,10.14-4.81,65.6-4.81,65.6l2.42,2.22s.66,16.11-2.16,16.24l-3.85.18C337.87,348.7,335.5,343,335.5,341Z"/><path class="cls-12" d="M346,182.13s6,10.52,7.35,22.27-10.59,59.41-10.59,59.41,3.35,17.19,3.35,25L329,289.92,324,265.33s-2.57-62.73,2.95-70.39S341.06,177.39,346,182.13Z"/><path class="cls-13" d="M341.42,91.06c.79-2.11,2.82-6.24,4.68-4.91,2,1-1.47,3.71-2.75,1.66a2.45,2.45,0,0,1,.5-2.84c2.16-2.34,7.78.58,5.51,2.81l1.46.77c2.54-4.78-7.4-7.62-8.3-2.31a2.25,2.25,0,0,0,2.09,2.81c2,0,3.56-2.3,1.72-3.24-2.18-1.51-4.33,2.66-5.26,5.13Z"/><path class="cls-14" d="M318.41,115.46a19.71,19.71,0,0,1,8.35-.64s9.08-.33,14.31,5-5.6,40.58-4.49,51.42c.37,3.55,7.16,6.43,9.44,10.85-6.53-.37-12.36.11-18,0-4-.07-13.39,5.45-17.91,5.74-2-6.09-2.67-30.76-2.9-49C307.08,126.5,314.94,116.67,318.41,115.46Z"/><path class="cls-15" d="M341.07,119.86c6,6-4.35,41.4-3.78,51.15.26,3.48,6.77,6.56,8.73,11.12-3-4.65-9.71-6.76-10.18-11C334.38,158.42,345.43,126.05,341.07,119.86Z"/><path class="cls-11" d="M332,95.68s2.16,17.73-1.41,22.88c-2,2.9-5.25,3.2-7.69,2.92a3.1,3.1,0,0,1-2.71-3.67c.94-4.51,2.5-13.16,1.66-17.07C320.69,95.32,332,95.68,332,95.68Z"/><path class="cls-9" d="M332.2,97.45A37.57,37.57,0,0,1,322.07,105a17.88,17.88,0,0,0-.21-4.26C320.69,95.32,332,95.68,332,95.68S332.09,96.34,332.2,97.45Z"/><path class="cls-11" d="M338.16,86.57c.1-1.89-1.13-5.06-3.31-7.61-4.72-5.53-13.7-3.94-17.09,2.89a7.81,7.81,0,0,0-.68,1.89,7.1,7.1,0,0,1-4.66,5.18,1.63,1.63,0,0,0,.73,1.56c.89.59.62,1,.09,1.51s-.91.5-.82,1.05,1,1,1,1-1,.7-.94,1.29a.79.79,0,0,0,.51.69s.74.7.35,1.25a2.5,2.5,0,0,0-.09,2c.22.86,1.95,5.15,11.62,1.26S338,90.87,338.16,86.57Z"/><path class="cls-13" d="M348.39,89.3s5-.15,6.05,2a4.07,4.07,0,0,1-.65,4.15s2.11-.85.74,3.72-15.87,9.41-17.95.37S347.63,89.24,348.39,89.3Z"/><path class="cls-16" d="M337.92,95.61c2.44-.07,7,.48,6.18,2.6-1,3.27-5.76,2.5-4.46.3,1-2.06,5.35-.07,5.29,1.85a2.88,2.88,0,0,1-5,1.68l-.86.84c4.09,3.76,9.17-1.89,5.91-4.64-1.83-1.54-5.16-2.25-6.07-.08a2,2,0,0,0,.34,2.39,2.92,2.92,0,0,0,2.33.54c2.62-.31,3.63-2.88,3.12-3.94-.82-1.88-4.68-2.08-6.78-2Z"/><path class="cls-16" d="M335.57,74.5c7.3,3,6.32,9.68,5.78,16s-9.06,7.92-9.15,6.92c0,0-1.83-7.65-4.59-8.69s-8.16-9.43-8.16-9.43C318.72,73.62,328.28,71.46,335.57,74.5Z"/><path class="cls-17" d="M278.83,78.83S254.31,94.26,254.71,96.4s8.82,10,11.17,9.59S282.3,81.62,282.3,81.62Z"/><polygon class="cls-2" points="278.26 74.03 281.59 76.69 278.83 78.83 278.71 77.02 277.18 75.76 278.26 74.03"/><path class="cls-2" d="M285,79.43l1,3.26s-5.35,10.79-5.9,10.53,4-9.92,4-9.92l-1.58-2.07Z"/><polygon class="cls-18" points="280.31 75.39 278.83 78.83 282.3 81.62 285.39 79.35 280.31 75.39"/><path class="cls-11" d="M337.56,118c-5.37-1.63-12.27-1.6-22.42,2.75-12,5.13-20,8.33-27.16,8.33-9.53,0-3.69-32.29-3.23-34.7l-1.18-11.09-7.05,2.59,4,9.3c-4,12.18-9,30.39-5.35,37.94,4.53,9.27,54.32,5.63,65.13-8C342.08,122.89,340.17,118.77,337.56,118Z"/><path class="cls-19" d="M337.56,118c-7.46-2-14.78-.13-21.83,2.91-5.33,2.37-25,11.14-29.85,8-6.63-3.88-2.64-27.25-1.13-34.57-1,6.44-4.28,30.49,1.63,33.8,1.58.93,6.17.06,8-.34,11.71-2.53,21.79-9.29,32-10.71A24.68,24.68,0,0,1,337.56,118Z"/><path class="cls-8" d="M272.91,80.62c.42-.4,10.66,2.65,10.66,2.65l-2,.73S271.93,81.56,272.91,80.62Z"/><path class="cls-8" d="M276.52,85.86s-6.3-2.12-5.09-2.59S279,84.94,279,84.94Z"/><path class="cls-8" d="M282.3,83.74s-9.46-2.52-9.46-1.79,6.2,3,6.2,3Z"/><path class="cls-8" d="M287,83.36c.92.44-1.93,2.74-1.93,3.77a7.24,7.24,0,0,1-.95,2.67l-.53-3.37S285.56,82.65,287,83.36Z"/><path class="cls-16" d="M325.61,86.46c.88.85.86,2.12,1,3.32.2,1.66.57,1.64,1.34,3.17.92,1.81,1.27,3.59-.77,4.06a2,2,0,0,1-2.36-1.8l.91-.11c.13,1.8,2.69,1.72,2.34-.36a11.68,11.68,0,0,0-1.31-3.19C326,89.94,326.83,87.79,325.61,86.46Z"/><path class="cls-17" d="M318.12,76.09l14.22,22.45,3.06.18s5.46-20,9.26-20c0,0-7.46-6.24-12-6.24S322.22,72.17,318.12,76.09Z"/><path class="cls-20" d="M344.66,78.7c-3.21-2.17-8.94-6-12.81-5.76-5.11,0-9.8,0-13.73,3.15,3.33-3.78,9.45-4.41,14.66-4.09C337,72.44,341.64,75.81,344.66,78.7Z"/><polygon class="cls-20" points="324.35 77.16 332.94 97.05 323.43 77.54 324.35 77.16"/><path class="cls-17" d="M333.58,100s-1.21,4.07-.3,5.66a5.27,5.27,0,0,0,3.07,2.1v-4.78C336.35,101.11,333.58,100,333.58,100Z"/><path class="cls-2" d="M334.65,99.64s4.5.3,5.68,2.54a17.85,17.85,0,0,0,2.13,3.29s-5.9-.46-7.13-1.64S334.65,99.64,334.65,99.64Z"/><path class="cls-2" d="M333.13,97.73s-1.23.14-.93,1.91,3.66,1.29,3.66,0A2,2,0,0,0,333.13,97.73Z"/><path class="cls-8" d="M250.14,152.31s-2.84.1-4.77,0-5.33-1.77-4.85-2.6,3.26,1.14,3.77,1,2.23-1.84,1.88-2.34S249.69,151,250.14,152.31Z"/><rect class="cls-18" x="241.03" width="8.24" height="211.2"/><polygon class="cls-2" points="213.72 39.57 241.03 0 241.03 211.2 213.72 205.51 213.72 39.57"/><polygon class="cls-3" points="220.09 200.54 220.09 41.44 236.63 20.33 236.63 203.58 220.09 200.54"/><path class="cls-17" d="M231.07,136c-1.82,5.69,3.65,6.77,0,14.5s1.15,20.4,5.56,18.12V132A5.21,5.21,0,0,0,231.07,136Z"/><g class="cls-21"><path class="cls-22" d="M277.18,74,259.53,55.09a.22.22,0,0,1,0-.31.23.23,0,0,1,.32,0h0Z"/></g><g class="cls-21"><path class="cls-22" d="M254.83,60.38l22.74,14.11-23-13.74a.22.22,0,0,1-.08-.3.25.25,0,0,1,.32-.07Z"/></g><g class="cls-21"><path class="cls-22" d="M254.77,68.48l22.41,6.23L254.65,68.9a.21.21,0,0,1-.16-.27.23.23,0,0,1,.28-.15Z"/></g><g class="cls-21"><path class="cls-22" d="M252.27,71.81l23.26,3.58-23.32-3.15A.22.22,0,0,1,252,72a.24.24,0,0,1,.26-.19Z"/></g><g class="cls-21"><path class="cls-22" d="M269.44,59.38,277.18,74,269,59.58a.21.21,0,0,1,.09-.29.23.23,0,0,1,.31.08Z"/></g><path class="cls-11" d="M130.88,154.71s6.94,37.11,6.94,50.42c0,15.12-9.84,31-9.84,31l-4-8.17s4.86-16.44,4.86-24.92-12.08-32-12.08-32Z"/><path class="cls-23" d="M129.33,150s5.94,14.61,8.49,28.49L122,190l-7.77-25.15Z"/><ellipse class="cls-18" cx="137.82" cy="350.61" rx="80.2" ry="10.29"/><path class="cls-24" d="M197.75,336.2l6.86-1s26.1-.73,26.1,11.22-58.79,7.33-62.45,11,40.48,8.1,40.48,8.1-34.12,7.13-48,2.31-6.36-17.58,4.44-19.68,15.42.6,15.42.6Z"/><path class="cls-11" d="M110.43,320.18c-1.4,0-10-4.06-11.4-3.95.25,2.64-2.6,29-2.6,29s9.3-.2,11.83,0c3.47.21,9.24,0,9.24,0-5.5-2-11.7-3-12.72-3.92S110.49,323.4,110.43,320.18Z"/><path class="cls-11" d="M87.55,324.36c-1.39,0-10-4.36-11.4-4.23.26,2.82,2.48,31,2.48,31s4.22-.13,6.76,0c3.46.23,18.11,1.09,18.11,1.09-5.5-2.11-15.33-6.07-16.35-7S87.61,327.82,87.55,324.36Z"/><path class="cls-10" d="M118.4,285.28l-8.47-80.07c-6.59-.5-19.15-2.24-24.53,3.31,3.16,19,14.8,71.41,14.8,77.59,0,10.57-2.68,42-2.68,42l12.52-.44Z"/><polygon class="cls-25" points="97.52 328.12 110.6 328.67 113.07 320.12 97.78 319.25 97.52 328.12"/><polygon class="cls-12" points="80.75 185.1 69.12 202.06 74.94 271.07 74.94 328.12 89.62 328.35 96.43 272.03 101.9 189.15 80.75 185.1"/><polygon class="cls-26" points="74.97 328.35 89.62 328.35 91.8 319.33 73.75 319.33 74.97 328.35"/><path class="cls-27" d="M114.19,131c-3.72.45-5.72,5.1-11.89,18.85s-30.51,43-30.51,43l4.73,3.82s-1.08,5.92,7.16,13.22,28.54,9.51,28.54,9.51,3.77-18.62,8.87-33.16c3.42-9.76,8.54-16.58,9.43-18.82C140.43,142.45,117.91,130.52,114.19,131Z"/><path class="cls-11" d="M144.46,123.78s-6.75-.72-15.19,4.65-9.3,3.64-9,6.62c.36,4.1,5.59,13,9.33,12.89,0,0,7.31-10.9,12.67-11.54Z"/><path class="cls-28" d="M144.46,123.78a20.27,20.27,0,0,0-7.2,1c-1.86,5.68-1.24,10.92.53,13.88a9.6,9.6,0,0,1,4.44-2.23Z"/><path class="cls-11" d="M152.33,109.17a13.37,13.37,0,0,1,4.48,13.3A55.5,55.5,0,0,1,153,133l-1.6-.57s-3.17,8.35-7.08,8.94-9.32-6.82-8.09-17.12S146.16,103.74,152.33,109.17Z"/><path class="cls-29" d="M144.43,121.7a4.79,4.79,0,0,1,2-2.18c1.48-.82,3.24-5.71,4.91-5.12s4.52,5.06,9.52,3.36,5.93-4.12,3.87-6.61-4-2.55-5.22-3.89-.39-2.75-2.9-4-4.23-2.7-6.71-3.57-4.28,2.09-4.28,2.09a7.7,7.7,0,0,0-5.12.59c-2.38,1.32-2,4-3.49,5.34s-4.41,3.1-5.1,8.3-.94,12.09,1.41,12.92S142.7,124.83,144.43,121.7Z"/><path class="cls-29" d="M150.37,97l.18-.73a4.77,4.77,0,0,0-4,1.29c-1.09,1.16-1.12,2.54-1.05,4.25h.19a8.24,8.24,0,0,1,.2-2.18,3.38,3.38,0,0,1,2.67-2.55,4.79,4.79,0,0,1,1.67-.08C150.34,97,150.44,97,150.37,97Z"/><path class="cls-11" d="M145,121.52s.37-5.46-1.75-4.29-2.57,6-1.59,6.36S144.23,124.63,145,121.52Z"/><path class="cls-28" d="M144.43,121.7s-.17-3.09-1.21-2.51-2,3-.85,3.41S144.19,122.65,144.43,121.7Z"/><polygon class="cls-2" points="182.59 331.84 75.22 152.52 79.18 149.99 186.54 329.32 182.59 331.84"/><path class="cls-30" d="M183.06,341.67l12.32-7-3-5.3a4.45,4.45,0,0,0-6.08-1.66l-4.57,2.61a4.46,4.46,0,0,0-1.66,6.08Z"/><path class="cls-31" d="M179,349.83l25.61-14.62h0a5.07,5.07,0,0,0-6.92-1.89l-16.8,9.59a5.07,5.07,0,0,0-1.89,6.92Z"/><path class="cls-24" d="M202.83,342.36c-1,0-15.16-4-29.3,1s-15.4,8.12-18.73,11.46,0,9.25,0,9.25,7.42-11.49,17.7-13.48,21.08,0,21.08,0Z"/><path class="cls-9" d="M221.05,340.53c1.7,1.71,2.13,3.69.23,5.22-8.39,6.69-71.48,3.45-56.61,16.17,4.16,3,10.93,2.64,16.06,2.17-5.16.43-14,.77-17.16-3.41a3.41,3.41,0,0,1-.93-3c.37-1.57,2.19-2.31,3.69-2.86,8.89-3.14,42.79-4.18,52.29-7.12,4.89-1.52,5.8-4.68,2.89-7.66-3.92-3.85-10.41-4.14-15.89-3.6a.39.39,0,0,0,.07.77C211,336.71,217.24,336.83,221.05,340.53Z"/><path class="cls-9" d="M202.3,339c4.2.16,8-.29,11.06,1.39,1.37.76,2.2,1.72,1.22,2.94a3.57,3.57,0,0,1-1.67,1.14c-14.87,4.46-31.38.26-45.35,5-2.93.91-6.64,2.54-6.49,5.71.18-4.17,6.87-5.35,11.08-6.27,15.69-2.56,28,.45,41.09-3.6a4.39,4.39,0,0,0,2.26-1.67,2.33,2.33,0,0,0,.41-1.69c-1.42-4.44-9.76-3.61-13.58-3.73a.38.38,0,0,0-.4.37A.39.39,0,0,0,202.3,339Z"/><path class="cls-9" d="M201.84,342.92a66.1,66.1,0,0,0-19.47-.68,46.1,46.1,0,0,0-14.24,5.09,56.6,56.6,0,0,1,16.48-4.53,92.79,92.79,0,0,1,17.12.88A.38.38,0,0,0,201.84,342.92Z"/><path class="cls-8" d="M116.8,204.09l-2.19,3.17-3-2.39a17.38,17.38,0,0,1,3.35-1.85C116,202.77,116.8,204.09,116.8,204.09Z"/><path class="cls-11" d="M104.46,161.26s-13.19,22-10,28.75a35.89,35.89,0,0,0,6.42,8.71,21.92,21.92,0,0,0,11.87,6.39,55.81,55.81,0,0,1,5.67,1.25c1.67.65,1.29,4.76,1.29,4.76s0,1.28,0,2.06.65,4.45-.38,4.45-6.15-3.82-6.15-3.82-11.08-1.23-16.64-6c-7-5.92-11.65-12.26-13.69-20.75S93,154.71,93,154.71Z"/><path class="cls-32" d="M124,134Z"/><path class="cls-33" d="M123.83,136.11c.1-7.53-13.75-6.15-19.25-1.22-2.48,2.22-15.42,20.33-15.42,20.33l18.57,12.39S123.68,141.58,123.83,136.11Z"/><path class="cls-8" d="M121.85,228.8a14.2,14.2,0,0,1,2.87-1.43c2.08-.86,3.95,1.48,4.35,1.94a19.46,19.46,0,0,1,2.23,3.42,7.37,7.37,0,0,1,.85,2.55c.19,1.39-5.06,4.53-5.51,4.1-.29-.29-.51-.63-.39-1s2.86-3.39,2.86-3.39-3.9,2.72-5,2.37-.94-1-.62-1.29,3.84-3.76,3.84-3.76-4.42,2.2-5.17,2-1.19-1.3.81-2.54a17,17,0,0,0,2.39-1.93s-3.06,1-4.18.61S121.85,228.8,121.85,228.8Z"/><path class="cls-2" d="M25.81,288.05a5.47,5.47,0,0,0-.43,2.1v19.94l-2-.26V292.58A5.53,5.53,0,0,1,25.81,288.05Z"/><path class="cls-2" d="M23.66,316.5s1.14,41.22,1.14,41.3c0,2.2,8.72,4,19.49,4,3,0,5.83-.14,8.36-.39,6.58-.64,11.14-2,11.14-3.6,0-.08,1.41-51.32,1.42-51.42H23.37Z"/><path class="cls-9" d="M46.05,306.38H65.21v0c0,1.5-1.41,51.3-1.41,51.38,0,1.59-4.56,3-11.14,3.6l-4.93-42.64a86.94,86.94,0,0,1-24.06-2.26l-.29-10.12Z"/><path class="cls-18" d="M25.69,313.91c8.23,1.61,22.59,2.13,32.88.88a48.14,48.14,0,0,0,5.5-.94c6-1.42,6.74-3.13,3.68-7.61a1.07,1.07,0,0,1,.1.42c0,1.68-4.37,3.15-10.95,4a102.74,102.74,0,0,1-12.61.73c-13,0-23.55-2.11-23.55-4.71a1.27,1.27,0,0,1,.42-.88h0C15.73,311.47,22.54,313.3,25.69,313.91Z"/><path class="cls-2" d="M67.85,306.66c0,2.6-10.55,4.71-23.56,4.71s-23.55-2.11-23.55-4.71a1,1,0,0,1,.44-.93,10.19,10.19,0,0,1,2.11-1.2c3.89-1.53,11.84-2.57,21-2.57C57.3,302,67.85,304.07,67.85,306.66Z"/><path class="cls-9" d="M23.37,306.35c0,.83,1.63,1.59,4.36,2.19a83.06,83.06,0,0,0,16.56,1.4h.92a81,81,0,0,0,15.56-1.37c2.78-.61,4.44-1.37,4.44-2.21,0-1.92-8.88-3.49-20-3.57h-.92C32.74,302.77,23.37,304.38,23.37,306.35Z"/><path class="cls-18" d="M27.73,308.54c1.19.27,2.6.5,4.17.7h0a101,101,0,0,0,12.38.7,102.66,102.66,0,0,0,12.34-.69c1.56-.2,2.95-.43,4.14-.69a83.06,83.06,0,0,0-16.56-1.4A83.46,83.46,0,0,0,27.73,308.54Z"/><path class="cls-2" d="M30.12,286.13h31c3.38,0,6.11,2.36,6.11,5.27l.08,20-2.22.73.07-18.42c0-2.91-2.74-5.27-6.11-5.27h-31a6.79,6.79,0,0,0-3.59,1A6.18,6.18,0,0,1,30.12,286.13Z"/><path class="cls-18" d="M23.22,304.57l.55-.22c-.1-8-.37-10.6-.19-12.45.57-4.33,3.19-3.32,16.27-3.35,10.63.07,19.2,0,19.18,0a6.42,6.42,0,0,1,5.28,2.72c1.11,1.78.67,3.1.68,13.18,0,1.34,0,2.83,0,4.49,0,1,0,2.07,0,3.21l.59-.2c0-1.15,0-2.24,0-3.26,0-1.45,0-2.77,0-4,0-12.63.3-12-.75-13.78a6.28,6.28,0,0,0-5.45-3c-5.91-.07-32.26-.32-33.81.29a3.84,3.84,0,0,0-2.12,1.85C22.45,292.34,23,291.62,23.22,304.57Z"/><path class="cls-18" d="M433.94,152s-2.91-12.31,3.85-21.78.48-14.15,10.63-19.06,12.83-12.3,12.83-12.3,3.54,17.72-2.83,23.61-9.4,5.92-8.25,15.69S433.94,152,433.94,152Z"/><path class="cls-34" d="M430,183.18a.38.38,0,0,1-.35-.36c-.75-14.95-1.16-23.18,6.51-36.69C443.63,133,447.6,127,447.64,126.9a.38.38,0,0,1,.63.42c0,.06-4,6.08-11.44,19.19-7.56,13.31-7.16,21.46-6.42,36.27a.38.38,0,0,1-.36.4Z"/><path class="cls-34" d="M422.07,173.67s-8.65-.63-12.24-7.34-7.49-5.42-8.86-10.71a30.72,30.72,0,0,0-5.13-10s10.3-.57,13.62,7.25S423.06,153.74,422.07,173.67Z"/><path class="cls-17" d="M424.1,182.43a.4.4,0,0,1-.4-.26c-6-17.46-13-22.91-13.09-23a.38.38,0,0,1-.08-.53.37.37,0,0,1,.53-.07c.29.22,7.27,5.6,13.36,23.32a.38.38,0,0,1-.24.48Z"/><path class="cls-17" d="M430.92,157.35a15,15,0,0,1-10.17-10.78c-2.39-8.94-10.91-6.43-10.36-16.23s2.32-13.53.81-21.9,3.14-11.51,3.14-11.51a20.58,20.58,0,0,0,7.93,15.2c7.9,5.9,6.27,10.54,7.14,16s6,5.19,6.29,12.87S430.92,157.35,430.92,157.35Z"/><path class="cls-2" d="M432.55,182.22h0a.37.37,0,0,1-.36-.39c1-26.49-10.79-57.19-10.9-57.5a.38.38,0,0,1,.21-.49.38.38,0,0,1,.49.22c.12.31,11.95,31.15,10.95,57.8A.38.38,0,0,1,432.55,182.22Z"/><path class="cls-2" d="M421.63,161.86s-1.88,0-4.62-3.33c-1.48-1.78-2.54-5.77-5.21-8.39-7.61-7.5-2.33-14.28-5-20.43C406.83,129.71,427.5,141.51,421.63,161.86Z"/><path class="cls-17" d="M427.12,180.58a.37.37,0,0,1-.37-.3C424,165.54,414.51,145,414.41,144.83a.38.38,0,0,1,.69-.32c.09.21,9.59,20.8,12.39,35.63a.37.37,0,0,1-.3.44Z"/><path class="cls-24" d="M394.06,178s-8.65-.63-12.24-7.34S374.34,165.27,373,160a30.64,30.64,0,0,0-5.14-10s10.3-.57,13.63,7.25S395.05,158.1,394.06,178Z"/><path class="cls-17" d="M396.09,186.79a.39.39,0,0,1-.39-.26c-6-17.46-13-22.91-13.1-23a.37.37,0,0,1-.07-.53.36.36,0,0,1,.52-.07c.3.22,7.28,5.6,13.36,23.32a.38.38,0,0,1-.23.48Z"/><path class="cls-2" d="M394.82,168.18s-1.88,0-4.62-3.33c-1.48-1.79-2.54-5.77-5.2-8.4-7.61-7.49-2.34-14.27-5-20.43C380,136,400.7,147.83,394.82,168.18Z"/><path class="cls-17" d="M400.32,186.9a.38.38,0,0,1-.37-.31c-2.79-14.73-12.25-35.24-12.34-35.44a.38.38,0,0,1,.68-.32c.1.21,9.6,20.8,12.4,35.62a.38.38,0,0,1-.3.44Z"/><path class="cls-17" d="M438.74,169.28c-.5.15-7.79-16.46,2.26-21.86s10.17-6.54,12.81-12.19,9.05-4,9.05-4-4.78,1.13-4.4,7.67.13,8.79-5.15,13.75S458,163.25,438.74,169.28Z"/><path class="cls-2" d="M439.74,180.08a.39.39,0,0,1-.37-.31c-2.89-15.52,6.2-28.12,6.29-28.24a.37.37,0,0,1,.52-.08.38.38,0,0,1,.09.53c-.1.12-9,12.46-6.16,27.65a.36.36,0,0,1-.3.44Z"/><path class="cls-24" d="M399.69,176.24c-.49.15-7.79-16.46,2.26-21.86s10.18-6.54,12.82-12.19,9-4,9-4-4.77,1.13-4.4,7.67.13,8.79-5.15,13.75S418.91,170.21,399.69,176.24Z"/><path class="cls-2" d="M400.7,187a.38.38,0,0,1-.37-.31c-2.89-15.52,6.19-28.12,6.28-28.24a.38.38,0,1,1,.61.45c-.09.12-9,12.46-6.15,27.65a.38.38,0,0,1-.3.44Z"/><path class="cls-35" d="M435.41,201.32h-9.47a3.82,3.82,0,0,1-3.81-3.51l-3.24-18.92h23.28l-2.94,18.89A3.82,3.82,0,0,1,435.41,201.32Z"/><path class="cls-29" d="M461,108.57a10.5,10.5,0,1,1,10.5-10.5A10.51,10.51,0,0,1,461,108.57Zm0-18a7.5,7.5,0,1,0,7.5,7.5A7.51,7.51,0,0,0,461,90.57Z"/><path class="cls-29" d="M404.44,225.15a20.16,20.16,0,0,1,6.44-.31l-.33,3a17.43,17.43,0,0,0-5.49.27Z"/><path class="cls-29" d="M421.72,229.41c.5.41,1,.85,1.43,1.3a20.59,20.59,0,0,1,5.11,8.48l-2.87.88a17.63,17.63,0,0,0-4.37-7.24c-.38-.38-.79-.76-1.21-1.11Zm3.74,20.7,2.89.83a20.62,20.62,0,0,1-6.39,9.88L420,258.53A17.47,17.47,0,0,0,425.46,250.11Z"/><path class="cls-29" d="M405.31,262.39a17.59,17.59,0,0,0,5.51.2l.37,3a20.56,20.56,0,0,1-6.45-.22Z"/><polygon class="cls-29" points="13.92 250.18 0 246.12 0.74 243.22 14.66 247.27 13.92 250.18"/><rect class="cls-29" x="304.18" y="337.49" width="3" height="43.13" transform="translate(-138.12 518.46) rotate(-69.35)"/><circle class="cls-29" cx="237.21" cy="394.91" r="7.07"/><circle class="cls-29" cx="40.86" cy="115.55" r="4"/><circle class="cls-29" cx="335.5" cy="370.96" r="4"/><circle class="cls-29" cx="460.77" cy="26.17" r="4"/><ellipse class="cls-29" cx="63.77" cy="380.29" rx="3.76" ry="4.02"/><rect class="cls-29" x="237.86" y="274.35" width="5.5" height="19" transform="translate(-93.81 120.66) rotate(-23.7)"/><path class="cls-29" d="M385.7,337.7l-1.8-2.4a20.26,20.26,0,0,1,5.71-3l1,2.84A17.33,17.33,0,0,0,385.7,337.7Z"/><path class="cls-29" d="M414.81,360.28,412.08,359a17.31,17.31,0,0,0,1.6-7.28,18.18,18.18,0,0,0-.2-2.65l3-.46a20.39,20.39,0,0,1-1.63,11.65ZM409.19,340a17.55,17.55,0,0,0-8.58-5.22l.77-2.9a20.51,20.51,0,0,1,10,6.11Z"/><path class="cls-29" d="M401.09,371.62l-.72-2.91a17.25,17.25,0,0,0,5.08-2.14l1.58,2.55A20.49,20.49,0,0,1,401.09,371.62Z"/><path class="cls-29" d="M159.86,66.87A14.93,14.93,0,0,1,149.3,41.38h0a14.93,14.93,0,1,1,10.56,25.49ZM151.42,43.5a11.93,11.93,0,1,0,16.88,0,12,12,0,0,0-16.88,0Z"/><path class="cls-36" d="M403.73,201.31H392.35a1,1,0,0,1-1-.84l-3.06-15.93a2,2,0,0,1,1.94-2.36h15.54a2,2,0,0,1,1.94,2.35l-3,15.93A1,1,0,0,1,403.73,201.31Z"/></g></g></g></svg>