<svg xmlns="http://www.w3.org/2000/svg" xmlns:xlink="http://www.w3.org/1999/xlink" viewBox="0 0 95.6 90.34"><defs><style>.cls-1{fill:#c4a0cc;}.cls-2{fill:url(#linear-gradient);}</style><linearGradient id="linear-gradient" x1="28.59" y1="29.68" x2="40.89" y2="50.14" gradientUnits="userSpaceOnUse"><stop offset="0.07" stop-color="#a3d9c6"/><stop offset="1" stop-color="#cb9ecf"/></linearGradient></defs><g id="Layer_2" data-name="Layer 2"><g id="Layer_1-2" data-name="Layer 1"><path d="M86.89,48.32l-24.36,0L57.2,60.16H53.9l19.29-42h3.06l19.35,42H92.3Zm-1.14-2.58L74.69,21.51l-11,24.25Z"/><path class="cls-1" d="M37.5,75a37.45,37.45,0,0,1-12.82-2.25l1.71-4.7A32.44,32.44,0,0,0,37.5,70ZM13.4,66.23A37.6,37.6,0,0,1,5,56.27l4.33-2.5a32.33,32.33,0,0,0,7.26,8.63ZM.57,44a37.73,37.73,0,0,1,0-13l4.92.86A32.85,32.85,0,0,0,5,37.5a33.56,33.56,0,0,0,.49,5.67ZM9.33,21.28,5,18.79a37.42,37.42,0,0,1,8.35-10l3.22,3.82A32.5,32.5,0,0,0,9.33,21.28Zm48.1-9.45a32,32,0,0,0-8.88-4.9l1.7-4.71A37.51,37.51,0,0,1,60.5,7.88ZM26.33,7,24.61,2.28A37.19,37.19,0,0,1,37.42,0V5A32.45,32.45,0,0,0,26.33,7Z"/><rect x="49.35" y="51.22" width="3" height="40.71" transform="translate(-27.2 31.37) rotate(-27.36)"/><circle class="cls-2" cx="36" cy="42" r="8"/></g></g></svg>