<svg xmlns="http://www.w3.org/2000/svg" xmlns:xlink="http://www.w3.org/1999/xlink" viewBox="0 0 589.67 335.13"><defs><style>.cls-1{fill:#010144;}.cls-2{fill:#428469;}.cls-3{fill:#fafafa;}.cls-4{fill:#f9e721;}.cls-5{fill:#c4a0cc;}.cls-6{fill:#23406d;}.cls-7{fill:#eea886;}.cls-8{fill:url(#linear-gradient);}.cls-9{fill:#fffbf3;}.cls-10{fill:#d4d0c9;}.cls-11{fill:#5faf90;}.cls-12{fill:#f5f5f5;}.cls-13{fill:#c9dfdd;}.cls-14{fill:#fccca2;}.cls-15{fill:#a77860;}.cls-16{fill:#48484d;}.cls-17{fill:#db9c7c;}.cls-18{fill:url(#linear-gradient-2);}.cls-19{fill:url(#linear-gradient-3);}.cls-20{fill:url(#linear-gradient-4);}.cls-21{fill:url(#linear-gradient-5);}.cls-22{fill:#323657;}.cls-23{fill:#162d40;}.cls-24{fill:#1d2033;}.cls-25{fill:#292c47;}.cls-26{fill:url(#linear-gradient-6);}.cls-27{fill:url(#linear-gradient-7);}.cls-28{fill:url(#linear-gradient-8);}.cls-29{fill:#16202e;}.cls-30{fill:#c48a6f;}.cls-31{fill:#3d4169;}.cls-32{fill:#eea987;}.cls-33{fill:url(#linear-gradient-9);}.cls-34{fill:url(#linear-gradient-10);}.cls-35{fill:url(#linear-gradient-11);}.cls-36{opacity:0.2;}.cls-37{fill:#1c1d30;}.cls-38{fill:url(#linear-gradient-12);}</style><linearGradient id="linear-gradient" x1="194.65" y1="212.71" x2="253.3" y2="212.71" gradientUnits="userSpaceOnUse"><stop offset="0.07" stop-color="#a3d9c6"/><stop offset="1" stop-color="#cb9ecf"/></linearGradient><linearGradient id="linear-gradient-2" x1="389.33" y1="166.67" x2="404.97" y2="213" xlink:href="#linear-gradient"/><linearGradient id="linear-gradient-3" x1="365.64" y1="174.67" x2="381.28" y2="221" xlink:href="#linear-gradient"/><linearGradient id="linear-gradient-4" x1="398.39" y1="163.61" x2="414.04" y2="209.94" xlink:href="#linear-gradient"/><linearGradient id="linear-gradient-5" x1="385.46" y1="167.98" x2="401.1" y2="214.3" xlink:href="#linear-gradient"/><linearGradient id="linear-gradient-6" x1="139.05" y1="180.01" x2="171.95" y2="180.01" xlink:href="#linear-gradient"/><linearGradient id="linear-gradient-7" x1="128.01" y1="159.32" x2="137.8" y2="159.32" xlink:href="#linear-gradient"/><linearGradient id="linear-gradient-8" x1="141.31" y1="168.18" x2="144.78" y2="168.18" xlink:href="#linear-gradient"/><linearGradient id="linear-gradient-9" x1="123.5" y1="192.6" x2="149.02" y2="192.6" xlink:href="#linear-gradient"/><linearGradient id="linear-gradient-10" x1="137.8" y1="163.95" x2="141.31" y2="163.95" xlink:href="#linear-gradient"/><linearGradient id="linear-gradient-11" x1="134.48" y1="157.8" x2="135.63" y2="166.53" xlink:href="#linear-gradient"/><linearGradient id="linear-gradient-12" x1="119.6" y1="197.67" x2="145.4" y2="197.67" xlink:href="#linear-gradient"/></defs><g id="Layer_2" data-name="Layer 2"><g id="Слой_1" data-name="Слой 1"><path class="cls-1" d="M339.27,22.2a10.5,10.5,0,1,1,10.5-10.5A10.51,10.51,0,0,1,339.27,22.2Zm0-18a7.5,7.5,0,1,0,7.5,7.5A7.51,7.51,0,0,0,339.27,4.2Z"/><path class="cls-1" d="M421.22,49.72a20.52,20.52,0,0,1-4.78-4.33l2.34-1.88a17.31,17.31,0,0,0,4.08,3.7Z"/><path class="cls-1" d="M412,34.49c-.06-.64-.09-1.29-.09-1.92A20.63,20.63,0,0,1,414.3,23L417,24.36a17.6,17.6,0,0,0-2,8.21c0,.54,0,1.09.08,1.64Zm12-17.28-1.45-2.63a20.56,20.56,0,0,1,11.5-2.47l-.24,3A17.63,17.63,0,0,0,424,17.21Z"/><path class="cls-1" d="M446.93,22.77a17.32,17.32,0,0,0-3.75-4L445,16.37a20.35,20.35,0,0,1,4.4,4.72Z"/><rect class="cls-1" x="27.88" y="268.2" width="3" height="15.35" transform="translate(-244.51 231.63) rotate(-74.75)"/><rect class="cls-1" x="458.83" y="286.08" width="3" height="43.13" transform="translate(10.1 629.89) rotate(-69.35)"/><circle class="cls-1" cx="508.8" cy="250.48" r="7.07"/><circle class="cls-1" cx="281.98" cy="285.65" r="4"/><circle class="cls-1" cx="490.15" cy="319.54" r="4"/><circle class="cls-1" cx="240.17" cy="71.51" r="4"/><circle class="cls-1" cx="91.63" cy="331.13" r="4"/><rect class="cls-1" x="333.48" y="252.15" width="5.5" height="19" transform="translate(-76.82 157.23) rotate(-23.7)"/><path class="cls-2" d="M194.28,320.29s-4.49,6-3.87,7,5.33,1.09,8.2,0,2.94-8.18,4.24-11.22c.55-1.27-.62-5-2.25-5.3a6.93,6.93,0,0,0-3.42.53S198.88,315.58,194.28,320.29Z"/><rect class="cls-1" x="98.36" y="1.24" width="109.1" height="177.2"/><rect class="cls-3" x="103.57" y="6.19" width="98.67" height="167.3"/><rect class="cls-2" x="28.72" y="32.87" width="55.94" height="55.94"/><rect class="cls-3" x="31.57" y="35.72" width="50.24" height="50.24"/><rect class="cls-4" x="28.72" y="96.61" width="55.94" height="55.94"/><rect class="cls-3" x="31.57" y="99.47" width="50.24" height="50.24"/><rect class="cls-3" x="34.08" y="38.24" width="45.21" height="45.21"/><rect class="cls-2" x="34.08" y="101.98" width="45.21" height="45.21"/><rect class="cls-3" x="108.78" y="11.32" width="88.25" height="157.04"/><path class="cls-3" d="M79.29,132.07s-23.8-22.35-23.8-16,18.68,5.39,6.88,10.2-19,3.32-13.07,8.48,14.21,5.39,1.38,7.22-10.32,5.27-10.32,5.27H79.29Z"/><path class="cls-5" d="M52.47,122.42c-2.06,1-5.44,7.56-6.92,2.58s4.06-6.13-1.38-9.2-10.7-6.1-5.16-7.58,8.2.46,8.85,3.51a11.39,11.39,0,0,0,2.86,5.53C51.82,118.73,53.07,122.12,52.47,122.42Z"/><path class="cls-5" d="M74.62,60.36S72.47,70.79,63.4,65.45s-7.57-20.61-15-20-9.62,7.95-9.62,7.95V76.24Z"/><path class="cls-2" d="M108.78,75.8s5,50.88,39.87,38.05S197,141.35,197,141.35v27H108.78Z"/><path class="cls-6" d="M197,122.08S190.82,86,161.26,85.25c-40-1-14.9-39.81,3.44-39.81S184,11.32,184,11.32H197Z"/><path class="cls-4" d="M182.27,38.24a13.81,13.81,0,1,1-13.81-13.81A13.8,13.8,0,0,1,182.27,38.24Z"/><polygon class="cls-5" points="108.78 11.32 108.78 52.04 121.18 39.64 121.18 45.44 127.07 39.55 127.07 11.32 108.78 11.32"/><path class="cls-7" d="M214.07,212.9s-3.28,18-4.16,22.54-3.36,26.35-3.63,30.06-4,17.71-3.84,19-5.56,28-5.56,28a3.47,3.47,0,0,0,4,.14c1.06-.74,9.76-22.85,11.43-29.27,1.63-6.26,8.64-19.61,9.27-21.75s4.57-28.56,5.63-29.8,2.65.71,3.27,3.45,2,26.44,2.74,29.44.18,13.18.62,18.31,2.39,28.32,2.39,28.32,3.25.64,3.61.06,3.64-25.84,3.73-31.94.18-14.51.35-17.15c1.64-25.28,4.73-28.59-.67-46.79C230,171,214.07,212.9,214.07,212.9Z"/><path class="cls-8" d="M251,193.57c-.25-1.29-5.21-27.52-8.66-28.88a78.38,78.38,0,0,0-12.14-3.4,20.44,20.44,0,0,0-10.25.6c-5.61,1.76-11.28,5-12.64,6.45-1.1,1.14-6.45,11.17-9.11,16.25-.18.33-.34.65-.5.94a1.09,1.09,0,0,1-.08.15c-.14.3-.29.56-.4.8s-.26.49-.35.67a27.12,27.12,0,0,0-1.64,3.94c-.09.29-.16.58-.24.85s-.09.4-.13.59-.09.58-.12.84c-.6,4.21,1.63,6.6,6.21,7.49l14.26.52c0,.56-.05,1.12-.08,1.66-.15,2.28-.34,4.49-.53,6.23h0c-1.63,3.38-2.26,7.66-3.23,11.1s-.4,15.77-5.14,23.65C200.9,252.84,196,261.61,196,261.61c4.07-1.68,4.45,1.44,21.43,2.75s27.43-6.79,27.43-6.79,1.68-5.69,2-21.16c.32-18.28-6.1-28.32-6.1-28.32a24.22,24.22,0,0,1-1.83-8.59,59.94,59.94,0,0,1,.22-11.16,45.87,45.87,0,0,1,1.25-7.28s2.73,10.4,3.77,15.45c1.63,7.94,4.76,26.36,4.61,26.47-.38.28,4.07,1.49,4.41,1.43C253.78,224.27,252.16,200.13,251,193.57Zm-42.38.85c-2.48-.35-5.06-.37-4.9-2.48a4.6,4.6,0,0,1,.47-1.6c.37-.8,3.35-5.54,5.43-9.18.17-.29.33-.58.48-.85.61-1.09,1-1.79,1-1.79-.17,3,.1,8.39,3,12.2a9.43,9.43,0,0,1,1.06,4.28Z"/><rect class="cls-9" x="28.72" y="195.66" width="34.85" height="20.21"/><rect class="cls-10" x="32.49" y="200.13" width="22.24" height="1.01"/><rect class="cls-10" x="32.49" y="203.55" width="18.86" height="1.01"/><rect class="cls-10" x="32.49" y="207.08" width="5.51" height="1.01"/><rect class="cls-9" x="263.98" y="195.66" width="34.85" height="20.21"/><rect class="cls-10" x="267.75" y="200.13" width="22.25" height="1.01"/><rect class="cls-10" x="267.75" y="203.55" width="11.81" height="1.01"/><rect class="cls-9" x="441.65" y="195.66" width="34.85" height="20.21"/><rect class="cls-10" x="445.42" y="200.13" width="15.53" height="1.01"/><rect class="cls-10" x="445.42" y="203.55" width="18.3" height="1.01"/><rect class="cls-10" x="445.42" y="207.08" width="5.62" height="1.01"/><rect class="cls-10" x="445.42" y="210.52" width="9.06" height="1.01"/><rect class="cls-2" x="441.65" y="31.66" width="133.54" height="133.54"/><rect class="cls-3" x="447.05" y="37.06" width="122.73" height="122.73"/><rect class="cls-11" x="453.56" y="43.57" width="109.71" height="109.71"/><path class="cls-12" d="M534.56,154.11H457V139.86c0-5,2.07-14.41,9.94-14.41.69,0,2.81,0,3.14-.44s-.18-1.83-.7-3.53a71.16,71.16,0,0,1-3.28-22.7c0-5.82.66-10.71,1.91-14.16s2.93-5.16,4.87-5.16c4.07,0,6.8,7.76,6.8,19.32,0,9.33,1.46,11.86,2.69,12.34,2.28.88,6.79-4,10.77-8.36,1.41-1.54,2.87-3.13,4.31-4.57,3.3-3.29,3.67-6.65,4-9.6.65-5.83,1.73-9.4,15.36-9.4,5,0,8.16,1.06,9.61,3.26,2.36,3.56,0,9.15-3,16.22-2.71,6.38-5.78,13.62-5.78,20.69,0,4.47,1,4.74,1,4.75,2.24.5,9.16-11,14.31-22l1.58-3.37Zm-75.87-1.66H532.9V106.1c-3.54,7.17-10.28,19.67-14.22,19.67a1.55,1.55,0,0,1-.37,0c-2.07-.46-2.31-3.86-2.31-6.37,0-7.4,3.14-14.81,5.91-21.34,2.69-6.35,5-11.83,3.14-14.65-1.12-1.7-3.81-2.52-8.22-2.52-12.83,0-13.18,3.15-13.7,7.92-.34,3.07-.77,6.89-4.47,10.6-1.42,1.41-2.87,3-4.27,4.52-5,5.41-9.25,10.08-12.59,8.78-2.59-1-3.75-5.3-3.75-13.89,0-12.18-3-17.66-5.14-17.66-1.15,0-2.39,1.52-3.31,4.06-.82,2.28-1.8,6.49-1.8,13.6A69.41,69.41,0,0,0,471,121c.78,2.57,1.21,4,.44,5s-2.1,1.11-4.47,1.11c-8.17,0-8.28,12.62-8.28,12.75Z"/><path class="cls-5" d="M506.17,107.72c6.09-10.53,4.15-10.53,6.37-27.7s.55-10.81,11.91-20.78S538,43.57,538,43.57h11.63s-19.39,6.5-19.39,19.4,22.16,5.69,12.19,21.2-30.75,16.6-31.58,29.49S506.17,107.72,506.17,107.72Z"/><path class="cls-12" d="M521.13,43.57s-15.65,5.85-18.52,14-9.47,19.61-18.73,9.7-16.5-9.93-16.5-9.93V43.57Z"/><rect class="cls-6" x="263.98" y="33.01" width="133.54" height="133.54"/><rect class="cls-3" x="269.38" y="38.41" width="122.73" height="122.73"/><rect class="cls-5" x="275.89" y="44.93" width="109.71" height="109.71"/><path class="cls-6" d="M352.45,98.39a22,22,0,1,1,22-22A22.05,22.05,0,0,1,352.45,98.39Zm0-43.22a21.2,21.2,0,1,0,21.19,21.19A21.22,21.22,0,0,0,352.45,55.17Z"/><path class="cls-6" d="M338.33,111.86a22,22,0,1,1,22-22A22,22,0,0,1,338.33,111.86Zm0-43.22a21.2,21.2,0,1,0,21.2,21.2A21.22,21.22,0,0,0,338.33,68.64Z"/><path class="cls-6" d="M333.19,115.43a22,22,0,1,1,22-22A22,22,0,0,1,333.19,115.43Zm0-43.22a21.2,21.2,0,1,0,21.2,21.19A21.22,21.22,0,0,0,333.19,72.21Z"/><path class="cls-13" d="M325.14,122.8a22,22,0,1,1,22-22A22,22,0,0,1,325.14,122.8Zm0-43.22a21.2,21.2,0,1,0,21.19,21.2A21.22,21.22,0,0,0,325.14,79.58Z"/><circle class="cls-4" cx="323.33" cy="110.7" r="34.33" transform="translate(16.43 261.05) rotate(-45)"/><path class="cls-6" d="M343.08,115.43a22,22,0,1,1,22-22A22.05,22.05,0,0,1,343.08,115.43Zm0-43.22A21.2,21.2,0,1,0,364.27,93.4,21.21,21.21,0,0,0,343.08,72.21Z"/><path class="cls-4" d="M322.3,44.93s-17,3-17.87,14.83-7,14.1-15.43,16.6S275.89,90.72,275.89,97v-52Z"/><path class="cls-7" d="M250.33,221.75s-.92,2.48-1.63,2.87-.91,5.92-1,6.58.36,1.09.57,1,.69-3,1.13-3.86.63-1,.73-.75a46,46,0,0,1-.45,4.88c-.17,1.42.06,6,.83,5.61s2.41-7.3,2.56-9.5a29.07,29.07,0,0,0-.23-5Z"/><path class="cls-14" d="M214.68,149.54a16.06,16.06,0,0,1-1.32-10.12c1.26-5.22,7.57-10.88,14.61-8.35,5,1.79,7.06,8.15,6.3,11.56-1.67,7.47,3.94,11.33,2.64,15.3-1.15,3.48-1.28,6.2-.41,6.9s3.69,3.22,3.38,6.2-13.76-8.68-13.76-8.68S218.8,147.64,214.68,149.54Z"/><path class="cls-7" d="M197.15,311.25a47.72,47.72,0,0,0-1,4.89c-.28,2-3.49,6.5-3.35,7s3.83,1.05,5.34-.36,2.47-5.52,2.8-8a19.76,19.76,0,0,1,.7-3.41S198.59,309.74,197.15,311.25Z"/><polygon class="cls-2" points="202.85 316.07 202.85 322.4 202.03 322.4 202.03 317.51 202.85 316.07"/><path class="cls-2" d="M233.33,320.39s-4.32,5.94-3.71,6.9,5.34,1.09,8.21,0,2.94-8.18,4.24-11.22c.54-1.27-.62-5-2.26-5.3a7.4,7.4,0,0,0-3.55.58S237.93,315.68,233.33,320.39Z"/><path class="cls-7" d="M236.26,311.35a39.84,39.84,0,0,1-.89,4.79c-.55,2-3.49,6.5-3.35,7s3.83,1.05,5.33-.36,2.67-5.5,2.8-8a13,13,0,0,0-.34-4.08A3.33,3.33,0,0,0,236.26,311.35Z"/><polygon class="cls-2" points="242.07 316.07 242.07 322.4 241.25 322.4 241.25 317.51 242.07 316.07"/><path class="cls-7" d="M232.7,161.82S229.61,175.37,224,178c0,0-6.15-7.82-4-16.06C220,161.89,226.48,159.33,232.7,161.82Z"/><path class="cls-7" d="M224.89,165.89c-4.5-.85-3.54-3.35-3.54-3.35s.21-1.41.29-3.19c0-.46,0-.94,0-1.43a20.18,20.18,0,0,0-.12-2.21c-.37-3,8.15-1.21,8.15-1.21s-.49,6.1.68,7.93S229.38,166.74,224.89,165.89Z"/><path class="cls-7" d="M216.56,137.34s-4.7,9.07,0,17.66,13.84-3.74,14.44-5.19,3.73-9.63-2.52-12.11S217.89,134.88,216.56,137.34Z"/><path class="cls-7" d="M223.12,195.6s2.46-2.52,2.83-2.38-1,2.78-1,2.78Z"/><path class="cls-14" d="M218.13,140.56s-3.24,4.25-3.63,7.4a16.86,16.86,0,0,1,2.36-11.66c3.65-5.71,12.92-.27,14.16,2s4.88,4.29-1.23,14.1C229.79,152.41,218.79,144.77,218.13,140.56Z"/><path class="cls-15" d="M225.65,155.9s-.82,1.79-4,3.45c0-.46,0-.94,0-1.43A7.63,7.63,0,0,0,225.65,155.9Z"/><path class="cls-14" d="M226.32,146.37s1.81,2.82.14,5.24.42,4.82.78,7.39-6.63,10.92,1.53,14.36,9.66-5.05,8.45-8.6-3.68-4-3.85-8.42S231.72,144.93,226.32,146.37Z"/><rect class="cls-2" x="224.33" y="191.65" width="6.7" height="13.2" rx="0.79" transform="translate(65.97 -56.69) rotate(16.57)"/><path class="cls-7" d="M219.81,196.43a2.21,2.21,0,0,0,1.19.15c1-.24,1.81-1.47,3.05-.82s.1,4.93-.55,5.55-2.59.24-5-1.42S219.81,196.43,219.81,196.43Z"/><path class="cls-7" d="M223.6,195.6a42,42,0,0,1,4.44.62c2,.4,4.33,1.23,4.41,1.65s-2.11-.11-4.16-.38c-1.89-.25-1.57.1-1.57.1s-.09-.1,1.91.55c2.16.69,4.28,1.62,4.32,2.12,0,.25-.12.35-.95.22.46.17.47.31.41.5-.31,1-3.65.41-5,.19,1,.18,1.74.41,1.14.89s-5.36-.44-7.08-.65S223.6,195.6,223.6,195.6Z"/><path class="cls-2" d="M236.23,311.06s1.05.57,3.73,0l.22.58s-2.55.81-4,0A.68.68,0,0,1,236.23,311.06Z"/><path class="cls-2" d="M197.15,311.25s1.17.72,4.47.2l.18.56s-3.17,1-4.82-.09A1.88,1.88,0,0,1,197.15,311.25Z"/><circle class="cls-16" cx="227.27" cy="192.88" r="0.6"/><path class="cls-7" d="M352.35,208.4a17.84,17.84,0,0,1-3.76,1A9.37,9.37,0,0,0,344,212c-.61.74-5.55,6.06-5.64,6.73s1.27.46,1.72-.08,4.77-4.82,4.77-4.82-4.84,5.4-4.81,6,.76,1.17,1.65.61a1.13,1.13,0,0,0,2,.2l2.52-2.52s-1.07,1.53.33,1.09c.74-.23,3.24-3.41,3.94-3.88s3.37-4.53,3.37-4.53Z"/><path class="cls-2" d="M369.57,312.85s-1.85,3.69-3,4.41-7.37,6.81-8.65,7.37-5.42,1.34-5.36,3.3,10.66,1.34,12.72.61,5.53-5.41,6.93-5.36.89,5.75.89,5.75h1.51s1.89-6,1.84-8.15a77.73,77.73,0,0,0-1.23-7.93Z"/><path class="cls-2" d="M395.42,310.57s-.81,3.64-2.14,4.92-6.33,6.65-7.59,7.23-3.7,1-4.45,1.91-.31,3.65,4.45,3.36,6.3-.24,7.43-1.2,4.78-4.25,5.86-4.34v5.25h1.31s2.3-6.9,1.47-9.81A28.79,28.79,0,0,1,401,311Z"/><path class="cls-7" d="M393.53,154.34s2.17,5.58.49,9.9c0,0,7.94-.51,8.25-1.41s-.32-9.27.77-11.74S393.53,154.34,393.53,154.34Z"/><path class="cls-7" d="M407.93,229.21a6.12,6.12,0,0,0-.39,2.12,10.26,10.26,0,0,1-.49,2.5,23.15,23.15,0,0,0-.42,4.09,17.3,17.3,0,0,1,.95,2.48c0,.58-.11,1.75.39,1.72s.91-1.06.91-1.06a.72.72,0,0,0,.49.63,1.23,1.23,0,0,0,1.24-.22s.4.5.79.49a1.6,1.6,0,0,0,1.2-.43,1.4,1.4,0,0,0,1,.1,1.33,1.33,0,0,0,.93-.88s.95,0,1.15-.5a4.85,4.85,0,0,0,.11-1.39,15.45,15.45,0,0,0-2.3-6.34,6.8,6.8,0,0,1-.82-5.27Z"/><path class="cls-17" d="M408.69,240.75s-.64-3.22.08-4.09,1,.28,1,.28-.31-1.13.57-1.48,1.16,1,1.16,1a.94.94,0,0,1,1-.94c1,0,1,1.16,1,1.16s.72-1.31,1.5-.37a4.91,4.91,0,0,1,.71,3.93s-.2.54-1.15.5a1.32,1.32,0,0,1-1.91.78s-1.26,1.08-2-.06A1.14,1.14,0,0,1,408.69,240.75Z"/><path class="cls-18" d="M392.76,162.35s-4.69,1.62-6.82,2.08-6.56,2.5-6.2,10.2a156.9,156.9,0,0,0,2.17,17.71,68.26,68.26,0,0,1-.6,15.84,61.13,61.13,0,0,0,24.51,0s-2.35-7-2.29-8.79,7.83-16.69,8.19-19,1.93-12.7-1.62-15-6.45-2-8-3S395,161.61,392.76,162.35Z"/><path class="cls-19" d="M386.73,164.24s-5.18-.15-8.86,8-4.57,12.89-5.42,14-3.79,5.6-6.68,7.77-14.93,14.38-14.93,14.38l3.3,4.23s17.35-12.29,19.16-14.4,12.78-18.07,13.43-20.47S392.46,166.73,386.73,164.24Z"/><path class="cls-20" d="M417.83,204.63c0,3.25-3.34,25.44-3.34,25.44l-6.38.27s2.05-22,2.77-27.07a25.76,25.76,0,0,0-.33-6.34h0c-.23-1.61-.53-3.3-.85-4.91-.88-4.46-1.89-8.35-1.89-8.35s-5.76-18.95,3.08-17.56a21.49,21.49,0,0,1,4.05,9.34c1,5.69,2,14.18,1.81,17.52S417.81,202.23,417.83,204.63Z"/><path class="cls-6" d="M381.31,208.18a54,54,0,0,0-2.23,6.06c-.18,1.23-6.6,17.21-7.05,21.89s-1.81,17.34-2.29,19.15,1.09,9.87,1.33,11.68.12,31.32-2.05,45.89c0,0,5.06,2.17,8.91,0,0,0,6.39-22.76,6-35.89s-2-18.67,0-24,14-21.2,15.16-22.89,8.76-11,1.61-21.1S381.31,208.18,381.31,208.18Z"/><path class="cls-6" d="M406,251.3c-.64,4.22,0,9.76,1.35,25.18S405,310.56,405,310.56c-4.58,1.57-9.85,0-9.85,0,.12-1.08,0-37.58,0-40.83s-.93-6.94-1.18-10.67c-.16-2.55-1.34-7.24-2.67-12-.4-1.43-.82-2.87-1.22-4.27h0c-.22-.78-.44-1.55-.66-2.3-1.87-6.5-4.4-31.62-4.4-31.62s14-11.26,20.79-.66,3.31,18.31,3.07,19.63S406.6,247.09,406,251.3Z"/><path class="cls-21" d="M380.21,188.46s1,19-3.57,29.9c0,0,14.91,5,34.15,0,0,0-4.13-13.6-3.8-15.68s7.53-26,5.32-31.68S382.44,170.67,380.21,188.46Z"/><path class="cls-7" d="M398,132.35c-3.36-.38-12.05.31-11.38,13.38S392,158,396.78,156.63s10.42-11.51,10.42-14.22S407.57,133.44,398,132.35Z"/><path class="cls-22" d="M387.09,139.74s3.78,4.82,7.58,6c0,0,2.93,5.23,8,6.56,0,0,10.89-10.41,1.73-18.24S387,135.74,387.09,139.74Z"/><path class="cls-7" d="M394,143.92a1.64,1.64,0,0,1,2.94-.54c1.22,1.62-1,5.42-1.85,5.42S393.47,146.63,394,143.92Z"/><path class="cls-22" d="M406,136.4c.27-.42,8.52-4.14,10.24,3.63s-6.65,16.81-8.11,20.69,0,13.1,0,13.1-4.37-4.74-5.89-9.58C400.53,158.91,400,145.5,406,136.4Z"/><path class="cls-23" d="M400.17,228.65c-.11.24-7.07,15.7-8.86,18.38-.4-1.43-.82-2.87-1.22-4.27h0S399.94,229,400.17,228.65Z"/><path d="M412,181.15s-.22,9.83-1.46,15.78c-.23-1.61-.53-3.3-.85-4.91C409.75,191.8,411.77,182.68,412,181.15Z"/><path class="cls-24" d="M161.45,318.73s3.87,2.58,5.64,3.55,8.78,1.6,9.44,2.3.29,2.78-.88,2.94-9.77.47-12.58-.35-8.21,0-9.37-.44-.06-6.79.47-8.2S161.45,318.73,161.45,318.73Z"/><polygon class="cls-25" points="154.73 316.84 154.17 318.53 161.45 318.74 161.22 316.41 154.73 316.84"/><path class="cls-24" d="M119.54,315.2s3,3.58,4.37,5,8,4.06,8.39,4.91-.52,2.76-1.69,2.57-9.49-2.36-12-3.95-7.87-2.34-8.85-3.12,1.9-6.52,2.81-7.71S119.54,315.2,119.54,315.2Z"/><polygon class="cls-25" points="113.64 311.45 112.62 312.92 119.54 315.2 119.98 312.91 113.64 311.45"/><path class="cls-7" d="M174.47,170.32s6.53-3.24,7.13-3.08.72.55.12.88l-6.23,3.33s8.3-2.48,8.82-2.46c.3,0,.6.74.3.95s-8.42,3.16-8.42,3.16,7.76-2.3,8.18-2.14a.59.59,0,0,1-.08,1.08c-.56.22-7.66,2.78-7.66,2.78s5.73-1.3,6-.94.46.83-1,1.12-5,1.35-5,1.35Z"/><path class="cls-7" d="M167.47,175.29s2.09-1.21,2.05-2.64a8.48,8.48,0,0,1,1-3.34c.32-.66.58-3.08,1.36-2.69s-.25,4-.33,4.8,2.72-1.29,3.5-1.26,3.63,5.05,1.57,6.25-5,1.07-5.3,1.35a14.73,14.73,0,0,1-1.47.94Z"/><path class="cls-26" d="M145.4,191.15c1.57,3.39,2.37,3.81,4.2,4.26,3.94,1,22.35-15.79,22.35-15.79l-4-5.27s-4.49,3.5-8.33,6.08c-2.37,1.6-7,5.5-7.47,5.23a117.76,117.76,0,0,1-7.28-10.33c-.57-1.27-3-9.68-4.53-10.77C140.32,164.56,135.23,169.22,145.4,191.15Z"/><path class="cls-6" d="M141.08,235.79s-1.39,10.24-2.81,20.07h0c-.27,1.87-.54,3.72-.8,5.49h0c-.91,6.18-1.73,11.29-2,12.19-.89,2.57-13.32,41.08-13.32,41.08s-9.66-1.78-10-2.83c0,0,10.52-40.32,10.4-41.78s1.31-42.59,1.31-42.59S140.59,233.42,141.08,235.79Z"/><path class="cls-6" d="M149,223s8.73,41.83,9.46,44.91,4.91,50,4.91,50a99.2,99.2,0,0,1-10.91,0s-7.54-47.49-8.32-49c-3-5.72-14.65-34.52-16.1-38.49a37.87,37.87,0,0,0-4-7.58S134.07,215.15,149,223Z"/><path class="cls-27" d="M129.77,156.22s4.49,3.3,8,6.2l-8-5.87L128,159.18A18.65,18.65,0,0,1,129.77,156.22Z"/><path class="cls-28" d="M144.78,170.87a42.68,42.68,0,0,0-3.47-5.38l.08.08A28.55,28.55,0,0,1,144.78,170.87Z"/><path class="cls-7" d="M129.77,156.21s16.49,17.8,15.44,15.84c-3.71-7-6.07-8.38-6-9.7,0-1,.36-3.95.41-4.93.09-1.87.21-3.39.21-3.39s-8.31-11.25-7.89-7.37S129.77,156.21,129.77,156.21Z"/><path class="cls-7" d="M145,134.94s2.34,5.23,2.39,6.46a26.83,26.83,0,0,0,0,3.6c.22,1.47,1.51,4.54,1.37,5.4-.16,1-2.35.53-2.62,2.24s-1.79,4.93-2.57,5c-2,.2-9.82-2.82-10.34-4.43s-3.49-10.6-4.39-12.3,13.44-11.37,14.81-8.68Z"/><path class="cls-29" d="M125.29,139.2c-1.11-4.46,4-5.1,4-5.1s3.28-3.95,11.3-3.63,7,10.79,7,10.79-5.56-.73-8-.08a38.06,38.06,0,0,0,.07,5.57l-3-.21s.27-4-1.18-4.13-1.79,8.42-4.46,10.36a2.94,2.94,0,0,0-.39-1.19h0a35.19,35.19,0,0,1-2.17-4.34A48.26,48.26,0,0,1,125.29,139.2Z"/><path class="cls-7" d="M137.52,143.33s-1.18-3-3.8-1c-1.91,1.46.17,6.53,2.05,6.47S138.36,146,137.52,143.33Z"/><path class="cls-30" d="M132.7,151.81a5.89,5.89,0,0,0,.86,2,17.42,17.42,0,0,0,6.05,3l-.26,3.18S132.44,157.45,132.7,151.81Z"/><path class="cls-31" d="M149.22,224.29a17.45,17.45,0,0,0-.54-3.61s-14.77,3.75-25,5.27a22,22,0,0,0,.07,3.57S146.17,225.45,149.22,224.29Z"/><path class="cls-32" d="M144.09,226.59s.64,2.45,1.62,3-4.42,5.87-4.42,5.87S139,230.59,139,230.1,144.09,226.59,144.09,226.59Z"/><path class="cls-25" d="M147.9,228.64s2.27,10.37,2.2,13.56-12.1-4.81-11.55-8Z"/><path class="cls-33" d="M148.87,223.1c-1.73.33-21.76,4.48-25.07,5.54,0,0-.82-20.39.24-23.55,1-3-3-31.6,3.95-45.89l0,0,1.76-2.63,8,5.87a42.67,42.67,0,0,1,3.51,3.07,42.68,42.68,0,0,1,3.47,5.38c.32.58.64,1.19.95,1.83l.57,1.25a3.1,3.1,0,0,1,.21.45c1.44,3.23,2.5,6.42,2.29,8a174.32,174.32,0,0,0-.56,33.4C148.66,222.6,149.32,223,148.87,223.1Z"/><path class="cls-34" d="M140.26,164.21s.4.45,1.05,1.28a42.67,42.67,0,0,0-3.51-3.07Z"/><polygon class="cls-35" points="130.34 154.79 139.61 160.9 140.32 164.56 129.38 156.76 130.34 154.79"/><path class="cls-36" d="M133.41,182.59l-4.14,15.77,10.08,18.78s-7.43-15.81-7.23-19.85S133.41,182.59,133.41,182.59Z"/><path class="cls-37" d="M138.27,255.86h0c-.27,1.87-.54,3.72-.8,5.49-1.46-3.37-6.23-22.48-6.31-22.82Z"/><path class="cls-38" d="M126,166.91s-5.9,30.72-6.37,33.86c-.45,3,19.42,30.95,19.42,30.95l6.37-3.93s-16.13-28.13-16.13-29.43,7-26.1,7-26.1,3-5.43-2.56-7.94S126,166.91,126,166.91Z"/><path class="cls-1" d="M558.69,157.72l-1.8-2.41a20.49,20.49,0,0,1,5.71-3l1,2.84A17.06,17.06,0,0,0,558.69,157.72Z"/><path class="cls-1" d="M587.8,180.29,585.07,179a17.36,17.36,0,0,0,1.6-7.29,18.18,18.18,0,0,0-.2-2.65l3-.45a20.36,20.36,0,0,1-1.63,11.64ZM582.18,160a17.55,17.55,0,0,0-8.58-5.22l.76-2.9a20.47,20.47,0,0,1,10,6.11Z"/><path class="cls-1" d="M574.08,191.64l-.72-2.91a17.74,17.74,0,0,0,5.07-2.14l1.59,2.54A20.24,20.24,0,0,1,574.08,191.64Z"/><path class="cls-1" d="M14.93,29.86A14.93,14.93,0,0,1,4.37,4.37h0A14.93,14.93,0,1,1,14.93,29.86ZM6.49,6.49a11.93,11.93,0,1,0,16.88,0,12,12,0,0,0-16.88,0Z"/><rect class="cls-1" x="58.3" y="160.18" width="33.28" height="3" transform="translate(-101.88 139.54) rotate(-58)"/></g></g></svg>