<svg width="280" height="135" viewBox="0 0 280 135" fill="none" xmlns="http://www.w3.org/2000/svg">
<path d="M156.665 14.8698C154.536 14.8698 152.811 13.1484 152.811 11.0241C152.811 8.89989 154.536 7.17851 156.665 7.17851C158.794 7.17851 160.519 8.89989 160.519 11.0241C160.519 13.1484 158.794 14.8698 156.665 14.8698ZM156.665 8.27726C155.16 8.27726 153.912 9.52252 153.912 11.0241C153.912 12.5258 155.16 13.771 156.665 13.771C158.17 13.771 159.418 12.5258 159.418 11.0241C159.418 9.52252 158.17 8.27726 156.665 8.27726Z" fill="#010144"/>
<path d="M186.765 24.9417C186.104 24.5022 185.517 23.9894 185.003 23.3668L185.847 22.6709C186.287 23.1837 186.765 23.6598 187.352 24.026L186.765 24.9417Z" fill="#010144"/>
<path d="M183.351 19.338C183.314 19.1183 183.314 18.8619 183.314 18.6421C183.314 17.4335 183.608 16.1883 184.195 15.1261L185.186 15.6389C184.709 16.5545 184.452 17.6166 184.452 18.6421C184.452 18.8253 184.452 19.045 184.489 19.2282L183.351 19.338ZM187.756 13.0385L187.242 12.0863C188.527 11.3904 189.995 11.0608 191.463 11.1706L191.39 12.2694C190.142 12.1595 188.857 12.4159 187.756 13.0385Z" fill="#010144"/>
<path d="M196.198 15.0529C195.831 14.5035 195.354 13.9908 194.803 13.5879L195.464 12.7089C196.088 13.185 196.639 13.771 197.079 14.4303L196.198 15.0529Z" fill="#010144"/>
<path d="M40.3571 106.499L40.0664 107.559L45.4862 109.028L45.7769 107.969L40.3571 106.499Z" fill="#010144"/>
<path d="M193.877 116.091L193.489 117.119L208.292 122.687L208.68 121.659L193.877 116.091Z" fill="#010144"/>
<path d="M218.883 101.049C220.322 101.049 221.489 99.8843 221.489 98.4482C221.489 97.012 220.322 95.8478 218.883 95.8478C217.444 95.8478 216.277 97.012 216.277 98.4482C216.277 99.8843 217.444 101.049 218.883 101.049Z" fill="#010144"/>
<path d="M135.632 112.805C136.443 112.805 137.1 112.149 137.1 111.34C137.1 110.531 136.443 109.875 135.632 109.875C134.821 109.875 134.164 110.531 134.164 111.34C134.164 112.149 134.821 112.805 135.632 112.805Z" fill="#010144"/>
<path d="M212.056 125.221C212.867 125.221 213.524 124.565 213.524 123.756C213.524 122.947 212.867 122.291 212.056 122.291C211.245 122.291 210.587 122.947 210.587 123.756C210.587 124.565 211.245 125.221 212.056 125.221Z" fill="#010144"/>
<path d="M120.288 34.391C121.099 34.391 121.757 33.735 121.757 32.9259C121.757 32.1168 121.099 31.4609 120.288 31.4609C119.478 31.4609 118.82 32.1168 118.82 32.9259C118.82 33.735 119.478 34.391 120.288 34.391Z" fill="#010144"/>
<path d="M65.7787 129.47C66.5896 129.47 67.247 128.814 67.247 128.005C67.247 127.196 66.5896 126.54 65.7787 126.54C64.9678 126.54 64.3104 127.196 64.3104 128.005C64.3104 128.814 64.9678 129.47 65.7787 129.47Z" fill="#010144"/>
<path d="M155.061 98.9529L153.212 99.7627L156.016 106.134L157.864 105.324L155.061 98.9529Z" fill="#010144"/>
<path d="M103.44 124.012C103.44 124.012 101.788 126.21 102.008 126.576C102.229 126.942 103.954 126.979 105.018 126.576C106.083 126.173 106.083 123.573 106.56 122.474C106.744 121.998 106.34 120.643 105.716 120.533C105.129 120.423 104.468 120.716 104.468 120.716C104.468 120.716 105.129 122.291 103.44 124.012Z" fill="#428469"/>
<path d="M108.285 7.17851H68.2382V72.0781H108.285V7.17851Z" fill="#010144"/>
<path d="M106.377 8.97314H70.1469V70.2469H106.377V8.97314Z" fill="#FAFAFA"/>
<path d="M63.1726 18.752H42.6534V39.2254H63.1726V18.752Z" fill="#428469"/>
<path d="M62.1447 19.8142H43.7179V38.1999H62.1447V19.8142Z" fill="#FAFAFA"/>
<path d="M63.1726 42.1188H42.6534V62.5922H63.1726V42.1188Z" fill="#F9E721"/>
<path d="M62.1447 43.1443H43.7179V61.5301H62.1447V43.1443Z" fill="#FAFAFA"/>
<path d="M61.2271 20.7298H44.6356V37.2843H61.2271V20.7298Z" fill="#FAFAFA"/>
<path d="M61.2271 44.06H44.6356V60.6145H61.2271V44.06Z" fill="#428469"/>
<path d="M104.431 10.8776H72.0557V68.379H104.431V10.8776Z" fill="#FAFAFA"/>
<path d="M61.2271 55.0841C61.2271 55.0841 52.4909 46.9167 52.4909 49.2241C52.4909 51.5315 59.3551 51.2018 55.0237 52.9598C50.6922 54.7178 48.0493 54.1685 50.2151 56.073C52.4175 57.9775 55.4274 58.0507 50.7289 58.71C46.0305 59.3692 46.9481 60.6511 46.9481 60.6511H61.2271V55.0841Z" fill="#FAFAFA"/>
<path d="M51.3897 51.5681C50.6188 51.9344 49.4075 54.3516 48.8569 52.5204C48.3063 50.6891 50.3619 50.2862 48.343 49.1508C46.3608 48.0155 44.4153 46.9167 46.4342 46.3673C48.4531 45.818 49.4442 46.5505 49.7011 47.6492C49.9214 48.748 50.3619 49.1508 50.7656 49.6636C51.1694 50.213 51.6099 51.4582 51.3897 51.5681Z" fill="#C4A0CC"/>
<path d="M59.5019 28.8239C59.5019 28.8239 58.7311 32.6329 55.3907 30.6918C52.0504 28.7507 52.601 23.1471 49.8847 23.3668C47.1684 23.5866 46.3608 26.2602 46.3608 26.2602V34.6107L59.5019 28.8239Z" fill="#C4A0CC"/>
<path d="M72.0557 34.5008C72.0557 34.5008 73.891 53.143 86.7017 48.4183C99.4757 43.7303 104.468 58.4902 104.468 58.4902V68.379H72.0924V34.5008H72.0557Z" fill="#428469"/>
<path d="M104.468 51.4216C104.468 51.4216 102.192 38.1999 91.3267 37.9436C76.6439 37.5773 85.8574 23.3668 92.5747 23.3668C99.2921 23.3668 99.6592 10.8776 99.6592 10.8776H104.468V51.4216Z" fill="#23406D"/>
<path d="M99.0352 20.7298C99.0352 23.5133 96.7593 25.784 93.9696 25.784C91.1799 25.784 88.9041 23.5133 88.9041 20.7298C88.9041 17.9463 91.1799 15.6755 93.9696 15.6755C96.7593 15.6755 99.0352 17.9463 99.0352 20.7298Z" fill="#F9E721"/>
<path d="M72.0557 10.8776V25.784L76.6073 21.2425V23.3668L78.773 21.2059V10.8776H72.0557Z" fill="#C4A0CC"/>
<path d="M110.708 84.7138C110.708 84.7138 109.497 91.3063 109.166 92.9544C108.836 94.6026 107.918 102.587 107.845 103.979C107.735 105.334 106.377 110.461 106.45 110.937C106.523 111.413 104.394 121.192 104.394 121.192C104.394 121.192 105.129 121.778 105.863 121.229C106.266 120.973 109.46 112.878 110.047 110.498C110.635 108.19 113.204 103.319 113.461 102.514C113.681 101.744 115.15 92.0388 115.517 91.5993C115.92 91.1598 116.508 91.8557 116.728 92.8445C116.948 93.8334 117.425 102.514 117.719 103.612C118.013 104.711 117.792 108.447 117.939 110.315C118.086 112.183 118.82 120.68 118.82 120.68C118.82 120.68 120.032 120.899 120.142 120.716C120.288 120.496 121.463 111.267 121.5 109.033C121.537 106.799 121.573 103.722 121.647 102.733C122.234 93.4672 123.372 92.2585 121.39 85.5928C116.581 69.3679 110.708 84.7138 110.708 84.7138Z" fill="#EEA886"/>
<path d="M124.253 77.6085C124.179 77.1324 122.344 67.5366 121.059 67.0239C119.114 66.2548 116.618 65.7786 116.618 65.7786C116.618 65.7786 114.893 65.3391 112.837 65.9984C110.781 66.6576 108.689 67.8296 108.212 68.379C107.808 68.7819 105.826 72.481 104.872 74.3123C104.798 74.4221 104.762 74.5686 104.688 74.6419C104.688 74.6419 104.688 74.6785 104.651 74.6785C104.615 74.7884 104.541 74.8983 104.505 74.9715C104.468 75.0814 104.394 75.1546 104.358 75.2279C104.101 75.7406 103.881 76.2534 103.77 76.6563C103.734 76.7661 103.697 76.876 103.697 76.9493C103.697 77.0225 103.66 77.0958 103.66 77.169C103.66 77.2789 103.624 77.3888 103.624 77.462C103.403 79.0003 104.211 79.8793 105.899 80.2089L111.149 80.392C111.149 80.6118 111.149 80.7949 111.112 81.0147C111.075 81.857 111.002 82.6628 110.928 83.2854C110.341 84.5307 110.084 86.1055 109.754 87.3508C109.387 88.6327 109.607 93.1376 107.882 95.9943C105.936 99.2173 104.137 102.44 104.137 102.44C105.642 101.818 105.789 102.953 111.993 103.466C118.233 103.942 122.05 100.975 122.05 100.975C122.05 100.975 122.674 98.8877 122.785 93.2108C122.895 86.5084 120.545 82.8459 120.545 82.8459C120.252 82.15 119.921 81.1245 119.885 79.6962C119.811 78.048 119.775 76.9859 119.958 75.5941C120.252 73.3966 120.399 72.9205 120.399 72.9205C120.399 72.9205 121.39 76.7295 121.793 78.5608C122.381 81.4542 123.555 88.2298 123.482 88.2664C123.335 88.3763 124.987 88.8158 125.097 88.7792C125.281 88.8524 124.693 80.0258 124.253 77.6085ZM108.726 77.9381C107.808 77.7916 106.854 77.7916 106.927 77.0225C106.927 76.876 107.001 76.6563 107.111 76.4365C107.258 76.1435 108.322 74.4221 109.093 73.067C109.166 72.9571 109.203 72.8473 109.276 72.774C109.497 72.3711 109.644 72.1148 109.644 72.1148C109.57 73.2135 109.68 75.1913 110.745 76.583C110.965 76.876 111.075 77.4254 111.149 78.1579L108.726 77.9381Z" fill="url(#paint0_linear)"/>
<path d="M55.4641 78.3776H42.6534V85.7759H55.4641V78.3776Z" fill="#FFFBF3"/>
<path d="M52.1973 80.0258H44.0483V80.392H52.1973V80.0258Z" fill="#D4D0C9"/>
<path d="M50.9859 81.271H44.0483V81.6373H50.9859V81.271Z" fill="#D4D0C9"/>
<path d="M46.0672 82.5529H44.0483V82.9191H46.0672V82.5529Z" fill="#D4D0C9"/>
<path d="M141.835 78.3776H129.025V85.7759H141.835V78.3776Z" fill="#FFFBF3"/>
<path d="M138.568 80.0258H130.419V80.392H138.568V80.0258Z" fill="#D4D0C9"/>
<path d="M134.751 81.271H130.419V81.6373H134.751V81.271Z" fill="#D4D0C9"/>
<path d="M207.027 78.3776H194.253V85.7759H207.027V78.3776Z" fill="#FFFBF3"/>
<path d="M201.337 80.0258H195.648V80.392H201.337V80.0258Z" fill="#D4D0C9"/>
<path d="M202.365 81.271H195.648V81.6373H202.365V81.271Z" fill="#D4D0C9"/>
<path d="M197.703 82.5529H195.648V82.9191H197.703V82.5529Z" fill="#D4D0C9"/>
<path d="M198.988 83.8348H195.648V84.201H198.988V83.8348Z" fill="#D4D0C9"/>
<path d="M243.257 18.3125H194.253V67.207H243.257V18.3125Z" fill="#428469"/>
<path d="M241.274 20.2903H196.235V65.2292H241.274V20.2903Z" fill="#FAFAFA"/>
<path d="M238.889 22.6709H198.621V62.8486H238.889V22.6709Z" fill="#5FAF90"/>
<path d="M228.354 63.1783H199.906V57.9409C199.906 56.1096 200.677 52.6669 203.54 52.6669C203.797 52.6669 204.568 52.6669 204.678 52.5204C204.788 52.3739 204.604 51.8611 204.421 51.2385C203.98 49.7735 203.209 47.283 203.209 42.9246C203.209 40.8003 203.466 39.0057 203.907 37.7238C204.347 36.5152 204.971 35.8193 205.705 35.8193C207.21 35.8193 208.202 38.6761 208.202 42.888C208.202 46.2941 208.752 47.2463 209.193 47.3928C210.037 47.7225 211.689 45.9278 213.157 44.3163C213.671 43.767 214.221 43.181 214.735 42.6316C215.947 41.423 216.094 40.2143 216.204 39.1156C216.424 36.9913 216.828 35.6728 221.857 35.6728C223.692 35.6728 224.866 36.0757 225.38 36.8814C226.261 38.1999 225.38 40.2143 224.279 42.8147C223.288 45.1587 222.15 47.7957 222.15 50.3961C222.15 52.0442 222.517 52.1175 222.517 52.1541C223.325 52.3372 225.894 48.1253 227.766 44.0966L228.354 42.8513V63.1783ZM200.493 62.5556H227.73V45.5616C226.445 48.1986 223.949 52.7767 222.517 52.7767C222.481 52.7767 222.407 52.7767 222.37 52.7767C221.6 52.5936 221.526 51.3484 221.526 50.4327C221.526 47.7225 222.664 45.0122 223.692 42.6316C224.683 40.3242 225.527 38.3098 224.83 37.2477C224.426 36.6251 223.435 36.3321 221.82 36.3321C217.121 36.3321 216.974 37.5041 216.791 39.2255C216.681 40.3608 216.497 41.7526 215.139 43.1077C214.625 43.6205 214.075 44.2065 213.561 44.7558C211.725 46.7336 210.147 48.455 208.936 47.9788C207.981 47.6126 207.541 46.0377 207.541 42.888C207.541 38.4197 206.44 36.4053 205.669 36.4053C205.265 36.4053 204.788 36.9547 204.457 37.907C204.164 38.7493 203.797 40.2876 203.797 42.888C203.797 47.1365 204.531 49.5904 204.971 51.0187C205.265 51.971 205.412 52.4837 205.118 52.85C204.861 53.1796 204.347 53.2529 203.466 53.2529C200.456 53.2529 200.42 57.8676 200.42 57.9042V62.5556H200.493Z" fill="#F5F5F5"/>
<path d="M217.929 46.1842C220.168 42.3386 219.471 42.3386 220.278 36.0391C221.086 29.7396 220.498 32.0836 224.646 28.4211C228.831 24.7586 229.638 22.6709 229.638 22.6709H233.896C233.896 22.6709 226.775 25.0516 226.775 29.7762C226.775 34.5008 234.924 31.8638 231.254 37.5407C227.583 43.2176 219.948 43.6205 219.654 48.3451C219.361 53.0697 217.929 46.1842 217.929 46.1842Z" fill="#C4A0CC"/>
<path d="M223.435 22.6709C223.435 22.6709 217.708 24.7952 216.644 27.7984C215.579 30.8017 213.157 34.977 209.78 31.3511C206.366 27.7252 203.723 27.7252 203.723 27.7252V22.6709H223.435Z" fill="#F5F5F5"/>
<path d="M178.028 18.8253H129.025V67.7198H178.028V18.8253Z" fill="#23406D"/>
<path d="M176.046 20.803H131.007V65.742H176.046V20.803Z" fill="#FAFAFA"/>
<path d="M173.66 23.1837H133.393V63.3614H173.66V23.1837Z" fill="#C4A0CC"/>
<path d="M161.51 42.7415C157.069 42.7415 153.435 39.1156 153.435 34.684C153.435 30.2523 157.069 26.6264 161.51 26.6264C165.952 26.6264 169.586 30.2523 169.586 34.684C169.586 39.1522 165.952 42.7415 161.51 42.7415ZM161.51 26.9194C157.216 26.9194 153.728 30.3988 153.728 34.684C153.728 38.9691 157.216 42.4485 161.51 42.4485C165.805 42.4485 169.292 38.9691 169.292 34.684C169.292 30.3988 165.805 26.9194 161.51 26.9194Z" fill="#23406D"/>
<path d="M156.335 47.6858C151.893 47.6858 148.259 44.06 148.259 39.6283C148.259 35.1967 151.893 31.5708 156.335 31.5708C160.776 31.5708 164.41 35.1967 164.41 39.6283C164.41 44.06 160.776 47.6858 156.335 47.6858ZM156.335 31.8638C152.04 31.8638 148.553 35.3432 148.553 39.6283C148.553 43.9135 152.04 47.3928 156.335 47.3928C160.629 47.3928 164.116 43.9135 164.116 39.6283C164.116 35.3432 160.593 31.8638 156.335 31.8638Z" fill="#23406D"/>
<path d="M154.426 49.0044C149.984 49.0044 146.35 45.3785 146.35 40.9468C146.35 36.5152 149.984 32.8893 154.426 32.8893C158.867 32.8893 162.501 36.5152 162.501 40.9468C162.501 45.3785 158.904 49.0044 154.426 49.0044ZM154.426 33.1823C150.131 33.1823 146.644 36.6617 146.644 40.9468C146.644 45.232 150.131 48.7114 154.426 48.7114C158.721 48.7114 162.208 45.232 162.208 40.9468C162.208 36.6617 158.721 33.1823 154.426 33.1823Z" fill="#23406D"/>
<path d="M151.489 51.7146C147.048 51.7146 143.414 48.0887 143.414 43.6571C143.414 39.2255 147.048 35.5996 151.489 35.5996C155.931 35.5996 159.565 39.2255 159.565 43.6571C159.565 48.0887 155.931 51.7146 151.489 51.7146ZM151.489 35.856C147.195 35.856 143.707 39.3353 143.707 43.6205C143.707 47.9056 147.195 51.385 151.489 51.385C155.784 51.385 159.271 47.9056 159.271 43.6205C159.271 39.372 155.784 35.856 151.489 35.856Z" fill="#C9DFDD"/>
<path d="M159.737 56.1514C164.654 51.2455 164.654 43.2915 159.737 38.3857C154.82 33.4798 146.848 33.4798 141.932 38.3857C137.015 43.2915 137.015 51.2455 141.932 56.1514C146.848 61.0573 154.82 61.0573 159.737 56.1514Z" fill="#F9E721"/>
<path d="M158.06 49.0044C153.618 49.0044 149.984 45.3785 149.984 40.9468C149.984 36.5152 153.618 32.8893 158.06 32.8893C162.501 32.8893 166.135 36.5152 166.135 40.9468C166.135 45.3785 162.538 49.0044 158.06 49.0044ZM158.06 33.1823C153.765 33.1823 150.278 36.6617 150.278 40.9468C150.278 45.232 153.765 48.7114 158.06 48.7114C162.355 48.7114 165.842 45.232 165.842 40.9468C165.842 36.6617 162.355 33.1823 158.06 33.1823Z" fill="#23406D"/>
<path d="M150.425 23.1837C150.425 23.1837 144.185 24.2824 143.854 28.6042C143.561 32.926 141.285 33.7683 138.201 34.684C135.081 35.5996 133.393 39.958 133.393 42.2287V23.1837H150.425Z" fill="#F9E721"/>
<path d="M124.033 87.9368C124.033 87.9368 123.702 88.8524 123.445 88.9989C123.188 89.1454 123.115 91.1598 123.078 91.4162C123.078 91.6359 123.225 91.8191 123.298 91.7824C123.372 91.7458 123.555 90.6837 123.702 90.354C123.849 90.0977 123.923 89.9878 123.959 90.0977C123.996 90.2075 123.849 91.3063 123.812 91.8923C123.739 92.405 123.849 94.0898 124.106 93.9433C124.4 93.7968 124.987 91.2697 125.06 90.4639C125.134 89.6582 124.987 88.6327 124.987 88.6327L124.033 87.9368Z" fill="#EEA886"/>
<path d="M110.928 61.4935C110.928 61.4935 109.974 59.6989 110.451 57.7944C110.928 55.8899 113.241 53.8022 115.81 54.7179C117.646 55.3771 118.416 57.6845 118.123 58.9664C117.499 61.7132 119.554 63.105 119.077 64.57C118.673 65.8519 118.6 66.8408 118.93 67.0971C119.261 67.3535 120.288 68.2691 120.178 69.3679C120.068 70.4666 115.113 66.1815 115.113 66.1815C115.113 66.1815 112.433 60.7976 110.928 61.4935Z" fill="#FCCCA2"/>
<path d="M104.505 120.716C104.505 120.716 104.248 121.595 104.137 122.511C104.027 123.243 102.853 124.891 102.926 125.075C102.963 125.258 104.321 125.441 104.872 124.928C105.422 124.415 105.789 122.914 105.899 121.998C106.01 121.156 106.156 120.753 106.156 120.753C106.156 120.753 105.018 120.167 104.505 120.716Z" fill="#EEA886"/>
<path d="M106.597 122.474V124.818H106.303V123.024L106.597 122.474Z" fill="#428469"/>
<path d="M117.792 124.049C117.792 124.049 116.214 126.21 116.434 126.576C116.654 126.943 118.38 126.979 119.444 126.576C120.509 126.173 120.509 123.573 120.986 122.474C121.169 121.998 120.766 120.643 120.142 120.533C119.554 120.423 118.82 120.753 118.82 120.753C118.82 120.753 119.481 122.328 117.792 124.049Z" fill="#428469"/>
<path d="M118.857 120.753C118.857 120.753 118.747 121.778 118.527 122.511C118.343 123.243 117.242 124.891 117.278 125.075C117.315 125.258 118.673 125.441 119.224 124.928C119.775 124.415 120.215 122.914 120.252 121.998C120.288 121.082 120.142 120.496 120.142 120.496C120.142 120.496 119.371 120.203 118.857 120.753Z" fill="#EEA886"/>
<path d="M120.986 122.474V124.818H120.692V123.024L120.986 122.474Z" fill="#428469"/>
<path d="M117.535 65.9984C117.535 65.9984 116.398 70.9428 114.342 71.895C114.342 71.895 112.103 69.0383 112.874 65.9984C112.874 65.9984 115.26 65.0827 117.535 65.9984Z" fill="#EEA886"/>
<path d="M114.672 67.4634C113.02 67.1704 113.388 66.2547 113.388 66.2547C113.388 66.2547 113.461 65.742 113.498 65.0827C113.498 64.8996 113.498 64.7531 113.498 64.57C113.498 64.3136 113.498 64.0206 113.461 63.7642C113.314 62.6655 116.471 63.3247 116.471 63.3247C116.471 63.3247 116.287 65.5589 116.728 66.2181C117.132 66.8774 116.324 67.793 114.672 67.4634Z" fill="#EEA886"/>
<path d="M111.626 57.0252C111.626 57.0252 109.9 60.3581 111.626 63.5079C113.351 66.6576 116.691 62.1527 116.911 61.6034C117.132 61.0906 118.27 58.0874 115.994 57.1717C113.681 56.2561 112.103 56.1096 111.626 57.0252Z" fill="#EEA886"/>
<path d="M114.048 78.3776C114.048 78.3776 114.966 77.462 115.076 77.4986C115.223 77.5353 114.709 78.5241 114.709 78.5241L114.048 78.3776Z" fill="#EEA886"/>
<path d="M112.213 58.1972C112.213 58.1972 111.038 59.7721 110.892 60.9075C110.892 60.9075 110.414 58.7466 111.773 56.6224C113.094 54.5347 116.508 56.5125 116.985 57.3549C117.425 58.1972 118.784 58.9297 116.544 62.519C116.471 62.5556 112.433 59.7355 112.213 58.1972Z" fill="#FCCCA2"/>
<path d="M114.966 63.8375C114.966 63.8375 114.672 64.4967 113.498 65.0827C113.498 64.8996 113.498 64.7531 113.498 64.57C113.498 64.57 114.305 64.4601 114.966 63.8375Z" fill="#A77860"/>
<path d="M115.186 60.3215C115.186 60.3215 115.847 61.347 115.223 62.226C114.599 63.105 115.37 63.984 115.517 64.9363C115.663 65.8885 113.094 68.9284 116.067 70.2103C119.077 71.4555 119.628 68.379 119.187 67.0605C118.747 65.8153 117.829 65.5955 117.756 63.984C117.719 62.3359 117.205 59.8087 115.186 60.3215Z" fill="#FCCCA2"/>
<path d="M115.92 81.9303L114.122 81.3809C113.975 81.3443 113.865 81.1611 113.938 81.0146L115.149 76.9492C115.186 76.8027 115.37 76.6929 115.517 76.7661L117.315 77.3155C117.462 77.3521 117.572 77.5353 117.499 77.6818L116.287 81.7471C116.214 81.8936 116.067 81.9669 115.92 81.9303Z" fill="#428469"/>
<path d="M112.8 78.6706C112.8 78.6706 113.02 78.7805 113.241 78.7439C113.608 78.6706 113.901 78.1945 114.342 78.4509C114.782 78.7073 114.379 80.2455 114.122 80.5019C113.901 80.7216 113.167 80.5751 112.286 79.9891C111.442 79.3299 112.8 78.6706 112.8 78.6706Z" fill="#EEA886"/>
<path d="M114.195 78.3776C114.195 78.3776 114.966 78.4509 115.81 78.5974C116.544 78.7439 117.389 79.0369 117.425 79.22C117.462 79.4031 116.655 79.1834 115.884 79.0735C115.186 79.0003 115.296 79.1101 115.296 79.1101C115.296 79.1101 115.26 79.0735 115.994 79.2933C116.801 79.5496 117.572 79.8793 117.572 80.0624C117.572 80.1356 117.536 80.2089 117.242 80.1356C117.425 80.2089 117.425 80.2455 117.389 80.3188C117.279 80.685 116.067 80.4653 115.553 80.392C115.92 80.4653 116.177 80.5385 115.957 80.7216C115.7 80.9048 113.975 80.5751 113.351 80.5019C112.764 80.392 114.195 78.3776 114.195 78.3776Z" fill="#EEA886"/>
<path d="M118.857 120.643C118.857 120.643 119.261 120.863 120.215 120.643L120.288 120.863C120.288 120.863 119.371 121.156 118.857 120.863C118.857 120.863 118.783 120.789 118.857 120.643Z" fill="#428469"/>
<path d="M104.505 120.716C104.505 120.716 104.945 120.973 106.156 120.789L106.23 121.009C106.23 121.009 105.055 121.375 104.468 120.973C104.431 120.973 104.431 120.899 104.505 120.716Z" fill="#428469"/>
<path d="M115.553 77.5719C115.675 77.5719 115.773 77.4735 115.773 77.3521C115.773 77.2308 115.675 77.1324 115.553 77.1324C115.432 77.1324 115.333 77.2308 115.333 77.3521C115.333 77.4735 115.432 77.5719 115.553 77.5719Z" fill="#48484D"/>
<path d="M161.474 83.0657C161.474 83.0657 160.703 83.3587 160.079 83.4319C159.491 83.5052 158.61 84.1278 158.39 84.3842C158.17 84.6405 156.335 86.6183 156.335 86.838C156.298 87.0944 156.812 87.0212 156.959 86.8014C157.142 86.6183 158.721 85.0434 158.721 85.0434C158.721 85.0434 156.959 87.0212 156.959 87.2409C156.959 87.4607 157.252 87.6804 157.583 87.4607C157.583 87.4607 157.84 88.01 158.317 87.5339L159.234 86.6183C159.234 86.6183 158.831 87.1677 159.345 87.0212C159.602 86.9479 160.519 85.7759 160.776 85.5928C161.033 85.4097 162.024 83.9447 162.024 83.9447L161.474 83.0657Z" fill="#EEA886"/>
<path d="M167.787 121.302C167.787 121.302 167.126 122.657 166.686 122.914C166.282 123.17 163.97 125.404 163.492 125.624C163.015 125.844 161.51 126.1 161.51 126.833C161.547 127.565 165.438 127.309 166.172 127.052C166.943 126.796 168.191 125.075 168.705 125.075C169.219 125.111 169.035 127.199 169.035 127.199H169.586C169.586 127.199 170.283 125.001 170.246 124.196C170.21 123.426 169.806 121.302 169.806 121.302H167.787Z" fill="#428469"/>
<path d="M177.294 120.46C177.294 120.46 177 121.778 176.523 122.254C176.046 122.731 174.211 124.708 173.734 124.891C173.256 125.111 172.375 125.258 172.082 125.587C171.788 125.917 171.972 126.906 173.734 126.833C175.496 126.723 176.046 126.759 176.45 126.393C176.854 126.027 178.212 124.818 178.616 124.818V126.759H179.093C179.093 126.759 179.937 124.232 179.643 123.17C179.35 122.108 179.35 120.643 179.35 120.643L177.294 120.46Z" fill="#428469"/>
<path d="M176.597 63.2515C176.597 63.2515 177.404 65.3025 176.78 66.8774C176.78 66.8774 179.68 66.6943 179.827 66.3646C179.937 66.035 179.717 62.9585 180.121 62.0795C180.488 61.1639 176.597 63.2515 176.597 63.2515Z" fill="#EEA886"/>
<path d="M181.883 90.6837C181.883 90.6837 181.699 91.1232 181.736 91.4528C181.773 91.7092 181.626 92.1487 181.552 92.3684C181.479 92.5882 181.369 93.6137 181.405 93.87C181.405 93.9799 181.736 94.5659 181.736 94.7857C181.736 95.0054 181.699 95.4449 181.883 95.4083C182.066 95.4083 182.213 95.0054 182.213 95.0054C182.213 95.0054 182.213 95.1885 182.397 95.2252C182.727 95.2984 182.837 95.1519 182.837 95.1519C182.837 95.1519 182.984 95.335 183.131 95.335C183.461 95.335 183.571 95.1885 183.571 95.1885C183.571 95.1885 183.718 95.2618 183.938 95.2252C184.195 95.1519 184.269 94.8955 184.269 94.8955C184.269 94.8955 184.636 94.8955 184.672 94.7124C184.746 94.5293 184.709 94.3462 184.709 94.1997C184.709 94.0532 184.452 92.7347 183.865 91.8923C183.278 91.0499 183.571 89.9512 183.571 89.9512L181.883 90.6837Z" fill="#EEA886"/>
<path d="M182.14 94.8955C182.14 94.8955 181.919 93.7235 182.176 93.3939C182.433 93.0643 182.543 93.5038 182.543 93.5038C182.543 93.5038 182.433 93.1009 182.764 92.9544C183.094 92.8079 183.204 93.3207 183.204 93.3207C183.204 93.3207 183.204 92.991 183.571 92.991C183.938 92.991 183.938 93.4305 183.938 93.4305C183.938 93.4305 184.195 92.9544 184.489 93.284C184.966 93.87 184.746 94.7124 184.746 94.7124C184.746 94.7124 184.672 94.8955 184.342 94.8955C184.342 94.8955 184.195 95.4083 183.645 95.1885C183.645 95.1885 183.167 95.5914 182.91 95.1519C182.837 95.1519 182.323 95.5548 182.14 94.8955Z" fill="#DB9C7C"/>
<path d="M176.303 66.1815C176.303 66.1815 174.578 66.7675 173.807 66.9506C173.036 67.1337 171.384 67.8662 171.531 70.6864C171.678 73.5065 172.155 75.9604 172.339 77.169C172.522 78.3776 172.412 81.4542 172.118 82.9558C172.118 82.9558 176.266 83.9813 181.112 82.9558C181.112 82.9558 180.267 80.392 180.267 79.7328C180.304 79.0735 183.131 73.6164 183.277 72.774C183.424 71.9316 183.975 68.1226 182.69 67.2802C181.369 66.4379 180.341 66.5477 179.753 66.1815C179.203 65.8152 177.111 65.9251 176.303 66.1815Z" fill="url(#paint1_linear)"/>
<path d="M174.101 66.8774C174.101 66.8774 172.192 66.8407 170.834 69.8074C169.476 72.774 169.145 74.532 168.852 74.9349C168.558 75.3378 167.457 76.9859 166.392 77.7916C165.328 78.5974 160.923 83.0657 160.923 83.0657L162.134 84.6039C162.134 84.6039 168.484 80.099 169.182 79.3299C169.843 78.5608 173.88 72.7008 174.101 71.8218C174.321 70.9428 176.193 67.793 174.101 66.8774Z" fill="url(#paint2_linear)"/>
<path d="M185.517 81.6739C185.517 82.8825 184.305 90.9767 184.305 90.9767L181.956 91.0865C181.956 91.0865 182.69 83.029 182.984 81.1611C183.057 80.6118 182.984 79.7694 182.874 78.8538C182.8 78.2678 182.69 77.6451 182.58 77.0591C182.25 75.411 181.883 73.9826 181.883 73.9826C181.883 73.9826 179.754 67.0605 183.021 67.5366C183.021 67.5366 184.158 68.8551 184.525 70.9428C184.893 73.0304 185.26 76.1435 185.186 77.3521C185.039 78.634 185.48 80.7949 185.517 81.6739Z" fill="url(#paint3_linear)"/>
<path d="M172.082 82.9558C172.082 82.9558 171.348 84.7138 171.274 85.1899C171.201 85.6294 168.852 91.4894 168.705 93.2108C168.521 94.9322 168.044 99.5469 167.861 100.243C167.677 100.902 168.264 103.869 168.338 104.528C168.411 105.187 168.375 115.992 167.604 121.339C167.604 121.339 169.476 122.145 170.871 121.339C170.871 121.339 173.22 112.988 173.073 108.19C172.926 103.393 172.339 101.342 173.073 99.4004C173.807 97.4593 178.212 91.6359 178.653 91.0133C179.093 90.3907 181.883 86.9845 179.24 83.2854C176.597 79.5863 172.082 82.9558 172.082 82.9558Z" fill="#23406D"/>
<path d="M181.149 98.7778C180.928 100.316 181.149 102.367 181.662 108.007C182.14 113.648 180.818 120.496 180.818 120.496C179.13 121.082 177.221 120.496 177.221 120.496C177.258 120.094 177.221 106.725 177.221 105.553C177.221 104.345 176.891 103.026 176.78 101.635C176.707 100.719 176.303 98.9975 175.789 97.2395C175.643 96.7268 175.496 96.1774 175.349 95.6647C175.275 95.3717 175.202 95.0787 175.092 94.8223C174.394 92.4417 173.477 83.2488 173.477 83.2488C173.477 83.2488 178.616 79.1101 181.112 82.9924C183.608 86.8747 182.323 89.6948 182.25 90.1709C182.14 90.647 181.369 97.2029 181.149 98.7778Z" fill="#23406D"/>
<path d="M171.678 75.7406C171.678 75.7406 172.009 82.6994 170.357 86.6915C170.357 86.6915 175.826 88.5228 182.91 86.6915C182.91 86.6915 181.405 81.7105 181.516 80.9414C181.626 80.1723 184.269 71.4189 183.461 69.3313C182.654 67.2802 172.522 69.2214 171.678 75.7406Z" fill="url(#paint4_linear)"/>
<path d="M178.212 55.194C176.964 55.0475 173.807 55.3039 174.027 60.1017C174.284 64.8996 176.009 64.6066 177.771 64.0939C179.533 63.5811 181.589 59.882 181.589 58.8931C181.589 57.9042 181.736 55.5969 178.212 55.194Z" fill="#EEA886"/>
<path d="M174.211 57.9042C174.211 57.9042 175.606 59.6622 177.001 60.1017C177.001 60.1017 178.065 62.0062 179.937 62.519C179.937 62.519 183.938 58.71 180.561 55.8532C177.184 52.9965 174.211 56.4392 174.211 57.9042Z" fill="#323657"/>
<path d="M176.744 59.4425C176.78 59.1861 177.368 58.6367 177.808 59.2594C178.249 59.8454 177.441 61.2371 177.111 61.2371C176.817 61.2371 176.56 60.4314 176.744 59.4425Z" fill="#EEA886"/>
<path d="M181.148 56.6956C181.259 56.5491 184.269 55.194 184.893 58.0141C185.517 60.8709 182.47 64.1671 181.919 65.5955C181.369 67.0239 181.919 70.3934 181.919 70.3934C181.919 70.3934 180.304 68.672 179.754 66.8774C179.166 64.9363 178.946 60.0285 181.148 56.6956Z" fill="#323657"/>
<path d="M179.019 90.4639C178.983 90.5372 176.413 96.214 175.752 97.2029C175.606 96.6902 175.459 96.1408 175.312 95.6281C175.312 95.6281 178.946 90.5738 179.019 90.4639Z" fill="#162D40"/>
<path d="M183.351 73.067C183.351 73.067 183.277 76.6563 182.8 78.8538C182.727 78.2678 182.617 77.6451 182.507 77.0591C182.543 76.9859 183.277 73.6164 183.351 73.067Z" fill="black"/>
<path d="M91.4002 123.463C91.4002 123.463 92.8317 124.415 93.4558 124.745C94.1165 125.111 96.686 125.331 96.9062 125.587C97.1631 125.844 97.0163 126.613 96.5758 126.649C96.1354 126.723 92.9786 126.833 91.9508 126.54C90.923 126.247 88.9408 126.54 88.5003 126.393C88.0598 126.21 88.4636 123.903 88.6839 123.39C88.9041 122.877 91.4002 123.463 91.4002 123.463Z" fill="#1D2033"/>
<path d="M88.9408 122.767L88.7206 123.39L91.4002 123.463L91.2901 122.621L88.9408 122.767Z" fill="#292C47"/>
<path d="M76.02 122.181C76.02 122.181 77.1212 123.5 77.6351 124.012C78.149 124.525 80.5716 125.514 80.7185 125.807C80.8653 126.137 80.5349 126.833 80.0945 126.759C79.654 126.686 76.6073 125.88 75.6896 125.331C74.7719 124.745 72.7898 124.489 72.4594 124.196C72.0923 123.903 73.1568 121.815 73.4872 121.375C73.8176 120.899 76.02 122.181 76.02 122.181Z" fill="#1D2033"/>
<path d="M73.8543 120.789L73.4872 121.339L76.02 122.181L76.1668 121.339L73.8543 120.789Z" fill="#292C47"/>
<path d="M96.172 69.1115C96.172 69.1115 98.5579 67.9395 98.7782 67.9761C98.9984 68.0494 99.0351 68.1592 98.8149 68.3057C98.5946 68.4156 96.5391 69.5144 96.5391 69.5144C96.5391 69.5144 99.5857 68.5987 99.7693 68.5987C99.8794 68.5987 99.9895 68.8551 99.8794 68.9284C99.7693 69.0016 96.796 70.1004 96.796 70.1004C96.796 70.1004 99.6591 69.258 99.806 69.3312C99.9528 69.3679 99.9895 69.6609 99.7693 69.7341C99.549 69.8074 96.9428 70.7596 96.9428 70.7596C96.9428 70.7596 99.0351 70.2835 99.1452 70.43C99.2187 70.5032 99.3288 70.723 98.7782 70.8329C98.2276 70.9427 96.9795 71.3456 96.9795 71.3456L96.172 69.1115Z" fill="#EEA886"/>
<path d="M93.6025 70.9061C93.6025 70.9061 94.3734 70.4666 94.3367 69.9539C94.3367 69.5144 94.5936 68.9284 94.7037 68.7452C94.8139 68.4889 94.924 67.6099 95.2176 67.7564C95.5113 67.9029 95.1075 69.2214 95.1075 69.5144C95.0708 69.8074 96.0986 69.0382 96.3923 69.0382C96.6859 69.0382 97.7137 70.8695 96.9796 71.3456C96.2087 71.7851 95.1442 71.7485 95.0341 71.8584C94.924 71.9682 94.4835 72.188 94.4835 72.188L93.6025 70.9061Z" fill="#EEA886"/>
<path d="M85.4903 76.7295C86.0777 77.9748 86.3713 78.1213 87.032 78.3044C88.4636 78.6706 95.2544 72.5176 95.2544 72.5176L93.7861 70.5765C93.7861 70.5765 92.1343 71.8584 90.7394 72.8106C89.8585 73.3966 88.1332 74.825 87.9864 74.7151C87.8396 74.6053 85.5271 71.3823 85.3068 70.9428C85.0866 70.4666 84.1689 67.3901 83.655 66.9872C83.655 66.9872 81.783 68.7086 85.4903 76.7295Z" fill="url(#paint5_linear)"/>
<path d="M83.912 93.0643C83.912 93.0643 83.3981 96.8 82.8842 100.426C82.7741 101.122 82.7007 101.781 82.5906 102.44C82.2602 104.711 81.9666 106.579 81.8564 106.909C81.5261 107.861 76.9744 121.961 76.9744 121.961C76.9744 121.961 73.4138 121.302 73.3037 120.936C73.3037 120.936 77.1579 106.176 77.1212 105.627C77.0845 105.077 77.5984 90.0244 77.5984 90.0244C77.5984 90.0244 83.7285 92.2219 83.912 93.0643Z" fill="#23406D"/>
<path d="M86.8118 88.4129C86.8118 88.4129 90.0052 103.722 90.2989 104.858C90.5559 105.993 92.0975 123.17 92.0975 123.17C92.0975 123.17 90.6293 123.28 88.0965 123.17C88.0965 123.17 85.3435 105.773 85.0498 105.224C83.9486 103.136 79.6539 92.5882 79.14 91.1232C78.5894 89.6581 77.6718 88.3396 77.6718 88.3396C77.6718 88.3396 81.3424 85.5195 86.8118 88.4129Z" fill="#23406D"/>
<path d="M79.7641 63.9474C79.7641 63.9474 81.4159 65.156 82.7007 66.2181L79.7641 64.0572L79.1034 65.0095C79.3236 64.6432 79.5072 64.277 79.7641 63.9474Z" fill="url(#paint6_linear)"/>
<path d="M85.2701 69.2946C84.7929 68.4156 84.3157 67.7564 83.9854 67.3169C83.9854 67.3169 83.9853 67.3169 84.0221 67.3535C84.3524 67.7198 84.8296 68.4523 85.2701 69.2946Z" fill="url(#paint7_linear)"/>
<path d="M79.7642 63.9474C79.7642 63.9474 85.8208 70.4666 85.417 69.7341C84.0589 67.1704 83.1779 66.6576 83.2146 66.1815C83.2146 65.8153 83.3614 64.7531 83.3614 64.3869C83.3981 63.691 83.4348 63.1416 83.4348 63.1416C83.4348 63.1416 80.3882 59.0396 80.535 60.4314C80.7185 61.8597 79.7642 63.9474 79.7642 63.9474Z" fill="#EEA886"/>
<path d="M85.3436 56.1462C85.3436 56.1462 86.1878 58.0507 86.2245 58.5269C86.2612 58.9664 86.1511 59.3326 86.2245 59.8454C86.2979 60.3947 86.7751 61.4935 86.7384 61.8231C86.665 62.1894 85.8942 62.0062 85.784 62.6289C85.6739 63.2515 85.1233 64.4235 84.8297 64.4601C84.0955 64.5334 81.2324 63.4346 81.0489 62.8486C80.8653 62.2626 79.7641 58.9664 79.4338 58.3437C79.1034 57.7211 84.3525 54.1685 84.8664 55.1574C85.3436 56.1462 85.3436 56.1462 85.3436 56.1462Z" fill="#EEA886"/>
<path d="M78.1123 57.7211C77.7086 56.073 79.5806 55.8532 79.5806 55.8532C79.5806 55.8532 80.7919 54.3882 83.7285 54.5347C86.665 54.6446 86.298 58.4902 86.298 58.4902C86.298 58.4902 84.2424 58.2339 83.3614 58.4536C83.3614 58.4536 83.288 60.1017 83.3981 60.5046L82.2969 60.4314C82.2969 60.4314 82.407 58.9664 81.8564 58.9297C81.3058 58.8565 81.1957 62.0062 80.2046 62.7387C80.2046 62.7387 80.2046 62.519 80.0578 62.2992C79.8376 61.9696 79.5439 61.3836 79.2503 60.7244C78.8465 59.6989 78.3326 58.5269 78.1123 57.7211Z" fill="#16202E"/>
<path d="M82.5906 59.2227C82.5906 59.2227 82.1501 58.124 81.1957 58.8565C80.4983 59.4059 81.2691 61.2371 81.9298 61.2371C82.664 61.2005 82.9209 60.175 82.5906 59.2227Z" fill="#EEA886"/>
<path d="M80.8286 62.3359C80.8286 62.3359 80.9754 62.9219 81.159 63.0684C81.3058 63.2149 82.0766 63.8009 83.3981 64.1671L83.288 65.3391C83.288 65.3025 80.7552 64.3869 80.8286 62.3359Z" fill="#C48A6F"/>
<path d="M86.8853 88.889C86.8853 88.889 86.8119 87.8635 86.7018 87.5705C86.7018 87.5705 81.2692 88.9623 77.525 89.5116C77.525 89.5116 77.4883 90.1343 77.5618 90.8302C77.5618 90.7935 85.7841 89.2919 86.8853 88.889Z" fill="#3D4169"/>
<path d="M85.0132 89.7314C85.0132 89.7314 85.2334 90.6104 85.6005 90.8302C85.9676 91.0133 83.9854 92.991 83.9854 92.991C83.9854 92.991 83.1411 91.233 83.1411 91.0499C83.1778 90.8302 85.0132 89.7314 85.0132 89.7314Z" fill="#EEA987"/>
<path d="M86.408 90.4639C86.408 90.4639 87.2523 94.2729 87.2156 95.4449C87.1789 96.6169 82.7741 93.6869 82.9576 92.5149L86.408 90.4639Z" fill="#292C47"/>
<path d="M86.7751 88.4495C86.1511 88.5594 78.773 90.0977 77.5616 90.4639C77.5616 90.4639 77.268 82.9924 77.6351 81.857C78.0021 80.7949 76.5339 70.2835 79.1033 65.0461L79.7641 64.0939L82.7006 66.2547C83.2512 66.6942 83.7284 67.0971 83.9854 67.3901C84.3157 67.793 84.7929 68.4889 85.2701 69.3679C85.3802 69.5876 85.4903 69.8074 85.6005 70.0271L85.8207 70.4666C85.8574 70.5033 85.8574 70.5765 85.8941 70.6131C86.408 71.7851 86.8118 72.9571 86.7384 73.5431C86.1511 78.3044 86.3346 82.5163 86.5181 85.7759C86.7017 88.2664 86.9219 88.4129 86.7751 88.4495Z" fill="url(#paint8_linear)"/>
<path d="M83.6184 66.8774C83.6184 66.8774 83.7652 67.0239 83.9854 67.3535C83.6918 67.0605 83.2146 66.6576 82.7007 66.2181L83.6184 66.8774Z" fill="url(#paint9_linear)"/>
<path d="M79.9844 63.4346L83.3614 65.6687L83.6551 66.9872L79.6173 64.1305L79.9844 63.4346Z" fill="url(#paint10_linear)"/>
<path opacity="0.2" d="M81.0855 73.6164L79.5806 79.4031L83.288 86.2887C83.288 86.2887 80.5717 80.5019 80.6451 79.0003C80.7185 77.4986 81.0855 73.6164 81.0855 73.6164Z" fill="black"/>
<path d="M82.8841 100.426C82.774 101.122 82.7006 101.781 82.5905 102.44C82.0399 101.195 80.3147 94.1997 80.278 94.0898L82.8841 100.426Z" fill="#1C1D30"/>
<path d="M78.3693 67.8662C78.3693 67.8662 76.2036 79.1101 76.02 80.2821C75.8732 81.3809 83.1411 91.6359 83.1411 91.6359L85.4904 90.2075C85.4904 90.2075 79.5806 79.9159 79.5806 79.4398C79.5806 78.9636 82.1501 69.8806 82.1501 69.8806C82.1501 69.8806 83.2513 67.9029 81.1957 66.9872C79.1768 65.9984 78.3693 67.8662 78.3693 67.8662Z" fill="url(#paint11_linear)"/>
<path d="M237.2 64.4967L236.539 63.6177C237.163 63.1416 237.897 62.7754 238.631 62.519L238.998 63.5445C238.338 63.7642 237.75 64.0939 237.2 64.4967Z" fill="#010144"/>
<path d="M247.882 72.774L246.891 72.2979C247.294 71.4555 247.478 70.5399 247.478 69.6243C247.478 69.2946 247.441 68.965 247.404 68.6354L248.506 68.4523C248.579 68.8185 248.579 69.2214 248.579 69.5876C248.579 70.723 248.359 71.7485 247.882 72.774ZM245.826 65.3391C244.982 64.4235 243.881 63.7276 242.669 63.4346L242.963 62.3725C244.394 62.7387 245.679 63.5079 246.634 64.6066L245.826 65.3391Z" fill="#010144"/>
<path d="M242.853 76.9126L242.596 75.8505C243.256 75.704 243.88 75.411 244.468 75.0814L245.055 75.997C244.358 76.3999 243.623 76.7295 242.853 76.9126Z" fill="#010144"/>
<path d="M37.6245 17.6533C36.2297 17.6533 34.8348 17.1039 33.7336 16.0418C31.6046 13.9175 31.6046 10.4381 33.7336 8.31389C35.8626 6.18964 39.3497 6.18964 41.4787 8.31389C42.5065 9.3394 43.0938 10.7311 43.0938 12.1962C43.0938 13.6612 42.5065 15.0163 41.4787 16.0784C40.4142 17.1405 39.0194 17.6533 37.6245 17.6533ZM34.5044 9.08302C32.7792 10.8044 32.7792 13.5513 34.5044 15.2727C36.2297 16.994 38.9827 16.994 40.7079 15.2727C41.5521 14.4303 41.9926 13.3315 41.9926 12.1962C41.9926 11.0608 41.5521 9.9254 40.7079 9.11965C38.9827 7.39827 36.2297 7.39827 34.5044 9.08302Z" fill="#010144"/>
<path d="M62.3953 60.4779L55.9169 70.8202L56.8507 71.4025L63.3291 61.0602L62.3953 60.4779Z" fill="#010144"/>
<defs>
<linearGradient id="paint0_linear" x1="103.58" y1="84.6288" x2="125.109" y2="84.6288" gradientUnits="userSpaceOnUse">
<stop offset="0.0706301" stop-color="#A3D9C6"/>
<stop offset="1" stop-color="#CB9ECF"/>
</linearGradient>
<linearGradient id="paint1_linear" x1="175.04" y1="67.7683" x2="180.758" y2="84.7431" gradientUnits="userSpaceOnUse">
<stop offset="0.0706301" stop-color="#A3D9C6"/>
<stop offset="1" stop-color="#CB9ECF"/>
</linearGradient>
<linearGradient id="paint2_linear" x1="166.343" y1="70.698" x2="172.061" y2="87.6728" gradientUnits="userSpaceOnUse">
<stop offset="0.0706301" stop-color="#A3D9C6"/>
<stop offset="1" stop-color="#CB9ECF"/>
</linearGradient>
<linearGradient id="paint3_linear" x1="178.368" y1="66.6471" x2="184.086" y2="83.6219" gradientUnits="userSpaceOnUse">
<stop offset="0.0706301" stop-color="#A3D9C6"/>
<stop offset="1" stop-color="#CB9ECF"/>
</linearGradient>
<linearGradient id="paint4_linear" x1="173.621" y1="68.2463" x2="179.339" y2="85.2212" gradientUnits="userSpaceOnUse">
<stop offset="0.0706301" stop-color="#A3D9C6"/>
<stop offset="1" stop-color="#CB9ECF"/>
</linearGradient>
<linearGradient id="paint5_linear" x1="83.1699" y1="72.6513" x2="95.2475" y2="72.6513" gradientUnits="userSpaceOnUse">
<stop offset="0.0706301" stop-color="#A3D9C6"/>
<stop offset="1" stop-color="#CB9ECF"/>
</linearGradient>
<linearGradient id="paint6_linear" x1="79.1181" y1="65.0739" x2="82.7109" y2="65.0739" gradientUnits="userSpaceOnUse">
<stop offset="0.0706301" stop-color="#A3D9C6"/>
<stop offset="1" stop-color="#CB9ECF"/>
</linearGradient>
<linearGradient id="paint7_linear" x1="83.9986" y1="68.3213" x2="85.2746" y2="68.3213" gradientUnits="userSpaceOnUse">
<stop offset="0.0706301" stop-color="#A3D9C6"/>
<stop offset="1" stop-color="#CB9ECF"/>
</linearGradient>
<linearGradient id="paint8_linear" x1="77.4611" y1="77.2627" x2="86.8293" y2="77.2627" gradientUnits="userSpaceOnUse">
<stop offset="0.0706301" stop-color="#A3D9C6"/>
<stop offset="1" stop-color="#CB9ECF"/>
</linearGradient>
<linearGradient id="paint9_linear" x1="82.7109" y1="66.7724" x2="83.9987" y2="66.7724" gradientUnits="userSpaceOnUse">
<stop offset="0.0706301" stop-color="#A3D9C6"/>
<stop offset="1" stop-color="#CB9ECF"/>
</linearGradient>
<linearGradient id="paint10_linear" x1="81.4922" y1="64.5181" x2="81.9122" y2="67.7161" gradientUnits="userSpaceOnUse">
<stop offset="0.0706301" stop-color="#A3D9C6"/>
<stop offset="1" stop-color="#CB9ECF"/>
</linearGradient>
<linearGradient id="paint11_linear" x1="76.0321" y1="79.1217" x2="85.5011" y2="79.1217" gradientUnits="userSpaceOnUse">
<stop offset="0.0706301" stop-color="#A3D9C6"/>
<stop offset="1" stop-color="#CB9ECF"/>
</linearGradient>
</defs>
</svg>
