<svg width="142" height="114" viewBox="0 0 142 114" fill="none" xmlns="http://www.w3.org/2000/svg">
<g clip-path="url(#clip0)">
<path opacity="0.5" d="M71 113.996C110.212 113.996 142 112.139 142 109.849C142 107.558 110.212 105.701 71 105.701C31.7878 105.701 0 107.558 0 109.849C0 112.139 31.7878 113.996 71 113.996Z" fill="#7DC29C"/>
<path d="M106.41 16.28C105.65 16.28 104.906 16.0543 104.274 15.6316C103.642 15.2088 103.149 14.6079 102.858 13.9049C102.567 13.2019 102.491 12.4283 102.639 11.682C102.787 10.9357 103.154 10.2501 103.691 9.71208C104.229 9.17401 104.914 8.80759 105.66 8.65913C106.406 8.51068 107.179 8.58687 107.882 8.87807C108.584 9.16927 109.185 9.6624 109.607 10.2951C110.03 10.9278 110.255 11.6717 110.255 12.4326C110.254 13.4527 109.849 14.4307 109.128 15.152C108.407 15.8734 107.43 16.279 106.41 16.28ZM106.41 9.68446C105.867 9.68446 105.336 9.84564 104.884 10.1476C104.433 10.4496 104.081 10.8788 103.873 11.3809C103.665 11.8831 103.611 12.4356 103.717 12.9687C103.822 13.5018 104.084 13.9915 104.468 14.3758C104.852 14.7602 105.342 15.0219 105.874 15.1279C106.407 15.234 106.959 15.1795 107.461 14.9715C107.963 14.7635 108.392 14.4113 108.694 13.9594C108.995 13.5074 109.157 12.9761 109.157 12.4326C109.156 11.704 108.866 11.0056 108.351 10.4904C107.836 9.97528 107.138 9.68543 106.41 9.68446Z" fill="#010144"/>
<path d="M97.3234 29.2629L97.0344 30.3235L102.457 31.8029L102.746 30.7424L97.3234 29.2629Z" fill="#010144"/>
<path d="M87.5654 99.3393L87.178 100.368L101.957 105.941L102.344 104.913L87.5654 99.3393Z" fill="#010144"/>
<path d="M90.0784 85.2727C91.5083 85.2727 92.6674 84.1129 92.6674 82.6821C92.6674 81.2514 91.5083 80.0916 90.0784 80.0916C88.6486 80.0916 87.4895 81.2514 87.4895 82.6821C87.4895 84.1129 88.6486 85.2727 90.0784 85.2727Z" fill="#010144"/>
<path d="M35.5751 29.5734C36.3841 29.5734 37.0399 28.9172 37.0399 28.1078C37.0399 27.2983 36.3841 26.6421 35.5751 26.6421C34.7661 26.6421 34.1104 27.2983 34.1104 28.1078C34.1104 28.9172 34.7661 29.5734 35.5751 29.5734Z" fill="#010144"/>
<path d="M105.682 108.471C106.491 108.471 107.146 107.814 107.146 107.005C107.146 106.196 106.491 105.539 105.682 105.539C104.873 105.539 104.217 106.196 104.217 107.005C104.217 107.814 104.873 108.471 105.682 108.471Z" fill="#010144"/>
<path d="M24.4906 60.2829C25.2996 60.2829 25.9554 59.6267 25.9554 58.8172C25.9554 58.0078 25.2996 57.3516 24.4906 57.3516C23.6817 57.3516 23.0259 58.0078 23.0259 58.8172C23.0259 59.6267 23.6817 60.2829 24.4906 60.2829Z" fill="#010144"/>
<path d="M57.8979 58.3044C58.7068 58.3044 59.3626 57.6482 59.3626 56.8387C59.3626 56.0293 58.7068 55.373 57.8979 55.373C57.0889 55.373 56.4331 56.0293 56.4331 56.8387C56.4331 57.6482 57.0889 58.3044 57.8979 58.3044Z" fill="#010144"/>
<path d="M54.9638 15.7249L53.1196 16.5349L55.9162 22.9097L57.7604 22.0997L54.9638 15.7249Z" fill="#010144"/>
<path d="M53.6721 42.3945C53.0061 42.6456 52.3148 42.8238 51.6105 42.9258C50.717 43.0138 49.4133 43.9481 49.0874 44.3549C48.7615 44.7616 46.0444 47.6783 45.9968 48.0484C45.9492 48.4184 46.6889 48.2975 46.9416 48.0007C47.1943 47.7039 49.5525 45.3625 49.5525 45.3625C49.5525 45.3625 46.9013 48.3158 46.916 48.6603C46.9306 49.0047 47.3334 49.3015 47.8241 48.9937C47.8241 48.9937 48.2159 49.7962 48.9227 49.1036L50.3032 47.7222C50.3032 47.7222 49.7173 48.565 50.4863 48.3232C50.8927 48.1949 52.2586 46.4544 52.6431 46.1979C53.0276 45.9415 54.474 43.71 54.474 43.71L53.6721 42.3945Z" fill="#EEA886"/>
<path d="M63.1014 99.6401C63.1014 99.6401 62.0907 101.663 61.4792 102.059C60.8677 102.454 57.4511 105.792 56.7407 106.089C56.0303 106.386 53.7746 106.822 53.8112 107.896C53.8479 108.969 59.6483 108.628 60.7688 108.233C61.8893 107.837 63.7972 105.265 64.5625 105.301C65.3278 105.338 65.0495 108.453 65.0495 108.453H65.8771C65.8771 108.453 66.9171 105.155 66.8841 103.986C66.8512 102.817 66.214 99.6401 66.214 99.6401H63.1014Z" fill="#428469"/>
<path d="M77.2655 98.387C77.2655 98.387 76.8224 100.388 76.0937 101.084C75.3649 101.78 72.6295 104.748 71.9338 105.052C71.238 105.356 69.9088 105.591 69.495 106.096C69.0812 106.602 69.3302 108.097 71.9338 107.928C74.5374 107.76 75.3869 107.793 76.0058 107.269C76.6246 106.745 78.6203 104.939 79.2172 104.891V107.767H79.9496C79.9496 107.767 81.2093 103.986 80.7552 102.392C80.4648 101.159 80.321 99.8957 80.3268 98.6288L77.2655 98.387Z" fill="#428469"/>
<path d="M76.2256 12.7658C76.2256 12.7658 77.4157 15.8254 76.4929 18.1888C76.4929 18.1888 80.8469 17.914 81.0117 17.4193C81.1764 16.9247 80.8359 12.3408 81.4364 10.985C82.037 9.62927 76.2256 12.7658 76.2256 12.7658Z" fill="#EEA886"/>
<path d="M84.1132 53.7975C83.9738 54.169 83.9007 54.5622 83.8972 54.959C83.8676 55.4267 83.7778 55.8885 83.6299 56.3331C83.4876 57.0723 83.4116 57.8228 83.4028 58.5756C83.4211 58.7295 83.9155 59.6162 83.9228 59.9313C83.9301 60.2464 83.8606 60.8913 84.1352 60.873C84.4098 60.8547 84.6296 60.2941 84.6296 60.2941C84.6362 60.3717 84.6655 60.4456 84.7136 60.5068C84.7618 60.568 84.8267 60.6138 84.9005 60.6385C85.0145 60.6814 85.1378 60.6929 85.2577 60.6716C85.3775 60.6503 85.4895 60.5971 85.5817 60.5176C85.5817 60.5176 85.7977 60.7924 86.0101 60.7887C86.1305 60.7975 86.2514 60.7809 86.365 60.7398C86.4785 60.6988 86.5822 60.6343 86.6692 60.5506C86.8362 60.6329 87.0268 60.6536 87.2075 60.6092C87.326 60.5777 87.4348 60.5169 87.5237 60.4324C87.6126 60.3478 87.6789 60.2423 87.7165 60.1255C87.7165 60.1255 88.2402 60.1255 88.3464 59.847C88.4062 59.6002 88.426 59.3453 88.405 59.0922C88.2485 57.8539 87.8182 56.6659 87.1453 55.6149C86.2444 54.3361 86.6985 52.7275 86.6985 52.7275L84.1132 53.7975Z" fill="#EEA886"/>
<path d="M84.5306 60.1217C84.5306 60.1217 84.1644 58.3629 84.5709 57.8866C84.9773 57.4102 85.1275 58.0368 85.1275 58.0368C85.1275 58.0368 84.9554 57.4212 85.4387 57.227C85.9221 57.0328 86.0722 57.7803 86.0722 57.7803C86.0727 57.7103 86.0872 57.641 86.1148 57.5766C86.1425 57.5123 86.1828 57.4541 86.2333 57.4056C86.2839 57.3571 86.3436 57.3192 86.409 57.2942C86.4744 57.2692 86.5442 57.2576 86.6142 57.26C87.1525 57.249 87.1525 57.8939 87.1525 57.8939C87.1525 57.8939 87.5516 57.1611 87.9764 57.6924C88.7088 58.5608 88.3646 59.8433 88.3646 59.8433C88.3646 59.8433 88.2547 60.1437 87.7347 60.1217C87.7024 60.2249 87.6476 60.3195 87.5744 60.399C87.5012 60.4785 87.4113 60.5407 87.3112 60.5814C87.2111 60.622 87.1033 60.6399 86.9955 60.634C86.8876 60.628 86.7824 60.5982 86.6874 60.5468C86.6874 60.5468 85.9953 61.144 85.5889 60.5138C85.5046 60.5972 85.3983 60.6548 85.2825 60.6799C85.1666 60.7049 85.046 60.6963 84.9349 60.6552C84.8237 60.614 84.7267 60.5419 84.655 60.4474C84.5834 60.3529 84.5402 60.2399 84.5306 60.1217Z" fill="#DB9C7C"/>
<path d="M75.8005 17.1555C75.8005 17.1555 73.2372 18.0459 72.0618 18.2951C70.8863 18.5442 68.4768 19.6655 68.6746 23.8903C68.8723 28.1151 69.5973 31.7792 69.861 33.593C70.1247 35.4068 69.9599 40.031 69.5314 42.2735C73.9602 43.1817 78.5271 43.1817 82.9558 42.2735C82.9558 42.2735 81.6705 38.4444 81.7035 37.4551C81.7364 36.4657 85.9915 28.2946 86.1893 27.0231C86.387 25.7517 87.2439 20.0612 85.2994 18.8044C83.355 17.5476 81.7694 17.7051 80.9455 17.1555C80.1216 16.6059 77.009 16.7524 75.8005 17.1555Z" fill="url(#paint0_linear)"/>
<path d="M72.5051 18.1888C72.5051 18.1888 69.6671 18.1119 67.6531 22.5858C65.6391 27.0598 65.1484 29.6504 64.687 30.2806C64.2256 30.9108 62.618 33.3439 61.0214 34.5164C59.4249 35.6889 52.8445 42.398 52.8445 42.398L54.6534 44.7175C54.6534 44.7175 64.156 37.9827 65.1447 36.8285C66.1334 35.6743 72.1389 26.9242 72.5051 25.6051C72.8713 24.286 75.6396 19.5555 72.5051 18.1888Z" fill="url(#paint1_linear)"/>
<path d="M89.5364 40.3281C89.5547 42.1088 87.7055 54.2739 87.7055 54.2739L84.2121 54.4205C84.2121 54.4205 85.3216 42.358 85.7281 39.5732C85.8132 38.4124 85.7529 37.2455 85.5487 36.0996C85.4242 35.2202 85.2594 34.2968 85.0836 33.4101C84.6003 30.9661 84.0473 28.8335 84.0473 28.8335C84.0473 28.8335 80.8944 18.4492 85.7354 19.2114C86.8755 20.7186 87.6366 22.478 87.9545 24.3412C88.5001 27.4631 89.0531 32.1166 88.9432 33.9487C88.8334 35.7808 89.5255 39.0163 89.5364 40.3281Z" fill="url(#paint2_linear)"/>
<path d="M69.5315 42.2735C69.5315 42.2735 68.411 44.9264 68.3121 45.5969C68.2133 46.2675 64.6942 55.0285 64.4525 57.5898C64.2108 60.151 63.4602 67.0947 63.1965 68.0877C62.9329 69.0806 63.7934 73.4996 63.9289 74.489C64.0644 75.4783 63.9948 91.652 62.8047 99.6399C62.8047 99.6399 65.5767 100.831 67.686 99.6399C67.686 99.6399 71.183 87.1634 70.9816 79.9669C70.7802 72.7705 69.8831 69.7365 70.9816 66.8308C72.0802 63.9251 78.6276 55.2154 79.2868 54.2883C79.9459 53.3613 84.0802 48.2571 80.1656 42.7242C76.2511 37.1913 69.5315 42.2735 69.5315 42.2735Z" fill="#23406D"/>
<path d="M83.0366 65.9075C82.6887 68.2196 83.0549 71.2536 83.769 79.7068C84.483 88.1601 82.4983 98.3941 82.4983 98.3941C79.9936 99.2516 77.108 98.3941 77.108 98.3941C77.1739 97.8005 77.108 77.7978 77.108 76.017C77.108 74.2362 76.5954 72.2099 76.4635 70.1543C76.3757 68.7583 75.7312 66.1897 74.9988 63.5588C74.7827 62.771 74.5557 61.9795 74.336 61.2137L73.9698 59.9569C72.9445 56.3916 71.5603 42.6253 71.5603 42.6253C71.5603 42.6253 79.2173 36.4548 82.945 42.2589C86.6728 48.063 84.776 52.2951 84.6258 53.0206C84.4757 53.7461 83.3845 63.5954 83.0366 65.9075Z" fill="#23406D"/>
<path d="M68.9347 31.468C68.9347 31.468 69.4473 41.8633 66.9756 47.8542C66.9756 47.8542 75.1379 50.5767 85.6804 47.8542C85.6804 47.8542 83.4211 40.4013 83.6005 39.2617C83.7799 38.1222 87.7238 24.9714 86.5117 21.8972C85.2996 18.8229 70.1504 21.7176 68.9347 31.468Z" fill="url(#paint3_linear)"/>
<path d="M78.668 0.732647C76.8371 0.523788 72.0767 0.897535 72.4429 8.06101C72.809 15.2245 75.409 14.7921 78.0162 14.0336C80.6235 13.2751 83.7141 7.71658 83.7141 6.22892C83.7141 4.74126 83.9155 1.31159 78.668 0.732647Z" fill="#EEA886"/>
<path d="M72.6992 4.76335C72.6992 4.76335 74.7681 7.40522 76.8517 8.03546C76.8517 8.03546 78.4519 10.9045 81.2459 11.6337C81.2459 11.6337 87.2075 5.92856 82.1944 1.6378C77.1813 -2.65296 72.6662 2.56484 72.6992 4.76335Z" fill="#323657"/>
<path d="M76.4599 7.05724C76.5294 6.66517 77.3973 5.86638 78.0674 6.75677C78.7375 7.64717 77.5145 9.72842 77.0531 9.72842C76.5917 9.72842 76.1962 8.54123 76.4599 7.05724Z" fill="#EEA886"/>
<path d="M83.0367 2.93127C83.1868 2.70776 87.7056 0.670474 88.6467 4.92459C89.5878 9.1787 85.0068 14.1363 84.2048 16.2835C83.4029 18.4308 84.2232 23.4507 84.2232 23.4507C84.2232 23.4507 81.8283 20.8528 80.997 18.1962C80.0633 15.2759 79.7557 7.92189 83.0367 2.93127Z" fill="#323657"/>
<path d="M79.8617 53.4971C79.8031 53.629 75.9874 62.1006 75.0061 63.5736C74.79 62.7858 74.563 61.9943 74.3433 61.2285C74.3433 61.2285 79.7372 53.6803 79.8617 53.4971Z" fill="#162D40"/>
<path d="M86.3469 27.4592C86.3469 27.4592 86.226 32.8492 85.5486 36.1067C85.4241 35.2273 85.2593 34.3039 85.0835 33.4172C85.1091 33.2963 86.215 28.302 86.3469 27.4592Z" fill="black"/>
<path d="M108.344 48.6896L107.685 47.8102C108.321 47.3357 109.027 46.9648 109.779 46.7109L110.127 47.7552C109.487 47.9711 108.885 48.2864 108.344 48.6896Z" fill="#010144"/>
<path d="M119.011 56.9632L118.011 56.5051C118.397 55.6678 118.597 54.7563 118.597 53.834C118.596 53.5089 118.572 53.1844 118.524 52.8629L119.622 52.6981C119.678 53.0742 119.706 53.4538 119.706 53.834C119.704 54.9152 119.467 55.9829 119.011 56.9632ZM116.953 49.5395C116.114 48.6083 115.022 47.9423 113.811 47.6232L114.093 46.5605C115.505 46.936 116.778 47.7153 117.755 48.803L116.953 49.5395Z" fill="#010144"/>
<path d="M113.979 61.1221L113.716 60.0559C114.373 59.8934 115.001 59.6288 115.576 59.2717L116.158 60.2024C115.485 60.6213 114.749 60.9316 113.979 61.1221Z" fill="#010144"/>
<path d="M40.7274 71.4808C39.6458 71.4822 38.588 71.1624 37.6882 70.5618C36.7884 69.9612 36.087 69.1068 35.6729 68.1069C35.2588 67.1071 35.1506 66.0067 35.362 64.9453C35.5734 63.8838 36.0949 62.9091 36.8605 62.1445C37.496 61.5077 38.2786 61.0377 39.139 60.776C39.9995 60.5143 40.9111 60.469 41.7932 60.6442C42.6753 60.8194 43.5006 61.2096 44.196 61.7802C44.8913 62.3509 45.4352 63.0844 45.7795 63.9157C46.1239 64.747 46.2579 65.6504 46.1698 66.546C46.0818 67.4415 45.7743 68.3015 45.2746 69.0497C44.7749 69.7979 44.0986 70.4112 43.3054 70.8353C42.5122 71.2593 41.6267 71.4811 40.7274 71.4808ZM37.6368 62.9213C37.0263 63.5328 36.6106 64.3117 36.4424 65.1595C36.2742 66.0074 36.361 66.8861 36.6918 67.6846C37.0225 68.4831 37.5825 69.1656 38.3008 69.6457C39.0191 70.1259 39.8636 70.3821 40.7274 70.3821C41.5913 70.3821 42.4357 70.1259 43.154 69.6457C43.8723 69.1656 44.4323 68.4831 44.7631 67.6846C45.0938 66.8861 45.1806 66.0074 45.0124 65.1595C44.8442 64.3117 44.4286 63.5328 43.818 62.9213C42.9982 62.1014 41.8865 61.6409 40.7274 61.6409C39.5683 61.6409 38.4567 62.1014 37.6368 62.9213Z" fill="#010144"/>
<path d="M47.9433 92.8466L41.4854 103.188L42.417 103.771L48.875 93.4291L47.9433 92.8466Z" fill="#010144"/>
</g>
<defs>
<linearGradient id="paint0_linear" x1="73.9257" y1="19.5262" x2="82.5005" y2="44.912" gradientUnits="userSpaceOnUse">
<stop offset="0.07" stop-color="#A3D9C6"/>
<stop offset="1" stop-color="#CB9ECF"/>
</linearGradient>
<linearGradient id="paint1_linear" x1="3571.18" y1="1749.19" x2="4306.65" y2="3485.53" gradientUnits="userSpaceOnUse">
<stop offset="0.07" stop-color="#A3D9C6"/>
<stop offset="1" stop-color="#CB9ECF"/>
</linearGradient>
<linearGradient id="paint2_linear" x1="1483.02" y1="1736.16" x2="2627.52" y2="2361.19" gradientUnits="userSpaceOnUse">
<stop offset="0.07" stop-color="#A3D9C6"/>
<stop offset="1" stop-color="#CB9ECF"/>
</linearGradient>
<linearGradient id="paint3_linear" x1="3943.1" y1="1586.22" x2="4801.15" y2="3358.4" gradientUnits="userSpaceOnUse">
<stop offset="0.07" stop-color="#A3D9C6"/>
<stop offset="1" stop-color="#CB9ECF"/>
</linearGradient>
<clipPath id="clip0">
<rect width="142" height="114" fill="white"/>
</clipPath>
</defs>
</svg>
