<svg xmlns="http://www.w3.org/2000/svg" xmlns:xlink="http://www.w3.org/1999/xlink" viewBox="0 0 1306.63 709.21"><defs><style>.cls-1{fill:#f9e721;}.cls-2{fill:#529e76;}.cls-3{fill:#c1f4dc;}.cls-4{fill:#457762;}.cls-5{fill:#148789;}.cls-6{fill:#2c8789;}.cls-7{fill:#7ec49e;}.cls-8{fill:#eaaca7;}.cls-9{fill:#142d51;}.cls-10{fill:#f2c2bb;}.cls-11{fill:#23406d;}.cls-12{fill:#0a2749;}.cls-13{fill:#002b32;}.cls-14{fill:url(#linear-gradient);}.cls-15{fill:url(#linear-gradient-2);}.cls-16{opacity:0.2;}.cls-17{fill:url(#linear-gradient-3);}.cls-18{fill:#1d2033;}.cls-19{fill:url(#linear-gradient-4);}.cls-20{fill:url(#linear-gradient-5);}.cls-21{fill:#210075;}.cls-22{fill:url(#linear-gradient-6);}.cls-23{opacity:0.5;}.cls-24{fill:#00114d;}.cls-25{fill:#172866;}.cls-26{fill:#003135;}.cls-27{fill:#010144;}</style><linearGradient id="linear-gradient" x1="1036.28" y1="23" x2="1030.92" y2="755.96" gradientUnits="userSpaceOnUse"><stop offset="0.07" stop-color="#a3d9c6"/><stop offset="1" stop-color="#cb9ecf"/></linearGradient><linearGradient id="linear-gradient-2" x1="1109.02" y1="260.66" x2="1095.62" y2="538.03" xlink:href="#linear-gradient"/><linearGradient id="linear-gradient-3" x1="1164.47" y1="23.94" x2="1159.11" y2="756.89" xlink:href="#linear-gradient"/><linearGradient id="linear-gradient-4" x1="770.6" y1="21.06" x2="765.24" y2="754.01" xlink:href="#linear-gradient"/><linearGradient id="linear-gradient-5" x1="254.52" y1="17.29" x2="249.16" y2="750.24" xlink:href="#linear-gradient"/><linearGradient id="linear-gradient-6" x1="385.58" y1="18.25" x2="380.22" y2="751.2" xlink:href="#linear-gradient"/></defs><g id="Layer_2" data-name="Layer 2"><g id="_Layer_" data-name="&lt;Layer&gt;"><path class="cls-1" d="M600.41,361.89l-2.92-1.58c2.54-4.7,2.68-8.48.43-11.24-3-3.76-10-4.82-14.53-3.46a2.21,2.21,0,0,0-1.61,1.44c-1.34,3.59,2.9,12.29,5.89,16.94l-2.8,1.79c-.88-1.37-8.55-13.57-6.21-19.89a5.56,5.56,0,0,1,3.78-3.47c5.68-1.69,14-.45,18.06,4.55C602.69,349.66,604.45,354.42,600.41,361.89Z"/><path class="cls-2" d="M584.63,357.35c-4.38,6.15-6.62,9.32-13.48,19,0,0-3.84-5.66-2.91-11.55S573.54,352.91,584.63,357.35Z"/><ellipse class="cls-3" cx="770.77" cy="603.5" rx="477.69" ry="25.46"/><path class="cls-3" d="M778.68,185.72c16.27,9,31.51,19.54,46.31,30.7a520.64,520.64,0,0,1,42.36,36,523.54,523.54,0,0,1,72.48,84.29A519,519,0,0,1,993,434.56a540.56,540.56,0,0,1,30.74,107.22l-7.87,1.31a533.89,533.89,0,0,0-28.69-106.21,513.76,513.76,0,0,0-51-97.63,521.06,521.06,0,0,0-70.68-84.79A518.54,518.54,0,0,0,823.79,218c-14.56-11.33-29.63-22.13-45.63-31.28Z"/><path class="cls-3" d="M718.66,143.82c.87,12.36,9.09,26.05,22.78,35.68s29.34,12.75,41.27,9.39c-.87-12.35-9.09-26-22.78-35.68S730.58,140.47,718.66,143.82Z"/><path class="cls-3" d="M810.83,133.35c-9.14,8.36-14.76,23.31-13.8,40s8.25,30.91,18.28,38.17c9.15-8.36,14.77-23.31,13.81-40S820.86,140.61,810.83,133.35Z"/><path class="cls-4" d="M981.88,166.94c7.44,4.48,13.37,14,15,25.61s-1.4,22.41-7.3,28.78c-7.44-4.48-13.38-14-15-25.61S976,173.32,981.88,166.94Z"/><path class="cls-4" d="M1025.72,207c.91,6.73-2,15-8.24,21.68s-14.33,10.11-21.1,9.64c-.91-6.73,2-15,8.24-21.68S1019,206.53,1025.72,207Z"/><path class="cls-4" d="M996.21,241.63c-5.69,3.68-14.4,4.59-23.13,1.77s-15.24-8.67-17.7-15c5.7-3.69,14.4-4.6,23.13-1.77S993.76,235.3,996.21,241.63Z"/><path class="cls-4" d="M1003.93,266.22c-5.69,3.68-14.4,4.59-23.13,1.77s-15.24-8.67-17.7-15c5.7-3.69,14.4-4.6,23.13-1.77S1001.48,259.89,1003.93,266.22Z"/><path class="cls-4" d="M1012.55,296.37c-5.7,3.69-14.4,4.59-23.13,1.77s-15.25-8.66-17.7-15c5.7-3.69,14.4-4.59,23.13-1.77S1010.1,290,1012.55,296.37Z"/><path class="cls-4" d="M1018.53,323.89c-5.7,3.69-14.41,4.59-23.13,1.77s-15.25-8.66-17.7-15c5.69-3.69,14.4-4.6,23.12-1.77S1016.07,317.56,1018.53,323.89Z"/><path class="cls-4" d="M1017.91,319.3c5.7,3.68,14.4,4.59,23.13,1.76s15.24-8.66,17.7-15c-5.7-3.68-14.4-4.59-23.13-1.76S1020.36,313,1017.91,319.3Z"/><path class="cls-4" d="M1033.72,233.18c.92,6.73-2,15-8.24,21.68s-14.33,10.11-21.1,9.64c-.91-6.73,2-15,8.24-21.68S1027,232.71,1033.72,233.18Z"/><path class="cls-4" d="M1041.26,264.06c.91,6.73-2,15-8.25,21.68s-14.33,10.11-21.1,9.64c-.91-6.73,2-15,8.25-21.68S1034.49,263.59,1041.26,264.06Z"/><path class="cls-3" d="M865.23,160.66c-11,5.63-20.43,18.54-24,34.9s-.28,32,7.47,41.66c11-5.62,20.43-18.53,24-34.89S873,170.33,865.23,160.66Z"/><path class="cls-3" d="M901.93,194.43c-11,5.62-20.43,18.54-23.95,34.9s-.28,32,7.47,41.66c11-5.62,20.43-18.54,23.95-34.9S909.68,204.1,901.93,194.43Z"/><path class="cls-3" d="M944.19,229.13c-12.11,2.62-24.5,12.7-32.09,27.61s-8.45,30.86-3.44,42.19c12.11-2.61,24.49-12.69,32.08-27.61S949.2,240.46,944.19,229.13Z"/><path class="cls-3" d="M973.94,272.58c-11.05-.46-24,5.46-34,16.63S925.73,314,927.51,324.9c11,.47,24-5.45,34-16.63S975.72,283.5,973.94,272.58Z"/><path class="cls-3" d="M995.53,299.9c-11-.47-24,5.45-33.95,16.63s-14.26,24.77-12.48,35.69c11,.47,24-5.45,33.95-16.63S997.31,310.82,995.53,299.9Z"/><path class="cls-3" d="M1007.86,340.19c-9.47-.4-20.6,4.68-29.1,14.26s-12.22,21.23-10.7,30.59c9.48.4,20.6-4.67,29.1-14.26S1009.39,349.55,1007.86,340.19Z"/><path class="cls-3" d="M1019.83,382.21c-6.9-3.9-17.15-4.36-27.19-.48s-17.33,11.09-19.83,18.61c6.9,3.89,17.14,4.36,27.19.48S1017.33,389.72,1019.83,382.21Z"/><path class="cls-3" d="M1024.66,416.84c-4.24-4.72-11.9-7.69-20.53-7.32s-16,4-19.81,9.07c4.24,4.72,11.9,7.69,20.52,7.32S1020.84,421.91,1024.66,416.84Z"/><path class="cls-3" d="M741.41,235.83c10.53,6.52,26.45,7.86,42.26,2.39s27.5-16.36,31.75-28c-10.53-6.52-26.44-7.86-42.25-2.39S745.66,224.2,741.41,235.83Z"/><path class="cls-3" d="M774.82,263.33c10.53,6.51,26.44,7.85,42.26,2.38s27.5-16.35,31.75-28c-10.53-6.52-26.44-7.86-42.26-2.38S779.07,251.69,774.82,263.33Z"/><path class="cls-3" d="M810.43,297.22c10.53,6.52,26.44,7.86,42.26,2.39s27.5-16.36,31.75-28c-10.53-6.52-26.44-7.86-42.26-2.39S814.68,285.59,810.43,297.22Z"/><path class="cls-3" d="M850.62,319.77c8.57,5.31,21.51,6.39,34.37,1.94s22.37-13.3,25.83-22.76c-8.56-5.3-21.51-6.39-34.37-1.94S854.08,310.31,850.62,319.77Z"/><path class="cls-3" d="M880.72,341.31c7,4.53,17.51,5.57,27.91,2s18-10.91,20.72-18.79c-7-4.53-17.52-5.57-27.91-2S883.43,333.42,880.72,341.31Z"/><path class="cls-3" d="M898.7,369c7,4.53,17.52,5.57,27.91,2s18-10.9,20.72-18.79c-7-4.52-17.51-5.57-27.91-2S901.41,361.12,898.7,369Z"/><path class="cls-3" d="M918.41,394.07c5.68,4.83,15.19,7.16,25.39,5.51s18.48-6.87,22.34-13.25c-5.67-4.83-15.18-7.16-25.38-5.51S922.27,387.69,918.41,394.07Z"/><path class="cls-3" d="M937.46,425.63c6.39,1.82,14.89.18,22.4-5s12.14-12.45,12.78-19.06c-6.39-1.82-14.89-.18-22.41,4.95S938.09,419,937.46,425.63Z"/><path class="cls-3" d="M958.67,444.47c5.07.46,11.22-2,16.14-6.91s7.35-11.08,6.89-16.14c-5.06-.46-11.21,2-16.14,6.91S958.21,439.41,958.67,444.47Z"/><path class="cls-3" d="M972.75,449.41a13.2,13.2,0,0,0,14.08-14.1,13.19,13.19,0,0,0-14.08,14.1Z"/><path class="cls-3" d="M977.28,458.73a13.2,13.2,0,0,0,14.08-14.1,13.2,13.2,0,0,0-14.08,14.1Z"/><path class="cls-4" d="M1030.29,529.15a487.85,487.85,0,0,0,5.13-78.87c-.1-13.17-.83-26.32-1.87-39.44s-2.61-26.19-4.43-39.21a724.58,724.58,0,0,0-15.54-77.29q-4.92-19.08-10.88-37.88c-4-12.52-8.24-24.94-13.15-37.16l-1.55.63c4.72,12.18,8.82,24.65,12.63,37.17s7.26,25.17,10.37,37.89a720,720,0,0,1,14.52,77.13c1.65,13,3.08,26,3.91,39s1.43,26.1,1.38,39.17a483.91,483.91,0,0,1-6,77.95Z"/><path class="cls-5" d="M1107.19,358.25c4,4.16,11.22,6.8,19.4,6.51s15.21-3.45,18.88-7.89c-4-4.16-11.21-6.8-19.4-6.51S1110.87,353.82,1107.19,358.25Z"/><path class="cls-5" d="M1066.32,415c17.49-25.62,35.91-50.65,55.57-74.68l-.33-.28c-20.16,23.65-39.1,48.32-57.14,73.64a888.34,888.34,0,0,0-50.25,78.63q-5.52,9.88-10.74,20c1.36.76,2.72,1.52,4.06,2.3q5-10.22,10.36-20.24A887.66,887.66,0,0,1,1066.32,415Z"/><path class="cls-6" d="M1141.19,307.63c-6.45.6-13.14,4.9-17.36,11.91s-4.87,14.95-2.37,20.92c6.45-.59,13.15-4.89,17.36-11.91S1143.7,313.61,1141.19,307.63Z"/><path class="cls-5" d="M1093.23,322.6c-2.63,5.12-2.76,12.82.19,20.46s8.22,13.24,13.61,15.27c2.64-5.13,2.77-12.82-.18-20.46S1098.62,324.62,1093.23,322.6Z"/><path class="cls-5" d="M1091.61,379c4.38,3.74,11.84,5.64,20,4.52s14.79-5,18-9.74c-4.38-3.74-11.84-5.64-20-4.52S1094.82,374.19,1091.61,379Z"/><path class="cls-5" d="M1076.09,400c3.86,4.27,11,7.12,19.2,7.06s15.3-3,19.1-7.34c-3.86-4.27-11-7.12-19.2-7.06S1079.89,395.62,1076.09,400Z"/><path class="cls-5" d="M1059.12,423.85c4.38,3.74,11.84,5.64,20,4.52s14.78-5,18-9.75c-4.38-3.73-11.84-5.63-20-4.52S1062.32,419.07,1059.12,423.85Z"/><path class="cls-5" d="M1044.54,445.81c4.38,3.74,11.85,5.64,20,4.52s14.78-5,18-9.74c-4.39-3.74-11.85-5.64-20-4.52S1047.75,441,1044.54,445.81Z"/><path class="cls-5" d="M1076.39,344c-2.63,5.12-2.77,12.82.18,20.46s8.23,13.25,13.62,15.27c2.63-5.12,2.77-12.82-.19-20.46S1081.78,346.05,1076.39,344Z"/><path class="cls-5" d="M1060.29,366.09c-2.63,5.12-2.77,12.82.18,20.46s8.23,13.24,13.62,15.27c2.63-5.12,2.77-12.82-.19-20.46S1065.68,368.11,1060.29,366.09Z"/><path class="cls-5" d="M1045,388.33c-2.63,5.12-2.76,12.82.19,20.46s8.23,13.24,13.62,15.26c2.63-5.12,2.76-12.82-.19-20.45S1050.36,390.35,1045,388.33Z"/><path class="cls-5" d="M1030.12,410.11c-2.63,5.13-2.77,12.83.18,20.46s8.23,13.25,13.62,15.27c2.63-5.12,2.77-12.82-.18-20.46S1035.51,412.14,1030.12,410.11Z"/><rect class="cls-2" x="982.16" y="489.53" width="83.05" height="77.47"/><rect class="cls-4" x="966.14" y="474.26" width="121.41" height="6.33"/><rect class="cls-7" x="973.59" y="480.59" width="106.52" height="13.78"/><path class="cls-2" d="M507.32,67C486.51,78.46,467,92,448.08,106.27a663.79,663.79,0,0,0-54.2,46,671.17,671.17,0,0,0-92.72,107.82,664.6,664.6,0,0,0-68,125.19,693,693,0,0,0-39.32,137.16L204,524.16a683.2,683.2,0,0,1,36.7-135.87A657.26,657.26,0,0,1,306,263.4a690.87,690.87,0,0,1,42.31-56.62,699.61,699.61,0,0,1,48.1-51.86,664.82,664.82,0,0,1,53.24-46.66c18.61-14.5,37.89-28.31,58.37-40Z"/><path class="cls-2" d="M584.1,13.4C583,29.2,572.47,46.72,555,59s-37.54,16.3-52.79,12c1.11-15.81,11.62-33.32,29.13-45.64S568.85,9.11,584.1,13.4Z"/><path class="cls-2" d="M466.19,0c11.7,10.69,18.89,29.82,17.66,51.19S473.29,90.74,460.45,100c-11.69-10.69-18.88-29.81-17.65-51.19S453.35,9.28,466.19,0Z"/><path class="cls-2" d="M396.59,34.94c14.12,7.19,26.14,23.71,30.65,44.64s.35,40.93-9.55,53.3c-14.12-7.19-26.14-23.71-30.65-44.64S386.69,47.31,396.59,34.94Z"/><path class="cls-2" d="M349.64,78.13c14.12,7.2,26.14,23.72,30.65,44.65s.35,40.93-9.55,53.29c-14.12-7.19-26.14-23.71-30.64-44.64S339.74,90.5,349.64,78.13Z"/><path class="cls-2" d="M295.6,122.53c15.48,3.34,31.33,16.23,41,35.31s10.82,39.48,4.41,54c-15.49-3.34-31.34-16.23-41.05-35.31S289.19,137,295.6,122.53Z"/><path class="cls-2" d="M257.53,178.11c14.14-.6,30.74,7,43.43,21.28s18.24,31.68,16,45.65c-14.14.6-30.74-7-43.43-21.28S255.26,192.08,257.53,178.11Z"/><path class="cls-2" d="M229.92,213.06c14.13-.6,30.73,7,43.42,21.27s18.24,31.69,16,45.65c-14.14.6-30.74-7-43.43-21.27S227.64,227,229.92,213.06Z"/><path class="cls-2" d="M214.14,264.6c12.12-.51,26.35,6,37.23,18.24S267,310,265.05,322c-12.12.51-26.35-6-37.23-18.24S212.19,276.57,214.14,264.6Z"/><path class="cls-2" d="M198.84,318.35c8.82-5,21.92-5.57,34.78-.62s22.17,14.2,25.36,23.81c-8.82,5-21.93,5.57-34.78.62S202,328,198.84,318.35Z"/><path class="cls-2" d="M192.66,362.65c5.42-6,15.22-9.83,26.25-9.36s20.46,5.11,25.34,11.6c-5.42,6-15.22,9.84-26.25,9.36S197.54,369.14,192.66,362.65Z"/><path class="cls-2" d="M555,131.1c-13.47,8.34-33.82,10.05-54.06,3.05s-35.18-20.92-40.62-35.8c13.47-8.34,33.83-10.06,54.06-3.06S549.56,116.22,555,131.1Z"/><path class="cls-2" d="M512.26,166.27c-13.47,8.34-33.83,10-54.06,3S423,148.4,417.58,133.52c13.47-8.34,33.83-10.06,54.06-3.06S506.82,151.38,512.26,166.27Z"/><path class="cls-2" d="M466.7,209.63c-13.47,8.34-33.83,10.05-54.06,3.05s-35.18-20.92-40.62-35.8c13.47-8.34,33.83-10,54.06-3.06S461.26,194.75,466.7,209.63Z"/><path class="cls-2" d="M415.29,238.48c-11,6.78-27.52,8.17-44,2.48s-28.62-17-33-29.12c11-6.78,27.51-8.18,44-2.48S410.87,226.37,415.29,238.48Z"/><path class="cls-2" d="M376.78,266c-8.95,5.79-22.4,7.12-35.69,2.52s-23-14-26.51-24c8.95-5.79,22.4-7.12,35.7-2.52S373.32,255.94,376.78,266Z"/><path class="cls-2" d="M353.78,301.45c-9,5.79-22.4,7.13-35.7,2.53s-23-14-26.51-24c9-5.79,22.41-7.13,35.7-2.53S350.31,291.37,353.78,301.45Z"/><path class="cls-2" d="M328.57,333.52c-7.26,6.18-19.43,9.16-32.47,7.05s-23.65-8.79-28.59-16.95c7.26-6.18,19.43-9.16,32.47-7.05S323.63,325.36,328.57,333.52Z"/><path class="cls-2" d="M304.2,373.89c-8.18,2.33-19.05.23-28.66-6.34S260,351.63,259.2,343.17c8.18-2.33,19.05-.23,28.66,6.33S303.39,365.43,304.2,373.89Z"/><path class="cls-2" d="M277.06,398c-6.47.58-14.35-2.54-20.64-8.84S247,375,247.61,368.51c6.47-.59,14.34,2.53,20.64,8.84S277.66,391.52,277.06,398Z"/><path class="cls-2" d="M259.06,404.31c-4.25.66-9.27-1.05-13.11-4.91s-5.56-8.86-4.9-13.12c4.26-.65,9.27,1.06,13.12,4.91S259.72,400.06,259.06,404.31Z"/><path class="cls-2" d="M253.26,416.23c-4.26.66-9.27-1.05-13.12-4.91s-5.55-8.86-4.89-13.12c4.25-.65,9.26,1.06,13.11,4.91S253.92,412,253.26,416.23Z"/><path class="cls-7" d="M247.38,43c-9.52,5.73-17.11,17.89-19.22,32.76s1.8,28.66,9.35,36.82c9.52-5.74,17.1-17.9,19.21-32.77S254.92,51.13,247.38,43Z"/><path class="cls-7" d="M191.29,94.21c-1.17,8.61,2.53,19.18,10.55,27.74s18.33,12.93,27,12.33c1.16-8.6-2.53-19.18-10.55-27.74S200,93.61,191.29,94.21Z"/><path class="cls-7" d="M229,138.51c7.29,4.72,18.43,5.88,29.59,2.26s19.5-11.08,22.65-19.17c-7.29-4.72-18.43-5.88-29.59-2.26S232.18,130.42,229,138.51Z"/><path class="cls-7" d="M219.16,170c7.29,4.72,18.43,5.88,29.59,2.26s19.51-11.08,22.65-19.17c-7.29-4.72-18.42-5.88-29.59-2.27S222.31,161.87,219.16,170Z"/><path class="cls-7" d="M208.14,208.54c7.29,4.72,18.43,5.88,29.59,2.26s19.5-11.08,22.65-19.17c-7.29-4.72-18.43-5.88-29.59-2.26S211.28,200.45,208.14,208.54Z"/><path class="cls-7" d="M200.5,243.74c7.29,4.72,18.42,5.88,29.58,2.27s19.51-11.08,22.65-19.18c-7.29-4.72-18.43-5.88-29.59-2.26S203.64,235.65,200.5,243.74Z"/><path class="cls-7" d="M201.29,237.87c-7.29,4.72-18.43,5.88-29.59,2.26S152.2,229.05,149.05,221c7.29-4.72,18.43-5.88,29.59-2.27S198.15,229.77,201.29,237.87Z"/><path class="cls-7" d="M181.06,127.71c-1.17,8.6,2.52,19.17,10.54,27.73s18.33,12.94,27,12.33c1.16-8.6-2.53-19.17-10.55-27.73S189.72,127.1,181.06,127.71Z"/><path class="cls-7" d="M171.42,167.21c-1.17,8.6,2.53,19.17,10.55,27.73s18.33,12.94,27,12.33c1.17-8.6-2.52-19.17-10.55-27.73S180.08,166.61,171.42,167.21Z"/><path class="cls-7" d="M185.45,506.32a625.45,625.45,0,0,1-6.57-100.89c.14-16.85,1.07-33.68,2.4-50.46s3.33-33.5,5.67-50.16a925.09,925.09,0,0,1,19.88-98.87q6.3-24.41,13.91-48.45c5.1-16,10.54-31.91,16.83-47.55l2,.82c-6,15.58-11.29,31.53-16.16,47.55s-9.29,32.19-13.27,48.46a925.15,925.15,0,0,0-18.57,98.67c-2.11,16.6-3.94,33.24-5,49.93s-1.83,33.39-1.76,50.1a618.37,618.37,0,0,0,7.74,99.73Z"/><path class="cls-4" d="M87.07,287.7C82,293,72.73,296.4,62.26,296s-19.46-4.41-24.15-10.09c5.09-5.32,14.34-8.7,24.81-8.32S82.37,282,87.07,287.7Z"/><path class="cls-4" d="M139.36,360.3C117,327.52,93.42,295.5,68.28,264.75l.41-.34c25.79,30.25,50,61.81,73.1,94.2A1134.44,1134.44,0,0,1,206.07,459.2q7.06,12.63,13.74,25.52-2.61,1.45-5.19,2.95-6.41-13.07-13.26-25.89A1132.1,1132.1,0,0,0,139.36,360.3Z"/><path class="cls-4" d="M43.58,223c8.25.76,16.81,6.26,22.21,15.24s6.23,19.12,3,26.76c-8.26-.76-16.82-6.26-22.21-15.24S40.37,230.59,43.58,223Z"/><path class="cls-4" d="M104.93,242.1c3.37,6.55,3.54,16.4-.24,26.17S94.17,285.21,87.27,287.8c-3.36-6.55-3.53-16.4.24-26.17S98,244.68,104.93,242.1Z"/><path class="cls-4" d="M107,314.21C101.4,319,91.86,321.42,81.48,320s-18.91-6.35-23-12.47c5.6-4.78,15.15-7.21,25.52-5.78S102.9,308.09,107,314.21Z"/><path class="cls-4" d="M126.86,341c-4.94,5.47-14.09,9.11-24.56,9s-19.58-3.85-24.43-9.39c4.94-5.46,14.09-9.1,24.56-9S122,335.5,126.86,341Z"/><path class="cls-4" d="M148.57,371.62c-5.6,4.78-15.15,7.21-25.52,5.78s-18.91-6.35-23-12.47c5.6-4.78,15.15-7.21,25.52-5.78S144.47,365.5,148.57,371.62Z"/><path class="cls-4" d="M167.22,399.72c-5.61,4.78-15.15,7.21-25.53,5.78s-18.91-6.35-23-12.47c5.6-4.78,15.15-7.21,25.52-5.78S163.11,393.6,167.22,399.72Z"/><path class="cls-4" d="M126.48,269.51c3.37,6.55,3.54,16.4-.24,26.17s-10.52,16.95-17.42,19.53c-3.36-6.55-3.53-16.4.24-26.17S119.59,272.1,126.48,269.51Z"/><path class="cls-4" d="M147.08,297.73c3.36,6.55,3.53,16.4-.24,26.17s-10.53,17-17.42,19.53c-3.37-6.55-3.54-16.4.24-26.17S140.18,300.32,147.08,297.73Z"/><path class="cls-4" d="M166.68,326.18c3.36,6.55,3.53,16.4-.24,26.17S155.91,369.29,149,371.88c-3.37-6.55-3.54-16.4.24-26.17S159.78,328.76,166.68,326.18Z"/><path class="cls-4" d="M185.67,354.05c3.36,6.55,3.54,16.4-.24,26.17S174.91,397.16,168,399.75c-3.37-6.55-3.54-16.4.24-26.17S178.77,356.63,185.67,354.05Z"/><rect class="cls-2" x="140.78" y="455.64" width="106.24" height="99.1" transform="translate(387.81 1010.38) rotate(180)"/><rect class="cls-4" x="112.19" y="436.11" width="155.32" height="8.1" transform="translate(379.71 880.31) rotate(180)"/><rect class="cls-7" x="121.72" y="444.2" width="136.26" height="17.63" transform="translate(379.71 906.04) rotate(180)"/><path class="cls-8" d="M720.22,546.06c-2.2,2.19-14.19,12.46-19.8,18.06s-2.77,21,13.23,17.7c10.72-2.21,40.16-38.53,56.89-66.87a259.58,259.58,0,0,0-36.67-3.1C726.93,530,721.2,545.07,720.22,546.06Z"/><path class="cls-9" d="M769.29,384.45s-.55,46.33-11,67.28c-5.74,11.49-16,38.08-24.39,60.12a302.85,302.85,0,0,1,39.51,3.79c8.22-13.92,12.13-28.18,15.21-38C798,447.87,832.91,382.21,846.5,380S769.29,384.45,769.29,384.45Z"/><path class="cls-10" d="M842.38,514.58c-12.18-3.69-24.86-6.44-37.67-5-3.4,29.78-7.38,59.2-7.38,61.73,0,4.41,17.1,3.51,31.44,8.1s24.3,1.94,19.3-3.07-20.4-5.95-18.2-17.9C830.5,555.08,835.77,537.88,842.38,514.58Z"/><path class="cls-11" d="M842.38,514.58c16.55-58.36,41.47-155,22.78-169.32-26.14-20-60.66,16-60.66,16s5,65.08,5,92.1c0,11.56-4.12,34.6-6.66,56.86C815.63,508.72,830.2,510.89,842.38,514.58Z"/><path class="cls-12" d="M865.16,345.26c-26.14-20-60.66,16-60.66,16s2.29,30,3.76,57.72c20.81-8.63,45.84-20.58,62.75-33.86C872.89,365.23,871.67,350.25,865.16,345.26Z"/><path class="cls-13" d="M1052.6,280.68l-11-7.69s28.64-48.89,25.69-91c-1.56-22.24,33.57-55,42.9-49.95.56-.22,31.19.71,33.91,73.33l6.52,85.09-33.1,30.42s-20.85-37.11-47.37-20.8-34.67,15.82-34.67,15.82S1052.6,288.51,1052.6,280.68Z"/><path class="cls-8" d="M578.53,341.87s2-18.88,6.4-32.36,63.46-41.48,84.12-38.26,3.69,28.83,3.69,28.83S613,312.88,604.11,321s-8.68,29.66-8.68,29.66Z"/><path class="cls-10" d="M1021.42,401c-4.68,18-9.59,34-14.24,43.95-16.65,35.64-75.06,43.42-81.52,49.88l33.65,13.15s60.34-6.5,70.69-25.19c5.87-10.62,13.85-44,19.66-77.53A126.35,126.35,0,0,0,1021.42,401Z"/><path class="cls-14" d="M1057.24,338.51c0-36.2-13.24-43.38-13.24-43.38s-21.66,59.35-33.75,105.82c9.51.27,30.12,1.84,39.41,4.26C1054.08,379.71,1057.24,354.15,1057.24,338.51Z"/><path class="cls-11" d="M1057.39,526.32c-11.53,0-22.05-10.53-65.08-25s-70.8-10.06-84.08,3.21,6.44,41.05,6.44,41.05l147,40.72Z"/><path class="cls-9" d="M1164.61,509.57l17.38,45L1145.66,610s-80.76-8.05-88.27-29.78-22-63.58-22-63.58Z"/><path class="cls-8" d="M955.72,510.16c25.91,16.55,66,65.14,96.58,76.13S1101.65,614,1101.65,614s16.61,9.94,8.84,17.71-75.09-11.27-75.09-18.51-22.93-18.51-50.1-30.58-65.3-26.78-74.65-32.2c-16.1-9.33-14.16-38.14-2.42-45.88S945.64,503.72,955.72,510.16Z"/><path class="cls-11" d="M1081.22,576l8.88,23.61,66.31,22.25s37.51-39.52,25.58-67.3-54.84-28.27-75-20.23S1081.22,576,1081.22,576Z"/><path class="cls-10" d="M874,572.26s-2.88,8.65,3,14-1.34,10.79,6.6,18,71.38,4.83,97.82,14.08S1102,637.6,1127.58,632.66c26.75-5.17,30.58-7,34.1-22.7s-1.76-40.42-40.1-42.14-135.72,26-160,23.23S894.35,562.74,874,572.26Z"/><path class="cls-15" d="M1163.28,288.26s-95.39-15.47-117.31,4.82c-17.13,15.86-15.47,57.93-5.75,160.75,2.49,26.28-13.39,52.31-9.65,69.61,0,0,110.26,16.4,138.43-9.69,0,0-29.34-32.14-28-54,2.1-33.9,35.23-87.7,35.23-101.73C1176.25,334.87,1163.28,288.26,1163.28,288.26Z"/><path class="cls-16" d="M1046,293.08c-13.25,10.95-15.25,36.89-15.53,55.75-.54,27.44,2.39,60.94,5.08,88.1,2.11,20.3,3.57,24.85.21,43-2.84,15.74-8.5,31.68-5.16,43.55-2.41-18.36,15.08-42.41,12.28-72.46C1035.46,357.63,1029.4,311.28,1046,293.08Z"/><path class="cls-8" d="M913.51,509.57s-8.13,19.13-4.06,26.24,29,.18,26.43-13.12S924.74,503.75,913.51,509.57Z"/><path class="cls-8" d="M1112.47,588.67s5,30,15.58,28,20.87-18,10-28S1112.47,576,1112.47,588.67Z"/><path class="cls-8" d="M885,570.43c-1.75-1.6-10.58-2.65-12.87,1.54s2,8.45,2,8.45-4.95.89-4.95,3.75,5.84,4.38,5.84,4.38-4.91,3.34-3.13,5a21.52,21.52,0,0,0,2.24,1.91s-1,1.59.89,3.29l1.85,1.69s-3.21,2-1.22,3.78,12.52,4.77,12.52,0-4.8-3.28-4.8-3.28,3.63-.72,1.6-4.72-4.54-2.67-4.54-2.67a6.08,6.08,0,0,0,1.89-4c0-2.29-3.65-1.3-3.65-1.3s5.95-3.47,3.24-5.94a17.53,17.53,0,0,0-4.06-3S890.39,575.34,885,570.43Z"/><path class="cls-10" d="M1143.73,387.79c.34,34.49-1.06,78.39-11,91.38-12.38,16.24-36.06,62.76-47.1,82.82a46.87,46.87,0,0,1-7.86,10.09s-18,26.36-11.89,29.46c2.49,1.26,8.23-13.51,11-13.51s-6.39,31.08-2,31.08,7.21-26.14,10-28.88-9.33,31.13-6.59,33.87,12.89-34.47,12.89-32c0,1.64-6.85,30.85-3.84,29.68,5.29-2,6.31-28.31,9.33-31.33s-3.57,25.72-.83,24.41c5.33-2.55,4.66-32.91,11.25-43s51.27-66.39,60.32-83.64c3.95-7.53,11-50,13.8-94C1168.71,393.9,1156.22,387.64,1143.73,387.79Z"/><path class="cls-17" d="M1187.57,396.19c3.66-56.82-6-118.3-31.81-109,0,0-20,20.63-20,54.09,0,12.55,1.9,32,2.11,52.77C1150.34,393.87,1175.08,395.87,1187.57,396.19Z"/><path class="cls-16" d="M1155.76,287.16c-26.81,36.72-14.17,64.21-17.91,106.86-4.57-42-6.91-64,2-83.65A68.18,68.18,0,0,1,1155.76,287.16Z"/><path class="cls-9" d="M264,509.51s47.88-19,70.82-19,61.1-5.24,78.31,12S258.33,583,239.48,558.71,264,509.51,264,509.51Z"/><path class="cls-8" d="M419.49,569.87c-6.64-.32-12.47-1.55-14.16-4.66-3-5.56,6.93-12.22,9.05-19,5.27-16.79-59.53,13.13-59.53,13.13s10.48,2,8.68,16.09C382.07,576.37,405,582.66,419.49,569.87Z"/><path class="cls-18" d="M415.85,566.23c-21.6,8-33.78,10.14-52.32,9.24a43,43,0,0,1-3,10.85c-1,2.34,21.47,4.49,42.59-.57,24.66-5.9,57-10.63,57-10.63S426.91,566.77,415.85,566.23Z"/><path class="cls-10" d="M453.57,541.92s7.73,9.73,17.45,0,67.34-81.29,78.31-92.27,21.45-4,26.94-4,19.45-18.45,19.45-23.44,3.74-17.21,0-21-7.48,16-7.48,16l-5,2s10.47-18,7-21.45-9.48,18.46-12,18.46-25.44,3.49-25.44,3.49,12-6,12-10-21.19,2.75-25.43,7S474.78,492.05,455.69,495,453.57,541.92,453.57,541.92Z"/><path class="cls-11" d="M203.19,602.28s0,12.46,34.41,15,160.87-52,183.43-69.14,28.3-45.33,17.58-56.05-44.53-9.48-65.41-5-98.66,37-117.14,47.1C230.46,548.1,203.19,602.28,203.19,602.28Z"/><path class="cls-18" d="M361.8,588.44c-1.32,1.66-7.83,12.06,1.74,16.86s23.42,0,43.68,0,62.76-9,58.84-25-57.41,5.83-73,5.83S366.33,582.73,361.8,588.44Z"/><path class="cls-19" d="M663.88,300c0,3.86,6.9,19.58,19.86,32.54s73.34,69.48,73.34,69.48,72.79-13.23,97.61-38.05,17.09-19.85,17.09-19.85-127.94-76.1-156.06-76.1S663.88,277.43,663.88,300Z"/><path class="cls-10" d="M621.67,375.44s30,6,48.17-1.44,83.62-79.15,72.24-92.24-23.89-15.36-41,10.24-35.84,60.3-44.94,63.15S632.86,362,627.74,362,621.67,375.44,621.67,375.44Z"/><path class="cls-20" d="M361.8,368.85l-32.57-37.26c-49.87,11-159,55.22-180.91,138.51s-16,110.23,6.49,126.69a327.73,327.73,0,0,0,42.42,26.43s65.31-84.29,65.31-93.27,51.87-51.37,60.35-59.85,44.89-55.86,44.89-72.32A73.56,73.56,0,0,0,361.8,368.85Z"/><path class="cls-10" d="M410.19,230.6s12.32,26.54,11.53,42.54c-.81,16.47-3.14,42.56-3.14,42.56l-7-1.55s-9,12.8-11,22.19-15.64.26-24.25-1.63-26.14-13.53-27.65-42.16S344,212.79,410.19,230.6Z"/><path class="cls-10" d="M331.48,328.49a22.27,22.27,0,0,0,7,32.37c8,4.57,15.63,8.41,19.87,10.47a2.45,2.45,0,0,0,3.47-1.76c1-5.82,4.91-17.73,8.4-28,2.05-6.05,4-11.54,5.07-14.88-.81-4.94-7-42.53-6.59-40.13v0l-1.28-7.7Z"/><path class="cls-21" d="M437.27,219.32c.51,1.52,8,32.13-17.72,37.55S391.32,245.8,383,253.82s0,25.78-6.95,33.27l-8.13-.22s-.57-5-3.7-5.66S355,304,350,302.93s-10.39-23.44-13-33.86-5.46-44.26,14.34-48.53,26.25,3.72,28-4.11,7.74,2.11,7.74,2.11,5.59-4.92,4.31-12.18,21.15-4.79,23.32,9.63S431.84,203,437.27,219.32Z"/><path class="cls-10" d="M372.81,274.11s-3,15.53-6.73,14.71-10-11.35-6.54-20.35S373.49,263,372.81,274.11Z"/><path class="cls-8" d="M370.58,271.86s.51,6.55-2.89,8.73-7.32-5.7-3.24-10.07S370.77,268.2,370.58,271.86Z"/><path class="cls-21" d="M441.41,249.76c-.11,1.32-1.93,3.28-2.92,4.16-5.29,4.43-13.44,3.44-18.94,3,.71.19,7.53,3.14,13.9,2.74,6.84-.28,11.63-3.69,13.68-7.76Z"/><path class="cls-8" d="M356.84,327c1.88,2.95,8.92,10.14,13.29,14.5,2.77-8.24,5.15-14.85,5.15-14.85s-5.14,2.78-6.47-40.39a1.09,1.09,0,0,0-.11.23v0C367.34,289.93,354.19,322.94,356.84,327Z"/><path class="cls-21" d="M402.6,330.09a65.54,65.54,0,0,1-.85,9.8c-.76,3.47-10.29,5.41-17.62,1.46S367.08,329.87,365,326.62s3.68-39.73,3.68-39.73l7.37.2s-1.65,24.24.63,27.79S402.6,330.09,402.6,330.09Z"/><path class="cls-22" d="M306.43,453.15c2.3,5.6,12.05,21,12.05,21s19.8,9.58,40.82,19.37c16.31,7.59,77.07,57.85,96.39,54.36l4.36-58.36s-95.51-103.27-118.6-109.26S298.24,433.1,306.43,453.15Z"/><path class="cls-23" d="M460.05,489.55c-44.6-40.48-102.58-103.23-118.6-109.26C366.6,385.05,436.58,459.57,460.05,489.55Z"/><path class="cls-10" d="M1089.82,224.9c-1.34,1.39-1.41,41.39-6.75,52.48,0,0-14,57.2-4.5,58.39,8.3,1,38.39-46.14,40-54,2.23-10.62,0-63.75,0-63.75Z"/><path class="cls-8" d="M1088.18,244.17c11.45,8.18,22.17,2.49,31-11.14,0-.15,0-.3,0-.46-.22-7.35-.49-14.17-.51-14.6l-28.79,6.93C1089.22,225.53,1088.87,234,1088.18,244.17Z"/><path class="cls-10" d="M1088.35,135s-16,3.18-18,17.46-4.58,26.19-1.91,42.85,12.23,38.89,27.91,42.46,32.1-23.41,32.1-38.09,5.74-39.28-5-54.36S1088.35,135,1088.35,135Z"/><path class="cls-8" d="M1088.35,135s-16,3.18-18,17.46c-1.73,12.95-4.09,23.94-2.52,38.29a43.79,43.79,0,0,1,11.28-5.42c17.52-6,33.19-41.15,33.85-42.64l.28-.62,0-.69a13.48,13.48,0,0,0-.49-4.32C1101.57,132.43,1088.35,135,1088.35,135Z"/><path class="cls-24" d="M1102.53,122.9c11.7,1.39,30.24-1.58,38.88,18.25,5.1,11.26,15.55,33,15.55,71.54,0,57.46,53.4,82.9,53.4,82.9L1187,307.32l-14-11.73,9.54,21.1-38.38,4-1.64-27.53-7.93,31.3-23-3.77s12.19-94.05,13-129.56l-.19.24s.16-4.58.17-10.46v0c-.1-1.73-.11-3.49,0-5.29a112.72,112.72,0,0,0-1.09-15.56c-1.72-9.72-5.16-14.68-13.57-18.85s-38.52,7.7-38.52,7.7C1072.27,130.76,1090.83,121.51,1102.53,122.9Z"/><path class="cls-25" d="M1086.87,126.18c-14.72,3.37-19.16,26.88-31.2,39.37s-9,30.56-3.25,42.46,14.92,4.17,14.92,4.17-4.79,2.77-7.85-7.15,2.29-17.65,18.54-23.21,31.72-40.67,31.72-40.67C1110.16,134.29,1101.58,122.8,1086.87,126.18Z"/><path class="cls-26" d="M1067.34,212.18c-5.57,3.37-13.45-10.81-7.7-20.07,4.17-7.17,13.32-10.18,20.64-13.32,11.58-6.91,22.72-26,29.47-37.64-4.89,13.91-15.27,33.2-27.78,40.88l-3,1.36c-3.09,1.29-12.51,3.92-17,10.28-3.66,5-1.92,12.75.52,16.42C1063.46,211.67,1065.36,212.92,1067.34,212.18Z"/><path class="cls-10" d="M1121.22,193.13s4.09-18.42,10.9-14-.51,24.84-6.85,24.84S1121.22,193.13,1121.22,193.13Z"/><path class="cls-8" d="M1127.83,183s-10,16.75-3.16,14.9S1134.3,179.92,1127.83,183Z"/><path class="cls-24" d="M738.14,242.87s-19.38,10.49-23.8-9.75.67-35.21-9.78-41.4-24.74-11.6-38.57-7.86c-3,.81,11.61,4.34,11.61,4.34s17,53,16,65.62.34,19.51,8.26,21.65,18.86,2.62,18.86,2.62l2.14-9.28s-7,1.54-8.8-.24c0,0,8.56-.72,14.51-4.28S738.14,242.87,738.14,242.87Z"/><path class="cls-10" d="M694.58,259.21s1.09,16.46,8.31,23.68-32.82,19.89-32.82,2c0-6.35,8.84-33.84,8.84-33.84Z"/><path class="cls-8" d="M694.58,259.21l-29-13.1s3.76,14.41,7.85,23.14c4.86,3.74,11.74,6.1,22.71,5.62a10.13,10.13,0,0,0,1.76-.28A60.74,60.74,0,0,1,694.58,259.21Z"/><path class="cls-10" d="M695.57,193.15c4.84,3.06,13.46,11.73,12.75,19s5.28,16.94,3,32-17.41,23.11-21.48,22.44c-17.25-2.87-25-11.63-31.41-21.89s-21.32-10.87-5.5-37.1S686.06,187.12,695.57,193.15Z"/><path class="cls-25" d="M677.6,188.2s-20.07,35-7,66.85c4.88,11.9,17.68,29.69,17.68,29.69s-32.49.66-39.63,2.67l-3.33-29.94-4.29,29s-6.66,2.38-25.22-6.18S598,249.69,598,249.69s30.14-6,33.47-27S656.6,172.75,677.6,188.2Z"/><path class="cls-24" d="M692.46,191.37s-12.26,20.27-29.15,20.27-19.63,6.26-19.63,11.07a6.9,6.9,0,0,0,10.83,5.65c5.35-3.45,5.71-5.65,5.71-5.65s2,6.54-2.14,10.65-16.78,6.86-20.82-4a23.64,23.64,0,0,1,2.5-21.06c1.94-2.79,4.14-3.81,7.16-5.06a63,63,0,0,0,13.27-7.4,54.91,54.91,0,0,0,5.9-5c1.8-1.76,3.35-3.8,5.62-5A18.9,18.9,0,0,1,678,183.7C684.17,182.89,689.31,186.25,692.46,191.37Z"/><path class="cls-2" d="M657.05,212.7h0a3.74,3.74,0,0,0-4.36.73h0a3.75,3.75,0,0,1-6.42-2.41h0a3.73,3.73,0,0,0-2.81-3.41h0a3.75,3.75,0,0,1-1.12-6.76h0a3.75,3.75,0,0,0,1.55-4.14h0a3.74,3.74,0,0,1,5.29-4.35h0a3.76,3.76,0,0,0,4.37-.73h0A3.74,3.74,0,0,1,660,194h0a3.73,3.73,0,0,0,2.81,3.41h0a3.75,3.75,0,0,1,1.12,6.76h0a3.75,3.75,0,0,0-1.55,4.14h0A3.74,3.74,0,0,1,657.05,212.7Z"/><path class="cls-3" d="M652.16,208.11h0a1.93,1.93,0,0,0-2.13-.83h0a2,2,0,0,1-2.23-2.78h0a1.93,1.93,0,0,0-.34-2.27h0a2,2,0,0,1,1.3-3.32h0a1.93,1.93,0,0,0,1.79-1.43h0a1.94,1.94,0,0,1,3.52-.53h0a1.94,1.94,0,0,0,2.14.83h0a2,2,0,0,1,2.22,2.78h0a2,2,0,0,0,.34,2.28h0a1.94,1.94,0,0,1-1.29,3.31h0a1.93,1.93,0,0,0-1.8,1.43h0A1.94,1.94,0,0,1,652.16,208.11Z"/><polygon class="cls-1" points="568.99 376.52 590.87 399.65 613.07 360.71 583.98 356.16 568.99 376.52"/><path class="cls-1" d="M575.46,377.77s-5.17,6.84-18.84,5.63l4.37,7.21s20.43-.39,24.06-6.74S575.46,377.77,575.46,377.77Z"/><path class="cls-1" d="M557.44,403.84v2.46h-.07c-5.59,0-10,3.29-10,7.48s4.38,7.48,10,7.48c.46,0,.92,0,1.37-.07a11.92,11.92,0,0,0,22.54-5.41V403.84Zm-.07,14.09c-3.61,0-6.65-1.91-6.65-4.16s3-4.15,6.65-4.15h.07v6.15a11.78,11.78,0,0,0,.19,2.15Z"/><path class="cls-1" d="M561.19,515.07v2.45h-.07c-5.59,0-10,3.29-10,7.48s4.38,7.48,10,7.48c.47,0,.92,0,1.37-.07A11.92,11.92,0,0,0,585,527V515.07Zm-.07,14.08c-3.6,0-6.65-1.9-6.65-4.15s3-4.15,6.65-4.15h.07V527a11.81,11.81,0,0,0,.2,2.16Z"/><path class="cls-1" d="M625.74,515.07v2.45h-.07c-5.59,0-10,3.29-10,7.48s4.38,7.48,10,7.48c.47,0,.93,0,1.37-.07A11.92,11.92,0,0,0,649.58,527V515.07Zm-.07,14.08c-3.6,0-6.64-1.9-6.64-4.15s3-4.15,6.64-4.15h.07V527a11.81,11.81,0,0,0,.2,2.16Z"/><path class="cls-1" d="M689.34,515.07v2.45h-.07c-5.59,0-10,3.29-10,7.48s4.38,7.48,10,7.48c.47,0,.92,0,1.37-.07A11.92,11.92,0,0,0,713.18,527V515.07Zm-.07,14.08c-3.6,0-6.65-1.9-6.65-4.15s3-4.15,6.65-4.15h.07V527a11.81,11.81,0,0,0,.2,2.16Z"/><rect class="cls-2" x="529.53" y="535.19" width="253.17" height="10.33"/><polygon class="cls-2" points="549.89 587.89 537.01 540.35 554.04 540.35 559.03 587.89 549.89 587.89"/><polygon class="cls-2" points="765.48 587.89 778.36 540.35 761.33 540.35 756.35 587.89 765.48 587.89"/><path class="cls-10" d="M578.53,337s-2.06,7.05-1.17,9.7,4.73,2.42,6.46,3.12.35,2.3,2.77,2.3,5.31-2.21,7.62-1.45,4.27-1.67,4.27-5.59-4-8.66-9.12-8.66S582.59,334,578.53,337Z"/><path class="cls-10" d="M621.67,375.44s-10.6,5.39-14.41,6-14.43-1.8-14-3.67,9.87-1.07,10.27-1.07-9-3.46-6.18-4.84,8.13,0,9.35,0,6.88-9.12,2.61-9.12-5.89-6.47-1.39-5.2,22.8,4.19,22.8,4.19Z"/><path class="cls-2" d="M556.62,383.4s7.53,2.39,4.37,7.21C561,390.61,555.34,391.91,556.62,383.4Z"/><path class="cls-2" d="M570.34,359.16a2.43,2.43,0,1,1-2.43-2.42A2.43,2.43,0,0,1,570.34,359.16Z"/><path class="cls-27" d="M86.29,651A29.74,29.74,0,1,1,116,621.27,29.77,29.77,0,0,1,86.29,651Zm0-51a21.24,21.24,0,1,0,21.24,21.23A21.26,21.26,0,0,0,86.29,600Z"/><path class="cls-27" d="M104.91,151.53a57.69,57.69,0,0,1-13.53-12.28L98,133.94a49.12,49.12,0,0,0,11.54,10.47Z"/><path class="cls-27" d="M78.84,108.38c-.18-1.81-.26-3.64-.26-5.44a58.49,58.49,0,0,1,6.74-27.22l7.51,4a50,50,0,0,0-5.76,23.25c0,1.53.08,3.1.22,4.65Zm33.94-48.93L108.68,52a58.23,58.23,0,0,1,32.56-7l-.67,8.47A49.79,49.79,0,0,0,112.78,59.45Z"/><path class="cls-27" d="M177.73,75.2A49.58,49.58,0,0,0,167.1,63.78l5.22-6.7a58.06,58.06,0,0,1,12.46,13.37Z"/><rect class="cls-27" x="633.71" y="105.52" width="8.5" height="43.46" transform="translate(347.34 709.25) rotate(-74.75)"/><rect class="cls-27" x="991.73" y="622.62" width="8.49" height="122.15" transform="translate(4.95 1374.53) rotate(-69.35)"/><circle class="cls-27" cx="501.21" cy="338.38" r="20.02"/><circle class="cls-27" cx="257.98" cy="686.28" r="11.33"/><circle class="cls-27" cx="1208.65" cy="561.2" r="11.33"/><circle class="cls-27" cx="903.01" cy="165.48" r="11.33"/><circle class="cls-27" cx="11.33" cy="163.01" r="11.33"/><rect class="cls-27" x="995.6" y="123.19" width="15.58" height="53.8" transform="translate(24.3 416) rotate(-23.7)"/><path class="cls-27" d="M1218.9,236.93l-5.09-6.8a57.54,57.54,0,0,1,16.18-8.49l2.71,8.05A49.2,49.2,0,0,0,1218.9,236.93Z"/><path class="cls-27" d="M1301.33,300.87l-7.73-3.55a49,49,0,0,0,4.53-20.64,49.84,49.84,0,0,0-.57-7.5l8.4-1.29a59,59,0,0,1,.67,8.79A57.54,57.54,0,0,1,1301.33,300.87Zm-15.92-57.39a49.64,49.64,0,0,0-24.28-14.79l2.16-8.21a58.07,58.07,0,0,1,28.43,17.32Z"/><path class="cls-27" d="M1262.48,333l-2-8.25a49.5,49.5,0,0,0,14.38-6.06l4.49,7.21A58.19,58.19,0,0,1,1262.48,333Z"/><path class="cls-27" d="M762,86.18a23.27,23.27,0,0,1-16.46-39.73h0A23.28,23.28,0,1,1,762,86.18ZM748.88,49.76a18.61,18.61,0,1,0,26.31,0,18.62,18.62,0,0,0-26.31,0Z"/><rect class="cls-27" x="1184.11" y="434.05" width="94.25" height="8.5" transform="translate(207.03 1250.13) rotate(-58)"/></g></g></svg>