<svg width="138" height="200" viewBox="0 0 138 200" fill="none" xmlns="http://www.w3.org/2000/svg">
<path fill-rule="evenodd" clip-rule="evenodd" d="M85.8326 44.3943C88.1502 41.674 89.7188 38.3401 89.4567 34.6044C88.7015 23.8409 73.7182 26.2087 70.8037 31.6412C67.8891 37.0737 68.2355 50.8538 72.0023 51.8247C73.5045 52.2119 76.7046 51.2634 79.9616 49.3003L77.9172 63.7632H89.9882L85.8326 44.3943Z" fill="#B28B67"/>
<path fill-rule="evenodd" clip-rule="evenodd" d="M94.7193 31.0216C95.1092 30.6352 95.3219 30.0837 95.5058 29.5601C95.6969 29.0161 95.8825 28.4666 96.0094 27.9004C96.2628 26.7691 96.2652 25.4681 95.4582 24.5897C94.811 23.8853 93.8398 23.5693 92.9435 23.5007C92.3464 23.4549 91.7331 23.5385 91.1607 23.7267C90.5928 23.9134 90.1032 24.2854 89.5527 24.5163C89.5316 23.2972 89.3228 22.0216 88.7043 20.9807C88.1092 19.9791 87.1603 19.4171 86.0797 19.2684C84.9705 19.1158 83.8753 19.3754 82.8823 19.9123C82.6337 20.0468 82.3875 20.1877 82.1518 20.3471C81.9544 20.4807 81.7493 20.6415 81.5177 20.6958C81.2596 20.7564 81.1316 20.6073 80.9638 20.419C80.7671 20.1982 80.5455 20.0037 80.311 19.8313C79.2741 19.069 77.9135 18.7556 76.7121 19.2125C76.1586 19.423 75.6204 19.7805 75.2448 20.2731C74.9101 20.7122 74.6713 21.4088 74.2093 21.7147C74.0132 21.8446 73.8748 21.6725 73.6963 21.5454C73.4281 21.3543 73.1724 21.1434 72.901 20.9576C72.5199 20.6964 72.1072 20.5011 71.6652 20.3988C71.0182 20.2492 70.1241 20.2842 69.9391 21.1316C69.8697 21.4499 69.9229 21.7904 69.9453 22.1111C69.9761 22.5514 70.0083 22.9916 70.0465 23.4314C70.0755 23.7652 70.1122 24.0877 70.1752 24.4155C70.2088 24.5903 70.314 24.9161 70.2391 25.0911C70.1454 25.3099 69.7132 25.1855 69.5285 25.1931C69.1638 25.2082 68.7975 25.2721 68.4603 25.428C68.1989 25.5488 67.9241 25.7265 67.8138 26.0261C67.7459 26.2101 67.7638 26.3991 67.7959 26.5884C67.8343 26.8156 67.7903 26.9362 67.7616 27.1654C67.2718 26.9242 65.5742 26.3882 65.3606 27.2662C65.2895 27.5585 65.4514 27.8888 65.575 28.1353C65.7917 28.5677 66.0758 28.963 66.3662 29.3399C66.9721 30.1262 67.6954 30.8044 68.4735 31.3844C67.5618 31.7897 67.3238 32.9853 68.1132 33.6976C68.4617 34.0121 68.9304 34.0821 69.37 34.062C69.5309 34.0546 69.7629 33.9928 69.8895 34.0208C69.9577 34.0359 70.0306 34.0936 70.125 34.1001C70.7455 34.1426 71.4459 33.9931 72.0524 33.8554C73.1332 33.6101 74.1564 33.098 74.9919 32.3182C75.2063 32.1182 75.3833 32.003 75.6718 32.0059C75.9246 32.0085 76.1727 32.0778 76.4253 32.0842C77.0935 32.1013 77.6961 31.7746 78.3167 31.5571C78.3547 32.3955 78.5934 33.3188 78.9363 34.073C79.216 34.688 79.8 34.7774 80.3738 34.8314C82.2089 35.004 84.0505 34.8113 85.8878 34.8139C84.1092 35.2159 82.2713 35.3816 80.5084 35.8547C79.7116 36.0685 80.3201 36.6056 80.6608 36.9779C81.2218 37.591 81.6389 38.3506 81.9283 39.1508C82.7984 38.0167 84.3363 37.2694 85.6988 37.6178C87.2042 38.0027 88.2643 40.0386 87.3016 41.5022C86.7427 42.3519 85.7335 42.6799 84.8936 43.0449C85.5488 43.7261 85.7073 44.7321 86.1016 45.5795C86.2961 45.9973 86.569 46.4698 87.004 46.6155C87.1649 46.6694 87.3536 46.674 87.4805 46.8052C87.6378 46.9676 87.6752 47.1491 87.876 47.2887C88.6774 47.8458 89.9291 47.8029 90.6394 47.0759C91.2817 46.4183 91.1146 45.3779 90.5781 44.7112C91.4321 44.3553 92.9878 43.8975 92.6484 42.5672C94.4988 42.4443 98.9914 39.4434 96.5079 37.2505C97.8708 36.4802 99.123 34.5977 98.2475 32.9383C97.5734 31.6605 96.0056 31.0893 94.7193 31.0216Z" fill="#191847"/>
<path fill-rule="evenodd" clip-rule="evenodd" d="M111.805 126.633H72.9494L67.858 189H125.698L111.805 126.633Z" fill="#C5CFD6"/>
<path fill-rule="evenodd" clip-rule="evenodd" d="M111.805 126.633H99.8548L92.7023 189H125.698L111.805 126.633Z" fill="black" fill-opacity="0.1"/>
<path fill-rule="evenodd" clip-rule="evenodd" d="M28.6507 115.948C24.5079 113.461 17.5573 116.657 17.5621 120.215C17.5764 130.859 27.291 181.029 27.7982 184.2C28.3054 187.372 33.7389 188.209 34.0553 184.21C34.5588 177.848 35.4942 155.821 34.5583 145.626C34.172 141.418 33.756 137.41 33.3464 133.834C38.444 143.04 46.3277 156.22 56.9975 173.375L62.7899 170.729C58.2413 155.742 54.5116 145.163 51.6006 138.989C46.6164 128.418 41.9429 119.366 39.9759 116.178C36.8819 111.162 31.4963 112.912 28.6507 115.948Z" fill="#B28B67"/>
<path fill-rule="evenodd" clip-rule="evenodd" d="M62.3758 162.406L42.4951 115.31C37.7324 107.649 24.3791 116.869 26.0033 121.313C29.6907 131.401 48.4439 164.06 49.5425 167.066L62.3758 162.406Z" fill="#1F28CF"/>
<path fill-rule="evenodd" clip-rule="evenodd" d="M63.48 167.759C64.7183 168.778 65.5239 169.611 65.8968 170.257C66.3503 171.042 66.8812 172.264 67.4895 173.922C66.5783 174.448 58.3892 179.176 42.9223 188.106C41.0653 186.364 40.776 185.012 42.0543 184.049C43.3326 183.087 44.3875 182.275 45.219 181.614L53.6986 169.931C53.8618 169.707 54.1763 169.657 54.4011 169.82C54.4049 169.822 54.4087 169.825 54.4125 169.828L56.1744 171.185C57.7908 171.044 58.997 170.744 59.7931 170.284C60.4399 169.91 61.1823 169.134 62.0204 167.953L62.0204 167.953C62.342 167.5 62.9699 167.394 63.4229 167.715C63.4424 167.729 63.4615 167.744 63.48 167.759Z" fill="#E4E4E4"/>
<path fill-rule="evenodd" clip-rule="evenodd" d="M35.3276 181.658C35.8903 183.16 36.1716 184.284 36.1716 185.029C36.1716 185.936 36.0205 187.26 35.7183 189C34.6662 189 25.2103 189 7.35057 189C6.61339 186.563 7.03893 185.247 8.62719 185.053C10.2155 184.859 11.5348 184.683 12.5854 184.527L25.7705 178.649C26.0242 178.535 26.3215 178.649 26.4346 178.903C26.4366 178.907 26.4384 178.912 26.4402 178.916L27.2878 180.972C28.7581 181.658 29.9529 182.001 30.8721 182.001C31.619 182.001 32.6504 181.7 33.9664 181.096L33.9664 181.096C34.4714 180.865 35.0685 181.086 35.3 181.591C35.31 181.613 35.3192 181.635 35.3276 181.658Z" fill="#E4E4E4"/>
<path fill-rule="evenodd" clip-rule="evenodd" d="M16.1688 123.833C16.1688 137.195 22.5145 168.364 22.5185 171.306L36.1716 171.316C34.1732 143.505 33.4646 129.45 34.0458 129.15C34.9175 128.701 69.7814 132.631 80.2377 132.631C95.3156 132.631 101.553 123.123 102.059 105.509H72.1903C66.1088 106.16 34.3867 112.558 22.6058 114.758C17.5622 115.699 16.1688 120.152 16.1688 123.833Z" fill="#2B44FF"/>
<path fill-rule="evenodd" clip-rule="evenodd" d="M67.5371 74.1747L50.0795 64.6133C47.1764 61.1658 44.3161 58.4884 41.4985 56.581C40.6375 56.2216 39.1319 56.004 40.5399 58.5032C41.948 61.0023 43.3166 63.6943 42.5993 64.4643C41.8819 65.2342 40.0932 64.1586 39.2374 65.4379C38.6669 66.2907 41.7228 67.6379 48.4053 69.4796L61.0903 81.0941L67.5371 74.1747ZM40.1953 82.242L32.5269 78.0294C31.4509 73.9351 30.1647 71.8752 28.6683 71.8495C27.5187 71.3146 29.5207 76.4881 27.3415 76.0394C25.1623 75.5908 19.8434 71.635 18.927 72.4382C17.5711 73.6264 18.7801 77.275 20.2045 79.09C22.8668 82.4823 25.071 83.6423 30.5192 85.1614C33.3678 85.9556 36.4476 87.5476 39.7586 89.9374L40.1953 82.242Z" fill="#997659"/>
<path fill-rule="evenodd" clip-rule="evenodd" d="M76.0392 72.0447C69.9244 71.9801 61.7703 70.6886 53.0699 65.1659L49.653 72.7857C55.6544 78.7415 64.0929 83.635 71.4713 83.4278C77.2859 83.2645 80.2577 76.2312 76.0392 72.0447Z" fill="#2026A2"/>
<path fill-rule="evenodd" clip-rule="evenodd" d="M67.8056 84.2645C61.314 85.8835 50.428 83.9743 35.1476 78.5369C31.3574 86.3781 29.6054 91.9683 29.8913 95.3074C42.9996 102.155 54.2346 105.208 63.4907 105.409C63.1965 110.901 63.865 116.127 66.1107 120.902C70.7275 130.719 97.7614 121.628 106.851 123.417C112.543 104.931 101.537 97.4185 101.528 85.59C101.519 72.6366 91.1176 52.6982 89.5873 52.6982H75.6319C74.8618 62.5909 70.9862 73.4936 67.8056 84.2645Z" fill="#1F28CF"/>
</svg>
