<svg width="176" height="172" viewBox="0 0 176 172" fill="none" xmlns="http://www.w3.org/2000/svg">
<path d="M78.1864 73.1455C85.4237 93.0125 72.1721 121.322 66.5587 123.343C60.2637 125.644 32.9986 113.34 25.3403 92.3522C22.7882 85.3587 23.1244 77.6398 26.275 70.8936C29.4256 64.1475 35.1326 58.9266 42.1404 56.3797C49.1483 53.8327 56.8829 54.1682 63.6428 57.3124C70.4028 60.4566 75.6343 66.152 78.1864 73.1455Z" fill="#65A88A"/>
<path d="M69.1249 73.6857C74.5378 88.5309 69.1249 104.236 59.1009 107.918C50.4804 111.039 33.9008 103.396 28.2273 87.9107C26.3425 82.7398 26.5932 77.0335 28.9242 72.0471C31.2552 67.0607 35.4756 63.2025 40.6569 61.3214C51.4226 57.32 64.4938 60.9813 69.1249 73.6857Z" fill="#AED7C7"/>
<path d="M65.356 123.603C64.867 125.025 64.5703 126.505 64.4739 128.005C64.4739 129.625 65.6767 129.145 66.4787 128.305C67.2806 127.464 67.5211 128.485 68.4834 128.105C69.4457 127.725 69.0648 126.424 70.2677 126.764C71.4706 127.104 72.5331 126.644 71.9517 125.704C70.5044 124.304 68.7944 123.202 66.9197 122.463L65.356 123.603Z" fill="#65A88A"/>
<path d="M36.0862 69.2842C38.091 69.9044 38.5922 73.5057 37.3492 77.287C36.1062 81.0683 33.5401 83.7292 31.6155 83.109C29.6909 82.4888 29.1296 78.8675 30.3525 75.1062C31.5754 71.3449 34.0814 68.664 36.0862 69.2842Z" fill="white"/>
<path d="M33.059 86.8103C34.2218 86.09 36.3669 87.3705 37.8304 89.6913C39.2939 92.0121 39.5144 94.493 38.3516 95.2132C37.1889 95.9335 35.0437 94.673 33.5802 92.3522C32.1168 90.0314 31.8962 87.5505 33.059 86.8103Z" fill="white"/>
<path d="M64.995 124.043C64.9124 124.04 64.8334 124.008 64.7713 123.953C64.7093 123.899 64.6679 123.825 64.6542 123.743C64.6486 123.698 64.652 123.653 64.6642 123.61C64.6763 123.566 64.6969 123.526 64.7249 123.49C64.7529 123.455 64.7876 123.426 64.8271 123.404C64.8666 123.382 64.9101 123.368 64.9549 123.363C66.0269 123.237 67.0557 122.868 67.9621 122.283C68.025 122.225 68.1073 122.193 68.1927 122.193C68.2781 122.193 68.3603 122.225 68.4232 122.283C68.4704 122.361 68.4863 122.453 68.4677 122.542C68.4491 122.631 68.3974 122.71 68.323 122.763C67.3343 123.41 66.2091 123.821 65.0351 123.963L64.995 124.043Z" fill="#030244"/>
<path d="M78.0664 151.533H77.9462C77.9046 151.519 77.8663 151.498 77.8334 151.469C77.8006 151.44 77.774 151.405 77.7552 151.366C77.7364 151.327 77.7259 151.284 77.7243 151.24C77.7226 151.197 77.7299 151.153 77.7457 151.113C78.8082 148.212 77.4049 145.731 73.3151 143.27C70.8091 141.749 71.5709 139.409 72.2526 137.268C72.6667 136.246 72.8646 135.149 72.834 134.047C72.7868 133.647 72.6552 133.262 72.4478 132.917C72.2405 132.573 71.9621 132.276 71.6311 132.046C71.463 132.758 71.1713 133.435 70.769 134.047C70.5074 134.431 70.1099 134.702 69.6563 134.806C69.2027 134.91 68.7265 134.839 68.3232 134.607C67.9409 134.41 67.6511 134.071 67.5162 133.664C67.3812 133.256 67.4119 132.812 67.6015 132.426C67.8432 131.875 68.2625 131.42 68.7928 131.134C69.323 130.848 69.9339 130.746 70.5284 130.846C70.7346 130.864 70.9371 130.911 71.1299 130.986C71.3213 129.597 71.0313 128.185 70.3079 126.984C69.3313 125.548 68.0165 124.374 66.4788 123.563C66.4358 123.546 66.3969 123.52 66.3643 123.487C66.3317 123.454 66.3062 123.415 66.2893 123.372C66.2724 123.329 66.2645 123.283 66.2661 123.236C66.2676 123.19 66.2786 123.145 66.2983 123.103C66.3411 123.023 66.4123 122.963 66.4977 122.933C66.583 122.904 66.6765 122.907 66.7594 122.943C68.4153 123.8 69.8285 125.059 70.8693 126.604C71.7312 128.003 72.052 129.668 71.7714 131.286C72.2352 131.549 72.632 131.914 72.9311 132.355C73.2301 132.796 73.4232 133.299 73.4955 133.827C73.5852 135.077 73.3792 136.331 72.8941 137.488C72.2125 139.489 71.611 141.489 73.676 142.63C78.0263 145.251 79.57 148.072 78.3672 151.273C78.3537 151.344 78.3167 151.408 78.2621 151.455C78.2075 151.502 78.1386 151.53 78.0664 151.533ZM70.0473 131.526C69.627 131.493 69.207 131.593 68.8471 131.812C68.4872 132.032 68.2057 132.358 68.0425 132.746C67.9359 132.978 67.9222 133.242 68.0042 133.484C68.0862 133.726 68.2577 133.927 68.4836 134.047C68.7393 134.204 69.0468 134.254 69.3394 134.187C69.6321 134.119 69.8864 133.94 70.0473 133.687C70.4495 133.082 70.7225 132.401 70.8492 131.686L70.2678 131.546L70.0473 131.526Z" fill="#030244"/>
<path d="M94.4856 153.213C94.4358 153.215 94.3863 153.205 94.341 153.184C94.2958 153.163 94.256 153.132 94.2249 153.093C94.1908 153.063 94.1635 153.026 94.1447 152.985C94.126 152.944 94.1163 152.899 94.1163 152.853C94.1163 152.808 94.126 152.763 94.1447 152.722C94.1635 152.68 94.1908 152.643 94.2249 152.613C95.914 151.054 96.9339 148.903 97.0717 146.611C97.3724 143.81 96.8111 139.369 92.4407 134.047C88.0702 128.725 88.5714 125.244 89.4535 123.163C86.7872 117.821 89.1929 107.497 89.2932 107.057C89.3169 106.969 89.3736 106.892 89.4519 106.844C89.5302 106.796 89.624 106.779 89.7142 106.797C89.7577 106.809 89.7986 106.829 89.8343 106.856C89.8701 106.884 89.9 106.918 89.9224 106.957C89.9448 106.996 89.9591 107.039 89.9647 107.084C89.9702 107.129 89.9669 107.174 89.9547 107.217C89.9547 107.317 87.6492 117.221 89.8344 122.383C90.4226 121.317 91.2971 120.435 92.3596 119.838C93.422 119.241 94.6304 118.951 95.8488 119.002C96.4459 119.054 97.0173 119.267 97.5014 119.62C97.9855 119.973 98.3638 120.451 98.5954 121.002C98.824 121.647 98.8758 122.342 98.7454 123.014C98.615 123.685 98.3071 124.31 97.8536 124.824C97.2387 125.47 96.453 125.93 95.5873 126.149C94.7217 126.369 93.8115 126.339 92.9619 126.064C91.7396 125.794 90.6651 125.072 89.9547 124.043C89.3132 126.044 89.3533 129.305 93.0221 133.747C97.5529 139.249 98.1142 143.87 97.8135 146.791C97.6341 149.249 96.5229 151.545 94.7061 153.213C94.634 153.234 94.5576 153.234 94.4856 153.213ZM90.2154 123.183C90.2766 123.279 90.3302 123.379 90.3757 123.483C90.6912 123.99 91.1058 124.429 91.595 124.773C92.0841 125.117 92.6376 125.358 93.2225 125.484C93.9539 125.742 94.7448 125.784 95.4992 125.602C96.2536 125.421 96.9391 125.026 97.4727 124.463C97.8456 124.042 98.0981 123.528 98.2039 122.975C98.3097 122.422 98.2649 121.852 98.0741 121.322C97.8994 120.867 97.6 120.47 97.2101 120.176C96.8202 119.883 96.3554 119.704 95.8689 119.662C94.7565 119.626 93.656 119.898 92.6898 120.449C91.7235 121 90.9294 121.808 90.3958 122.783L90.2154 123.183Z" fill="#030244"/>
<path d="M125.72 49.6573C125.72 77.0669 96.9313 105.677 89.2329 105.677C80.5322 105.677 52.7458 78.6674 52.7458 49.6573C52.7458 40.0001 56.59 30.7384 63.4327 23.9097C70.2753 17.0809 79.5559 13.2446 89.2329 13.2446C98.9099 13.2446 108.191 17.0809 115.033 23.9097C121.876 30.7384 125.72 40.0001 125.72 49.6573Z" fill="#A47BAD"/>
<path d="M114.553 46.3362C114.553 66.8433 101.041 83.6292 87.0879 83.6292C75.1995 83.6292 58.3794 66.9634 58.3794 45.4759C58.3847 38.3372 61.23 31.4928 66.29 26.4468C71.35 21.4009 78.2106 18.5665 85.3638 18.5665C100.239 18.5665 114.553 28.79 114.553 46.3362Z" fill="#C4A1CC"/>
<path d="M87.7493 105.537C86.5317 107.062 85.5144 108.736 84.7221 110.519C84.0605 112.519 85.7044 112.419 87.0276 111.759C88.3507 111.099 88.2305 112.439 89.4133 112.359C90.5961 112.279 90.8768 110.579 92.1999 111.499C93.5231 112.419 95.0267 112.359 94.726 110.979C94.2047 108.638 90.0348 104.797 90.0348 104.797L87.7493 105.537Z" fill="#A47BAD"/>
<path d="M76.1818 26.3092C78.1866 27.9097 77.3446 32.5714 74.177 36.6928C71.0094 40.8142 66.6791 42.8349 64.5941 41.2344C62.5092 39.6338 63.4514 34.9722 66.5989 30.8508C69.7464 26.7293 74.177 24.6886 76.1818 26.3092Z" fill="white"/>
<path d="M64.7546 46.3762C66.4988 46.016 68.5236 48.5169 69.2854 51.9981C70.0472 55.4793 69.2854 58.5804 67.4611 58.9606C65.6367 59.3407 63.6921 56.8398 62.9302 53.3586C62.1684 49.8774 62.9904 46.7563 64.7546 46.3762Z" fill="white"/>
<path d="M89.233 106.177C88.4768 106.181 87.7229 106.093 86.9876 105.917C86.9448 105.908 86.9043 105.89 86.8687 105.864C86.8331 105.839 86.8031 105.806 86.7806 105.769C86.758 105.731 86.7434 105.69 86.7377 105.646C86.7319 105.603 86.7351 105.559 86.747 105.517C86.7539 105.472 86.7701 105.43 86.7946 105.392C86.8192 105.354 86.8514 105.322 86.8892 105.297C86.9271 105.273 86.9697 105.256 87.0143 105.249C87.0589 105.242 87.1044 105.245 87.148 105.257C88.5195 105.577 89.9464 105.577 91.3179 105.257C91.3627 105.245 91.4095 105.242 91.4553 105.249C91.5012 105.256 91.5451 105.272 91.5845 105.296C91.6239 105.321 91.658 105.353 91.6845 105.391C91.7111 105.429 91.7296 105.472 91.7389 105.517C91.7568 105.604 91.7395 105.695 91.6908 105.77C91.642 105.845 91.5657 105.898 91.4783 105.917C90.7432 106.094 89.9892 106.182 89.233 106.177Z" fill="#030244"/>
<path d="M162.047 90.3715C154.148 110.038 125.279 122.163 119.786 120.042C113.571 117.541 101.502 90.2515 109.882 69.4842C112.671 62.5862 118.091 57.0763 124.951 54.1666C131.811 51.2569 139.547 51.1857 146.46 53.9688C153.372 56.7519 158.893 62.1612 161.809 69.0068C164.724 75.8524 164.795 83.5735 162.007 90.4715L162.047 90.3715Z" fill="#FFCD4D"/>
<path d="M155.03 84.7896C149.015 99.4347 134.601 107.538 124.637 103.536C116.137 100.035 108.92 83.3691 115.135 68.0237C116.151 65.4947 117.658 63.1905 119.568 61.2432C121.478 59.2958 123.755 57.7435 126.266 56.675C128.778 55.6065 131.477 55.0428 134.207 55.0161C136.938 54.9895 139.647 55.5004 142.179 56.5197C152.825 60.8012 160.102 72.2452 155.03 84.7896Z" fill="#FFE080"/>
<path d="M118.784 119.402C117.471 120.122 116.258 121.01 115.175 122.043C114.133 123.283 115.315 123.703 116.458 123.603C117.601 123.503 117.12 124.423 118.002 124.723C118.884 125.024 119.566 123.863 120.227 124.904C120.889 125.944 122.011 126.344 122.232 125.264C122.103 123.258 121.571 121.298 120.668 119.502L118.784 119.402Z" fill="#FFCD4D"/>
<path d="M133.358 59.4207C134.381 61.1613 132.376 64.2224 128.888 66.2431C125.399 68.2638 121.771 68.4839 120.748 66.7433C119.726 65.0027 121.731 61.9216 125.199 59.9009C128.667 57.8802 132.316 57.6601 133.358 59.4207Z" fill="white"/>
<path d="M119.425 70.4846C120.788 70.7247 121.43 73.1055 121.029 75.8064C120.628 78.5074 119.024 80.5081 117.721 80.268C116.418 80.0279 115.716 77.6471 116.097 74.9461C116.478 72.2452 118.062 70.2445 119.425 70.4846Z" fill="white"/>
<path d="M110.003 152.913C109.957 152.93 109.908 152.93 109.862 152.913C109.821 152.894 109.784 152.867 109.754 152.833C109.723 152.799 109.7 152.76 109.685 152.717C109.67 152.674 109.664 152.629 109.667 152.583C109.67 152.538 109.682 152.494 109.702 152.453C112.368 147.411 111.807 144.27 111.185 142.77C110.734 142.931 110.25 142.981 109.775 142.914C109.3 142.848 108.849 142.668 108.459 142.39C108.239 142.23 108.079 142.001 108.006 141.739C107.933 141.478 107.952 141.199 108.058 140.949C108.137 140.74 108.273 140.556 108.45 140.419C108.626 140.281 108.838 140.195 109.06 140.169C109.525 140.193 109.976 140.336 110.37 140.585C110.763 140.834 111.086 141.18 111.306 141.589L111.506 141.889H111.606C112.468 141.349 113.772 139.889 112.689 135.687C112.527 135.122 112.501 134.527 112.612 133.95C112.724 133.373 112.97 132.831 113.331 132.366C112.48 131.551 111.953 130.457 111.847 129.285C111.165 124.083 119.606 120.002 119.866 119.842C119.906 119.813 119.952 119.793 120.001 119.783C120.049 119.774 120.099 119.775 120.147 119.787C120.195 119.798 120.24 119.82 120.279 119.851C120.318 119.882 120.349 119.921 120.371 119.965C120.393 120.009 120.406 120.058 120.407 120.107C120.409 120.156 120.399 120.205 120.38 120.251C120.36 120.296 120.331 120.337 120.294 120.37C120.258 120.403 120.214 120.427 120.167 120.442C120.167 120.442 111.827 124.443 112.448 129.205C112.531 130.222 112.98 131.174 113.711 131.886C113.763 131.844 113.81 131.798 113.852 131.746C114.386 131.263 115.031 130.918 115.73 130.74C116.429 130.562 117.16 130.557 117.861 130.726C118.061 130.797 118.235 130.927 118.36 131.098C118.485 131.27 118.556 131.474 118.563 131.686C118.563 132.606 117.721 133.327 116.378 133.447C115.465 133.528 114.553 133.295 113.792 132.786C113.492 133.165 113.288 133.61 113.198 134.083C113.107 134.557 113.132 135.045 113.27 135.507C114.453 140.049 112.91 141.809 111.887 142.47H111.727C112.408 144.11 113.01 147.471 110.223 152.733C110.203 152.778 110.172 152.818 110.134 152.849C110.096 152.88 110.051 152.902 110.003 152.913ZM109.201 140.809C109.088 140.824 108.982 140.873 108.897 140.949C108.812 141.025 108.753 141.125 108.727 141.236C108.701 141.347 108.709 141.463 108.751 141.569C108.792 141.675 108.865 141.766 108.96 141.829C109.253 142.02 109.585 142.144 109.931 142.192C110.278 142.241 110.631 142.212 110.965 142.11C110.93 142.047 110.889 141.986 110.845 141.93C110.68 141.625 110.445 141.365 110.159 141.17C109.873 140.975 109.545 140.851 109.201 140.809ZM114.273 132.186C114.876 132.548 115.576 132.715 116.278 132.666C117.2 132.666 117.881 132.146 117.861 131.626C117.854 131.54 117.822 131.458 117.768 131.391C117.715 131.323 117.643 131.273 117.561 131.246C116.976 131.128 116.371 131.151 115.796 131.311C115.221 131.47 114.693 131.764 114.253 132.166L114.273 132.186Z" fill="#030244"/>
<path d="M121.53 120.842C120.356 120.674 119.24 120.22 118.282 119.522C118.232 119.464 118.203 119.392 118.199 119.316C118.195 119.24 118.217 119.165 118.261 119.103C118.304 119.04 118.368 118.995 118.441 118.973C118.514 118.951 118.592 118.954 118.663 118.982C119.542 119.596 120.55 120 121.61 120.162C121.655 120.167 121.699 120.181 121.738 120.203C121.778 120.224 121.812 120.254 121.84 120.289C121.868 120.325 121.889 120.365 121.901 120.409C121.913 120.452 121.917 120.497 121.911 120.542C121.906 120.587 121.892 120.63 121.87 120.67C121.848 120.709 121.819 120.744 121.783 120.772C121.748 120.8 121.707 120.82 121.664 120.832C121.62 120.844 121.575 120.848 121.53 120.842Z" fill="#030244"/>
<path d="M32.3173 27.6697C31.1674 27.6697 30.0434 27.3294 29.0873 26.6918C28.1312 26.0543 27.386 25.1482 26.946 24.088C26.5059 23.0278 26.3908 21.8612 26.6151 20.7357C26.8395 19.6102 27.3932 18.5764 28.2063 17.765C29.0194 16.9536 30.0553 16.401 31.1831 16.1771C32.3108 15.9532 33.4798 16.0681 34.5422 16.5073C35.6045 16.9464 36.5125 17.6901 37.1514 18.6442C37.7902 19.5983 38.1312 20.7201 38.1312 21.8676C38.1259 23.4048 37.5117 24.8775 36.4225 25.9645C35.3333 27.0514 33.8576 27.6644 32.3173 27.6697ZM32.3173 17.6662C31.4965 17.6662 30.6942 17.9091 30.0117 18.3641C29.3293 18.8192 28.7974 19.466 28.4833 20.2227C28.1692 20.9795 28.087 21.8122 28.2471 22.6156C28.4073 23.4189 28.8025 24.1569 29.3829 24.7361C29.9632 25.3152 30.7027 25.7097 31.5077 25.8695C32.3127 26.0293 33.1471 25.9473 33.9054 25.6338C34.6637 25.3204 35.3118 24.7895 35.7678 24.1085C36.2238 23.4274 36.4672 22.6267 36.4672 21.8076C36.4514 20.7197 36.0072 19.6816 35.2307 18.9179C34.4541 18.1542 33.4076 17.7261 32.3173 17.7262V17.6662Z" fill="#010144"/>
<path d="M125.981 16.3657C126.617 15.3725 127.401 14.4819 128.306 13.7248L129.349 15.0252C128.565 15.6604 127.888 16.4169 127.344 17.266L125.981 16.3657Z" fill="#010144"/>
<path d="M134.421 11.2839C134.775 11.2636 135.129 11.2636 135.483 11.2839C137.334 11.2794 139.157 11.7258 140.796 12.5844L140.014 14.0049C138.616 13.2743 137.062 12.89 135.483 12.8845H134.581L134.421 11.2839ZM143.983 18.0063L145.427 17.206C146.492 19.1418 146.966 21.3466 146.79 23.5482L145.146 23.4282C145.29 21.5469 144.886 19.6643 143.983 18.0063Z" fill="#010144"/>
<path d="M140.896 30.5707C141.739 30.0243 142.489 29.3491 143.122 28.57L144.445 29.5903C143.701 30.5218 142.823 31.3377 141.838 32.0112L140.896 30.5707Z" fill="#010144"/>
<path d="M54.5046 5.8788L54.0669 7.48091L62.2678 9.71219L62.7055 8.11008L54.5046 5.8788Z" fill="#010144"/>
<path d="M75.8668 162.032L75.28 163.586L97.6042 171.983L98.191 170.429L75.8668 162.032Z" fill="#010144"/>
<path d="M140.315 132.786C142.474 132.786 144.224 131.04 144.224 128.885C144.224 126.73 142.474 124.984 140.315 124.984C138.156 124.984 136.406 126.73 136.406 128.885C136.406 131.04 138.156 132.786 140.315 132.786Z" fill="#010144"/>
<path d="M40.6972 162.317C41.9151 162.317 42.9025 161.331 42.9025 160.116C42.9025 158.9 41.9151 157.915 40.6972 157.915C39.4793 157.915 38.4919 158.9 38.4919 160.116C38.4919 161.331 39.4793 162.317 40.6972 162.317Z" fill="#010144"/>
<path d="M134.742 160.116C135.96 160.116 136.947 159.131 136.947 157.915C136.947 156.7 135.96 155.714 134.742 155.714C133.524 155.714 132.536 156.7 132.536 157.915C132.536 159.131 133.524 160.116 134.742 160.116Z" fill="#010144"/>
<path d="M42.361 47.7567C43.579 47.7567 44.5663 46.7713 44.5663 45.5559C44.5663 44.3404 43.579 43.3551 42.361 43.3551C41.1431 43.3551 40.1558 44.3404 40.1558 45.5559C40.1558 46.7713 41.1431 47.7567 42.361 47.7567Z" fill="#010144"/>
<path d="M90.2756 4.40154C91.4935 4.40154 92.4808 3.41622 92.4808 2.20077C92.4808 0.985317 91.4935 0 90.2756 0C89.0576 0 88.0703 0.985317 88.0703 2.20077C88.0703 3.41622 89.0576 4.40154 90.2756 4.40154Z" fill="#010144"/>
<path d="M31.5967 127.473L28.8064 128.696L33.0289 138.295L35.8192 137.073L31.5967 127.473Z" fill="#010144"/>
<path d="M10.024 91.5119L9.78346 93.1525C8.5724 92.9766 7.39981 92.5978 6.31519 92.0321L7.05696 90.5516C7.98432 91.0371 8.98763 91.3619 10.024 91.5119Z" fill="#010144"/>
<path d="M7.39766 71.3249L7.97904 72.8854C6.67351 73.3624 5.48935 74.1207 4.51077 75.1062C4.15282 75.4462 3.8304 75.8216 3.54847 76.2266L2.20527 75.2463C2.54993 74.8133 2.92511 74.4055 3.32794 74.0258C4.47264 72.8422 5.86119 71.9206 7.39766 71.3249ZM1.66397 81.4484C1.57607 83.3321 2.03555 85.2011 2.98713 86.8303L1.54369 87.6706C0.426947 85.7567 -0.109296 83.5605 2.98303e-06 81.3484L1.66397 81.4484Z" fill="#010144"/>
<path d="M17.201 72.2652L16.359 73.6857C15.4826 73.1552 14.529 72.7638 13.5322 72.5253L13.8931 70.9247C15.0623 71.1861 16.1801 71.6391 17.201 72.2652Z" fill="#010144"/>
<path d="M167.74 117.441C166.656 117.444 165.581 117.231 164.58 116.815C163.578 116.4 162.67 115.79 161.907 115.02C161.139 114.255 160.529 113.345 160.114 112.345C159.698 111.344 159.484 110.271 159.484 109.188C159.484 108.105 159.698 107.032 160.114 106.031C160.529 105.031 161.139 104.122 161.907 103.356C163.066 102.225 164.533 101.46 166.125 101.155C167.717 100.85 169.364 101.02 170.86 101.643C172.357 102.266 173.636 103.314 174.539 104.658C175.443 106.001 175.93 107.58 175.94 109.198C175.943 110.281 175.731 111.354 175.317 112.356C174.903 113.357 174.294 114.267 173.527 115.033C172.759 115.799 171.848 116.406 170.844 116.819C169.841 117.232 168.766 117.444 167.68 117.441H167.74ZM163.069 104.536C162.142 105.459 161.51 106.635 161.253 107.917C160.996 109.198 161.126 110.526 161.626 111.734C162.127 112.942 162.975 113.974 164.063 114.7C165.151 115.426 166.431 115.814 167.74 115.814C169.05 115.814 170.33 115.426 171.418 114.7C172.506 113.974 173.354 112.942 173.855 111.734C174.355 110.526 174.485 109.198 174.228 107.917C173.971 106.635 173.339 105.459 172.412 104.536C171.169 103.307 169.49 102.618 167.74 102.618C165.991 102.618 164.312 103.307 163.069 104.536Z" fill="#010144"/>
</svg>
