<svg width="24" height="21" viewBox="0 0 24 21" fill="none" xmlns="http://www.w3.org/2000/svg">
<g clip-path="url(#clip0)">
<path d="M7.37126 5.88859C9.13996 5.88859 10.4321 5.08897 10.4321 3.9928C10.4321 2.89663 9.13996 2.1182 7.37126 2.1182C5.60257 2.1182 4.30518 2.89134 4.30518 3.9928C4.30518 5.09426 5.59728 5.88859 7.37126 5.88859ZM7.37126 3.68566C7.84776 3.66261 8.32164 3.76873 8.7428 3.9928C8.32056 4.21396 7.84749 4.3199 7.37126 4.29994C6.89328 4.32058 6.41833 4.21463 5.99444 3.9928C6.41922 3.77512 6.89494 3.67632 7.37126 3.70684V3.68566Z" fill="white"/>
<path d="M22.8977 15.6958L22.5641 15.3146L22.8659 14.9704C23.0757 14.7286 23.1912 14.4193 23.1912 14.0992C23.1912 13.7792 23.0757 13.4699 22.8659 13.2281L22.5641 12.8839L22.8659 12.5397C23.0763 12.2993 23.1923 11.9907 23.1923 11.6713C23.1923 11.3518 23.0763 11.0432 22.8659 10.8028L22.5641 10.4533L22.8659 10.1091C23.0763 9.8687 23.1923 9.5601 23.1923 9.24063C23.1923 8.92116 23.0763 8.61256 22.8659 8.37217L22.5641 8.02796L22.8659 7.68376C23.0757 7.44202 23.1912 7.13271 23.1912 6.81265C23.1912 6.49259 23.0757 6.18328 22.8659 5.94154L22.3999 5.41199L22.7706 4.19403C22.8192 4.03616 22.82 3.86744 22.7729 3.70912C22.7258 3.55081 22.6329 3.40998 22.5058 3.30439L22.0557 2.96018L21.5844 3.17729C20.5142 3.73721 19.3106 3.99186 18.1053 3.91337C16.9439 3.829 15.7911 3.65192 14.6579 3.38382C14.1601 1.42449 11.1947 0 7.37132 0C3.24084 0 0.121796 1.65749 0 3.871V16.4425V16.5378C0.0900233 18.7672 3.21966 20.43 7.36073 20.43C10.7287 20.43 13.4294 19.3232 14.3667 17.7134H14.4037C15.8083 17.5326 17.2241 17.453 18.6401 17.4751C19.7121 17.5632 20.7748 17.7404 21.8174 18.0047C21.888 18.0252 21.961 18.0359 22.0345 18.0364C22.1788 18.0399 22.3216 18.0073 22.4502 17.9416C22.5787 17.876 22.6888 17.7794 22.7706 17.6605L23.0089 17.3268C23.1756 17.0818 23.2553 16.7878 23.2351 16.4921C23.215 16.1964 23.0961 15.916 22.8977 15.6958ZM7.37132 1.58865C10.6757 1.58865 13.1487 2.85956 13.1487 3.9928C13.1487 5.12603 10.6757 6.39166 7.37132 6.39166C4.06694 6.39166 1.62042 5.14192 1.58865 4.00869V3.97162C1.62042 2.84368 4.07753 1.58865 7.37132 1.58865ZM7.37132 18.8414C4.07753 18.8414 1.62042 17.5916 1.58865 16.4584V6.52404C2.91781 7.42428 4.97247 7.9803 7.37132 7.9803C9.77018 7.9803 11.8566 7.41369 13.1964 6.49757L13.1593 16.4425C13.1487 17.5757 10.6757 18.8414 7.37132 18.8414ZM21.219 8.89642L21.5156 9.24063L21.219 9.58484C21.0093 9.82658 20.8938 10.1359 20.8938 10.4559C20.8938 10.776 21.0093 11.0853 21.219 11.3271L21.5156 11.6713L21.219 12.0155C21.0093 12.2572 20.8938 12.5665 20.8938 12.8866C20.8938 13.2066 21.0093 13.5159 21.219 13.7577L21.5156 14.1019L21.219 14.4461C21.0086 14.6865 20.8926 14.9951 20.8926 15.3146C20.8926 15.634 21.0086 15.9426 21.219 16.183L21.2826 16.2572C20.4455 16.0813 19.5984 15.9575 18.746 15.8865C17.4069 15.8575 16.0673 15.923 14.7373 16.0824L14.7797 5.06249C15.8438 5.28249 16.921 5.43285 18.0047 5.51261C18.9492 5.57313 19.897 5.46921 20.806 5.20547C20.7629 5.40727 20.7677 5.61637 20.8201 5.81595C20.8726 6.01553 20.9711 6.20003 21.1078 6.35459L21.5156 6.82589L21.219 7.17539C21.0129 7.4147 20.8995 7.72006 20.8995 8.03591C20.8995 8.35175 21.0129 8.65711 21.219 8.89642Z" fill="white"/>
</g>
<defs>
<clipPath id="clip0">
<rect width="23.226" height="20.43" fill="white"/>
</clipPath>
</defs>
</svg>
