<svg width="24" height="21" viewBox="0 0 24 21" fill="none" xmlns="http://www.w3.org/2000/svg">
<path d="M7.37126 5.8886C9.14 5.8886 10.4321 5.089 10.4321 3.9928C10.4321 2.8966 9.14 2.1182 7.37126 2.1182C5.60257 2.1182 4.30518 2.8913 4.30518 3.9928C4.30518 5.0943 5.59728 5.8886 7.37126 5.8886ZM7.37126 3.6857C7.84776 3.6626 8.32164 3.7687 8.7428 3.9928C8.32056 4.214 7.84749 4.3199 7.37126 4.2999C6.89328 4.3206 6.41833 4.2146 5.99444 3.9928C6.41922 3.7751 6.89494 3.6763 7.37126 3.7068V3.6857Z" fill="#B879C5"/>
<path d="M22.8977 15.6958L22.5641 15.3146L22.8659 14.9703C23.0757 14.7286 23.1912 14.4193 23.1912 14.0992C23.1912 13.7792 23.0757 13.4699 22.8659 13.2281L22.5641 12.8839L22.8659 12.5397C23.0763 12.2993 23.1923 11.9907 23.1923 11.6713C23.1923 11.3518 23.0763 11.0432 22.8659 10.8028L22.5641 10.4533L22.8659 10.1091C23.0763 9.8687 23.1923 9.5601 23.1923 9.2406C23.1923 8.9212 23.0763 8.6126 22.8659 8.3722L22.5641 8.028L22.8659 7.6838C23.0757 7.442 23.1912 7.1327 23.1912 6.8126C23.1912 6.4926 23.0757 6.1833 22.8659 5.9415L22.3999 5.412L22.7706 4.194C22.8192 4.0362 22.82 3.8674 22.7729 3.7091C22.7258 3.5508 22.6329 3.41 22.5058 3.3044L22.0557 2.9602L21.5844 3.1773C20.5142 3.7372 19.3106 3.9919 18.1053 3.9134C16.9439 3.829 15.7911 3.6519 14.6579 3.3838C14.1601 1.4245 11.1947 0 7.37132 0C3.24084 0 0.1218 1.6575 0 3.871V16.4425V16.5378C0.09002 18.7672 3.21966 20.43 7.36073 20.43C10.7287 20.43 13.4294 19.3232 14.3667 17.7134H14.4037C15.8083 17.5326 17.2241 17.453 18.6401 17.4751C19.7121 17.5632 20.7748 17.7404 21.8174 18.0047C21.888 18.0252 21.961 18.0359 22.0345 18.0364C22.1788 18.0399 22.3216 18.0073 22.4502 17.9416C22.5787 17.876 22.6888 17.7793 22.7706 17.6605L23.0089 17.3268C23.1756 17.0818 23.2553 16.7878 23.2351 16.4921C23.215 16.1964 23.0961 15.916 22.8977 15.6958ZM7.37132 1.5886C10.6757 1.5886 13.1487 2.8596 13.1487 3.9928C13.1487 5.126 10.6757 6.3917 7.37132 6.3917C4.06694 6.3917 1.62042 5.1419 1.58865 4.0087V3.9716C1.62042 2.8437 4.07753 1.5886 7.37132 1.5886ZM7.37132 18.8414C4.07753 18.8414 1.62042 17.5916 1.58865 16.4584V6.524C2.91781 7.4243 4.97246 7.9803 7.37132 7.9803C9.7702 7.9803 11.8566 7.4137 13.1964 6.4976L13.1593 16.4425C13.1487 17.5757 10.6757 18.8414 7.37132 18.8414ZM21.219 8.8964L21.5156 9.2406L21.219 9.5848C21.0093 9.8266 20.8938 10.1359 20.8938 10.4559C20.8938 10.776 21.0093 11.0853 21.219 11.3271L21.5156 11.6713L21.219 12.0155C21.0093 12.2572 20.8938 12.5665 20.8938 12.8866C20.8938 13.2066 21.0093 13.5159 21.219 13.7577L21.5156 14.1019L21.219 14.4461C21.0086 14.6865 20.8926 14.9951 20.8926 15.3146C20.8926 15.634 21.0086 15.9426 21.219 16.183L21.2826 16.2572C20.4455 16.0813 19.5984 15.9575 18.746 15.8865C17.4069 15.8575 16.0673 15.923 14.7373 16.0824L14.7797 5.0625C15.8438 5.2825 16.921 5.4329 18.0047 5.5126C18.9492 5.5731 19.897 5.4692 20.806 5.2055C20.7629 5.4073 20.7677 5.6164 20.8201 5.8159C20.8726 6.0155 20.9711 6.2 21.1078 6.3546L21.5156 6.8259L21.219 7.1754C21.0129 7.4147 20.8995 7.7201 20.8995 8.0359C20.8995 8.3518 21.0129 8.6571 21.219 8.8964Z" fill="#B879C5"/>
</svg>
