<svg id="Layer_1" data-name="Layer 1" xmlns="http://www.w3.org/2000/svg" xmlns:xlink="http://www.w3.org/1999/xlink" viewBox="0 0 238 233"><defs><style>.cls-1{fill:none;}.cls-2{clip-path:url(#clip-path);}.cls-3{fill:#fff;}.cls-4{clip-path:url(#clip-path-2);}.cls-5{clip-path:url(#clip-path-3);}</style><clipPath id="clip-path"><rect class="cls-1" x="75.14" y="28.02" width="86.96" height="76.49"/></clipPath><clipPath id="clip-path-2"><rect class="cls-1" x="15.24" y="129.11" width="86.96" height="76.49"/></clipPath><clipPath id="clip-path-3"><rect class="cls-1" x="135.04" y="129.11" width="86.96" height="76.49"/></clipPath></defs><title>Trys</title><g class="cls-2"><path class="cls-3" d="M102.74,50.07c6.62,0,11.46-3,11.46-7.1s-4.84-7-11.46-7-11.48,2.9-11.48,7S96.1,50.07,102.74,50.07Zm0-8.25A9.84,9.84,0,0,1,107.87,43a12.08,12.08,0,0,1-10.29,0,10,10,0,0,1,5.16-1.07Z"/><path class="cls-3" d="M160.87,86.79l-1.25-1.43,1.13-1.29a5,5,0,0,0,0-6.52l-1.13-1.29L160.75,75a4.94,4.94,0,0,0,0-6.5l-1.13-1.31,1.13-1.29a4.94,4.94,0,0,0,0-6.5l-1.13-1.29,1.13-1.29a5,5,0,0,0,0-6.52l-1.75-2,1.39-4.56a3.1,3.1,0,0,0,0-1.81,3.17,3.17,0,0,0-1-1.52l-1.68-1.29-1.77.82a24.63,24.63,0,0,1-13,2.75,81.51,81.51,0,0,1-12.91-2c-1.86-7.34-13-12.67-27.28-12.67-15.47,0-27.14,6.21-27.6,14.49V89.94c.34,8.34,12.06,14.57,27.56,14.57,12.61,0,22.72-4.14,26.23-10.17h.14a109.23,109.23,0,0,1,15.86-.89,72.51,72.51,0,0,1,11.89,2,2.86,2.86,0,0,0,.82.12,3.21,3.21,0,0,0,1.55-.36,3.12,3.12,0,0,0,1.2-1l.89-1.25a4.95,4.95,0,0,0-.41-6.1ZM102.74,34c12.37,0,21.63,4.76,21.63,9s-9.26,9-21.63,9S81.21,47.27,81.09,43v-.14C81.21,38.67,90.41,34,102.74,34Zm0,64.59c-12.33,0-21.53-4.68-21.65-8.92V52.45c5,3.37,12.67,5.45,21.65,5.45s16.79-2.12,21.81-5.55l-.14,37.23C124.37,93.82,115.11,98.56,102.74,98.56Zm51.84-37.23,1.11,1.29-1.11,1.29a5,5,0,0,0,0,6.52l1.11,1.29L154.58,73a5,5,0,0,0,0,6.52l1.11,1.29-1.11,1.29a4.94,4.94,0,0,0,0,6.5l.24.28a77.66,77.66,0,0,0-9.5-1.39,107.43,107.43,0,0,0-15,.73L130.48,47a94.2,94.2,0,0,0,12.07,1.68A30.49,30.49,0,0,0,153,47.51a4.92,4.92,0,0,0,.05,2.29,5,5,0,0,0,1.08,2l1.52,1.77-1.11,1.31a5,5,0,0,0,0,6.44Z"/></g><g class="cls-4"><path class="cls-3" d="M42.84,151.15c6.62,0,11.46-3,11.46-7.09s-4.84-7-11.46-7-11.48,2.89-11.48,7S36.19,151.15,42.84,151.15Zm0-8.24A9.86,9.86,0,0,1,48,144.06a10.27,10.27,0,0,1-5.13,1.15,10.28,10.28,0,0,1-5.16-1.15A9.81,9.81,0,0,1,42.84,143Z"/><path class="cls-3" d="M101,187.87l-1.25-1.43,1.13-1.29a5,5,0,0,0,0-6.52l-1.13-1.29,1.13-1.29a4.94,4.94,0,0,0,0-6.5l-1.13-1.31,1.13-1.29a4.94,4.94,0,0,0,0-6.5l-1.13-1.29,1.13-1.29a5,5,0,0,0,0-6.52l-1.75-2,1.39-4.56a3.22,3.22,0,0,0,0-1.82,3.17,3.17,0,0,0-1-1.51l-1.69-1.29-1.76.81a24.66,24.66,0,0,1-13,2.76,82.74,82.74,0,0,1-12.9-2c-1.87-7.34-13-12.67-27.28-12.67-15.47,0-27.15,6.2-27.6,14.49V191c.34,8.35,12,14.58,27.56,14.58,12.61,0,22.72-4.15,26.23-10.18h.13A112.19,112.19,0,0,1,85,194.53a72.53,72.53,0,0,1,11.89,2,3.22,3.22,0,0,0,.81.11,3.13,3.13,0,0,0,1.56-.35,3.37,3.37,0,0,0,1.2-1.05l.89-1.25a5,5,0,0,0,.85-3.13,5,5,0,0,0-1.26-3ZM42.84,135.05c12.37,0,21.63,4.76,21.63,9s-9.26,9-21.63,9-21.53-4.68-21.65-8.92V144C21.31,139.75,30.5,135.05,42.84,135.05Zm0,64.6c-12.34,0-21.53-4.68-21.65-8.92v-37.2c5,3.37,12.66,5.45,21.65,5.45s16.79-2.12,21.8-5.55l-.13,37.24C64.47,194.91,55.21,199.65,42.84,199.65Zm51.84-37.24,1.11,1.29L94.68,165a5,5,0,0,0,0,6.52l1.11,1.29-1.11,1.29a5,5,0,0,0,0,6.52l1.11,1.29-1.11,1.29a5,5,0,0,0,0,6.51l.24.27a78.23,78.23,0,0,0-9.5-1.39,107.58,107.58,0,0,0-15,.74l.16-41.26a94.62,94.62,0,0,0,12.08,1.69,30.92,30.92,0,0,0,10.48-1.15,5,5,0,0,0,1.13,4.3l1.53,1.76L94.68,156a4.92,4.92,0,0,0,0,6.44Z"/></g><g class="cls-5"><path class="cls-3" d="M162.64,151.15c6.62,0,11.46-3,11.46-7.09s-4.84-7-11.46-7-11.48,2.89-11.48,7S156,151.15,162.64,151.15Zm0-8.24a9.88,9.88,0,0,1,5.14,1.15,12.08,12.08,0,0,1-10.29,0,9.8,9.8,0,0,1,5.15-1.07Z"/><path class="cls-3" d="M220.77,187.87l-1.25-1.43,1.13-1.29a5,5,0,0,0,0-6.52l-1.13-1.29,1.13-1.29a4.94,4.94,0,0,0,0-6.5l-1.13-1.31,1.13-1.29a4.94,4.94,0,0,0,0-6.5l-1.13-1.29,1.13-1.29a5,5,0,0,0,0-6.52l-1.74-2,1.39-4.56a3.13,3.13,0,0,0,0-1.82,3,3,0,0,0-1-1.51l-1.68-1.29-1.77.81a24.62,24.62,0,0,1-13,2.76,82.68,82.68,0,0,1-12.91-2c-1.86-7.34-13-12.67-27.28-12.67-15.46,0-27.14,6.2-27.6,14.49V191c.34,8.35,12.06,14.58,27.56,14.58,12.61,0,22.72-4.15,26.23-10.18H189a112.13,112.13,0,0,1,15.86-.89,72.82,72.82,0,0,1,11.9,2,3.1,3.1,0,0,0,.81.11,3.16,3.16,0,0,0,1.56-.35,3.37,3.37,0,0,0,1.2-1.05l.89-1.25a5,5,0,0,0-.42-6.11Zm-58.13-52.82c12.37,0,21.63,4.76,21.63,9s-9.26,9-21.63,9-21.53-4.68-21.65-8.92V144C141.11,139.75,150.31,135.05,162.64,135.05Zm0,64.6c-12.33,0-21.53-4.68-21.65-8.92v-37.2c5,3.37,12.67,5.45,21.65,5.45s16.79-2.12,21.81-5.55l-.14,37.24C184.27,194.91,175,199.65,162.64,199.65Zm51.85-37.24,1.11,1.29L214.49,165a5,5,0,0,0,0,6.52l1.11,1.29-1.11,1.29a5,5,0,0,0,0,6.52l1.11,1.29-1.11,1.29a4.92,4.92,0,0,0,0,6.51l.23.27a77.79,77.79,0,0,0-9.49-1.39,107.51,107.51,0,0,0-15,.74l.16-41.26a94.22,94.22,0,0,0,12.07,1.69,31,31,0,0,0,10.49-1.15,4.92,4.92,0,0,0,1.13,4.3l1.53,1.76L214.49,156a4.92,4.92,0,0,0,0,6.44Z"/></g></svg>