<svg width="84" height="21" viewBox="0 0 84 21" fill="none" xmlns="http://www.w3.org/2000/svg">
<path d="M7.37126 5.8886C9.14 5.8886 10.4321 5.089 10.4321 3.9928C10.4321 2.8966 9.14 2.1182 7.37126 2.1182C5.60257 2.1182 4.30518 2.8913 4.30518 3.9928C4.30518 5.0943 5.59728 5.8886 7.37126 5.8886ZM7.37126 3.6857C7.84776 3.6626 8.32164 3.7687 8.7428 3.9928C8.32056 4.214 7.84749 4.3199 7.37126 4.2999C6.89328 4.3206 6.41833 4.2146 5.99444 3.9928C6.41922 3.7751 6.89494 3.6763 7.37126 3.7068V3.6857Z" fill="#B879C5"/>
<path d="M22.8977 15.6958L22.5641 15.3146L22.8659 14.9703C23.0757 14.7286 23.1912 14.4193 23.1912 14.0992C23.1912 13.7792 23.0757 13.4699 22.8659 13.2281L22.5641 12.8839L22.8659 12.5397C23.0763 12.2993 23.1923 11.9907 23.1923 11.6713C23.1923 11.3518 23.0763 11.0432 22.8659 10.8028L22.5641 10.4533L22.8659 10.1091C23.0763 9.8687 23.1923 9.5601 23.1923 9.2406C23.1923 8.9212 23.0763 8.6126 22.8659 8.3722L22.5641 8.028L22.8659 7.6838C23.0757 7.442 23.1912 7.1327 23.1912 6.8126C23.1912 6.4926 23.0757 6.1833 22.8659 5.9415L22.3999 5.412L22.7706 4.194C22.8192 4.0362 22.82 3.8674 22.7729 3.7091C22.7258 3.5508 22.6329 3.41 22.5058 3.3044L22.0557 2.9602L21.5844 3.1773C20.5142 3.7372 19.3106 3.9919 18.1053 3.9134C16.9439 3.829 15.7911 3.6519 14.6579 3.3838C14.1601 1.4245 11.1947 0 7.37132 0C3.24084 0 0.1218 1.6575 0 3.871V16.4425V16.5378C0.09002 18.7672 3.21966 20.43 7.36073 20.43C10.7287 20.43 13.4294 19.3232 14.3667 17.7134H14.4037C15.8083 17.5326 17.2241 17.453 18.6401 17.4751C19.7121 17.5632 20.7748 17.7404 21.8174 18.0047C21.888 18.0252 21.961 18.0359 22.0345 18.0364C22.1788 18.0399 22.3216 18.0073 22.4502 17.9416C22.5787 17.876 22.6888 17.7793 22.7706 17.6605L23.0089 17.3268C23.1756 17.0818 23.2553 16.7878 23.2351 16.4921C23.215 16.1964 23.0961 15.916 22.8977 15.6958ZM7.37132 1.5886C10.6757 1.5886 13.1487 2.8596 13.1487 3.9928C13.1487 5.126 10.6757 6.3917 7.37132 6.3917C4.06694 6.3917 1.62042 5.1419 1.58865 4.0087V3.9716C1.62042 2.8437 4.07753 1.5886 7.37132 1.5886ZM7.37132 18.8414C4.07753 18.8414 1.62042 17.5916 1.58865 16.4584V6.524C2.91781 7.4243 4.97246 7.9803 7.37132 7.9803C9.7702 7.9803 11.8566 7.4137 13.1964 6.4976L13.1593 16.4425C13.1487 17.5757 10.6757 18.8414 7.37132 18.8414ZM21.219 8.8964L21.5156 9.2406L21.219 9.5848C21.0093 9.8266 20.8938 10.1359 20.8938 10.4559C20.8938 10.776 21.0093 11.0853 21.219 11.3271L21.5156 11.6713L21.219 12.0155C21.0093 12.2572 20.8938 12.5665 20.8938 12.8866C20.8938 13.2066 21.0093 13.5159 21.219 13.7577L21.5156 14.1019L21.219 14.4461C21.0086 14.6865 20.8926 14.9951 20.8926 15.3146C20.8926 15.634 21.0086 15.9426 21.219 16.183L21.2826 16.2572C20.4455 16.0813 19.5984 15.9575 18.746 15.8865C17.4069 15.8575 16.0673 15.923 14.7373 16.0824L14.7797 5.0625C15.8438 5.2825 16.921 5.4329 18.0047 5.5126C18.9492 5.5731 19.897 5.4692 20.806 5.2055C20.7629 5.4073 20.7677 5.6164 20.8201 5.8159C20.8726 6.0155 20.9711 6.2 21.1078 6.3546L21.5156 6.8259L21.219 7.1754C21.0129 7.4147 20.8995 7.7201 20.8995 8.0359C20.8995 8.3518 21.0129 8.6571 21.219 8.8964Z" fill="#B879C5"/>
<path d="M67.3713 5.8886C69.14 5.8886 70.4321 5.089 70.4321 3.9928C70.4321 2.8966 69.14 2.1182 67.3713 2.1182C65.6026 2.1182 64.3052 2.8913 64.3052 3.9928C64.3052 5.0943 65.5973 5.8886 67.3713 5.8886ZM67.3713 3.6857C67.8478 3.6626 68.3216 3.7687 68.7428 3.9928C68.3206 4.214 67.8475 4.3199 67.3713 4.2999C66.8933 4.3206 66.4183 4.2146 65.9944 3.9928C66.4192 3.7751 66.8949 3.6763 67.3713 3.7068V3.6857Z" fill="#B879C5"/>
<path d="M82.8977 15.6958L82.5641 15.3146L82.8659 14.9703C83.0757 14.7286 83.1912 14.4193 83.1912 14.0992C83.1912 13.7792 83.0757 13.4699 82.8659 13.2281L82.5641 12.8839L82.8659 12.5397C83.0763 12.2993 83.1923 11.9907 83.1923 11.6713C83.1923 11.3518 83.0763 11.0432 82.8659 10.8028L82.5641 10.4533L82.8659 10.1091C83.0763 9.8687 83.1923 9.5601 83.1923 9.2406C83.1923 8.9212 83.0763 8.6126 82.8659 8.3722L82.5641 8.028L82.8659 7.6838C83.0757 7.442 83.1912 7.1327 83.1912 6.8126C83.1912 6.4926 83.0757 6.1833 82.8659 5.9415L82.3999 5.412L82.7706 4.194C82.8192 4.0362 82.82 3.8674 82.7729 3.7091C82.7258 3.5508 82.6329 3.41 82.5058 3.3044L82.0557 2.9602L81.5844 3.1773C80.5142 3.7372 79.3106 3.9919 78.1053 3.9134C76.9439 3.829 75.7911 3.6519 74.6579 3.3838C74.1601 1.4245 71.1947 0 67.3713 0C63.2408 0 60.1218 1.6575 60 3.871V16.4425V16.5378C60.09 18.7672 63.2197 20.43 67.3607 20.43C70.7287 20.43 73.4294 19.3232 74.3667 17.7134H74.4037C75.8083 17.5326 77.2241 17.453 78.6401 17.4751C79.7121 17.5632 80.7748 17.7404 81.8174 18.0047C81.888 18.0252 81.961 18.0359 82.0345 18.0364C82.1788 18.0399 82.3216 18.0073 82.4502 17.9416C82.5787 17.876 82.6888 17.7793 82.7706 17.6605L83.0089 17.3268C83.1756 17.0818 83.2553 16.7878 83.2351 16.4921C83.215 16.1964 83.0961 15.916 82.8977 15.6958ZM67.3713 1.5886C70.6757 1.5886 73.1487 2.8596 73.1487 3.9928C73.1487 5.126 70.6757 6.3917 67.3713 6.3917C64.0669 6.3917 61.6204 5.1419 61.5886 4.0087V3.9716C61.6204 2.8437 64.0775 1.5886 67.3713 1.5886ZM67.3713 18.8414C64.0775 18.8414 61.6204 17.5916 61.5886 16.4584V6.524C62.9178 7.4243 64.9725 7.9803 67.3713 7.9803C69.7702 7.9803 71.8566 7.4137 73.1964 6.4976L73.1593 16.4425C73.1487 17.5757 70.6757 18.8414 67.3713 18.8414ZM81.219 8.8964L81.5156 9.2406L81.219 9.5848C81.0093 9.8266 80.8938 10.1359 80.8938 10.4559C80.8938 10.776 81.0093 11.0853 81.219 11.3271L81.5156 11.6713L81.219 12.0155C81.0093 12.2572 80.8938 12.5665 80.8938 12.8866C80.8938 13.2066 81.0093 13.5159 81.219 13.7577L81.5156 14.1019L81.219 14.4461C81.0086 14.6865 80.8926 14.9951 80.8926 15.3146C80.8926 15.634 81.0086 15.9426 81.219 16.183L81.2826 16.2572C80.4455 16.0813 79.5984 15.9575 78.746 15.8865C77.4069 15.8575 76.0673 15.923 74.7373 16.0824L74.7797 5.0625C75.8438 5.2825 76.921 5.4329 78.0047 5.5126C78.9492 5.5731 79.897 5.4692 80.806 5.2055C80.7629 5.4073 80.7677 5.6164 80.8201 5.8159C80.8726 6.0155 80.9711 6.2 81.1078 6.3546L81.5156 6.8259L81.219 7.1754C81.0129 7.4147 80.8995 7.7201 80.8995 8.0359C80.8995 8.3518 81.0129 8.6571 81.219 8.8964Z" fill="#B879C5"/>
<path d="M37.3713 5.8886C39.14 5.8886 40.4321 5.089 40.4321 3.9928C40.4321 2.8966 39.14 2.1182 37.3713 2.1182C35.6026 2.1182 34.3052 2.8913 34.3052 3.9928C34.3052 5.0943 35.5973 5.8886 37.3713 5.8886ZM37.3713 3.6857C37.8478 3.6626 38.3216 3.7687 38.7428 3.9928C38.3206 4.214 37.8475 4.3199 37.3713 4.2999C36.8933 4.3206 36.4183 4.2146 35.9944 3.9928C36.4192 3.7751 36.8949 3.6763 37.3713 3.7068V3.6857Z" fill="#B879C5"/>
<path d="M52.8977 15.6958L52.5641 15.3146L52.8659 14.9703C53.0757 14.7286 53.1912 14.4193 53.1912 14.0992C53.1912 13.7792 53.0757 13.4699 52.8659 13.2281L52.5641 12.8839L52.8659 12.5397C53.0763 12.2993 53.1923 11.9907 53.1923 11.6713C53.1923 11.3518 53.0763 11.0432 52.8659 10.8028L52.5641 10.4533L52.8659 10.1091C53.0763 9.8687 53.1923 9.5601 53.1923 9.2406C53.1923 8.9212 53.0763 8.6126 52.8659 8.3722L52.5641 8.028L52.8659 7.6838C53.0757 7.442 53.1912 7.1327 53.1912 6.8126C53.1912 6.4926 53.0757 6.1833 52.8659 5.9415L52.3999 5.412L52.7706 4.194C52.8192 4.0362 52.82 3.8674 52.7729 3.7091C52.7258 3.5508 52.6329 3.41 52.5058 3.3044L52.0557 2.9602L51.5844 3.1773C50.5142 3.7372 49.3106 3.9919 48.1053 3.9134C46.9439 3.829 45.7911 3.6519 44.6579 3.3838C44.1601 1.4245 41.1947 0 37.3713 0C33.2408 0 30.1218 1.6575 30 3.871V16.4425V16.5378C30.09 18.7672 33.2197 20.43 37.3607 20.43C40.7287 20.43 43.4294 19.3232 44.3667 17.7134H44.4037C45.8083 17.5326 47.2241 17.453 48.6401 17.4751C49.7121 17.5632 50.7748 17.7404 51.8174 18.0047C51.888 18.0252 51.961 18.0359 52.0345 18.0364C52.1788 18.0399 52.3216 18.0073 52.4502 17.9416C52.5787 17.876 52.6888 17.7793 52.7706 17.6605L53.0089 17.3268C53.1756 17.0818 53.2553 16.7878 53.2351 16.4921C53.215 16.1964 53.0961 15.916 52.8977 15.6958ZM37.3713 1.5886C40.6757 1.5886 43.1487 2.8596 43.1487 3.9928C43.1487 5.126 40.6757 6.3917 37.3713 6.3917C34.0669 6.3917 31.6204 5.1419 31.5886 4.0087V3.9716C31.6204 2.8437 34.0775 1.5886 37.3713 1.5886ZM37.3713 18.8414C34.0775 18.8414 31.6204 17.5916 31.5886 16.4584V6.524C32.9178 7.4243 34.9725 7.9803 37.3713 7.9803C39.7702 7.9803 41.8566 7.4137 43.1964 6.4976L43.1593 16.4425C43.1487 17.5757 40.6757 18.8414 37.3713 18.8414ZM51.219 8.8964L51.5156 9.2406L51.219 9.5848C51.0093 9.8266 50.8938 10.1359 50.8938 10.4559C50.8938 10.776 51.0093 11.0853 51.219 11.3271L51.5156 11.6713L51.219 12.0155C51.0093 12.2572 50.8938 12.5665 50.8938 12.8866C50.8938 13.2066 51.0093 13.5159 51.219 13.7577L51.5156 14.1019L51.219 14.4461C51.0086 14.6865 50.8926 14.9951 50.8926 15.3146C50.8926 15.634 51.0086 15.9426 51.219 16.183L51.2826 16.2572C50.4455 16.0813 49.5984 15.9575 48.746 15.8865C47.4069 15.8575 46.0673 15.923 44.7373 16.0824L44.7797 5.0625C45.8438 5.2825 46.921 5.4329 48.0047 5.5126C48.9492 5.5731 49.897 5.4692 50.806 5.2055C50.7629 5.4073 50.7677 5.6164 50.8201 5.8159C50.8726 6.0155 50.9711 6.2 51.1078 6.3546L51.5156 6.8259L51.219 7.1754C51.0129 7.4147 50.8995 7.7201 50.8995 8.0359C50.8995 8.3518 51.0129 8.6571 51.219 8.8964Z" fill="#B879C5"/>
</svg>
