<svg width="268" height="167" viewBox="0 0 268 167" fill="none" xmlns="http://www.w3.org/2000/svg">
<path d="M264.711 137.07C264.711 147.956 207.963 156.776 138 156.776C68.037 156.776 11.2888 147.956 11.2888 137.07C11.2888 134.096 15.4776 131.324 22.9576 128.804C31.5346 125.931 44.5 123.411 60.4573 121.496C81.9 118.926 108.778 117.363 137.95 117.363C171.859 117.363 202.677 119.43 225.416 122.806C237.334 124.57 247.058 126.687 253.84 129.106C260.822 131.475 264.711 134.197 264.711 137.07Z" fill="#A3D9C6"/>
<path d="M138 149.014C189.226 149.014 230.752 142.538 230.752 134.55C230.752 126.561 189.226 120.085 138 120.085C86.7745 120.085 45.248 126.561 45.248 134.55C45.248 142.538 86.7745 149.014 138 149.014Z" fill="#5FAF90"/>
<path d="M138 142.362C172.371 142.362 200.234 138.029 200.234 132.685C200.234 127.34 172.371 123.008 138 123.008C103.629 123.008 75.7664 127.34 75.7664 132.685C75.7664 138.029 103.629 142.362 138 142.362Z" fill="#428469"/>
<path d="M58.1136 67.6184H26.548V127.998H58.1136V67.6184Z" fill="#A3D9C6"/>
<path d="M41.6576 72.5576H29.6397V119.43H41.6576V72.5576Z" fill="#428469"/>
<path d="M55.0219 72.5576H43.004V119.43H55.0219V72.5576Z" fill="#428469"/>
<path d="M40.2613 91.76H38.9149V104.259H40.2613V91.76Z" fill="#A3D9C6"/>
<path d="M45.6968 91.76H44.3504V104.259H45.6968V91.76Z" fill="#A3D9C6"/>
<path d="M45.2979 41.9144H43.6024V56.2784H45.2979V41.9144Z" fill="#A3D9C6"/>
<path d="M35.4243 42.62L38.7654 28.8608H49.6862L53.4262 42.62H35.4243Z" fill="#5FAF90"/>
<path d="M48.6395 51.8936H40.1622C37.6688 51.8936 35.6243 53.96 35.6243 56.48V60.6128C35.6243 64.4432 38.716 67.568 42.5059 67.568H46.2958C50.0856 67.568 53.1774 64.4432 53.1774 60.6128V56.48C53.2272 53.96 51.1827 51.8936 48.6395 51.8936Z" fill="#428469"/>
<path opacity="0.35" d="M62.851 133.239H20.8632L25.1019 127.947C33.679 125.074 42.8046 123.663 58.8118 121.698L62.851 133.239Z" fill="#4E8FB7"/>
<path opacity="0.5" d="M253.84 129.056C252.494 132.231 245.213 134.65 236.437 134.65C226.713 134.65 218.784 131.677 218.784 127.998C218.784 125.881 221.377 124.016 225.466 122.806C237.384 124.57 247.058 126.687 253.84 129.056Z" fill="#428469"/>
<path d="M237.185 77.9504C237.185 77.9504 234.941 68.3744 240.127 61.0664C245.313 53.708 240.476 50.0792 248.305 46.2488C256.084 42.4184 258.179 36.6728 258.179 36.6728C258.179 36.6728 260.871 50.432 255.985 55.0184C251.098 59.6048 248.754 59.6048 249.651 67.2152C250.499 74.7752 237.185 77.9504 237.185 77.9504Z" fill="#A3D9C6"/>
<path d="M234.143 102.193C233.993 102.193 233.894 102.042 233.894 101.89C233.345 90.2984 232.996 83.8976 238.88 73.4144C244.615 63.2336 247.657 58.5464 247.707 58.496C247.806 58.3448 247.956 58.3448 248.106 58.3952C248.255 58.496 248.255 58.6472 248.205 58.7984C248.155 58.8488 245.114 63.536 239.429 73.7168C233.644 84.0488 233.943 90.3992 234.492 101.89C234.442 102.042 234.342 102.193 234.143 102.193Z" fill="#409B73"/>
<path d="M228.059 94.784C228.059 94.784 221.427 94.28 218.634 89.0888C215.892 83.8976 212.9 84.8552 211.852 80.7728C210.805 76.6904 207.913 73.0112 207.913 73.0112C207.913 73.0112 215.842 72.5576 218.385 78.656C220.928 84.7544 228.807 79.3112 228.059 94.784Z" fill="#409B73"/>
<path d="M229.605 101.588C229.455 101.588 229.356 101.538 229.306 101.386C224.718 87.8288 219.283 83.5952 219.233 83.5448C219.083 83.444 219.083 83.2424 219.183 83.1416C219.283 82.9904 219.482 82.9904 219.582 83.0912C219.831 83.2424 225.167 87.4256 229.854 101.185C229.904 101.336 229.804 101.487 229.655 101.538C229.655 101.588 229.605 101.588 229.605 101.588Z" fill="#5FAF90"/>
<path d="M234.841 82.1336C234.841 82.1336 228.857 80.7224 227.012 73.7672C225.167 66.812 218.634 68.7776 219.083 61.1672C219.532 53.5568 220.878 50.6336 219.682 44.1824C218.535 37.6808 222.075 35.2616 222.075 35.2616C222.075 35.2616 222.125 42.4688 228.159 47.0552C234.243 51.6416 232.946 55.22 233.644 59.504C234.342 63.7376 238.282 63.536 238.481 69.4832C238.681 75.38 234.841 82.1336 234.841 82.1336Z" fill="#5FAF90"/>
<path d="M236.088 101.437C235.938 101.437 235.789 101.286 235.789 101.134C236.537 80.5712 227.511 56.732 227.411 56.48C227.361 56.3288 227.411 56.1776 227.561 56.0768C227.71 56.0264 227.86 56.0768 227.959 56.228C228.059 56.48 237.135 80.42 236.387 101.084C236.387 101.336 236.237 101.437 236.088 101.437Z" fill="#428469"/>
<path d="M227.71 85.6112C227.71 85.6112 226.264 85.6112 224.17 83.0408C223.023 81.68 222.225 78.5552 220.18 76.5392C214.346 70.7432 218.385 65.4512 216.34 60.6632C216.34 60.6632 232.198 69.836 227.71 85.6112Z" fill="#428469"/>
<path d="M231.899 100.177C231.749 100.177 231.65 100.076 231.6 99.9248C229.455 88.484 222.175 72.5576 222.125 72.4064C222.075 72.2552 222.125 72.104 222.275 72.0032C222.424 71.9528 222.574 72.0032 222.674 72.1544C222.723 72.3056 230.054 88.2824 232.198 99.824C232.248 99.9752 232.148 100.126 231.949 100.177C231.949 100.177 231.949 100.177 231.899 100.177Z" fill="#5FAF90"/>
<path d="M240.825 91.4072C240.426 91.508 234.841 78.656 242.57 74.4224C250.3 70.2392 250.4 69.332 252.394 64.9472C254.439 60.5624 259.326 61.8224 259.326 61.8224C259.326 61.8224 255.635 62.6792 255.935 67.7696C256.234 72.86 256.034 74.5736 251.995 78.4544C248.006 82.3352 255.586 86.72 240.825 91.4072Z" fill="#5FAF90"/>
<path d="M241.623 99.7735C241.473 99.7735 241.374 99.6727 241.324 99.5215C239.08 87.476 246.061 77.6984 246.161 77.5976C246.261 77.4464 246.46 77.4464 246.56 77.5472C246.709 77.648 246.709 77.8496 246.61 77.9504C246.56 78.0512 239.728 87.6272 241.872 99.4208C241.922 99.572 241.822 99.7231 241.623 99.7735C241.673 99.7735 241.623 99.7735 241.623 99.7735Z" fill="#428469"/>
<path d="M238.282 131.374H231.001C229.455 131.374 228.209 130.215 228.059 128.653L225.566 98.816H243.468L241.224 128.602C241.124 130.165 239.828 131.374 238.282 131.374Z" fill="#1C7C50"/>
<path opacity="0.2" d="M77.412 131.374H96.3614C96.3614 131.374 88.3827 132.332 92.8208 134.55C97.259 136.767 117.505 137.372 122.591 135.205C127.628 133.038 118.153 131.324 118.153 131.324H136.504C136.504 131.324 140.693 135.205 152.461 135.356C168.568 135.507 170.563 131.274 170.563 131.274H190.809C190.809 131.274 194.798 131.274 201.779 131.274H209.21L191.507 119.379H83.6454L67.5883 131.374H77.412Z" fill="black"/>
<path d="M196.194 122.605H76.9632C76.0656 122.605 75.3675 121.899 75.3675 120.992C75.3675 120.085 76.0656 119.379 76.9632 119.379H196.194C197.092 119.379 197.79 120.085 197.79 120.992C197.74 121.899 197.042 122.605 196.194 122.605Z" fill="#409B73"/>
<path d="M215.243 74.12L209.559 94.784H63.8483L62.8509 76.0352L66.8403 60.4112C67.9373 56.3288 71.5776 53.456 75.8163 53.456H201.68C203.924 53.456 206.068 54.2624 207.714 55.6232C208.96 56.6816 209.958 58.0424 210.606 59.6048C210.706 59.8568 210.755 60.1088 210.855 60.3608L215.243 74.12Z" fill="#6CBC9D"/>
<path opacity="0.35" d="M109.576 54.0608C109.576 54.0608 101.647 71.096 111.87 83.8976H91.7736V53.456L109.576 54.0608Z" fill="#4E8FB7"/>
<path opacity="0.35" d="M210.556 59.6048C208.96 61.3688 206.617 63.6368 205.071 63.9392C202.577 64.3424 199.087 64.3424 199.087 64.3424L191.607 90.5504L179.439 67.1144C162.834 66.56 150.666 57.5888 145.929 53.456H153.01L177.993 58.9496L191.607 55.22L201.73 58.5464L207.664 55.6736C208.96 56.6816 209.958 58.0424 210.556 59.6048Z" fill="#4E8FB7"/>
<path d="M203.076 94.784L190.809 119.379H78.7085L69.932 94.784H203.076Z" fill="#428469"/>
<path opacity="0.35" d="M137.102 119.379H130.221L121.045 105.67C118.901 102.445 115.51 100.278 111.77 99.6728L104.839 98.5136V119.379H94.5162L91.4744 102.042L83.8946 94.784H119.998L137.102 119.379Z" fill="#428469"/>
<path opacity="0.35" d="M185.373 94.784L176.048 96.6488L170.962 119.379H165.975L163.432 100.681L148.821 111.769L156.8 94.784H185.373Z" fill="#428469"/>
<path d="M207.913 87.3248H67.5883V94.784H207.913V87.3248Z" fill="#5FAF90"/>
<path d="M87.7344 119.379H81.1021C75.8661 119.379 71.079 116.355 68.8848 111.668L60.0584 92.6672L58.0638 88.3328L61.3051 83.4944L66.3416 75.9848L87.7344 119.379Z" fill="#A3D9C6"/>
<path opacity="0.2" d="M60.1083 92.7176L58.1136 88.3832L61.3549 83.5448L67.3888 81.3272C67.3888 81.3272 69.3835 90.3992 60.1083 92.7176Z" fill="black"/>
<path d="M61.2279 88.1441C65.7454 86.9007 68.4407 82.3235 67.2481 77.9205C66.0554 73.5174 61.4264 70.956 56.9089 72.1993C52.3915 73.4426 49.6961 78.0199 50.8888 82.4229C52.0814 86.8259 56.7104 89.3874 61.2279 88.1441Z" fill="#539B7C"/>
<path d="M185.024 119.379H191.507C196.643 119.379 201.331 116.406 203.425 111.769L212.052 92.9695L213.997 88.6855L210.805 83.8975L205.918 76.4887L185.024 119.379Z" fill="#A3D9C6"/>
<path opacity="0.2" d="M212.052 92.9696L213.997 88.6856L210.805 83.8976L204.871 81.68C204.921 81.68 202.976 90.7016 212.052 92.9696Z" fill="black"/>
<path d="M213.099 88.736C217.671 88.736 221.377 85.0579 221.377 80.5208C221.377 75.9836 217.671 72.3056 213.099 72.3056C208.528 72.3056 204.821 75.9836 204.821 80.5208C204.821 85.0579 208.528 88.736 213.099 88.736Z" fill="#539B7C"/>
<path d="M80.8029 122.605L77.412 131.374H78.8083C80.0549 131.374 81.152 130.719 81.8003 129.661L86.0888 122.605H80.8029Z" fill="#26684B"/>
<path d="M193.202 122.605L196.593 131.374H195.197C193.95 131.374 192.853 130.719 192.205 129.661L187.917 122.605H193.202Z" fill="#26684B"/>
<path d="M126.381 53.4559H133.811C133.811 53.4559 132.465 50.6839 131.019 50.1799C129.572 49.6759 128.027 50.0287 128.027 50.0287L126.231 49.424L126.381 53.4559Z" fill="#F49D8C"/>
<path d="M126.78 52.5992C126.73 52.8008 126.68 53.0023 126.63 53.1535C126.381 53.8591 126.182 54.212 126.182 54.212C112.867 53.4056 104.739 54.4136 104.739 54.4136L100.45 57.488L99.0042 58.496C98.9045 61.6712 99.104 64.4432 99.4032 66.8624C100.75 76.5392 104.689 80.3192 104.689 80.3192C88.8813 79.3616 75.3674 89.2904 75.3674 89.2904L74.8688 82.0328L74.4698 76.136C73.7717 76.3376 73.1733 76.4384 72.6248 76.388C65.9925 76.0856 68.8848 59.756 72.0264 52.9015C72.3754 52.0951 72.7744 51.44 73.1234 50.936C73.4725 50.4824 73.8216 50.0287 74.2704 49.6255C77.1128 46.9039 81.6506 45.7951 84.2437 45.3919C85.4904 45.1903 86.2882 45.1399 86.2882 45.1399C88.8314 44.8879 91.5741 44.7871 94.3168 44.7871C109.925 44.7367 127.029 48.1135 127.029 48.1135C127.229 50.1799 127.029 51.6416 126.78 52.5992Z" fill="url(#paint0_linear)"/>
<path d="M99.4541 66.8623C99.4541 66.8623 99.4541 66.9127 99.4541 66.8623C99.4541 67.1647 99.3045 70.7431 92.373 69.5335C92.373 69.5335 83.1477 78.5047 74.9696 82.0327L74.5706 76.1359C73.8725 76.3375 73.2741 76.4383 72.7256 76.3879C66.0933 76.0855 68.9856 59.7559 72.1272 52.9015L76.8645 49.6255C76.8645 49.6255 79.657 49.2727 79.9562 56.0263C80.3053 62.7799 80.3552 63.6871 80.3552 63.6871L89.6304 62.2255L99.4541 66.8623Z" fill="#916896"/>
<path d="M95.2144 51.5911C94.4166 53.5567 88.1832 54.0103 85.1912 50.6839C82.7477 47.9623 83.8947 45.9967 84.2936 45.4927C85.5403 45.2911 86.3381 45.2407 86.3381 45.2407C88.8813 44.9887 90.3773 45.2407 93.12 45.2407C92.3221 47.3575 95.9126 49.8775 95.2144 51.5911Z" fill="#916896"/>
<path d="M126.63 53.204C126.381 53.9096 126.182 54.2624 126.182 54.2624C112.867 53.456 104.739 54.464 104.739 54.464L100.45 57.5384L99.0042 58.5464L105.387 52.5488C105.437 52.4984 114.513 50.9864 126.63 53.204Z" fill="#916896"/>
<path d="M133.711 117.817L138.349 125.679C138.349 125.679 138.05 130.165 138.399 130.77C138.748 131.374 140.842 131.425 144.283 131.223C147.973 130.971 150.068 131.626 150.965 131.022C151.813 130.417 152.162 128.955 150.965 129.056C150.118 129.157 149.918 129.106 149.918 129.106C149.918 129.106 143.884 125.83 143.435 125.377C142.987 124.923 140.493 116.204 140.493 116.204L133.711 117.817Z" fill="#F49D8C"/>
<path d="M106.783 93.9272L117.804 96.8504C117.804 96.8504 127.927 112.726 132.465 118.674C132.465 118.674 137.601 119.53 141.441 116.254C141.441 116.254 127.528 87.224 122.641 83.8976C117.704 80.5712 103.841 79.3616 103.841 79.3616L106.783 93.9272Z" fill="#1B3151"/>
<path d="M85.5901 43.6784C85.5901 43.6784 81.152 38.0336 81.7504 33.4976C82.3488 28.9112 84.892 29.4152 84.892 29.4152C84.892 29.4152 83.396 27.0968 84.6925 25.6352C85.989 24.1736 85.8893 27.9032 85.8893 27.9032C85.8893 27.9032 86.3381 25.232 89.7789 25.2824C93.2696 25.3832 95.9125 29.8184 98.0568 29.5664C100.201 29.3144 102.096 29.012 99.5528 31.1792C99.5528 31.1792 100.65 31.4312 101.597 31.4816C102.495 31.532 101.847 35.1608 96.112 35.1608L90.2277 40.0496L85.5901 43.6784Z" fill="#010144"/>
<path d="M89.4797 51.3896C89.1306 51.3392 88.7815 51.2888 88.4823 51.188C86.2383 50.6336 84.8421 48.3152 85.2909 45.9968C85.7397 43.4264 85.8394 41.3096 85.7895 40.1C85.7895 39.848 85.7895 39.596 85.7895 39.4448C85.7895 39.092 85.7397 38.8904 85.7397 38.8904L86.4877 39.4952L93.3693 44.9384C93.3693 44.9384 91.9231 46.5008 93.0701 48.7184C93.2695 49.1216 93.4191 49.4744 93.5189 49.7768C94.1173 51.5912 92.5714 51.7928 89.4797 51.3896Z" fill="#FEB19E"/>
<path d="M93.5189 49.7264C87.5848 48.5672 86.0888 42.2168 85.7398 40.1C85.6899 39.6968 85.64 39.4448 85.64 39.4448H85.6899L86.388 39.4952L93.2696 44.9384C93.2696 44.9384 91.8235 46.5008 92.9704 48.7184C93.2696 49.0712 93.4192 49.424 93.5189 49.7264Z" fill="#FF856A"/>
<path d="M96.112 35.2112C96.6107 38.5376 96.1619 41.7128 94.9152 44.8376C94.5661 45.6944 93.6685 46.1984 92.7709 45.9968C90.3773 45.4424 85.989 43.7792 85.6898 38.8904C85.6898 38.8904 84.5928 37.7312 84.892 36.0176C85.1912 34.3544 87.0861 35.7152 86.9864 38.1848C86.9864 38.1848 88.5322 37.2776 87.884 34.0016C87.884 34.0016 90.5768 36.824 92.7211 36.4712C94.8653 36.1184 93.0701 34.6064 93.0701 34.6064C93.0701 34.6064 94.6658 35.3624 96.112 35.2112Z" fill="#FEB19E"/>
<path d="M89.3301 63.6368L90.3773 63.0824C90.3773 63.0824 90.9258 61.3688 92.3221 60.8144L92.9205 62.5784C92.9205 62.5784 95.1146 62.3264 96.461 61.4696C97.8573 60.6128 98.2562 59.4536 98.5056 59.1008C98.7549 58.748 99.4032 59.2016 98.8546 61.0664C98.3061 62.9312 99.104 64.3424 98.2064 66.2072C97.3586 68.0216 92.2722 67.1648 92.2722 67.1648L90.7264 67.9712L89.3301 63.6368Z" fill="#FEB19E"/>
<path d="M91.1755 67.8704C82.1497 74.8256 75.1185 76.1864 72.675 76.4384C65.2448 76.0856 69.7329 55.8248 73.1737 51.0368C73.5227 50.5832 73.8718 50.1296 74.3206 49.7264C75.1185 49.1216 75.8665 48.7688 76.415 48.7184C76.7142 48.668 76.9635 48.668 77.163 48.7184C79.6563 49.3232 79.6065 55.22 79.0579 58.5464C78.3099 62.78 77.8113 66.308 77.8113 66.308L89.5299 62.3768L89.8291 63.3848L90.627 66.2576L90.7766 66.8624L91.0259 67.7696L91.1755 67.8704Z" fill="url(#paint1_linear)"/>
<path d="M99.6027 119.48L100.101 127.746C100.101 127.746 99.0043 132.534 99.852 132.987C100.7 133.441 106.883 133.39 107.831 132.987C108.728 132.584 109.526 130.064 107.382 131.022C107.382 131.022 105.637 129.056 105.188 127.393C105.188 127.393 105.038 126.183 104.839 125.528C104.639 124.873 104.938 118.22 104.938 118.22L99.6027 119.48Z" fill="#FEB19E"/>
<path d="M106.384 119.984C102.644 120.841 97.9072 119.984 97.9072 119.984C95.364 109.854 94.4664 98.1608 94.2669 94.9856C94.217 94.4312 94.217 94.1792 94.217 94.1792C88.8314 95.4896 84.9917 95.54 82.249 94.9856C75.517 93.6248 75.3674 88.5848 75.3674 88.5848C84.2936 80.5712 99.6026 73.616 104.739 80.42C109.925 87.1232 106.384 119.984 106.384 119.984Z" fill="#23406D"/>
<path opacity="0.49" d="M94.2669 94.9351C94.217 94.3807 94.217 94.1288 94.217 94.1288C88.8314 95.4392 84.9917 95.4895 82.249 94.9351C90.8759 94.5823 92.8706 85.8128 92.8706 85.8128C94.3666 91.6088 94.2669 94.9351 94.2669 94.9351Z" fill="#1B3151"/>
<path d="M216.54 43.7288C216.54 43.7288 218.585 41.9144 220.13 41.7632C221.676 41.612 218.734 43.0736 218.834 43.88C218.934 44.7872 216.54 43.7288 216.54 43.7288Z" fill="#F49D8C"/>
<path d="M201.43 54.3145L203.874 55.7257C203.874 55.7257 215.892 43.6297 216.889 43.5289C217.886 43.4281 219.333 44.2345 220.33 44.2849C221.277 44.3353 224.818 41.5633 225.366 41.8153C225.915 42.0673 222.474 46.1497 221.577 46.3513C220.679 46.5529 217.039 47.0065 216.839 47.2081C216.64 47.4097 206.916 60.8665 204.472 61.7233C202.079 62.5801 199.087 61.0681 199.087 61.0681L201.43 54.3145Z" fill="#FEB19E"/>
<path d="M165.078 61.1672C165.078 61.1672 154.655 59.1512 144.233 53.1536C144.233 53.1536 142.089 56.0768 140.294 56.0264C138.449 55.976 141.291 54.1616 141.59 53.3048H137.202C137.202 53.3048 139.995 50.5328 142.189 50.0792C144.433 49.6256 146.128 50.5328 146.128 50.5328C146.128 50.5328 158.794 54.6152 165.078 54.716V61.1672Z" fill="#FEB19E"/>
<path d="M201.779 54.5648L198.887 61.5704L196.843 60.6128L196.693 60.5624L194.599 59.6048C194.599 59.6048 194.599 59.6048 194.599 59.6552C194.499 60.008 193.851 61.8728 193.252 63.9392C192.654 66.056 192.055 68.2736 192.055 68.9792C192.105 69.9872 194.299 75.4808 195.347 79.1096C195.845 80.8736 195.646 82.3352 195.646 82.3352L174.253 74.8256C174.253 74.8256 176.148 67.2656 175.699 66.2072C175.35 65.4008 173.455 64.6952 172.458 61.2176L169.915 61.4696L165.028 62.024V54.6152C165.028 54.6152 168.867 52.3472 173.704 48.9704C178.542 45.5936 179.838 46.5512 179.838 46.5512L183.428 46.7024C183.428 46.7024 187.318 45.5936 190.26 46.904C193.302 48.2648 201.779 54.5648 201.779 54.5648Z" fill="url(#paint2_linear)"/>
<path opacity="0.2" d="M174.103 56.1272C172.458 59.4032 172.458 61.2176 172.458 61.2176L169.915 61.4696C169.865 59.9072 170.164 57.74 171.859 55.976C174.802 52.8512 174.851 51.8432 174.851 51.8432C174.851 51.8432 175.001 54.3128 174.103 56.1272Z" fill="black"/>
<path opacity="0.2" d="M194.599 59.6552C194.499 60.008 193.851 61.8728 193.252 63.9392C190.908 61.6208 189.911 57.6392 189.911 57.6392L194.599 59.6552Z" fill="black"/>
<path d="M183.927 45.1399C183.927 45.1399 189.313 47.0552 191.008 43.5272C192.704 39.9992 190.759 36.1687 187.717 39.5959C187.717 39.5959 190.709 32.5903 185.174 28.2055C180.935 24.8287 175.151 25.4839 175.001 29.4655C175.001 29.4655 173.156 27.6511 171.61 29.6167C170.064 31.5823 172.757 38.6887 172.757 38.6887C172.757 38.6887 169.815 35.6144 169.266 39.3944C168.718 43.2248 173.206 46.9543 176.248 43.1239L183.927 45.1399Z" fill="#010144"/>
<path d="M186.221 47.3576C186.221 47.3576 183.927 51.0872 179.539 50.0792C179.539 50.0792 179.688 49.0712 179.589 47.66C179.539 46.7528 179.339 45.644 178.99 44.5352L183.229 39.4952L183.728 38.8904C183.778 38.8904 183.827 44.2328 186.221 47.3576Z" fill="#FEB19E"/>
<path d="M183.478 40.9063C183.578 45.7448 181.135 47.2063 179.589 47.66C179.539 46.7527 179.339 45.644 178.99 44.5352L183.229 39.4951C183.379 39.8479 183.478 40.3015 183.478 40.9063Z" fill="#FF856A"/>
<path d="M173.954 35.2615C173.954 35.2615 174.502 45.1903 177.395 45.3919C180.287 45.5935 183.478 42.7207 184.077 39.6463C184.077 39.6463 185.024 39.2935 185.024 37.6303C185.024 35.9671 183.528 35.6143 183.179 38.3359C183.179 38.3359 177.195 38.7895 175.4 32.3887C175.4 32.3383 175.101 34.2535 173.954 35.2615Z" fill="#FEB19E"/>
<path d="M162.136 118.22V124.117C162.136 124.117 159.842 127.292 158.197 127.846C156.551 128.451 153.809 130.417 156.85 130.568C159.892 130.719 164.929 130.971 166.325 130.417C166.874 130.215 166.026 124.419 166.026 124.419L167.721 118.17H162.136V118.22Z" fill="#F49D8C"/>
<path d="M156.85 130.618C156.85 130.618 162.634 130.87 162.834 130.618C163.033 130.366 161.537 128.35 160.839 129.258C160.839 129.258 159.792 128.149 158.794 129.459C158.794 129.459 157.548 128.602 157.049 129.459C157.049 129.459 156.102 128.199 155.453 129.056C154.855 129.862 155.005 130.719 156.85 130.618Z" fill="#FEB19E"/>
<path d="M173.106 84.0487L174.153 82.5871L166.773 80.5711L156.451 88.4335L161.886 94.5823L161.836 97.9087L161.437 119.581C161.437 119.581 164.03 121.042 168.967 119.581L172.707 94.9855C172.707 94.9855 188.116 96.6992 192.504 91.6087L173.106 84.0487Z" fill="#1B3151"/>
<path d="M148.872 102.747C148.872 102.747 147.475 105.318 146.628 105.519C145.83 105.721 144.284 106.779 142.638 106.93C141.042 107.082 139.646 107.686 140.693 108.745C141.741 109.803 145.032 111.517 146.478 112.222C147.924 112.928 148.822 112.323 149.221 110.61C149.62 108.896 150.368 107.938 150.766 107.384C151.165 106.83 154.207 103.654 154.207 103.654L148.872 102.747Z" fill="#F49D8C"/>
<path d="M147.574 112.474C147.574 112.474 145.929 108.745 142.388 108.493C142.388 108.493 141.89 106.628 140.842 106.779C139.795 106.93 139.496 108.291 142.189 109.803C144.882 111.366 146.777 112.474 147.574 112.474Z" fill="#FEB19E"/>
<path d="M195.596 82.0831C195.596 82.0831 197.042 94.8344 186.022 92.4152C175.001 89.996 169.316 82.5871 169.316 82.5871C169.316 82.5871 161.687 84.8552 161.886 94.5824L154.655 105.822C154.655 105.822 151.863 106.678 147.923 102.394C147.923 102.394 158.745 76.5391 164.33 73.8175C169.915 71.0455 180.835 74.5735 195.596 82.0831Z" fill="#23406D"/>
<path d="M58.4627 12.128C55.5704 12.128 53.2267 9.75921 53.2267 6.83601C53.2267 3.91281 55.5704 1.54401 58.4627 1.54401C61.3549 1.54401 63.6987 3.91281 63.6987 6.83601C63.6987 9.75921 61.3549 12.128 58.4627 12.128ZM58.4627 3.05601C56.4181 3.05601 54.7227 4.76961 54.7227 6.83601C54.7227 8.90241 56.4181 10.616 58.4627 10.616C60.5072 10.616 62.2027 8.90241 62.2027 6.83601C62.2027 4.76961 60.5072 3.05601 58.4627 3.05601Z" fill="#010144"/>
<path d="M35.524 156.474C33.5293 156.474 31.6843 155.667 30.2381 154.256C27.3459 151.333 27.3459 146.545 30.2381 143.622C31.6344 142.21 33.5293 141.404 35.524 141.404C37.5187 141.404 39.3637 142.21 40.8099 143.622C43.7021 146.545 43.7021 151.333 40.8099 154.256C39.3637 155.718 37.5187 156.474 35.524 156.474ZM35.524 142.966C33.9283 142.966 32.4323 143.571 31.3352 144.73C28.9915 147.099 28.9915 150.879 31.3352 153.248C32.4821 154.407 33.9781 155.012 35.524 155.012C37.0699 155.012 38.6157 154.407 39.7128 153.248C42.0565 150.879 42.0565 147.099 39.7128 144.73C38.6157 143.571 37.1197 142.966 35.524 142.966Z" fill="#010144"/>
<path d="M225.516 22.0064C225.267 22.0064 225.017 22.0064 224.768 21.956C222.025 21.7544 219.532 20.4944 217.787 18.428L218.934 17.42C220.479 19.184 222.574 20.2424 224.918 20.444C227.261 20.5952 229.505 19.8392 231.251 18.2768C234.891 15.1016 235.29 9.50717 232.098 5.82797C231.301 4.92077 230.403 4.21517 229.356 3.71117L230.004 2.35037C231.251 2.95517 232.298 3.81197 233.245 4.87037C235.041 6.93677 235.938 9.60797 235.739 12.38C235.539 15.152 234.293 17.672 232.248 19.436C230.353 21.1496 228.009 22.0064 225.516 22.0064Z" fill="#010144"/>
<path d="M63.8483 59.252C62.9507 58.6472 62.1528 57.9416 61.4547 57.0848L62.6016 56.1272C63.2 56.8328 63.8483 57.488 64.6461 57.992L63.8483 59.252Z" fill="#010144"/>
<path d="M59.2605 51.5408C59.2107 51.2384 59.2107 50.8856 59.2107 50.5832C59.2107 48.92 59.6096 47.2064 60.4075 45.7448L61.7539 46.4504C61.1056 47.7104 60.7565 49.172 60.7565 50.5832C60.7565 50.8352 60.7565 51.1376 60.8064 51.3896L59.2605 51.5408ZM65.2445 42.872L64.5464 41.5616C66.2917 40.604 68.2864 40.1504 70.2811 40.3016L70.1813 41.8136C68.436 41.6624 66.7405 42.0152 65.2445 42.872Z" fill="#010144"/>
<path d="M76.7139 45.644C76.2152 44.888 75.567 44.1824 74.819 43.628L75.7166 42.4184C76.5643 43.0736 77.3123 43.88 77.9106 44.7872L76.7139 45.644Z" fill="#010144"/>
<path d="M179.639 166.604L179.14 165.193C180.038 164.89 180.835 164.437 181.583 163.882L182.481 165.092C181.633 165.747 180.686 166.251 179.639 166.604Z" fill="#010144"/>
<path d="M173.754 166.806C171.81 166.302 170.064 165.243 168.768 163.731L169.865 162.723C171.012 163.983 172.508 164.941 174.153 165.344L173.754 166.806ZM166.274 158.389C166.175 157.885 166.175 157.33 166.175 156.826C166.175 155.314 166.474 153.903 167.122 152.542L168.469 153.198C167.92 154.357 167.671 155.617 167.671 156.877C167.671 157.33 167.721 157.784 167.77 158.238L166.274 158.389Z" fill="#010144"/>
<path d="M171.76 149.367L170.962 148.107C171.86 147.553 172.857 147.099 173.904 146.847L174.253 148.309C173.356 148.51 172.508 148.863 171.76 149.367Z" fill="#010144"/>
<path d="M23.0189 58.627L21.7155 59.3691L32.3071 78.2707L33.6105 77.5286L23.0189 58.627Z" fill="#010144"/>
<path d="M114.44 10.2759L114.046 11.7345L121.408 13.7582L121.803 12.2997L114.44 10.2759Z" fill="#010144"/>
<path d="M249.433 132.704L248.13 133.446L258.719 152.347L260.023 151.605L249.433 132.704Z" fill="#010144"/>
<path d="M167.421 8.14638C169.377 8.14638 170.962 6.54427 170.962 4.56797C170.962 2.59167 169.377 0.989563 167.421 0.989563C165.466 0.989563 163.881 2.59167 163.881 4.56797C163.881 6.54427 165.466 8.14638 167.421 8.14638Z" fill="#010144"/>
<path d="M4.856 110.408C7.33465 110.408 9.344 108.377 9.344 105.872C9.344 103.367 7.33465 101.336 4.856 101.336C2.37734 101.336 0.367996 103.367 0.367996 105.872C0.367996 108.377 2.37734 110.408 4.856 110.408Z" fill="#010144"/>
<path d="M237.733 46.4C238.835 46.4 239.728 45.4974 239.728 44.384C239.728 43.2706 238.835 42.368 237.733 42.368C236.632 42.368 235.739 43.2706 235.739 44.384C235.739 45.4974 236.632 46.4 237.733 46.4Z" fill="#010144"/>
<path d="M261.669 158.792C262.771 158.792 263.664 157.889 263.664 156.776C263.664 155.663 262.771 154.76 261.669 154.76C260.568 154.76 259.675 155.663 259.675 156.776C259.675 157.889 260.568 158.792 261.669 158.792Z" fill="#010144"/>
<path d="M114.064 166.352C115.166 166.352 116.059 165.449 116.059 164.336C116.059 163.223 115.166 162.32 114.064 162.32C112.962 162.32 112.069 163.223 112.069 164.336C112.069 165.449 112.962 166.352 114.064 166.352Z" fill="#010144"/>
<path d="M148.971 41.864C150.072 41.864 150.965 40.9614 150.965 39.848C150.965 38.7346 150.072 37.832 148.971 37.832C147.869 37.832 146.976 38.7346 146.976 39.848C146.976 40.9614 147.869 41.864 148.971 41.864Z" fill="#010144"/>
<path d="M264.124 27.3366L261.613 28.4509L265.422 37.2187L267.933 36.1043L264.124 27.3366Z" fill="#010144"/>
<defs>
<linearGradient id="paint0_linear" x1="68.6775" y1="67.0942" x2="127.107" y2="67.0942" gradientUnits="userSpaceOnUse">
<stop offset="0.0706301" stop-color="#A3D9C6"/>
<stop offset="1" stop-color="#CB9ECF"/>
</linearGradient>
<linearGradient id="paint1_linear" x1="80.9374" y1="47.4366" x2="79.4083" y2="78.0727" gradientUnits="userSpaceOnUse">
<stop offset="0.0706301" stop-color="#79B79F"/>
<stop offset="1" stop-color="#CB9ECF"/>
</linearGradient>
<linearGradient id="paint2_linear" x1="174.576" y1="45.8297" x2="196.26" y2="75.7447" gradientUnits="userSpaceOnUse">
<stop offset="0.0706301" stop-color="#A3D9C6"/>
<stop offset="1" stop-color="#CB9ECF"/>
</linearGradient>
</defs>
</svg>
