<svg id="Layer_1" data-name="Layer 1" xmlns="http://www.w3.org/2000/svg" xmlns:xlink="http://www.w3.org/1999/xlink" viewBox="0 0 238 233"><defs><style>.cls-1{fill:none;}.cls-2{clip-path:url(#clip-path);}.cls-3{fill:#fff;}.cls-4{clip-path:url(#clip-path-2);}</style><clipPath id="clip-path"><rect class="cls-1" x="15.24" y="78.11" width="86.96" height="76.49"/></clipPath><clipPath id="clip-path-2"><rect class="cls-1" x="135.04" y="78.11" width="86.96" height="76.49"/></clipPath></defs><title>Du</title><g class="cls-2"><path class="cls-3" d="M42.84,100.15c6.62,0,11.46-3,11.46-7.09s-4.84-7-11.46-7-11.48,2.89-11.48,7S36.19,100.15,42.84,100.15Zm0-8.24A9.86,9.86,0,0,1,48,93.06a10.27,10.27,0,0,1-5.13,1.15,10.28,10.28,0,0,1-5.16-1.15A9.81,9.81,0,0,1,42.84,92Z"/><path class="cls-3" d="M101,136.87l-1.25-1.43,1.13-1.29a5,5,0,0,0,0-6.52l-1.13-1.29,1.13-1.29a4.94,4.94,0,0,0,0-6.5l-1.13-1.31,1.13-1.29a4.94,4.94,0,0,0,0-6.5l-1.13-1.29,1.13-1.29a5,5,0,0,0,0-6.52l-1.75-2,1.39-4.56a3.22,3.22,0,0,0,0-1.82,3.17,3.17,0,0,0-1-1.51l-1.69-1.29L96.05,90a24.66,24.66,0,0,1-13,2.76,82.74,82.74,0,0,1-12.9-2c-1.87-7.34-13-12.67-27.28-12.67-15.47,0-27.15,6.2-27.6,14.49V140c.34,8.35,12,14.58,27.56,14.58,12.61,0,22.72-4.15,26.23-10.18h.13A112.19,112.19,0,0,1,85,143.53a72.53,72.53,0,0,1,11.89,2,3.22,3.22,0,0,0,.81.11,3.13,3.13,0,0,0,1.56-.35,3.37,3.37,0,0,0,1.2-1.05l.89-1.25a5,5,0,0,0,.85-3.13,5,5,0,0,0-1.26-3ZM42.84,84.05c12.37,0,21.63,4.76,21.63,9s-9.26,9-21.63,9-21.53-4.68-21.65-8.92V93C21.31,88.75,30.5,84.05,42.84,84.05Zm0,64.6c-12.34,0-21.53-4.68-21.65-8.92v-37.2c5,3.37,12.66,5.45,21.65,5.45s16.79-2.12,21.8-5.55l-.13,37.24C64.47,143.91,55.21,148.65,42.84,148.65Zm51.84-37.24,1.11,1.29L94.68,114a5,5,0,0,0,0,6.52l1.11,1.29-1.11,1.29a5,5,0,0,0,0,6.52l1.11,1.29-1.11,1.29a5,5,0,0,0,0,6.51l.24.27a78.23,78.23,0,0,0-9.5-1.39,107.58,107.58,0,0,0-15,.74l.16-41.26a94.62,94.62,0,0,0,12.08,1.69A30.92,30.92,0,0,0,93.13,97.6a5,5,0,0,0,1.13,4.3l1.53,1.76L94.68,105a4.92,4.92,0,0,0,0,6.44Z"/></g><g class="cls-4"><path class="cls-3" d="M162.64,100.15c6.62,0,11.46-3,11.46-7.09s-4.84-7-11.46-7-11.48,2.89-11.48,7S156,100.15,162.64,100.15Zm0-8.24a9.88,9.88,0,0,1,5.14,1.15,12.08,12.08,0,0,1-10.29,0A9.8,9.8,0,0,1,162.64,92Z"/><path class="cls-3" d="M220.77,136.87l-1.25-1.43,1.13-1.29a5,5,0,0,0,0-6.52l-1.13-1.29,1.13-1.29a4.94,4.94,0,0,0,0-6.5l-1.13-1.31,1.13-1.29a4.94,4.94,0,0,0,0-6.5l-1.13-1.29,1.13-1.29a5,5,0,0,0,0-6.52l-1.74-2,1.39-4.56a3.13,3.13,0,0,0,0-1.82,3,3,0,0,0-1-1.51l-1.68-1.29-1.77.81a24.62,24.62,0,0,1-13,2.76,82.68,82.68,0,0,1-12.91-2c-1.86-7.34-13-12.67-27.28-12.67-15.46,0-27.14,6.2-27.6,14.49V140c.34,8.35,12.06,14.58,27.56,14.58,12.61,0,22.72-4.15,26.23-10.18H189a112.13,112.13,0,0,1,15.86-.89,72.82,72.82,0,0,1,11.9,2,3.1,3.1,0,0,0,.81.11,3.16,3.16,0,0,0,1.56-.35,3.37,3.37,0,0,0,1.2-1.05l.89-1.25a5,5,0,0,0-.42-6.11ZM162.64,84.05c12.37,0,21.63,4.76,21.63,9s-9.26,9-21.63,9S141.11,97.36,141,93.12V93C141.11,88.75,150.31,84.05,162.64,84.05Zm0,64.6c-12.33,0-21.53-4.68-21.65-8.92v-37.2c5,3.37,12.67,5.45,21.65,5.45s16.79-2.12,21.81-5.55l-.14,37.24C184.27,143.91,175,148.65,162.64,148.65Zm51.85-37.24,1.11,1.29L214.49,114a5,5,0,0,0,0,6.52l1.11,1.29-1.11,1.29a5,5,0,0,0,0,6.52l1.11,1.29-1.11,1.29a4.92,4.92,0,0,0,0,6.51l.23.27a77.79,77.79,0,0,0-9.49-1.39,107.51,107.51,0,0,0-15,.74l.16-41.26a94.22,94.22,0,0,0,12.07,1.69,31,31,0,0,0,10.49-1.15,4.92,4.92,0,0,0,1.13,4.3l1.53,1.76L214.49,105a4.92,4.92,0,0,0,0,6.44Z"/></g></svg>