<svg width="138" height="200" viewBox="0 0 138 200" fill="none" xmlns="http://www.w3.org/2000/svg">
<path fill-rule="evenodd" clip-rule="evenodd" d="M67.7585 35.0195C65.809 32.7311 64.4895 29.9267 64.71 26.7842C65.3453 17.7299 77.9491 19.7218 80.4009 24.2916C82.8526 28.8614 82.5612 40.4531 79.3926 41.2699C78.129 41.5956 75.437 40.7977 72.6973 39.1463L74.417 51.3125H64.2629L67.7585 35.0195Z" fill="#B28B67"/>
<path fill-rule="evenodd" clip-rule="evenodd" d="M75.9226 24.9544C74.5446 25.7251 73.564 27.1695 72.3835 29.064C72.096 28.951 71.7829 28.8889 71.4553 28.8889C70.0533 28.8889 68.9168 30.0254 68.9168 31.4274C68.9168 32.1392 69.2097 32.7825 69.6815 33.2434C69.0942 34.0725 68.4359 34.9386 67.6815 35.8323C64.8666 34.1434 62.7729 29.2212 65.4606 24.4694C67.7731 14.9513 80.8768 20.8591 83.3978 19.2538C83.9489 22.7078 82.1715 25.4928 75.9226 24.9544Z" fill="#191847"/>
<path fill-rule="evenodd" clip-rule="evenodd" d="M63.854 88.0429L84.6198 140.602L98.5476 185.036H104.047L82.7549 88.0429L63.854 88.0429Z" fill="#997659"/>
<path fill-rule="evenodd" clip-rule="evenodd" d="M59.6724 88.0429C59.4513 106.512 56.2265 131.379 55.7113 132.53C55.3678 133.298 43.5103 143.058 20.1388 161.812L23.9268 165.865C51.503 149.786 65.9291 140.675 67.2052 138.53C69.1194 135.313 75.3511 105.712 80.3544 88.0429H59.6724Z" fill="#B28B67"/>
<path fill-rule="evenodd" clip-rule="evenodd" d="M19.6322 160.458C18.36 160.908 17.4836 161.334 17.0031 161.738C16.4186 162.228 15.6474 163.041 14.6896 164.177C15.2585 164.855 20.3714 170.948 30.0284 182.457C31.9974 181.614 32.6151 180.628 31.8816 179.5C31.148 178.371 30.5477 177.426 30.0805 176.665L26.7389 164.99C26.6746 164.765 26.4404 164.635 26.2158 164.7C26.2119 164.701 26.2081 164.702 26.2043 164.703L24.4212 165.268C23.1841 164.692 22.3171 164.107 21.82 163.515C21.4162 163.034 21.0528 162.206 20.73 161.032L20.73 161.032C20.6061 160.581 20.1404 160.316 19.6898 160.44C19.6704 160.446 19.6511 160.452 19.6322 160.458Z" fill="#E4E4E4"/>
<path fill-rule="evenodd" clip-rule="evenodd" d="M96.2956 182.985C95.8222 184.248 95.5856 185.194 95.5856 185.821C95.5856 186.584 95.7127 187.697 95.9669 189.161C96.8519 189.161 104.806 189.161 119.83 189.161C120.45 187.111 120.092 186.004 118.756 185.841C117.42 185.677 116.31 185.53 115.426 185.398L104.335 180.453C104.122 180.358 103.871 180.454 103.776 180.667C103.775 180.671 103.773 180.675 103.772 180.678L103.059 182.408C101.822 182.985 100.817 183.273 100.044 183.273C99.4152 183.273 98.5476 183.02 97.4406 182.512L97.4406 182.512C97.0158 182.318 96.5135 182.504 96.3188 182.929C96.3104 182.947 96.3026 182.966 96.2956 182.985Z" fill="#E4E4E4"/>
<path fill-rule="evenodd" clip-rule="evenodd" d="M77.8159 180.459L103.965 177.621L84.5853 88.0429H61.1649L77.8159 180.459Z" fill="#69A1AC"/>
<path fill-rule="evenodd" clip-rule="evenodd" d="M25.5475 155.272L42.6995 175.574C60.7654 155.843 71.2978 142.968 74.2968 136.95C77.2958 130.932 79.9918 114.63 82.3847 88.0429H56.0176C54.7104 111.433 53.8293 123.672 53.3743 124.76C52.9192 125.849 43.6436 136.019 25.5475 155.272Z" fill="#89C5CC"/>
<path fill-rule="evenodd" clip-rule="evenodd" d="M102.027 82.9286L114.461 94.9804C118.079 96.5137 121.043 98.2067 123.354 100.059C123.874 100.682 124.439 101.876 121.994 101.342C119.549 100.808 116.953 100.355 116.494 101.145C116.034 101.935 117.388 103.146 116.539 104.18C115.973 104.869 114.069 102.677 110.827 97.6024L97.897 90.0284L102.027 82.9286ZM41.2243 72.0213L50.8358 72.0571C43.5153 95.6216 39.6294 107.96 39.178 109.071C38.1623 111.572 40.3116 115.381 41.2308 117.428C38.2372 118.758 38.5562 113.83 34.7799 115.575C31.3331 117.168 28.7111 120.055 24.7288 117.614C24.2392 117.314 23.7027 116.184 24.999 115.3C28.2286 113.1 32.8826 109.249 33.5114 107.982C34.3689 106.253 36.9399 94.2666 41.2243 72.0213Z" fill="#B28B67"/>
<path fill-rule="evenodd" clip-rule="evenodd" d="M70.5122 44.9314L74.3078 44.2846C80.2868 65.2839 111.007 79.5979 112.893 87.448C113.585 90.3268 111.499 91.7821 112.577 92.6589L107.643 96.2471C106.808 95.2787 105.025 97.0502 101.302 95.811C97.5787 94.5718 70.5122 69.7964 70.5122 44.9314Z" fill="#DB2721"/>
<path fill-rule="evenodd" clip-rule="evenodd" d="M76.8968 47.7232C76.4592 75.5247 92.6349 82.6164 89.0318 93.7693C86.0565 102.979 57.5779 112.88 52.6498 103.852C50.655 100.197 49.75 95.7778 49.6473 90.9727C48.3878 94.6643 47.3916 97.8423 46.6589 100.507C45.3948 105.103 40.4941 105.834 40.4941 107.605L34.0376 105.834C34.4755 103.428 31.4317 102.257 32.2478 96.8825C35.9045 72.8019 45.7293 55.3466 61.7223 44.5166L61.8914 42.1137C61.9585 41.1821 62.7666 40.4796 63.6985 40.5429L75.6472 41.373C76.5798 41.4363 77.2831 42.2447 77.2183 43.1771C77.2183 43.1776 77.2183 43.1781 77.2167 43.1785L76.8968 47.7232Z" fill="#FF4133"/>
</svg>
